<?xml version="1.0" encoding="UTF-8"?>
<svg width="100px" height="100px" viewBox="0 0 100 100" version="1.1" xmlns="http://www.w3.org/2000/svg" xmlns:xlink="http://www.w3.org/1999/xlink">
    <!-- Generator: Sketch 52.6 (67491) - http://www.bohemiancoding.com/sketch -->
    <title>border-markers-corners</title>
    <desc>Created with Sketch.</desc>
    <g id="border-markers-corners" stroke="none" stroke-width="1" fill="none" fill-rule="evenodd">
        <path d="M19.5,7.5 L80.5,7.5" id="line-right" stroke="#939BA8" stroke-linecap="round" stroke-dasharray="0,3"></path>
        <path d="M19.5,92.5 L80.5,92.5" id="line-right-copy" stroke="#939BA8" stroke-linecap="round" stroke-dasharray="0,3"></path>
        <path d="M93,7 L99.5,7 C99.7761424,7 100,7.22385763 100,7.5 C100,7.77614237 99.7761424,8 99.5,8 L93,8 L93,14.5 C93,14.7761424 92.7761424,15 92.5,15 C92.2238576,15 92,14.7761424 92,14.5 L92,8 L85.5,8 C85.2238576,8 85,7.77614237 85,7.5 C85,7.22385763 85.2238576,7 85.5,7 L92,7 L92,0.5 C92,0.223857625 92.2238576,5.07265313e-17 92.5,0 C92.7761424,-5.07265313e-17 93,0.223857625 93,0.5 L93,7 Z" id="marker-right" fill="#939BA8"></path>
        <path d="M8,7 L14.5,7 C14.7761424,7 15,7.22385763 15,7.5 C15,7.77614237 14.7761424,8 14.5,8 L8,8 L8,14.5 C8,14.7761424 7.77614237,15 7.5,15 C7.22385763,15 7,14.7761424 7,14.5 L7,8 L0.5,8 C0.223857625,8 6.44338575e-17,7.77614237 3.061617e-17,7.5 C-3.20151758e-18,7.22385763 0.223857625,7 0.5,7 L7,7 L7,0.5 C7,0.223857625 7.22385763,5.07265313e-17 7.5,0 C7.77614237,-5.07265313e-17 8,0.223857625 8,0.5 L8,7 Z" id="marker-left" fill="#939BA8"></path>
        <path d="M93,92 L99.5,92 C99.7761424,92 100,92.2238576 100,92.5 C100,92.7761424 99.7761424,93 99.5,93 L93,93 L93,99.5 C93,99.7761424 92.7761424,100 92.5,100 C92.2238576,100 92,99.7761424 92,99.5 L92,93 L85.5,93 C85.2238576,93 85,92.7761424 85,92.5 C85,92.2238576 85.2238576,92 85.5,92 L92,92 L92,85.5 C92,85.2238576 92.2238576,85 92.5,85 C92.7761424,85 93,85.2238576 93,85.5 L93,92 Z" id="marker-right-copy" fill="#939BA8"></path>
        <path d="M8,92 L14.5,92 C14.7761424,92 15,92.2238576 15,92.5 C15,92.7761424 14.7761424,93 14.5,93 L8,93 L8,99.5 C8,99.7761424 7.77614237,100 7.5,100 C7.22385763,100 7,99.7761424 7,99.5 L7,93 L0.5,93 C0.223857625,93 6.44338575e-17,92.7761424 3.061617e-17,92.5 C-3.20151758e-18,92.2238576 0.223857625,92 0.5,92 L7,92 L7,85.5 C7,85.2238576 7.22385763,85 7.5,85 C7.77614237,85 8,85.2238576 8,85.5 L8,92 Z" id="marker-left-copy" fill="#939BA8"></path>
    </g>
</svg>