<?xml version="1.0" encoding="UTF-8"?>
<svg width="100px" height="100px" viewBox="0 0 100 100" version="1.1" xmlns="http://www.w3.org/2000/svg" xmlns:xlink="http://www.w3.org/1999/xlink">
    <!-- Generator: Sketch 52.6 (67491) - http://www.bohemiancoding.com/sketch -->
    <title>border-markers-top-left</title>
    <desc>Created with Sketch.</desc>
    <g id="border-markers-top-left" stroke="none" stroke-width="1" fill="none" fill-rule="evenodd">
        <path d="M19.5,7.5 L100.248118,7.5" id="line-right" stroke="#939BA8" stroke-linecap="round" stroke-dasharray="0,3"></path>
        <path d="M8,7 L14.5,7 C14.7761424,7 15,7.22385763 15,7.5 C15,7.77614237 14.7761424,8 14.5,8 L8,8 L8,14.5 C8,14.7761424 7.77614237,15 7.5,15 C7.22385763,15 7,14.7761424 7,14.5 L7,8 L0.5,8 C0.223857625,8 6.44338575e-17,7.77614237 3.061617e-17,7.5 C-3.20151758e-18,7.22385763 0.223857625,7 0.5,7 L7,7 L7,0.5 C7,0.223857625 7.22385763,5.07265313e-17 7.5,0 C7.77614237,-5.07265313e-17 8,0.223857625 8,0.5 L8,7 Z" id="marker-left" fill="#939BA8"></path>
    </g>
</svg>