<?xml version="1.0" encoding="UTF-8"?>
<svg width="200px" height="100px" viewBox="0 0 200 100" version="1.1" xmlns="http://www.w3.org/2000/svg" xmlns:xlink="http://www.w3.org/1999/xlink">
    <!-- Generator: Sketch 52.6 (67491) - http://www.bohemiancoding.com/sketch -->
    <title>border-markers-medium-bottom</title>
    <desc>Created with Sketch.</desc>
    <g id="border-markers-medium-bottom" stroke="none" stroke-width="1" fill="none" fill-rule="evenodd">
        <path d="M178,92.5 L199.5,92.5" id="line-right" stroke="#939BA8" stroke-linecap="round" stroke-dasharray="0,3"></path>
        <path d="M46,92.5 L154.5,92.5" id="line-middle" stroke="#939BA8" stroke-linecap="round" stroke-dasharray="0,3"></path>
        <path d="M167,92 L173.5,92 C173.776142,92 174,92.2238576 174,92.5 C174,92.7761424 173.776142,93 173.5,93 L167,93 L167,99.5 C167,99.7761424 166.776142,100 166.5,100 C166.223858,100 166,99.7761424 166,99.5 L166,93 L159.5,93 C159.223858,93 159,92.7761424 159,92.5 C159,92.2238576 159.223858,92 159.5,92 L166,92 L166,85.5 C166,85.2238576 166.223858,85 166.5,85 C166.776142,85 167,85.2238576 167,85.5 L167,92 Z" id="marker-right" fill="#939BA8"></path>
        <path d="M34,92 L40.5,92 C40.7761424,92 41,92.2238576 41,92.5 C41,92.7761424 40.7761424,93 40.5,93 L34,93 L34,99.5 C34,99.7761424 33.7761424,100 33.5,100 C33.2238576,100 33,99.7761424 33,99.5 L33,93 L26.5,93 C26.2238576,93 26,92.7761424 26,92.5 C26,92.2238576 26.2238576,92 26.5,92 L33,92 L33,85.5 C33,85.2238576 33.2238576,85 33.5,85 C33.7761424,85 34,85.2238576 34,85.5 L34,92 Z" id="marker-left" fill="#939BA8"></path>
        <path d="M0,92.5 L21.5,92.5" id="line-left" stroke="#939BA8" stroke-linecap="round" stroke-dasharray="0,3"></path>
    </g>
</svg>