<?xml version="1.0" encoding="UTF-8"?>
<svg width="200px" height="100px" viewBox="0 0 200 100" version="1.1" xmlns="http://www.w3.org/2000/svg" xmlns:xlink="http://www.w3.org/1999/xlink">
    <!-- Generator: Sketch 52.5 (67469) - http://www.bohemiancoding.com/sketch -->
    <title>border-markers-wide-top</title>
    <desc>Created with Sketch.</desc>
    <g id="border-markers-wide-top" stroke="none" stroke-width="1" fill="none" fill-rule="evenodd">
        <path d="M172.5,7.5 L200,7.5" id="line-right" stroke="#939BA8" stroke-linecap="round" stroke-dasharray="0,3"></path>
        <path d="M0.5,7.5 L28,7.5" id="line-left" stroke="#939BA8" stroke-linecap="round" stroke-dasharray="0,3"></path>
        <path d="M53,7.5 L147,7.5" id="line-middle" stroke="#939BA8" stroke-linecap="round" stroke-dasharray="0,3"></path>
        <path d="M160,7 L166.5,7 C166.776142,7 167,7.22385763 167,7.5 C167,7.77614237 166.776142,8 166.5,8 L160,8 L160,14.5 C160,14.7761424 159.776142,15 159.5,15 C159.223858,15 159,14.7761424 159,14.5 L159,8 L152.5,8 C152.223858,8 152,7.77614237 152,7.5 C152,7.22385763 152.223858,7 152.5,7 L159,7 L159,0.5 C159,0.223857625 159.223858,5.07265313e-17 159.5,0 C159.776142,-5.07265313e-17 160,0.223857625 160,0.5 L160,7 Z" id="marker-right" fill="#939BA8"></path>
        <path d="M41,7 L47.5,7 C47.7761424,7 48,7.22385763 48,7.5 C48,7.77614237 47.7761424,8 47.5,8 L41,8 L41,14.5 C41,14.7761424 40.7761424,15 40.5,15 C40.2238576,15 40,14.7761424 40,14.5 L40,8 L33.5,8 C33.2238576,8 33,7.77614237 33,7.5 C33,7.22385763 33.2238576,7 33.5,7 L40,7 L40,0.5 C40,0.223857625 40.2238576,5.07265313e-17 40.5,0 C40.7761424,-5.07265313e-17 41,0.223857625 41,0.5 L41,7 Z" id="marker-left" fill="#939BA8"></path>
    </g>
</svg>