<?xml version="1.0" encoding="UTF-8"?>
<svg width="200px" height="100px" viewBox="0 0 200 100" version="1.1" xmlns="http://www.w3.org/2000/svg" xmlns:xlink="http://www.w3.org/1999/xlink">
    <!-- Generator: Sketch 52.6 (67491) - http://www.bohemiancoding.com/sketch -->
    <title>border-markers-narrow-bottom</title>
    <desc>Created with Sketch.</desc>
    <g id="border-markers-narrow-bottom" stroke="none" stroke-width="1" fill="none" fill-rule="evenodd">
        <path d="M188.758443,92.5 L199.5,92.5" id="line-right" stroke="#939BA8" stroke-linecap="round" stroke-dasharray="0,3"></path>
        <path d="M1.7584434,92.5 L12.5,92.5" id="line-right-copy" stroke="#939BA8" stroke-linecap="round" stroke-dasharray="0,3"></path>
        <path d="M36.7345242,92.5 L165.156188,92.5" id="line-middle" stroke="#939BA8" stroke-linecap="round" stroke-dasharray="0,3"></path>
        <path d="M178,92 L184.5,92 C184.776142,92 185,92.2238576 185,92.5 C185,92.7761424 184.776142,93 184.5,93 L178,93 L178,99.5 C178,99.7761424 177.776142,100 177.5,100 C177.223858,100 177,99.7761424 177,99.5 L177,93 L170.5,93 C170.223858,93 170,92.7761424 170,92.5 C170,92.2238576 170.223858,92 170.5,92 L177,92 L177,85.5 C177,85.2238576 177.223858,85 177.5,85 C177.776142,85 178,85.2238576 178,85.5 L178,92 Z" id="marker-right" fill="#939BA8"></path>
        <path d="M24,92 L30.5,92 C30.7761424,92 31,92.2238576 31,92.5 C31,92.7761424 30.7761424,93 30.5,93 L24,93 L24,99.5 C24,99.7761424 23.7761424,100 23.5,100 C23.2238576,100 23,99.7761424 23,99.5 L23,93 L16.5,93 C16.2238576,93 16,92.7761424 16,92.5 C16,92.2238576 16.2238576,92 16.5,92 L23,92 L23,85.5 C23,85.2238576 23.2238576,85 23.5,85 C23.7761424,85 24,85.2238576 24,85.5 L24,92 Z" id="marker-left" fill="#939BA8"></path>
    </g>
</svg>