<?xml version="1.0" encoding="UTF-8"?>
<svg width="200px" height="100px" viewBox="0 0 200 100" version="1.1" xmlns="http://www.w3.org/2000/svg" xmlns:xlink="http://www.w3.org/1999/xlink">
    <!-- Generator: Sketch 52.6 (67491) - http://www.bohemiancoding.com/sketch -->
    <title>border-markers-wide-top</title>
    <desc>Created with Sketch.</desc>
    <g id="border-markers-wide-top" stroke="none" stroke-width="1" fill="none" fill-rule="evenodd">
        <path d="M72.5,7.5 L128.4406,7.5" id="line-middle" stroke="#939BA8" stroke-linecap="round" stroke-dasharray="0,3"></path>
        <path d="M140,7 L146.5,7 C146.776142,7 147,7.22385763 147,7.5 C147,7.77614237 146.776142,8 146.5,8 L140,8 L140,14.5 C140,14.7761424 139.776142,15 139.5,15 C139.223858,15 139,14.7761424 139,14.5 L139,8 L132.5,8 C132.223858,8 132,7.77614237 132,7.5 C132,7.22385763 132.223858,7 132.5,7 L139,7 L139,0.5 C139,0.223857625 139.223858,5.07265313e-17 139.5,0 C139.776142,-5.07265313e-17 140,0.223857625 140,0.5 L140,7 Z" id="marker-right" fill="#939BA8"></path>
        <path d="M60,7 L66.5,7 C66.7761424,7 67,7.22385763 67,7.5 C67,7.77614237 66.7761424,8 66.5,8 L60,8 L60,14.5 C60,14.7761424 59.7761424,15 59.5,15 C59.2238576,15 59,14.7761424 59,14.5 L59,8 L52.5,8 C52.2238576,8 52,7.77614237 52,7.5 C52,7.22385763 52.2238576,7 52.5,7 L59,7 L59,0.5 C59,0.223857625 59.2238576,5.07265313e-17 59.5,0 C59.7761424,-5.07265313e-17 60,0.223857625 60,0.5 L60,7 Z" id="marker-left" fill="#939BA8"></path>
        <path d="M0,7.5 L48.5,7.5" id="line-left" stroke="#939BA8" stroke-linecap="round" stroke-dasharray="0,3"></path>
        <path d="M151,7.5 L199.5,7.5" id="line-left-copy" stroke="#939BA8" stroke-linecap="round" stroke-dasharray="0,3"></path>
    </g>
</svg>