<?xml version="1.0" standalone="no"?>
<!DOCTYPE svg PUBLIC "-//W3C//DTD SVG 1.1//EN" "http://www.w3.org/Graphics/SVG/1.1/DTD/svg11.dtd" >
<svg xmlns="http://www.w3.org/2000/svg">
<metadata></metadata>
<defs>
<font id="aspirademi" horiz-adv-x="2213" >
<font-face units-per-em="3333" ascent="2591" descent="-742" />
<missing-glyph horiz-adv-x="825" />
<glyph unicode="&#xfb03;" horiz-adv-x="3102" d="M63 1309v321h290v226q0 276 151 422.5t430 146.5q130 0 305 -40l-44 -304q-130 23 -200 23q-150 0 -206.5 -75.5t-56.5 -241.5v-157h321v-321h-321v-1309h-379v1309h-290zM1460 1309h-290v321h290v226q0 276 151 422.5t430 146.5q108 0 257 -29l-44 -307q-92 15 -152 15 q-150 0 -206.5 -75.5t-56.5 -241.5v-157h415v-321h-415v-1309h-379v1309zM2461 2152q0 98 69.5 167t167.5 69t167 -69t69 -167t-69 -167.5t-167 -69.5t-167.5 69.5t-69.5 167.5zM2508 1630h378v-1630h-378v1630z" />
<glyph unicode="&#xfb04;" horiz-adv-x="3125" d="M63 1309v321h291v226q0 276 150.5 422.5t430.5 146.5q129 0 305 -40l-45 -304q-130 23 -200 23q-150 0 -206.5 -75.5t-56.5 -241.5v-157h321v-321h-321v-1309h-378v1309h-291zM1461 1309h-291v321h291v226q0 276 150.5 422.5t430.5 146.5q108 0 257 -29l-45 -307 q-90 15 -152 15q-150 0 -206.5 -75.5t-56.5 -241.5v-157h415v-321h-415v-1309h-378v1309zM2878 2425v-1918q0 -100 24.5 -153t94.5 -88l-50 -299q-88 0 -167 24.5t-142 72t-100 125t-37 174.5v1992z" />
<glyph horiz-adv-x="3333" />
<glyph horiz-adv-x="3333" />
<glyph unicode="&#xd;" horiz-adv-x="3333" />
<glyph unicode=" "  horiz-adv-x="825" />
<glyph unicode="&#x09;" horiz-adv-x="825" />
<glyph unicode="&#xa0;" horiz-adv-x="825" />
<glyph unicode="!" horiz-adv-x="959" d="M480 -33q-101 0 -172.5 71t-71.5 173q0 101 71.5 172.5t172.5 71.5t172.5 -71.5t71.5 -172.5q0 -102 -71.5 -173t-172.5 -71zM318 710l-45 1608h413l-44 -1608h-324z" />
<glyph unicode="&#x22;" horiz-adv-x="1308" d="M1149 2222q0 -59 -96 -600q-5 -31 -8 -49t-8.5 -47t-9.5 -54h-167q-79 456 -99.5 583t-20.5 169q0 87 60 144t144 57q81 0 143 -53.5t62 -149.5zM446 1472h-167q-9 54 -26 150q-61 354 -78 459t-17 143q0 87 60 144t144 57q81 0 143 -53.5t62 -149.5q0 -58 -91 -577 q-19 -110 -30 -173z" />
<glyph unicode="#" horiz-adv-x="1906" d="M1350 673l-96 -673h-269l97 673h-375l-96 -673h-269l97 673h-320v263h358l64 449h-335v263h373l97 670h268l-96 -670h374l97 670h268l-96 -670h292v-263h-330l-65 -449h303v-263h-341zM810 1385l-65 -449h375l64 449h-374z" />
<glyph unicode="$" horiz-adv-x="1859" d="M1699 2028l-173 -268q-121 89 -274.5 137t-291.5 48q-179 0 -291.5 -82t-112.5 -222q0 -64 29.5 -115.5t62.5 -82t114 -63.5t123 -46t152 -42q94 -26 143 -40t135 -46t134 -61.5t110.5 -79.5t94.5 -107t55.5 -137.5t23.5 -176.5q0 -150 -52 -271.5t-144 -202.5t-212 -130 t-263 -65v-313h-299v315q-353 44 -653 284l174 274q295 -224 631 -224q208 0 319.5 83t111.5 222q0 152 -152 240q-87 50 -297 110q-226 65 -312 99q-241 96 -336 256q-73 123 -73 294q0 270 166.5 442.5t441.5 212.5v317h296v-313q171 -19 331.5 -83t287.5 -163z" />
<glyph unicode="%" horiz-adv-x="2796" d="M632 962q-247 0 -383.5 177t-136.5 505q0 329 137.5 510t383.5 181q245 0 381 -180t136 -509t-135.5 -506.5t-382.5 -177.5zM632 1212q111 0 169.5 112t58.5 324q0 210 -58.5 322t-169.5 112t-170 -111.5t-59 -322.5q0 -212 59 -324t170 -112zM2165 -16 q-246 0 -382.5 177t-136.5 505q0 329 137.5 510t383.5 181q245 0 381 -180t136 -509t-135.5 -506.5t-383.5 -177.5zM2166 234q111 0 169.5 112t58.5 324q0 210 -58.5 322t-169.5 112t-170 -111.5t-59 -322.5q0 -212 59 -324t170 -112zM562 -66l1381 2450h292l-1382 -2450 h-291z" />
<glyph unicode="&#x26;" horiz-adv-x="2185" d="M1754 0l-212 240q-322 -273 -661 -273q-146 0 -274.5 52.5t-218.5 142t-142 213.5t-52 264q0 90 23 173t60 147.5t93.5 127.5t112 110t127.5 98q-102 123 -162 260.5t-60 265.5q0 106 42 203t115 169t176.5 115t220.5 43q155 0 279.5 -73t193 -197t68.5 -274 q0 -94 -28 -176.5t-81.5 -151t-112 -121.5t-139.5 -111l439 -490q146 198 213 381l311 -124q-96 -262 -293 -513l449 -501h-487zM720 1831q0 -80 49 -162t133 -176q121 85 185.5 164t64.5 173t-59 155.5t-151 61.5t-157 -61.5t-65 -154.5zM1318 492l-489 554 q-131 -95 -202 -192t-71 -219q0 -145 96 -236t244 -91q204 0 422 184z" />
<glyph unicode="'" horiz-adv-x="726" d="M446 1472h-167q-9 54 -26 150q-61 354 -78 459t-17 143q0 87 60 144t144 57q81 0 143 -53.5t62 -149.5q0 -58 -91 -577q-19 -110 -30 -173z" />
<glyph unicode="(" horiz-adv-x="981" d="M685 2422l212 -176q-93 -92 -164 -220.5t-112.5 -260t-67 -286t-34.5 -284.5t-9 -269t9 -269t34.5 -284.5t67 -286t112.5 -259.5t164 -220l-212 -175q-126 109 -222.5 246t-157.5 280.5t-99.5 309.5t-53.5 324t-15 334q0 177 15 335t53.5 324.5t99.5 309.5t157.5 280.5 t222.5 246.5z" />
<glyph unicode=")" horiz-adv-x="982" d="M296 -568l-212 175q94 92 165 220t112.5 259.5t67 286t34.5 284.5t9 269t-9 269t-34.5 284.5t-67 286t-112.5 260t-165 220.5l212 176q127 -109 223.5 -246.5t157.5 -280.5t99.5 -309.5t53.5 -324.5t15 -335q0 -176 -15 -334t-53.5 -324t-99.5 -309.5t-157.5 -280.5 t-223.5 -246z" />
<glyph unicode="*" horiz-adv-x="1564" d="M998 2376l213 -122l-218 -378h436v-241h-437l218 -380l-212 -117l-216 372l-215 -373l-215 120l218 378h-435v241h435l-219 378l216 122l215 -375z" />
<glyph unicode="+" horiz-adv-x="1870" d="M770 153v663h-655v319h655v659h326v-659h659v-319h-659v-663h-326z" />
<glyph unicode="," horiz-adv-x="828" d="M69 -372q39 21 63 35t60 40.5t57 50.5t36.5 59t15.5 72q0 36 -14 69.5t-34 60t-40.5 54.5t-34.5 65t-14 79q0 98 67.5 170t174.5 72q121 0 187 -94t66 -231q0 -141 -69 -281.5t-188.5 -246.5t-261.5 -148z" />
<glyph unicode="-" horiz-adv-x="1268" d="M198 730v301h872v-301h-872z" />
<glyph unicode="." horiz-adv-x="814" d="M407 -33q-101 0 -172.5 71t-71.5 173q0 101 71.5 172.5t172.5 71.5t172.5 -71.5t71.5 -172.5q0 -102 -71.5 -173t-172.5 -71z" />
<glyph unicode="/" horiz-adv-x="1451" d="M97 -267l940 2666h322l-940 -2666h-322z" />
<glyph unicode="0" horiz-adv-x="2034" d="M1016 -33q-406 0 -631 298.5t-225 851.5q0 556 226.5 860.5t632.5 304.5q405 0 629.5 -303t224.5 -858q0 -554 -224.5 -854t-632.5 -300zM1018 307q226 0 346 210t120 606q0 395 -120 605.5t-347 210.5q-226 0 -346.5 -209.5t-120.5 -604.5q0 -397 120.5 -607.5 t347.5 -210.5z" />
<glyph unicode="1" horiz-adv-x="1599" d="M1508 339v-339h-1319v339h489v1308h-479v294q130 0 250 33t213 107.5t114 178.5h282v-1921h450z" />
<glyph unicode="2" horiz-adv-x="1790" d="M1636 339v-339h-1505v263q41 105 105 203t136.5 175.5t155.5 150.5t164.5 136.5t160 125.5t145 124t117 125.5t79.5 137t29 151.5q0 157 -105.5 252t-281.5 95q-142 0 -269.5 -63t-211.5 -166l-227 212q113 164 302.5 262t422.5 98q157 0 293.5 -47t237.5 -133.5 t159 -216t58 -285.5q0 -135 -44.5 -255.5t-119.5 -213t-166 -175t-190 -157t-187 -144.5t-161 -152t-107 -164h1010z" />
<glyph unicode="3" horiz-adv-x="1787" d="M88 284l216 234q103 -96 234 -153.5t266 -57.5q85 0 164.5 24t143.5 68t103 114.5t39 156.5q0 139 -95.5 228t-245.5 119q-90 19 -350 22v299q227 0 349 29q115 27 184.5 95.5t69.5 184.5q0 97 -52 164t-135 97t-190 30q-122 0 -224 -40t-208 -120l-187 249 q118 114 287 184.5t371 70.5q152 0 285 -42.5t231 -119t154.5 -190.5t56.5 -250q0 -172 -86.5 -292.5t-241.5 -187.5q182 -59 295.5 -204.5t113.5 -353.5q0 -127 -45.5 -237.5t-124 -189.5t-182.5 -135.5t-222 -84.5t-241 -28q-207 0 -397.5 80.5t-335.5 236.5z" />
<glyph unicode="4" horiz-adv-x="1919" d="M1481 0h-364v486h-1051v262l1106 1512h313v-1461h327v-313h-331v-486zM464 799h653v878z" />
<glyph unicode="5" horiz-adv-x="1809" d="M1569 1922h-877l-92 -535q151 74 327 74q109 0 214 -27t201.5 -85t169.5 -140.5t116.5 -203t43.5 -262.5q0 -175 -65.5 -322.5t-178.5 -246t-264.5 -153t-323.5 -54.5q-228 0 -420 89.5t-318 233.5l202 241q106 -107 239 -166t276 -59q214 0 344 124.5t130 310.5 t-131 295.5t-327 109.5q-195 0 -404 -129l-223 174l180 1058h1181v-327z" />
<glyph unicode="6" horiz-adv-x="1848" d="M1034 1447q141 0 269.5 -51.5t225.5 -144t155 -230.5t58 -301q0 -218 -99.5 -389.5t-281.5 -267.5t-416 -96q-164 0 -296.5 50t-224 138.5t-153 213.5t-89.5 272t-28 317q0 219 46 417t138.5 363.5t222 287t305.5 189t380 67.5q135 0 241 -35l-48 -314q-79 13 -162 13 q-142 0 -269.5 -52.5t-223.5 -145.5t-161 -224t-85 -284l2 -1q90 101 220 154.5t274 53.5zM1377 717q0 181 -116 290.5t-299 109.5q-187 0 -307.5 -113t-120.5 -292q0 -178 118.5 -294.5t304.5 -116.5q183 0 301.5 115.5t118.5 300.5z" />
<glyph unicode="7" horiz-adv-x="1689" d="M1643 2249v-286q-350 -469 -575 -945t-333 -1018h-403q99 525 302.5 993.5t535.5 920.5h-1080v335h1553z" />
<glyph unicode="8" horiz-adv-x="1874" d="M938 2282q145 0 270.5 -47t213 -128t137.5 -191.5t50 -235.5q0 -144 -62.5 -257.5t-162.5 -179.5q154 -80 250.5 -226.5t96.5 -339.5q0 -198 -103 -360.5t-285.5 -256t-405.5 -93.5q-168 0 -316.5 55.5t-253 150t-164.5 224.5t-60 275q0 193 97.5 341t249.5 230 q-100 69 -162.5 181.5t-62.5 255.5q0 124 50 235t137.5 192t213.5 128t272 47zM940 295q180 0 298.5 108.5t118.5 273.5q0 164 -117 274.5t-303 110.5q-187 0 -304.5 -111.5t-117.5 -276.5q0 -113 59 -201t155.5 -133t210.5 -45zM936 1373q135 0 224.5 85t89.5 207 t-89.5 203.5t-223.5 81.5t-221 -81.5t-87 -206.5q0 -127 88 -208t219 -81z" />
<glyph unicode="9" horiz-adv-x="1850" d="M361 2l48 314q79 -13 163 -13q286 0 491.5 197.5t246.5 508.5l-2 1q-90 -101 -219.5 -154.5t-274.5 -53.5q-141 0 -269 51.5t-225.5 144t-155 230.5t-57.5 301q0 218 99.5 389.5t281 267.5t415.5 96q164 0 296.5 -50t224 -138.5t153 -213.5t90 -272t28.5 -317 q0 -274 -74 -514t-210.5 -420.5t-345 -285t-462.5 -104.5q-134 0 -242 35zM472 1532q0 -181 116 -290.5t298 -109.5q188 0 308 113t120 292q0 178 -118.5 294.5t-303.5 116.5q-183 0 -301.5 -115.5t-118.5 -300.5z" />
<glyph unicode=":" horiz-adv-x="876" d="M437 -33q-101 0 -172 71t-71 173q0 101 71 172.5t172 71.5t173 -71.5t72 -172.5q0 -102 -71.5 -173t-173.5 -71zM437 1111q-101 0 -172 71t-71 172t71 172.5t172 71.5t173 -71.5t72 -172.5t-72 -172t-173 -71z" />
<glyph unicode=";" horiz-adv-x="916" d="M120 -372q39 21 63 35t60 40.5t57 50.5t36.5 59t15.5 72q0 36 -14 69.5t-34 60t-40.5 54.5t-34.5 65t-14 79q0 98 67.5 170t174.5 72q121 0 187 -94t66 -231q0 -141 -68.5 -281t-188.5 -246.5t-262 -148.5zM215 1354q0 101 71 172.5t173 71.5q101 0 172.5 -71.5 t71.5 -172.5t-71.5 -172t-172.5 -71q-102 0 -173 71t-71 172z" />
<glyph unicode="&#x3c;" horiz-adv-x="1993" d="M112 1119l1658 720v-337l-1223 -528l1223 -529v-337l-1658 720v291z" />
<glyph unicode="=" horiz-adv-x="2057" d="M209 463v318h1640v-318h-1640zM209 1166v319h1640v-319h-1640z" />
<glyph unicode="&#x3e;" horiz-adv-x="1992" d="M1445 974l-1222 528v337l1657 -720v-291l-1657 -720v337z" />
<glyph unicode="?" horiz-adv-x="1692" d="M937 710h-335q0 117 19.5 213t53 162t76.5 119t90.5 90t95 70t90.5 64.5t76.5 67t53 84.5t19.5 110q0 145 -101 226t-272 81q-146 0 -268.5 -59.5t-207.5 -165.5l-230 213q109 167 296.5 266.5t424.5 99.5q152 0 285.5 -43t237.5 -124.5t164.5 -210t60.5 -287.5 q0 -94 -21.5 -172.5t-58 -134t-83.5 -102.5t-99 -84.5t-104.5 -73.5t-99.5 -76t-83.5 -85.5t-58 -108.5t-21.5 -139zM526 211q0 101 71.5 172.5t172.5 71.5t172.5 -71.5t71.5 -172.5q0 -102 -71.5 -173t-172.5 -71t-172.5 71t-71.5 173z" />
<glyph unicode="@" horiz-adv-x="2771" d="M2011 370q91 0 160.5 82t105 217t35.5 301q0 248 -104.5 447.5t-306 317.5t-466.5 118q-219 0 -407 -84.5t-318 -231t-203.5 -348t-73.5 -431.5q0 -290 113 -514t328 -351t502 -127q240 0 448 83l59 -237q-242 -95 -528 -95q-272 0 -500 91.5t-385 253t-244.5 389 t-87.5 493.5q0 182 41 354.5t118 324.5t192 279t256.5 218t318.5 142t373 51q253 0 471 -84.5t371.5 -232t240.5 -355t87 -447.5q0 -175 -47 -334t-132 -280t-212 -192.5t-278 -71.5q-140 0 -231 67t-114 207q-170 -282 -433 -282q-103 0 -184.5 43t-132.5 117.5t-77.5 171 t-26.5 207.5q0 127 34 247.5t101.5 223.5t161.5 180.5t222 122t274 44.5q108 0 229.5 -24.5t212.5 -59.5q-59 -354 -82.5 -521.5t-23.5 -263.5q0 -226 143 -226zM1070 662q0 -119 44 -196t129 -77q76 0 143 63.5t112.5 160.5t75.5 221q39 155 50 356q-56 14 -114 14 q-121 0 -223 -76.5t-159.5 -201t-57.5 -264.5z" />
<glyph unicode="A" d="M1758 0l-203 582h-915l-200 -582h-404l842 2318h452l853 -2318h-425zM750 911h694l-349 997z" />
<glyph unicode="B" horiz-adv-x="2074" d="M281 2318h789q333 0 530 -160t197 -441q0 -172 -76 -296.5t-211 -193.5q193 -51 315.5 -202t122.5 -370q0 -189 -94 -338.5t-264 -233t-387 -83.5h-922v2318zM1112 1028h-445v-686h475q181 0 295 87t114 255q0 170 -119 257t-320 87zM1018 1978h-351v-625h372 q102 0 184 34.5t133.5 109t51.5 179.5q0 154 -106.5 228t-283.5 74z" />
<glyph unicode="C" horiz-adv-x="2169" d="M1922 511l178 -280q-155 -126 -371.5 -195t-434.5 -69q-246 0 -462 91t-369 248t-241 376t-88 467q0 202 57.5 387t164.5 332t251 256t324 168t377 59q215 0 422.5 -70t366.5 -198l-175 -273q-123 93 -278.5 143.5t-308.5 50.5q-171 0 -320.5 -65t-255.5 -178 t-166.5 -269.5t-60.5 -334.5q0 -176 59.5 -330.5t163.5 -266.5t252.5 -176.5t319.5 -64.5q158 0 318.5 52t276.5 140z" />
<glyph unicode="D" horiz-adv-x="2344" d="M1084 0h-803v2318h806q213 0 394 -58t312.5 -163t224.5 -249.5t138.5 -319t45.5 -369.5q0 -198 -47 -374t-141 -319.5t-227 -247.5t-312.5 -161t-390.5 -57zM673 344h354q390 0 585.5 201t195.5 612q0 817 -771 817h-364v-1630z" />
<glyph unicode="E" horiz-adv-x="1900" d="M281 0v2318h1459v-343h-1068v-636h929v-341h-929v-655h1095v-343h-1486z" />
<glyph unicode="F" horiz-adv-x="1855" d="M672 951v-951h-391v2318h1469v-343h-1078v-683h900v-341h-900z" />
<glyph unicode="G" horiz-adv-x="2428" d="M1939 904h-588v316h996q0 -593 -271.5 -923t-778.5 -330q-214 0 -399.5 59.5t-324.5 167.5t-238.5 254t-150 322.5t-50.5 369.5q0 256 89.5 480.5t244.5 385t372.5 253t465.5 92.5q217 0 425 -69.5t367 -198.5l-176 -273q-118 91 -274 142.5t-313 51.5q-175 0 -326 -67 t-254.5 -181.5t-162 -270.5t-58.5 -332q0 -111 24 -217.5t69 -200t112 -171.5t149.5 -134t186 -87.5t216.5 -31.5q177 0 321.5 72.5t232 208.5t94.5 312z" />
<glyph unicode="H" horiz-adv-x="2406" d="M281 0v2318h394v-978h1055v978h395v-2318h-395v999h-1055v-999h-394z" />
<glyph unicode="I" horiz-adv-x="956" d="M281 0v2318h394v-2318h-394z" />
<glyph unicode="J" horiz-adv-x="1658" d="M1012 751v1567h385v-1630q0 -154 -49.5 -285.5t-140 -228.5t-227.5 -152t-304 -55q-214 0 -383 92.5t-268 288.5l259 191q121 -212 357 -212q169 0 270 107.5t101 316.5z" />
<glyph unicode="K" horiz-adv-x="2075" d="M770 1049h-95v-1049h-394v2318h394v-909h100l782 909h458l-924 -1077l1030 -1241h-481z" />
<glyph unicode="L" horiz-adv-x="1747" d="M281 0v2318h392v-1975h1034v-343h-1426z" />
<glyph unicode="M" horiz-adv-x="3009" d="M331 2318h441l743 -1513l733 1513h430l92 -2318h-401l-62 1698l-664 -1391h-275l-680 1389l-65 -1696h-384z" />
<glyph unicode="N" horiz-adv-x="2430" d="M651 1698l6 -1698h-376v2318h424l1077 -1712l-6 1712h373v-2318h-429z" />
<glyph unicode="O" horiz-adv-x="2638" d="M1319 -33q-167 0 -323 41t-286 116.5t-237.5 183.5t-182 239t-115.5 288t-41 325q0 204 59 388.5t167 329.5t254.5 252t328 164t380.5 57q198 0 379.5 -57t326.5 -164t252.5 -252t165.5 -328.5t58 -386.5q0 -202 -58 -386.5t-165.5 -331t-252.5 -254.5t-327.5 -166 t-382.5 -58zM1319 313q224 0 404 109.5t280.5 302.5t100.5 434q0 181 -59.5 338.5t-163 268.5t-249 174.5t-313.5 63.5q-224 0 -404 -108.5t-281.5 -301.5t-101.5 -435q0 -180 59.5 -337.5t163 -269t250 -175.5t314.5 -64z" />
<glyph unicode="P" horiz-adv-x="2016" d="M668 808v-808h-387v2318h848q189 0 342 -57t252.5 -157.5t152.5 -236t53 -295.5q0 -164 -56 -304t-157.5 -242t-252 -160t-331.5 -58h-464zM668 1150h411q218 0 338.5 111t120.5 306t-121 302t-338 107h-411v-826z" />
<glyph unicode="Q" horiz-adv-x="2638" d="M1943 628q161 224 161 531q0 181 -59.5 338.5t-163 268.5t-249 174.5t-313.5 63.5q-224 0 -404 -108.5t-281.5 -301.5t-101.5 -435q0 -180 59.5 -337.5t163 -269t250 -175.5t314.5 -64q193 0 358 84l-388 430l265 228zM2077 -45l-153 169q-272 -157 -605 -157 q-167 0 -323 41t-286 116.5t-237.5 183.5t-182 239t-115.5 288t-41 325q0 204 59 388.5t167 329.5t254.5 252t328 164t380.5 57q198 0 379.5 -57t326.5 -164t252.5 -252t165.5 -328.5t58 -386.5q0 -238 -79.5 -447.5t-225.5 -370.5l152 -166z" />
<glyph unicode="R" horiz-adv-x="2086" d="M281 0v2318h838q183 0 334 -54t252 -150t156 -228t55 -288q0 -240 -126 -419.5t-348 -257.5l559 -921h-464l-500 870h-369v-870h-387zM668 1213h399q216 0 336 99t120 280q0 186 -123.5 285t-332.5 99h-399v-763z" />
<glyph unicode="S" horiz-adv-x="1899" d="M278 548q302 -230 648 -230q93 0 173 18.5t143.5 55t99.5 98t36 142.5q0 84 -41.5 146t-111.5 100.5t-160.5 68.5t-191 57.5t-201 58.5t-191 79.5t-160.5 113.5t-111.5 168.5t-41.5 236.5q0 132 40 244t112 193.5t171 138.5t217.5 85.5t251.5 28.5q209 0 413.5 -68.5 t362.5 -192.5l-174 -272q-121 88 -279 138.5t-301 50.5q-118 0 -212.5 -34t-154 -107t-59.5 -174q0 -66 28.5 -118.5t68.5 -86t114 -64.5t132 -48.5t155 -42.5q76 -20 115 -30.5t110.5 -34t112 -42t100 -50.5t94 -64.5t75.5 -79.5t62 -99t36 -120t15 -146q0 -172 -65 -307 t-179 -219.5t-263.5 -128.5t-324.5 -44q-465 0 -841 302z" />
<glyph unicode="T" horiz-adv-x="1923" d="M1861 2318v-345h-702v-1973h-395v1973h-702v345h1799z" />
<glyph unicode="U" horiz-adv-x="2329" d="M1688 836v1482h385v-1480q0 -194 -67 -357t-186.5 -276t-288.5 -175.5t-369 -62.5q-267 0 -472.5 107.5t-319 305.5t-113.5 457v1481h392v-1482q0 -233 147 -375.5t378 -142.5q229 0 371.5 140.5t142.5 377.5z" />
<glyph unicode="V" horiz-adv-x="2049" d="M471 2318l562 -1735l564 1735h406l-803 -2318h-353l-800 2318h424z" />
<glyph unicode="W" horiz-adv-x="3171" d="M55 2318h423l499 -1725l438 1418h354l448 -1425l497 1732h406l-739 -2318h-363l-440 1374l-430 -1374h-361z" />
<glyph unicode="X" horiz-adv-x="2138" d="M-1 0l835 1189l-787 1129h471l558 -815l569 815h450l-789 -1111l828 -1207h-467l-605 895l-611 -895h-452z" />
<glyph unicode="Y" horiz-adv-x="2158" d="M2121 2318l-849 -1351v-967h-390v965l-834 1353h457l581 -978l608 978h427z" />
<glyph unicode="Z" horiz-adv-x="1935" d="M1816 341v-341h-1708v281l1189 1700h-1148v337h1650v-286l-1194 -1691h1211z" />
<glyph unicode="[" horiz-adv-x="1073" d="M630 2113v-2368h334v-290h-678v2944h680v-286h-336z" />
<glyph unicode="\" horiz-adv-x="1451" d="M1033 -267l-941 2666h322l940 -2666h-321z" />
<glyph unicode="]" horiz-adv-x="1073" d="M107 2113v286h680v-2944h-678v290h334v2368h-336z" />
<glyph unicode="^" horiz-adv-x="1690" d="M998 2318l565 -1292h-333l-384 878l-387 -878h-332l566 1292h305z" />
<glyph unicode="_" horiz-adv-x="2086" d="M198 -468v167h1690v-167h-1690z" />
<glyph unicode="`" horiz-adv-x="784" d="M394 1873l-415 519h421l303 -519h-309z" />
<glyph unicode="a" horiz-adv-x="1778" d="M1650 240l-45 -272q-107 0 -194 24.5t-146.5 80.5t-66.5 137q-79 -121 -219.5 -182t-302.5 -61q-95 0 -181.5 21t-159.5 63.5t-126.5 102t-83.5 140.5t-30 176q0 243 187 389t521 146q173 0 364 -39v83q0 156 -100 229t-272 73q-120 0 -243.5 -32t-223.5 -87l-115 254 q127 91 298 134t349 43q330 0 505 -144.5t175 -428.5v-614q0 -98 23.5 -150t86.5 -86zM1167 699q-165 35 -323 35q-195 0 -290 -62.5t-95 -178.5q0 -78 41 -130.5t100.5 -74t133.5 -21.5q102 0 200 39.5t165.5 117t67.5 172.5v103z" />
<glyph unicode="b" horiz-adv-x="1980" d="M527 0h-311v2355l379 70v-989q88 114 220.5 170.5t288.5 56.5q141 0 262.5 -43.5t210.5 -121.5t152.5 -184t95 -233t31.5 -266q0 -188 -57.5 -347t-157.5 -268.5t-238.5 -171t-298.5 -61.5q-168 0 -310.5 68t-234.5 198zM1024 298q200 0 326.5 141t126.5 376 q0 231 -123 372.5t-324 141.5q-203 0 -325 -143t-122 -366q0 -103 28 -195.5t81 -166t139 -117t193 -43.5z" />
<glyph unicode="c" horiz-adv-x="1624" d="M1375 416l182 -250q-126 -95 -278 -147t-314 -52q-129 0 -251 33t-229.5 102t-188 166.5t-127.5 235.5t-47 301q0 195 67 358.5t182.5 271.5t269.5 168t329 60q155 0 304.5 -46t260.5 -131l-159 -265q-81 53 -179.5 82.5t-195.5 29.5q-218 0 -359 -143.5t-141 -373.5 t139.5 -374t356.5 -144q98 0 198 31t180 87z" />
<glyph unicode="d" horiz-adv-x="1981" d="M1454 0l-32 233q-92 -130 -234.5 -198t-310.5 -68q-160 0 -299 61.5t-239 171t-157.5 268.5t-57.5 347q0 139 31.5 266t95 233t153 184t211 121.5t262.5 43.5q156 0 288.5 -56.5t220.5 -170.5v919l379 70v-2425h-311zM957 298q107 0 193 43.5t139 117t81 166t28 195.5 q0 223 -122 366t-325 143q-201 0 -324 -141.5t-123 -372.5q0 -235 126.5 -376t326.5 -141z" />
<glyph unicode="e" horiz-adv-x="1808" d="M1601 192q-121 -106 -288.5 -165.5t-351.5 -59.5q-174 0 -325.5 55.5t-266.5 159t-181 264t-66 359.5q0 194 63.5 356.5t173.5 271.5t259.5 169.5t319.5 60.5q174 0 319.5 -63t243.5 -172.5t152 -260t54 -324.5q0 -76 -8 -140h-1197q20 -199 149.5 -313t333.5 -114 q120 0 235.5 40t209.5 111zM507 960h831q-10 109 -57 196t-136 141t-208 54q-172 0 -288 -107t-142 -284z" />
<glyph unicode="f" horiz-adv-x="1186" d="M63 1309v321h290v226q0 276 151 422.5t430 146.5q130 0 306 -40l-45 -304q-130 23 -200 23q-150 0 -206.5 -75.5t-56.5 -241.5v-157h415v-321h-415v-1309h-379v1309h-290z" />
<glyph unicode="g" horiz-adv-x="1977" d="M1762 1630v-1548q0 -189 -62 -341t-173 -252t-265.5 -153.5t-340.5 -53.5q-405 0 -690 247l176 240q101 -76 226 -117.5t256 -41.5q109 0 197.5 30t156 91.5t104.5 163.5t37 238v117q-86 -115 -224.5 -173t-296.5 -58q-219 0 -387.5 105t-259 290t-90.5 419q0 188 60 346 t163.5 263t241 163t292.5 58q166 0 307.5 -66t224.5 -194l31 227h316zM951 346q138 0 239.5 67.5t151 178t49.5 248.5q0 214 -118 352.5t-321 138.5q-204 0 -325.5 -140t-121.5 -357q0 -216 121.5 -352t324.5 -136z" />
<glyph unicode="h" horiz-adv-x="1914" d="M1716 0h-379v939q0 177 -86.5 281.5t-253.5 104.5q-174 0 -288 -108t-114 -280v-937h-379v2355l379 70v-979q85 107 219 162t289 55q293 0 453 -182.5t160 -489.5v-991z" />
<glyph unicode="i" horiz-adv-x="810" d="M406 1915q-98 0 -167.5 69.5t-69.5 167.5t69.5 167t167.5 69t167 -69t69 -167t-69 -167.5t-167 -69.5zM216 0v1630h378v-1630h-378z" />
<glyph unicode="j" horiz-adv-x="811" d="M405 1915q-98 0 -167 69.5t-69 167.5t69.5 167t166.5 69q98 0 167.5 -69t69.5 -167t-69.5 -167.5t-167.5 -69.5zM215 -10v1640h380v-1765q0 -118 -37.5 -216t-100 -165t-146.5 -113.5t-176 -67.5t-188 -21l-46 307q64 15 109 32.5t86 48t65.5 72t39 103.5t14.5 145z" />
<glyph unicode="k" horiz-adv-x="1692" d="M692 719h-98v-719h-378v2355l378 70v-1372h97l490 577h461l-624 -736l681 -894h-459z" />
<glyph unicode="l" horiz-adv-x="832" d="M208 363v1992l377 70v-1918q0 -100 24.5 -152.5t94.5 -88.5l-49 -299q-89 0 -168 24.5t-142 72t-100 125t-37 174.5z" />
<glyph unicode="m" horiz-adv-x="2845" d="M594 0h-379v1630h311l31 -221q77 122 208 188t283 66q157 0 288.5 -69.5t200.5 -200.5q86 134 228.5 202t313.5 68q147 0 256.5 -48.5t177 -138.5t100.5 -211t33 -274v-991h-379v970q0 168 -73 261t-225 94q-172 1 -261.5 -112.5t-89.5 -298.5v-914h-376v970 q0 167 -73 261t-225 94q-169 0 -259.5 -115t-90.5 -296v-914z" />
<glyph unicode="n" horiz-adv-x="1893" d="M1696 0h-378v970q0 165 -88 260t-249 95q-177 0 -281.5 -114t-104.5 -297v-914h-380v1630h311l32 -222q91 125 230 190t306 65q290 0 446 -182t156 -490v-991z" />
<glyph unicode="o" horiz-adv-x="1930" d="M962 -33q-237 0 -428.5 105.5t-302.5 299.5t-111 442q0 186 65 345.5t178 269.5t269 172t334 62q237 0 429 -104.5t303.5 -298t111.5 -441.5q0 -186 -65.5 -346t-179 -270.5t-270 -173t-333.5 -62.5zM962 298q199 0 332.5 147t133.5 372q0 224 -131.5 368t-331.5 144 t-333 -144.5t-133 -369.5q0 -224 132 -370.5t331 -146.5z" />
<glyph unicode="p" horiz-adv-x="1981" d="M526 1630l31 -233q93 130 235 198t310 68q160 0 299 -61.5t239 -171t157.5 -268.5t57.5 -347q0 -175 -51 -328.5t-144.5 -269.5t-237.5 -183t-319 -67q-156 0 -288.5 56.5t-220.5 170.5v-842l-379 -70v2348h311zM1476 815q0 235 -126.5 376t-326.5 141q-107 0 -193 -43.5 t-139 -117t-81 -166t-28 -195.5q0 -223 122 -366t325 -143q201 0 324 142t123 372z" />
<glyph unicode="q" horiz-adv-x="1981" d="M1766 1630v-2278l-379 -70v912q-88 -114 -220.5 -170.5t-288.5 -56.5q-175 0 -319 67t-237.5 183t-144.5 269.5t-51 328.5q0 188 57.5 347t157.5 268.5t238.5 171t298.5 61.5q168 0 310.5 -68t234.5 -198l32 233h311zM952 301q203 0 325 143t122 366q0 103 -28 195.5 t-81 166t-139 117t-193 43.5q-200 0 -326.5 -141t-126.5 -376q0 -231 123 -372.5t324 -141.5z" />
<glyph unicode="r" horiz-adv-x="1233" d="M216 0v1630h311l33 -249l3 -1q70 147 175 215t267 68q108 0 215 -31l-59 -349q-89 27 -175 27q-94 0 -164.5 -32t-113.5 -85t-69.5 -132t-36 -162t-9.5 -186v-713h-377z" />
<glyph unicode="s" horiz-adv-x="1490" d="M262 435q113 -78 221.5 -118.5t229.5 -40.5q79 0 141.5 16.5t106 58.5t43.5 106q0 51 -29 89t-78.5 61t-113.5 41.5t-134.5 36.5t-141 40t-134.5 57.5t-113.5 83t-78.5 123t-29 172.5q0 101 31.5 184t86.5 141.5t132 98.5t166.5 59t190.5 19q328 0 569 -188l-142 -236 q-91 58 -199 90.5t-204 32.5q-71 0 -128 -17.5t-95 -58t-38 -99.5q0 -51 29.5 -88.5t79 -61.5t114 -43.5t135.5 -38.5t142 -42t135.5 -59.5t114 -85t79 -124t29.5 -171.5q0 -126 -50 -224.5t-138.5 -159t-204 -91.5t-253.5 -31q-190 0 -335 58.5t-306 181.5z" />
<glyph unicode="t" horiz-adv-x="1185" d="M51 1309v321h286v501l377 70v-571h398v-321h-398v-652q0 -71 10 -125t33 -92.5t50 -65t71.5 -46t86 -31t103.5 -23.5l-45 -307q-105 0 -201 18.5t-186 62t-155.5 108.5t-104.5 165t-39 224v764h-286z" />
<glyph unicode="u" horiz-adv-x="1880" d="M1664 1630v-1630h-312l-30 216q-174 -249 -522 -249q-295 0 -449 181t-154 494v988h379v-970q0 -167 84 -260t248 -93q180 0 278.5 111t98.5 300v912h379z" />
<glyph unicode="v" horiz-adv-x="1733" d="M463 1630l410 -1226l434 1226h383l-639 -1630h-380l-616 1630h408z" />
<glyph unicode="w" horiz-adv-x="2685" d="M60 1630h411l344 -1187l346 1187h369l352 -1187l366 1187h381l-565 -1630h-372l-352 1189l-350 -1189h-373z" />
<glyph unicode="x" horiz-adv-x="1712" d="M16 0l616 838l-576 792h450l350 -512l361 512h419l-561 -772l634 -858h-451l-407 576l-407 -576h-428z" />
<glyph unicode="y" horiz-adv-x="1780" d="M899 426l459 1204h386l-790 -1946q-85 -209 -227 -305.5t-316 -96.5q-129 0 -270 53l49 302q78 -20 143 -20q109 0 188.5 56t134.5 194l47 117l-648 1646h411z" />
<glyph unicode="z" horiz-adv-x="1639" d="M1509 320v-320h-1394v281l874 1032h-831v317h1345v-270l-887 -1040h893z" />
<glyph unicode="{" horiz-adv-x="1079" d="M97 797v261q62 9 105.5 39t72 80t44.5 134t22.5 186t6.5 251q0 144 25.5 250t71 176.5t120.5 117t162.5 70.5t209.5 37l32 -263q-72 -10 -124 -38t-82 -65.5t-47 -94t-22 -110.5t-5 -129v-173q0 -51 -0.5 -84.5t-3.5 -86.5t-9.5 -90.5t-16.5 -84.5t-27 -81.5t-39.5 -69.5 t-55 -60.5t-72.5 -42.5q59 -28 102 -81t66 -110.5t36 -135t16.5 -137t3.5 -135.5v-172q0 -75 5 -129t22 -111t47 -94t82 -65t124 -38l-32 -263q-122 13 -209.5 36.5t-162.5 70t-120.5 117t-71 177.5t-25.5 251q0 149 -6 251t-22 185.5t-45 133.5t-72 80t-106 40z" />
<glyph unicode="|" horiz-adv-x="878" d="M284 -685v3077h310v-3077h-310z" />
<glyph unicode="}" horiz-adv-x="1079" d="M982 1058v-261q-63 -10 -106.5 -40t-72 -80t-44.5 -133.5t-22.5 -185.5t-6.5 -251q0 -121 -16.5 -214.5t-51.5 -162t-82 -117t-116 -80t-145.5 -49.5t-177.5 -29l-31 263q72 10 124 38t81.5 65t46.5 94t22 111t5 129v172q0 76 3.5 135t16.5 137t36 135.5t66.5 110.5 t102.5 81q-46 19 -82 52t-59 68.5t-39.5 87t-25 93.5t-13 102.5t-5.5 99t-1 97.5v173q0 75 -5 129t-22 110.5t-46.5 94t-81.5 65.5t-124 38l31 263q101 -11 177.5 -29t145.5 -50t116 -80t82 -116.5t51.5 -162t16.5 -213.5q0 -149 6.5 -251t22.5 -186t44.5 -134t72 -80 t106.5 -39z" />
<glyph unicode="~" horiz-adv-x="2065" d="M512 760h-311q27 295 152.5 448.5t328.5 153.5q96 0 182.5 -30t149 -72.5t119 -85t117.5 -72.5t119 -30q82 0 132.5 68t76.5 210h311q-29 -296 -154 -449.5t-328 -153.5q-96 0 -182.5 30t-149 72.5t-118.5 84.5t-117 72t-120 30q-82 0 -132.5 -67.5t-75.5 -208.5z" />
<glyph unicode="&#xa1;" horiz-adv-x="894" d="M448 1290q-101 0 -172.5 71.5t-71.5 172.5q0 102 71.5 173t172.5 71t172 -71t71 -173q0 -101 -71 -172.5t-172 -71.5zM242 -573l44 1608h324l44 -1608h-412z" />
<glyph unicode="&#xa2;" horiz-adv-x="1712" d="M1098 283v-294h-282v303q-138 25 -257.5 89.5t-213 164.5t-147.5 246.5t-54 322.5q0 171 51 317t141.5 252t213 176t266.5 97v304h282v-294q269 -27 460 -171l-160 -265q-81 53 -179 82.5t-195 29.5q-219 0 -360 -143.5t-141 -373.5t139.5 -374t356.5 -144q98 0 198 31 t181 87l182 -250q-216 -163 -482 -193z" />
<glyph unicode="&#xa3;" horiz-adv-x="1873" d="M456 940h-286v303h240q-26 165 -26 288q0 181 56 325t154 236.5t228.5 141t283.5 48.5q95 0 183 -19.5t173 -61t157 -116.5t121 -177l-254 -188q-122 210 -357 210q-70 0 -131 -19.5t-115.5 -63.5t-86.5 -127t-32 -197q0 -101 31 -280h395v-303h-351q6 -64 6 -131 q0 -92 -11 -166t-34.5 -132.5t-43.5 -94.5t-53 -86h999v-330h-1532v295q120 63 207 208.5t87 323.5q0 49 -8 113z" />
<glyph unicode="&#xa4;" horiz-adv-x="2114" d="M1710 247l-241 243q-192 -123 -417 -123q-228 0 -412 123l-240 -243l-214 218l243 235q-125 188 -125 413q0 224 126 411l-244 240l214 214l244 -244q191 124 416 124q224 0 410 -121l240 240l218 -213l-243 -236q131 -189 131 -419q0 -226 -130 -412l242 -232zM1053 669 q117 0 219.5 57.5t164.5 159.5t62 224q0 119 -58.5 221.5t-160 163t-221.5 60.5q-181 0 -311 -129t-130 -314q0 -118 57 -220t157.5 -162.5t220.5 -60.5z" />
<glyph unicode="&#xa5;" horiz-adv-x="1957" d="M1159 742h482v-251h-482v-491h-382v491h-467v251h467v193l-16 31h-451v251h322l-527 1032h401l465 -946l489 946h396l-549 -1032h334v-251h-467l-15 -28v-196z" />
<glyph unicode="&#xa6;" horiz-adv-x="759" d="M224 -506v1062h310v-1062h-310zM224 1152v1061h310v-1061h-310z" />
<glyph unicode="&#xa7;" horiz-adv-x="1740" d="M1181 59q0 63 -36 115.5t-96.5 92t-139.5 75t-166 69t-174 69.5t-166 81.5t-139.5 99t-96.5 129t-36 164.5q0 270 322 438q-116 68 -175 161t-59 230q0 139 60 250t161.5 179t227.5 103.5t266 35.5q321 0 560 -180l-137 -229q-77 49 -186 85t-226 36q-64 0 -122 -12.5 t-109.5 -39t-82.5 -75t-31 -113.5q0 -67 34.5 -121.5t93 -92.5t134 -71t159 -63t167.5 -62.5t159.5 -75.5t134 -95t93 -128.5t34.5 -169.5q0 -269 -289 -437q117 -62 178.5 -163t61.5 -236q0 -136 -61.5 -248t-165.5 -185t-238 -112.5t-282 -39.5q-108 0 -205 20t-177 58.5 t-133 72t-117 82.5l163 223q228 -162 464 -162q163 0 268 64t105 178zM779 730l283 -106q204 106 204 258q0 100 -85.5 167t-245.5 125l-255 92q-53 -28 -85.5 -49t-66 -51t-49 -67t-15.5 -83q0 -98 77.5 -162t237.5 -124z" />
<glyph unicode="&#xa8;" horiz-adv-x="1395" d="M380 1904q-86 0 -146 59t-60 145q0 87 60 146t146 59q87 0 144.5 -59t57.5 -146t-57.5 -145.5t-144.5 -58.5zM1018 1904q-86 0 -145.5 59t-59.5 145q0 87 59.5 146t145.5 59q87 0 145 -59t58 -146t-58 -145.5t-145 -58.5z" />
<glyph unicode="&#xa9;" horiz-adv-x="2667" d="M1675 934h243q-21 -220 -183 -354t-392 -134q-148 0 -265.5 56.5t-191 154t-112 223.5t-38.5 270q0 143 40 272t114.5 230t192.5 160.5t264 59.5q77 0 152 -17t145.5 -53t126.5 -87.5t95.5 -126.5t51.5 -165h-243q-17 113 -106.5 177t-210.5 64q-168 0 -266.5 -133 t-98.5 -371q0 -233 95 -364t260 -131q123 0 214.5 72.5t112.5 196.5zM142 1163q0 244 94 464t253 378.5t380 252t465 93.5t464.5 -93.5t380 -252t253.5 -378.5t94 -464t-94 -465.5t-253.5 -381.5t-380 -254.5t-464.5 -94.5q-195 0 -377.5 60t-329 170.5t-256 257.5 t-169.5 330t-60 378zM2294 1161q0 270 -127 492.5t-347 350t-486 127.5t-486.5 -127.5t-347.5 -350t-127 -492.5q0 -203 75 -384t202.5 -310.5t306 -205t377.5 -75.5q159 0 306 48t265 137t206 208.5t135.5 269.5t47.5 312z" />
<glyph unicode="&#xaa;" horiz-adv-x="1355" d="M1191 1349l-32 -196q-110 0 -190 34t-102 101q-55 -69 -142.5 -102.5t-186.5 -33.5q-170 0 -284 91t-114 250q0 164 126.5 263.5t352.5 99.5q111 0 222 -23v40q0 96 -61 141t-164 45q-157 0 -316 -86l-84 189q171 125 443 125q222 0 341 -98t119 -289v-401 q0 -61 15.5 -94.5t56.5 -55.5zM841 1635q-102 20 -193 20q-237 0 -237 -147q0 -69 47.5 -102t116.5 -33q63 0 123 24t101.5 72t41.5 108v58z" />
<glyph unicode="&#xab;" horiz-adv-x="1793" d="M601 171l-479 676l479 677h350l-435 -677l435 -676h-350zM1304 171l-478 676l478 677h350l-434 -677l435 -676h-351z" />
<glyph unicode="&#xac;" horiz-adv-x="2060" d="M1482 305v692h-1301v319h1640v-1011h-339z" />
<glyph unicode="&#xad;" horiz-adv-x="1268" d="M198 730v301h872v-301h-872z" />
<glyph unicode="&#xae;" horiz-adv-x="1754" d="M1044 1210l-158 329h-116v-329h-175v831h300q327 0 327 -245q0 -179 -157 -230l175 -356h-196zM877 867q-151 0 -288.5 58.5t-237 158t-158 237t-58.5 289.5t58.5 289.5t158 236.5t236.5 157t289 58q203 0 373.5 -98.5t269.5 -269t99 -373.5q0 -152 -58.5 -289.5 t-157.5 -237t-236.5 -158t-289.5 -58.5zM878 1032q157 0 287.5 75.5t206 208t75.5 293.5q0 160 -75 292.5t-206 208t-288 75.5t-288 -75.5t-206.5 -208t-75.5 -292.5t75.5 -293t206.5 -208.5t288 -75.5zM770 1688h108q90 0 131.5 25t41.5 79t-42.5 77t-135.5 23h-103v-204z " />
<glyph unicode="&#xaf;" horiz-adv-x="1414" d="M210 1975v253h995v-253h-995z" />
<glyph unicode="&#xb0;" horiz-adv-x="1272" d="M637 1341q-209 0 -357.5 148.5t-148.5 357.5q0 208 148.5 356t357.5 148q137 0 253 -67.5t184 -183.5t68 -253t-68 -253.5t-184 -184.5t-253 -68zM637 1564q118 0 200 82t82 200t-82 200t-200 82t-200 -82t-82 -200t82 -200t200 -82z" />
<glyph unicode="&#xb1;" horiz-adv-x="2028" d="M846 510v558h-652v316h652v552h336v-552h652v-316h-652v-558h-336zM194 11v318h1640v-318h-1640z" />
<glyph unicode="&#xb2;" horiz-adv-x="1106" d="M1006 1608v-250h-915v181q31 80 82.5 152t107.5 125t117 102.5t115 92t97.5 85.5t69 92t25.5 101q0 77 -50 123.5t-130 46.5q-74 0 -144.5 -41.5t-124.5 -108.5l-173 165q75 108 191.5 172.5t260.5 64.5q193 0 322.5 -113t129.5 -299q0 -103 -44 -193t-112.5 -156.5 t-139.5 -122t-138.5 -113.5t-95.5 -106h549z" />
<glyph unicode="&#xb3;" horiz-adv-x="1093" d="M56 1550l160 178q145 -135 287 -135q84 0 149 47.5t65 130.5q0 67 -44.5 110.5t-117.5 56.5q-41 8 -225 13v227q153 0 224 18q114 30 114 126q0 69 -48.5 104.5t-123.5 35.5q-65 0 -123.5 -26.5t-130.5 -80.5l-141 189q175 171 416 171q122 0 221 -44t158.5 -129.5 t59.5 -196.5q0 -176 -151 -271q89 -45 142.5 -127.5t53.5 -193.5q0 -96 -42 -175.5t-112 -130t-156.5 -78t-178.5 -27.5q-128 0 -245.5 53t-210.5 155z" />
<glyph unicode="&#xb4;" horiz-adv-x="784" d="M81 1873l304 519h420l-414 -519h-310z" />
<glyph unicode="&#xb5;" horiz-adv-x="1958" d="M1780 207v-240q-332 0 -421 314q-152 -314 -454 -314q-176 0 -305 132v-784h-329v2315h331v-994q0 -164 80 -267.5t226 -103.5q101 0 177 48t122 136t69 205t23 262v714h333v-1014v-67.5t1.5 -61.5t4 -59t7.5 -51t12.5 -48t18.5 -39t25.5 -35.5t34.5 -26.5t44 -21z" />
<glyph unicode="&#xb6;" horiz-adv-x="2176" d="M1158 2070v-2595h-285v1467q-348 11 -560.5 203.5t-212.5 494.5q0 216 104 369.5t295 231t454 77.5h890v-2843h-284v2595h-401z" />
<glyph unicode="&#xb7;" horiz-adv-x="859" d="M429 707q-101 0 -172.5 71t-71.5 172t71.5 173t172.5 72t172.5 -72t71.5 -173t-71.5 -172t-172.5 -71z" />
<glyph unicode="&#xb8;" horiz-adv-x="734" d="M294 0h227l-118 -183q107 -12 181 -73.5t74 -167.5q0 -71 -31.5 -126t-85 -87.5t-119 -48.5t-140.5 -16q-156 0 -274 70l60 159q109 -54 207 -54q52 0 89 23t37 71q0 39 -30 67.5t-76.5 42.5t-90.5 20t-86 6z" />
<glyph unicode="&#xb9;" horiz-adv-x="1056" d="M997 1608v-250h-874v250h309v692h-303v217q88 0 164 19t131.5 61t67.5 102h220v-1091h285z" />
<glyph unicode="&#xba;" horiz-adv-x="1407" d="M701 1152q-244 0 -406 158.5t-162 408.5q0 251 163 409.5t408 158.5q160 0 289.5 -69.5t205 -199.5t75.5 -295q0 -167 -76 -298t-206 -202t-291 -71zM701 1393q124 0 207 93t83 235q0 141 -82 232t-205 91q-125 0 -207 -91t-82 -233q0 -141 81.5 -234t204.5 -93z" />
<glyph unicode="&#xbb;" horiz-adv-x="1793" d="M138 171l435 676l-435 677h350l479 -677l-479 -676h-350zM842 171l435 676l-435 677h349l480 -677l-480 -676h-349z" />
<glyph unicode="&#xbc;" horiz-adv-x="2774" d="M1027 1228v-250h-874v250h310v692h-304v217q88 0 164 19t131.5 61t67.5 102h220v-1091h285zM2476 0h-274v276h-595v184l640 881h231v-831h187v-234h-189v-276zM656 -66l1380 2450h293l-1382 -2450h-291zM1905 510h299v402z" />
<glyph unicode="&#xbd;" horiz-adv-x="2920" d="M2804 249v-250h-915v181q31 80 82.5 152t107.5 125t116.5 102.5t114.5 92t97.5 85.5t69 92t25.5 101q0 77 -50 123.5t-130 46.5q-74 0 -144 -41.5t-124 -107.5l-173 164q74 109 190.5 173t261.5 64q193 0 322 -113t129 -299q0 -86 -32 -165t-81 -135.5t-111.5 -112.5 t-119 -97.5t-109 -90.5t-76.5 -90h549zM1017 1228v-250h-874v250h310v692h-304v217q88 0 164 19t131.5 61t67.5 102h220v-1091h285zM646 -66l1381 2450h292l-1382 -2450h-291z" />
<glyph unicode="&#xbe;" horiz-adv-x="2688" d="M107 1170l160 178q144 -135 287 -135q84 0 149 47.5t65 130.5q0 67 -44.5 110.5t-117.5 56.5q-41 8 -225 13v227q153 0 224 18q113 29 113 125q0 69 -48.5 104.5t-123.5 35.5q-65 0 -123 -26t-130 -80l-142 189q176 171 417 171q186 0 312.5 -102t126.5 -268 q0 -177 -152 -271q90 -45 143.5 -127.5t53.5 -193.5q0 -96 -42 -175.5t-112 -130t-156.5 -78t-178.5 -27.5q-128 0 -245.5 53t-210.5 155zM2114 0v276h-594v184l639 881h232v-831h186v-234h-188v-276h-275zM1949 2384h293l-1382 -2450h-291zM2116 510v402l-298 -402h298z " />
<glyph unicode="&#xbf;" horiz-adv-x="1666" d="M742 1035h335q0 -117 -19.5 -213t-53 -162t-76.5 -119t-90.5 -90t-95 -70t-90.5 -64.5t-76.5 -67t-53 -84.5t-19.5 -110q0 -145 101 -226t272 -81q146 0 268.5 59.5t207.5 165.5l230 -213q-109 -167 -296.5 -266.5t-424.5 -99.5q-152 0 -285.5 43t-237.5 124.5 t-164.5 210t-60.5 287.5q0 94 21.5 172.5t58 134t83.5 102.5t99.5 84.5t104.5 73.5t99 76t83.5 85.5t58 108.5t21.5 139zM665 1534q0 102 71.5 173t172.5 71t172.5 -71t71.5 -173q0 -101 -71.5 -172.5t-172.5 -71.5t-172.5 71.5t-71.5 172.5z" />
<glyph unicode="&#xc0;" d="M1758 0l-203 582h-915l-200 -582h-404l842 2318h452l853 -2318h-425zM919 2538l-444 420h450l325 -420h-331zM750 911h694l-349 997z" />
<glyph unicode="&#xc1;" d="M1758 0l-203 582h-915l-200 -582h-404l842 2318h452l853 -2318h-425zM983 2531l325 420h450l-443 -420h-332zM750 911h694l-349 997z" />
<glyph unicode="&#xc2;" d="M1758 0l-203 582h-915l-200 -582h-404l842 2318h452l853 -2318h-425zM1248 2951l403 -420h-318l-210 236l-216 -236h-314l397 420h258zM750 911h694l-349 997z" />
<glyph unicode="&#xc3;" d="M874 2544h-215q17 188 97 288t193 100q51 0 94 -17.5t71.5 -43t53.5 -51t49.5 -43t48.5 -17.5q78 0 103 165h213q-17 -189 -96.5 -289.5t-192.5 -100.5q-51 0 -94 18t-71.5 43.5t-53 50.5t-49.5 43t-48 18q-78 0 -103 -164zM1555 582h-915l-200 -582h-404l842 2318h452 l853 -2318h-425zM1444 911l-349 997l-345 -997h694z" />
<glyph unicode="&#xc4;" d="M806 2522q-86 0 -146 59t-60 145q0 87 59.5 146t146.5 59t144.5 -59t57.5 -146t-57.5 -145.5t-144.5 -58.5zM1444 2522q-86 0 -145.5 59t-59.5 145q0 87 59.5 146t145.5 59q87 0 145 -59t58 -146t-58 -145.5t-145 -58.5zM1758 0l-203 582h-915l-200 -582h-404l842 2318 h452l853 -2318h-425zM750 911h694l-349 997z" />
<glyph unicode="&#xc5;" d="M1120 2501q-142 0 -242.5 100.5t-100.5 241.5q0 142 100.5 242.5t242.5 100.5t242 -100.5t100 -242.5q0 -141 -100 -241.5t-242 -100.5zM1120 2668q73 0 124.5 51t51.5 124t-51.5 125t-124.5 52t-124.5 -52t-51.5 -125t51.5 -124t124.5 -51zM1758 0l-203 582h-915 l-200 -582h-404l842 2318h452l853 -2318h-425zM750 911h694l-349 997z" />
<glyph unicode="&#xc6;" horiz-adv-x="3075" d="M1846 1975v-635h929v-343h-929v-654h1096v-343h-1487v542h-725l-271 -542h-434l1199 2318h1689v-343h-1067zM884 871h571v1104h-19z" />
<glyph unicode="&#xc7;" horiz-adv-x="2170" d="M1922 511l179 -280q-136 -110 -320 -177t-377 -82l-108 -168q107 -12 181 -74t74 -170q0 -92 -55 -156t-137.5 -91.5t-182.5 -27.5q-156 0 -276 69l60 159q114 -54 207 -54q52 0 89.5 23t37.5 71q0 39 -30 67.5t-77 42.5t-91 20t-85 6l168 284q-225 20 -419.5 118 t-332 252.5t-215.5 363t-78 442.5q0 202 57.5 387t164.5 332t251 256t324 168t377 59q215 0 422.5 -69.5t367.5 -198.5l-176 -273q-123 93 -278.5 143.5t-308.5 50.5q-228 0 -412 -111t-287 -305t-103 -431q0 -176 59.5 -330.5t163 -266.5t252 -176.5t319.5 -64.5 q158 0 319 52t276 140z" />
<glyph unicode="&#xc8;" horiz-adv-x="1900" d="M281 0v2318h1459v-343h-1068v-636h929v-341h-929v-655h1095v-343h-1486zM899 2538l-443 420h450l324 -420h-331z" />
<glyph unicode="&#xc9;" horiz-adv-x="1900" d="M281 0v2318h1459v-343h-1068v-636h929v-341h-929v-655h1095v-343h-1486zM802 2531l324 420h450l-443 -420h-331z" />
<glyph unicode="&#xca;" horiz-adv-x="1900" d="M281 0v2318h1459v-343h-1068v-636h929v-341h-929v-655h1095v-343h-1486zM1149 2951l402 -420h-318l-210 236l-215 -236h-314l396 420h259z" />
<glyph unicode="&#xcb;" horiz-adv-x="1900" d="M704 2525q-87 0 -147 59t-60 145q0 87 60 146t147 59q86 0 144 -59t58 -146q0 -86 -58 -145t-144 -59zM1342 2525q-86 0 -145.5 59t-59.5 145q0 87 59.5 146t145.5 59t144 -59t58 -146q0 -86 -58 -145t-144 -59zM281 0v2318h1459v-343h-1068v-636h929v-341h-929v-655 h1095v-343h-1486z" />
<glyph unicode="&#xcc;" horiz-adv-x="956" d="M281 0v2318h394v-2318h-394zM343 2538l-443 420h450l325 -420h-332z" />
<glyph unicode="&#xcd;" horiz-adv-x="956" d="M281 0v2318h394v-2318h-394zM299 2531l325 420h450l-444 -420h-331z" />
<glyph unicode="&#xce;" horiz-adv-x="956" d="M605 2951l403 -420h-319l-210 236l-215 -236h-314l396 420h259zM281 0v2318h394v-2318h-394z" />
<glyph unicode="&#xcf;" horiz-adv-x="956" d="M161 2525q-87 0 -147 59t-60 145q0 87 60 146t147 59q86 0 144 -59t58 -146q0 -86 -58 -145t-144 -59zM799 2525q-86 0 -145.5 59t-59.5 145q0 87 59.5 146t145.5 59t144.5 -59t58.5 -146q0 -86 -58.5 -145t-144.5 -59zM281 0v2318h394v-2318h-394z" />
<glyph unicode="&#xd0;" horiz-adv-x="2366" d="M303 1303v1015h806q213 0 393.5 -58t312.5 -163t224.5 -249.5t138.5 -319t46 -369.5q0 -198 -47 -374t-141 -319.5t-227 -247.5t-312.5 -161t-390.5 -57h-803v1004h-233v299h233zM695 1974v-671h454v-299h-454v-660h353q390 0 586 201t196 612q0 817 -771 817h-364z" />
<glyph unicode="&#xd1;" horiz-adv-x="2430" d="M983 2544h-215q17 188 97 288t193 100q51 0 94 -17.5t71.5 -43t53.5 -51t49.5 -43t48.5 -17.5q78 0 103 165h213q-16 -189 -96 -289.5t-193 -100.5q-51 0 -94 18t-71.5 43.5t-53 50.5t-49 43t-48.5 18q-78 0 -103 -164zM657 0h-376v2318h424l1077 -1712l-6 1712h373 v-2318h-429l-1069 1698z" />
<glyph unicode="&#xd2;" horiz-adv-x="2638" d="M1319 -33q-167 0 -323 41t-286 116.5t-237.5 183.5t-182 239t-115.5 288t-41 325q0 204 59 388.5t167 329.5t254.5 252t328 164t380.5 57q198 0 379.5 -57t326.5 -164t252.5 -252t165.5 -328.5t58 -386.5q0 -202 -58 -386.5t-165.5 -331t-252.5 -254.5t-327.5 -166 t-382.5 -58zM1319 313q224 0 404 109.5t280.5 302.5t100.5 434q0 181 -59.5 338.5t-163 268.5t-249 174.5t-313.5 63.5q-224 0 -404 -108.5t-281.5 -301.5t-101.5 -435q0 -180 59.5 -337.5t163 -269t250 -175.5t314.5 -64zM1211 2551l-444 420h450l325 -420h-331z" />
<glyph unicode="&#xd3;" horiz-adv-x="2638" d="M1319 -33q-167 0 -323 41t-286 116.5t-237.5 183.5t-182 239t-115.5 288t-41 325q0 204 59 388.5t167 329.5t254.5 252t328 164t380.5 57q198 0 379.5 -57t326.5 -164t252.5 -252t165.5 -328.5t58 -386.5q0 -202 -58 -386.5t-165.5 -331t-252.5 -254.5t-327.5 -166 t-382.5 -58zM1319 313q224 0 404 109.5t280.5 302.5t100.5 434q0 181 -59.5 338.5t-163 268.5t-249 174.5t-313.5 63.5q-224 0 -404 -108.5t-281.5 -301.5t-101.5 -435q0 -180 59.5 -337.5t163 -269t250 -175.5t314.5 -64zM1121 2545l325 420h450l-444 -420h-331z" />
<glyph unicode="&#xd4;" horiz-adv-x="2638" d="M1319 -33q-167 0 -323 41t-286 116.5t-237.5 183.5t-182 239t-115.5 288t-41 325q0 204 59 388.5t167 329.5t254.5 252t328 164t380.5 57q198 0 379.5 -57t326.5 -164t252.5 -252t165.5 -328.5t58 -386.5q0 -202 -58 -386.5t-165.5 -331t-252.5 -254.5t-327.5 -166 t-382.5 -58zM1319 313q224 0 404 109.5t280.5 302.5t100.5 434q0 181 -59.5 338.5t-163 268.5t-249 174.5t-313.5 63.5q-224 0 -404 -108.5t-281.5 -301.5t-101.5 -435q0 -180 59.5 -337.5t163 -269t250 -175.5t314.5 -64zM1445 2965l403 -420h-318l-211 236l-215 -236h-314 l397 420h258z" />
<glyph unicode="&#xd5;" horiz-adv-x="2638" d="M1073 2554h-215q17 188 97 288t193 100q51 0 94 -17.5t71.5 -43t53.5 -51t49.5 -43t48.5 -17.5q78 0 103 165h213q-17 -189 -97 -289.5t-193 -100.5q-50 0 -93 18t-72 43.5t-53.5 50.5t-49 43t-48.5 18q-77 0 -102 -164zM134 1160q0 204 59 388.5t167 329.5t254.5 252 t328 164t380.5 57q198 0 379.5 -57t326.5 -164t252.5 -252t165.5 -328.5t58 -386.5q0 -202 -58 -386.5t-165.5 -331t-252.5 -254.5t-327.5 -166t-382.5 -58q-167 0 -323 41t-286 116.5t-237.5 183.5t-182 239t-115.5 288t-41 325zM2104 1159q0 181 -59.5 338.5t-163 268.5 t-249 174.5t-313.5 63.5q-224 0 -404 -108.5t-281.5 -301.5t-101.5 -435q0 -180 59.5 -337.5t163 -269t250 -175.5t314.5 -64q224 0 404 109.5t280.5 302.5t100.5 434z" />
<glyph unicode="&#xd6;" horiz-adv-x="2638" d="M1003 2536q-87 0 -147 59t-60 145q0 87 60 146t147 59t144.5 -59t57.5 -146t-57.5 -145.5t-144.5 -58.5zM1319 -33q-167 0 -323 41t-286 116.5t-237.5 183.5t-182 239t-115.5 288t-41 325q0 204 59 388.5t167 329.5t254.5 252t328 164t380.5 57q198 0 379.5 -57 t326.5 -164t252.5 -252t165.5 -328.5t58 -386.5q0 -202 -58 -386.5t-165.5 -331t-252.5 -254.5t-327.5 -166t-382.5 -58zM1319 313q224 0 404 109.5t280.5 302.5t100.5 434q0 181 -59.5 338.5t-163 268.5t-249 174.5t-313.5 63.5q-224 0 -404 -108.5t-281.5 -301.5 t-101.5 -435q0 -180 59.5 -337.5t163 -269t250 -175.5t314.5 -64zM1641 2536q-86 0 -145.5 59t-59.5 145q0 87 59.5 146t145.5 59q87 0 145 -59t58 -146t-58 -145.5t-145 -58.5z" />
<glyph unicode="&#xd7;" horiz-adv-x="1767" d="M368 238l-219 220l516 516l-516 516l223 219l514 -515l516 515l215 -219l-513 -514l516 -515l-218 -223l-518 517z" />
<glyph unicode="&#xd8;" horiz-adv-x="2639" d="M2173 2514l233 -185l-241 -314q162 -161 251.5 -380t89.5 -472q0 -203 -58 -387t-165.5 -330.5t-252.5 -254.5t-328 -166t-383 -58q-335 0 -607 157l-245 -320l-233 185l242 315q-163 162 -252.5 382t-89.5 474q0 170 42 327.5t117.5 288t184 238.5t239.5 182t286 114.5 t320 40.5q330 0 605 -156zM1319 313q168 0 314.5 64t250 176t162.5 269t59 337q0 320 -176 550l-996 -1297q173 -99 386 -99zM709 608l996 1297q-176 99 -386 99q-224 0 -403.5 -108.5t-281 -301.5t-101.5 -435q0 -323 176 -551z" />
<glyph unicode="&#xd9;" horiz-adv-x="2329" d="M1688 836v1482h385v-1480q0 -194 -67 -357t-186.5 -276t-288.5 -175.5t-369 -62.5q-267 0 -472.5 107.5t-319 305.5t-113.5 457v1481h392v-1482q0 -233 147 -375.5t378 -142.5q229 0 371.5 140.5t142.5 377.5zM628 2963h450l325 -420h-332z" />
<glyph unicode="&#xda;" horiz-adv-x="2329" d="M1688 836v1482h385v-1480q0 -194 -67 -357t-186.5 -276t-288.5 -175.5t-369 -62.5q-267 0 -472.5 107.5t-319 305.5t-113.5 457v1481h392v-1482q0 -233 147 -375.5t378 -142.5q229 0 371.5 140.5t142.5 377.5zM1272 2956h450l-444 -420h-331z" />
<glyph unicode="&#xdb;" horiz-adv-x="2329" d="M1688 836v1482h385v-1480q0 -194 -67 -357t-186.5 -276t-288.5 -175.5t-369 -62.5q-267 0 -472.5 107.5t-319 305.5t-113.5 457v1481h392v-1482q0 -233 147 -375.5t378 -142.5q229 0 371.5 140.5t142.5 377.5zM1712 2537h-319l-210 236l-215 -236h-314l396 420h259z" />
<glyph unicode="&#xdc;" horiz-adv-x="2329" d="M1688 836v1482h385v-1480q0 -194 -67 -357t-186.5 -276t-288.5 -175.5t-369 -62.5q-267 0 -472.5 107.5t-319 305.5t-113.5 457v1481h392v-1482q0 -233 147 -375.5t378 -142.5q229 0 371.5 140.5t142.5 377.5zM641 2735q0 87 60 146t147 59q86 0 144 -59t58 -146 q0 -86 -58 -145t-144 -59q-87 0 -147 59t-60 145zM1281 2735q0 87 59.5 146t145.5 59t144.5 -59t58.5 -146q0 -86 -58.5 -145t-144.5 -59t-145.5 59t-59.5 145z" />
<glyph unicode="&#xdd;" horiz-adv-x="2158" d="M2121 2318l-849 -1351v-967h-390v965l-834 1353h457l581 -978l608 978h427zM892 2521l325 420h450l-444 -420h-331z" />
<glyph unicode="&#xde;" horiz-adv-x="1970" d="M662 2318v-413h466q215 0 389 -92.5t273 -258t99 -370.5t-98.5 -370.5t-272 -259t-388.5 -93.5h-468v-461h-381v2318h381zM662 810h392q72 0 136 13t121.5 42t99 72.5t66 107.5t24.5 143q0 97 -36.5 171t-100.5 116.5t-142.5 63.5t-170.5 21h-389v-750z" />
<glyph unicode="&#xdf;" horiz-adv-x="1977" d="M591 1687v-1687h-375v1727q0 170 58 305t159 219.5t230.5 129t278.5 44.5q203 0 365 -78t253.5 -217.5t91.5 -315.5q0 -96 -29.5 -175.5t-71 -130t-83.5 -91.5t-71.5 -81t-29.5 -78t27.5 -71t71.5 -61.5t97.5 -60t107 -75t97.5 -96.5t71.5 -134.5t27.5 -180.5 q0 -184 -90 -324t-245 -214t-350 -74q-76 0 -151 13.5t-121 28t-115 40.5l50 310q157 -54 291 -54q93 0 174.5 32t135.5 98.5t54 154.5q0 66 -30.5 118.5t-79.5 88.5t-108 69t-118 66.5t-108 72.5t-79.5 97t-30.5 130q0 56 18.5 102.5t47.5 79.5t64 63t70.5 60.5t64.5 64 t47.5 80.5t18.5 104q0 131 -88.5 219.5t-237.5 88.5q-161 0 -260.5 -106.5t-99.5 -300.5z" />
<glyph unicode="&#xe0;" horiz-adv-x="1778" d="M1650 240l-45 -272q-107 0 -194 24.5t-146.5 80.5t-66.5 137q-79 -121 -219.5 -182t-302.5 -61q-95 0 -181.5 21t-159.5 63.5t-126.5 102t-83.5 140.5t-30 176q0 243 187 389t521 146q173 0 364 -39v83q0 156 -100 229t-272 73q-120 0 -243.5 -32t-223.5 -87l-115 254 q127 91 298 134t349 43q330 0 505 -144.5t175 -428.5v-614q0 -98 23.5 -150t86.5 -86zM1167 699q-165 35 -324 35q-44 0 -84 -3.5t-86 -12.5t-82.5 -26.5t-67 -43t-47.5 -65.5t-17 -90q0 -78 41 -130.5t100.5 -74t133.5 -21.5q102 0 200 39.5t165.5 117t67.5 172.5v103z M346 2371h420l304 -519h-310z" />
<glyph unicode="&#xe1;" horiz-adv-x="1778" d="M1650 240l-45 -272q-107 0 -194 24.5t-146.5 80.5t-66.5 137q-79 -121 -219.5 -182t-302.5 -61q-95 0 -181.5 21t-159.5 63.5t-126.5 102t-83.5 140.5t-30 176q0 243 187 389t521 146q173 0 364 -39v83q0 156 -100 229t-272 73q-120 0 -243.5 -32t-223.5 -87l-115 254 q127 91 298 134t349 43q330 0 505 -144.5t175 -428.5v-614q0 -98 23.5 -150t86.5 -86zM1167 699q-165 35 -324 35q-44 0 -84 -3.5t-86 -12.5t-82.5 -26.5t-67 -43t-47.5 -65.5t-17 -90q0 -78 41 -130.5t100.5 -74t133.5 -21.5q102 0 200 39.5t165.5 117t67.5 172.5v103z M995 2371h421l-415 -519h-309z" />
<glyph unicode="&#xe2;" horiz-adv-x="1778" d="M1650 240l-45 -272q-107 0 -194 24.5t-146.5 80.5t-66.5 137q-79 -121 -219.5 -182t-302.5 -61q-95 0 -181.5 21t-159.5 63.5t-126.5 102t-83.5 140.5t-30 176q0 243 187 389t521 146q173 0 364 -39v83q0 156 -100 229t-272 73q-120 0 -243.5 -32t-223.5 -87l-115 254 q127 91 298 134t349 43q330 0 505 -144.5t175 -428.5v-614q0 -98 23.5 -150t86.5 -86zM1167 699q-165 35 -324 35q-44 0 -84 -3.5t-86 -12.5t-82.5 -26.5t-67 -43t-47.5 -65.5t-17 -90q0 -78 41 -130.5t100.5 -74t133.5 -21.5q102 0 200 39.5t165.5 117t67.5 172.5v103z M1387 1852h-297l-196 292l-201 -292h-294l370 519h242z" />
<glyph unicode="&#xe3;" horiz-adv-x="1778" d="M1650 240l-45 -272q-107 0 -194 24.5t-146.5 80.5t-66.5 137q-79 -121 -219.5 -182t-302.5 -61q-95 0 -181.5 21t-159.5 63.5t-126.5 102t-83.5 140.5t-30 176q0 243 187 389t521 146q173 0 364 -39v83q0 156 -100 229t-272 73q-120 0 -243.5 -32t-223.5 -87l-115 254 q127 91 298 134t349 43q330 0 505 -144.5t175 -428.5v-614q0 -98 23.5 -150t86.5 -86zM654 1888h-215q17 196 97 300t193 104q51 0 94 -18.5t71.5 -45t53.5 -52.5t49.5 -44.5t48.5 -18.5q77 0 103 171h213q-17 -196 -96.5 -300.5t-192.5 -104.5q-51 0 -94 18.5t-71.5 45 t-53 53t-49.5 45t-48 18.5q-78 0 -103 -171zM734 267q102 0 200 39.5t165.5 117t67.5 172.5v103q-165 35 -324 35q-44 0 -84 -3.5t-86 -12.5t-82.5 -26.5t-67 -43t-47.5 -65.5t-17 -90q0 -78 41 -130.5t100.5 -74t133.5 -21.5z" />
<glyph unicode="&#xe4;" horiz-adv-x="1778" d="M1650 240l-45 -272q-107 0 -194 24.5t-146.5 80.5t-66.5 137q-79 -121 -219.5 -182t-302.5 -61q-95 0 -181.5 21t-159.5 63.5t-126.5 102t-83.5 140.5t-30 176q0 243 187 389t521 146q173 0 364 -39v83q0 156 -100 229t-272 73q-120 0 -243.5 -32t-223.5 -87l-115 254 q127 91 298 134t349 43q330 0 505 -144.5t175 -428.5v-614q0 -98 23.5 -150t86.5 -86zM1167 699q-165 35 -324 35q-44 0 -84 -3.5t-86 -12.5t-82.5 -26.5t-67 -43t-47.5 -65.5t-17 -90q0 -78 41 -130.5t100.5 -74t133.5 -21.5q102 0 200 39.5t165.5 117t67.5 172.5v103z M369 2067q0 87 59.5 146t146.5 59t144.5 -59t57.5 -146t-57.5 -145.5t-144.5 -58.5q-86 0 -146 59t-60 145zM1008 2067q0 87 59.5 146t145.5 59q87 0 145 -59t58 -146t-58 -145.5t-145 -58.5q-86 0 -145.5 59t-59.5 145z" />
<glyph unicode="&#xe5;" horiz-adv-x="1778" d="M1650 240l-45 -272q-107 0 -194 24.5t-146.5 80.5t-66.5 137q-79 -121 -219.5 -182t-302.5 -61q-95 0 -181.5 21t-159.5 63.5t-126.5 102t-83.5 140.5t-30 176q0 243 187 389t521 146q173 0 364 -39v83q0 156 -100 229t-272 73q-120 0 -243.5 -32t-223.5 -87l-115 254 q127 91 298 134t349 43q330 0 505 -144.5t175 -428.5v-614q0 -98 23.5 -150t86.5 -86zM1167 699q-165 35 -324 35q-44 0 -84 -3.5t-86 -12.5t-82.5 -26.5t-67 -43t-47.5 -65.5t-17 -90q0 -78 41 -130.5t100.5 -74t133.5 -21.5q102 0 200 39.5t165.5 117t67.5 172.5v103z M547 2177q0 142 100.5 242.5t242.5 100.5t242 -100.5t100 -242.5q0 -141 -100 -241.5t-242 -100.5t-242.5 100.5t-100.5 241.5zM1066 2177q0 73 -51.5 125t-124.5 52t-124.5 -52t-51.5 -125t51.5 -124t124.5 -51t124.5 51t51.5 124z" />
<glyph unicode="&#xe6;" horiz-adv-x="2846" d="M1999 -33q-191 0 -355.5 67t-278.5 194q-102 -118 -274.5 -189.5t-379.5 -71.5q-288 0 -452 136t-164 366q0 244 187 390t521 146q173 0 364 -39v83q0 156 -100 229t-272 73q-120 0 -243.5 -32t-223.5 -87l-115 254q127 91 298 134t350 43q396 0 562 -211 q223 211 551 211q175 0 321 -63t244 -172.5t152 -260t54 -324.5q0 -76 -8 -140h-1197q21 -199 150.5 -313t332.5 -114q120 0 235.5 40t210.5 111l172 -234q-122 -106 -290.5 -166t-351.5 -60zM1167 596v103q-165 35 -323 35q-195 0 -290 -62.5t-95 -178.5q0 -78 41 -130.5 t100.5 -74t133.5 -21.5q102 0 200 39.5t165.5 117t67.5 172.5zM1545 960h831q-10 109 -57 196t-136 141t-208 54q-172 0 -288 -107t-142 -284z" />
<glyph unicode="&#xe7;" horiz-adv-x="1625" d="M1376 416l182 -250q-212 -159 -473 -192l-97 -151q107 -12 181 -74t74 -170q0 -92 -55 -156t-137.5 -91.5t-182.5 -27.5q-156 0 -276 69l60 159q112 -54 207 -54q52 0 89.5 23t37.5 71q0 39 -30 67.5t-77 42.5t-91 20t-85 6l157 265q-148 16 -279 77t-234.5 162t-164 254 t-60.5 339q0 157 43.5 294t121.5 239.5t183.5 176t233.5 111t267 37.5q155 0 304.5 -46t260.5 -131l-160 -265q-80 53 -178.5 82.5t-195.5 29.5q-219 0 -359.5 -143.5t-140.5 -373.5t139.5 -374t356.5 -144q98 0 198 31t180 87z" />
<glyph unicode="&#xe8;" horiz-adv-x="1808" d="M1601 192q-121 -106 -288.5 -165.5t-351.5 -59.5q-174 0 -325.5 55.5t-266.5 159t-181 264t-66 359.5q0 194 63.5 356.5t173.5 271.5t259.5 169.5t319.5 60.5q174 0 319.5 -63t243.5 -172.5t152 -260t54 -324.5q0 -76 -8 -140h-1197q20 -199 149.5 -313t333.5 -114 q120 0 235.5 40t209.5 111zM507 960h831q-10 109 -57 196t-136 141t-208 54q-172 0 -288 -107t-142 -284zM457 2371h420l304 -519h-310z" />
<glyph unicode="&#xe9;" horiz-adv-x="1808" d="M1601 192q-121 -106 -288.5 -165.5t-351.5 -59.5q-174 0 -325.5 55.5t-266.5 159t-181 264t-66 359.5q0 194 63.5 356.5t173.5 271.5t259.5 169.5t319.5 60.5q174 0 319.5 -63t243.5 -172.5t152 -260t54 -324.5q0 -76 -8 -140h-1197q20 -199 149.5 -313t333.5 -114 q120 0 235.5 40t209.5 111zM507 960h831q-10 109 -57 196t-136 141t-208 54q-172 0 -288 -107t-142 -284zM1064 2371h421l-415 -519h-309z" />
<glyph unicode="&#xea;" horiz-adv-x="1808" d="M1601 192q-121 -106 -288.5 -165.5t-351.5 -59.5q-174 0 -325.5 55.5t-266.5 159t-181 264t-66 359.5q0 194 63.5 356.5t173.5 271.5t259.5 169.5t319.5 60.5q174 0 319.5 -63t243.5 -172.5t152 -260t54 -324.5q0 -76 -8 -140h-1197q20 -199 149.5 -313t333.5 -114 q120 0 235.5 40t209.5 111zM1440 1852h-297l-196 292l-201 -292h-294l370 519h242zM507 960h831q-10 109 -57 196t-136 141t-208 54q-172 0 -288 -107t-142 -284z" />
<glyph unicode="&#xeb;" horiz-adv-x="1808" d="M1601 192q-121 -106 -288.5 -165.5t-351.5 -59.5q-174 0 -325.5 55.5t-266.5 159t-181 264t-66 359.5q0 194 63.5 356.5t173.5 271.5t259.5 169.5t319.5 60.5q174 0 319.5 -63t243.5 -172.5t152 -260t54 -324.5q0 -76 -8 -140h-1197q20 -199 149.5 -313t333.5 -114 q120 0 235.5 40t209.5 111zM439 2067q0 87 60 146t147 59t144.5 -59t57.5 -146t-57.5 -145.5t-144.5 -58.5t-147 59t-60 145zM1079 2067q0 87 59.5 146t145.5 59q87 0 145 -59t58 -146t-58 -145.5t-145 -58.5q-86 0 -145.5 59t-59.5 145zM507 960h831q-10 109 -57 196 t-136 141t-208 54q-172 0 -288 -107t-142 -284z" />
<glyph unicode="&#xec;" horiz-adv-x="810" d="M216 0v1630h378v-1630h-378zM278 1851l-414 519h420l304 -519h-310z" />
<glyph unicode="&#xed;" horiz-adv-x="810" d="M216 0v1630h378v-1630h-378zM232 1851l304 519h420l-414 -519h-310z" />
<glyph unicode="&#xee;" horiz-adv-x="810" d="M524 2371l376 -519h-297l-196 292l-201 -292h-294l370 519h242zM216 0v1630h378v-1630h-378z" />
<glyph unicode="&#xef;" horiz-adv-x="810" d="M89 1859q-87 0 -147 59t-60 145q0 87 60 146t147 59t144.5 -59t57.5 -146t-57.5 -145.5t-144.5 -58.5zM727 1859q-86 0 -145.5 59t-59.5 145q0 87 59.5 146t145.5 59q87 0 145 -59t58 -146t-58 -145.5t-145 -58.5zM216 0v1630h378v-1630h-378z" />
<glyph unicode="&#xf0;" horiz-adv-x="1849" d="M434 2245l247 155q142 -70 302 -206l275 149l165 -180l-259 -141q115 -121 212 -257t176 -290t124 -325t45 -337q0 -192 -60 -351t-166.5 -267.5t-255 -168t-321.5 -59.5q-171 0 -317.5 58t-251 162t-163.5 255t-59 330q0 180 59.5 332t161 254.5t237.5 160t289 57.5 q149 0 254 -63l2 1q-76 176 -246 356l-290 -158l-163 183l271 147q-112 95 -268 203zM915 291q197 0 317.5 137t120.5 346q0 133 -49.5 241t-149.5 174t-235 66q-103 0 -186.5 -39t-137 -106t-82 -154t-28.5 -185q0 -134 50 -242t149 -173t231 -65z" />
<glyph unicode="&#xf1;" horiz-adv-x="1893" d="M1696 0h-378v970q0 165 -88 260t-249 95q-177 0 -281.5 -114t-104.5 -297v-914h-380v1630h311l32 -222q91 125 230 190t306 65q290 0 446 -182t156 -490v-991zM723 1889h-215q17 196 97 300t193 104q51 0 94 -18.5t71.5 -44.5t53.5 -52.5t49.5 -45t48.5 -18.5 q77 0 103 171h213q-17 -196 -96.5 -300.5t-192.5 -104.5q-51 0 -94 18.5t-71.5 45t-53 53t-49.5 45t-48 18.5q-78 0 -103 -171z" />
<glyph unicode="&#xf2;" horiz-adv-x="1930" d="M962 -33q-237 0 -428.5 105.5t-302.5 299.5t-111 442q0 186 65 345.5t178 269.5t269 172t334 62q237 0 429 -104.5t303.5 -298t111.5 -441.5q0 -186 -65.5 -346t-179 -270.5t-270 -173t-333.5 -62.5zM962 298q199 0 332.5 147t133.5 372q0 224 -131.5 368t-331.5 144 t-333 -144.5t-133 -369.5q0 -224 132 -370.5t331 -146.5zM883 1852l-414 519h420l304 -519h-310z" />
<glyph unicode="&#xf3;" horiz-adv-x="1930" d="M962 -33q-237 0 -428.5 105.5t-302.5 299.5t-111 442q0 186 65 345.5t178 269.5t269 172t334 62q237 0 429 -104.5t303.5 -298t111.5 -441.5q0 -186 -65.5 -346t-179 -270.5t-270 -173t-333.5 -62.5zM962 298q199 0 332.5 147t133.5 372q0 224 -131.5 368t-331.5 144 t-333 -144.5t-133 -369.5q0 -224 132 -370.5t331 -146.5zM752 1852l303 519h421l-415 -519h-309z" />
<glyph unicode="&#xf4;" horiz-adv-x="1930" d="M962 -33q-237 0 -428.5 105.5t-302.5 299.5t-111 442q0 186 65 345.5t178 269.5t269 172t334 62q237 0 429 -104.5t303.5 -298t111.5 -441.5q0 -186 -65.5 -346t-179 -270.5t-270 -173t-333.5 -62.5zM962 298q199 0 332.5 147t133.5 372q0 224 -131.5 368t-331.5 144 t-333 -144.5t-133 -369.5q0 -224 132 -370.5t331 -146.5zM1082 2371l376 -519h-297l-196 292l-201 -292h-294l370 519h242z" />
<glyph unicode="&#xf5;" horiz-adv-x="1930" d="M718 1888h-215q17 196 97 300t193 104q51 0 94 -18.5t71.5 -45t53.5 -52.5t49.5 -44.5t48.5 -18.5q77 0 103 171h213q-17 -196 -96.5 -300.5t-192.5 -104.5q-51 0 -94 18.5t-71.5 45t-53 53t-49.5 45t-48 18.5q-78 0 -103 -171zM120 814q0 186 65 345.5t178 269.5 t269 172t334 62q237 0 429 -104.5t303.5 -298t111.5 -441.5q0 -186 -65.5 -346t-179 -270.5t-270 -173t-333.5 -62.5q-237 0 -428.5 105.5t-302.5 299.5t-111 442zM1428 817q0 224 -131.5 368t-331.5 144t-333 -144.5t-133 -369.5q0 -224 132 -370.5t331 -146.5t332.5 147 t133.5 372z" />
<glyph unicode="&#xf6;" horiz-adv-x="1930" d="M647 1863q-86 0 -146 59t-60 145q0 87 59.5 146t146.5 59t144.5 -59t57.5 -146t-57.5 -145.5t-144.5 -58.5zM962 -33q-237 0 -428.5 105.5t-302.5 299.5t-111 442q0 186 65 345.5t178 269.5t269 172t334 62q237 0 429 -104.5t303.5 -298t111.5 -441.5q0 -186 -65.5 -346 t-179 -270.5t-270 -173t-333.5 -62.5zM962 298q199 0 332.5 147t133.5 372q0 224 -131.5 368t-331.5 144t-333 -144.5t-133 -369.5q0 -224 132 -370.5t331 -146.5zM1285 1863q-86 0 -145.5 59t-59.5 145q0 87 59.5 146t145.5 59q87 0 145 -59t58 -146t-58 -145.5t-145 -58.5 z" />
<glyph unicode="&#xf7;" horiz-adv-x="1977" d="M988 68q-94 0 -159.5 66t-65.5 161q0 94 65.5 160t159.5 66q95 0 161 -66t66 -160q0 -95 -66.5 -161t-160.5 -66zM988 1428q-94 0 -159.5 66t-65.5 161q0 94 65.5 159.5t159.5 65.5q95 0 161 -65.5t66 -159.5q0 -95 -66.5 -161t-160.5 -66zM168 815v319h1641v-319h-1641z " />
<glyph unicode="&#xf8;" horiz-adv-x="1930" d="M1514 1826l180 -129l-160 -237q131 -113 203.5 -277.5t72.5 -363.5q0 -186 -65.5 -346t-179 -270.5t-270 -173t-333.5 -62.5q-206 0 -381 82l-166 -245l-179 129l160 237q-131 114 -203.5 279.5t-72.5 364.5q0 186 65 345.5t178 269.5t269 172t334 62q206 0 382 -82z M962 298q199 0 332.5 147t133.5 372q0 194 -104 333l-549 -813q89 -39 187 -39zM603 477l549 812q-88 40 -187 40q-200 0 -333 -144.5t-133 -369.5q0 -198 104 -338z" />
<glyph unicode="&#xf9;" horiz-adv-x="1880" d="M1664 1630v-1630h-312l-30 216q-174 -249 -522 -249q-295 0 -449 181t-154 494v988h379v-970q0 -167 84 -260t248 -93q180 0 278.5 111t98.5 300v912h379zM841 1854l-414 519h420l304 -519h-310z" />
<glyph unicode="&#xfa;" horiz-adv-x="1880" d="M1664 1630v-1630h-312l-30 216q-174 -249 -522 -249q-295 0 -449 181t-154 494v988h379v-970q0 -167 84 -260t248 -93q180 0 278.5 111t98.5 300v912h379zM725 1854l304 519h420l-414 -519h-310z" />
<glyph unicode="&#xfb;" horiz-adv-x="1880" d="M1664 1630v-1630h-312l-30 216q-174 -249 -522 -249q-295 0 -449 181t-154 494v988h379v-970q0 -167 84 -260t248 -93q180 0 278.5 111t98.5 300v912h379zM1066 2373l377 -519h-297l-197 292l-201 -292h-294l371 519h241z" />
<glyph unicode="&#xfc;" horiz-adv-x="1880" d="M1664 1630v-1630h-312l-30 216q-174 -249 -522 -249q-295 0 -449 181t-154 494v988h379v-970q0 -167 84 -260t248 -93q180 0 278.5 111t98.5 300v912h379zM614 1862q-87 0 -147 59t-60 145q0 87 60 146t147 59q86 0 143.5 -59t57.5 -146t-57.5 -145.5t-143.5 -58.5z M1252 1862q-86 0 -145.5 59t-59.5 145q0 87 59.5 146t145.5 59t144 -59t58 -146q0 -86 -58 -145t-144 -59z" />
<glyph unicode="&#xfd;" horiz-adv-x="1780" d="M899 426l459 1204h386l-790 -1946q-85 -209 -227 -305.5t-316 -96.5q-129 0 -270 53l49 302q78 -20 143 -20q109 0 188.5 56t134.5 194l47 117l-648 1646h411zM732 1882l304 519h420l-414 -519h-310z" />
<glyph unicode="&#xfe;" horiz-adv-x="1980" d="M595 2425v-989q88 115 220 171t290 56q175 0 318.5 -67t237 -182t144.5 -267.5t51 -326.5q0 -242 -92 -435t-265.5 -305.5t-399.5 -112.5q-155 0 -287 55.5t-217 167.5v-838l-379 -70v3073zM1477 817q0 230 -123 371.5t-325 141.5q-140 0 -243 -72t-153 -187.5 t-50 -256.5q0 -223 121.5 -368.5t325.5 -145.5q201 0 324 143t123 374z" />
<glyph unicode="&#xff;" horiz-adv-x="1780" d="M899 426l459 1204h386l-790 -1946q-85 -209 -227 -305.5t-316 -96.5q-129 0 -270 53l49 302q78 -20 143 -20q109 0 188.5 56t134.5 194l47 117l-648 1646h411zM614 1890q-87 0 -147 59t-60 145q0 87 60 146t147 59q86 0 144 -59t58 -146q0 -86 -58 -145t-144 -59z M1252 1890q-86 0 -145.5 59t-59.5 145q0 87 59.5 146t145.5 59q87 0 145 -59t58 -146t-58 -145.5t-145 -58.5z" />
<glyph unicode="&#x152;" horiz-adv-x="3504" d="M3344 2318v-343h-1068v-636h929v-341h-929v-655h1095v-343h-1485v103q-258 -136 -568 -136q-250 0 -470 91t-376.5 249t-247 379.5t-90.5 473.5q0 254 92 476.5t250.5 378.5t378 246t467.5 90q305 0 564 -135v102h1458zM1886 567v1183q-104 121 -250 187.5t-318 66.5 q-224 0 -403.5 -108.5t-281 -301.5t-101.5 -435q0 -180 59.5 -337.5t163 -269t250 -175.5t314.5 -64q171 0 317 66.5t250 187.5z" />
<glyph unicode="&#x153;" horiz-adv-x="3109" d="M120 814q0 186 65 345.5t178 269.5t269 172t334 62q198 0 366 -76t281 -214q112 141 273.5 215.5t350.5 74.5q175 0 321 -63t244 -172.5t152 -260t54 -324.5q0 -76 -8 -140h-1197q21 -199 150.5 -313t332.5 -114q119 0 235 40t211 111l171 -234q-121 -106 -289.5 -166 t-351.5 -60q-201 0 -371.5 74t-283.5 214q-115 -137 -282.5 -212.5t-363.5 -75.5q-236 0 -427.5 105.5t-302.5 300t-111 441.5zM1428 817q0 224 -131.5 368t-331.5 144t-333 -144.5t-133 -369.5q0 -224 132 -370.5t331 -146.5t332.5 147t133.5 372zM1808 960h831 q-10 109 -57 196t-136 141t-208 54q-172 0 -288 -107t-142 -284z" />
<glyph unicode="&#x178;" horiz-adv-x="2158" d="M790 2515q-87 0 -147 59t-60 145q0 87 60 146t147 59q86 0 144 -59t58 -146q0 -86 -58 -145t-144 -59zM1428 2515q-86 0 -145.5 59t-59.5 145q0 87 59.5 146t145.5 59t144.5 -59t58.5 -146q0 -86 -58.5 -145t-144.5 -59zM2121 2318l-849 -1351v-967h-390v965l-834 1353 h457l581 -978l608 978h427z" />
<glyph unicode="&#x2c6;" horiz-adv-x="1166" d="M700 2392l377 -519h-297l-197 292l-201 -292h-293l370 519h241z" />
<glyph unicode="&#x2dc;" horiz-adv-x="1225" d="M366 1923h-215q17 196 97 300t193 104q51 0 94 -18.5t71.5 -44.5t53.5 -52.5t49.5 -45t48.5 -18.5q77 0 103 171h213q-17 -196 -96.5 -300.5t-192.5 -104.5q-51 0 -94 18.5t-71.5 45t-53 53t-49.5 45t-48 18.5q-78 0 -103 -171z" />
<glyph unicode="&#x2000;" horiz-adv-x="1593" />
<glyph unicode="&#x2001;" horiz-adv-x="3186" />
<glyph unicode="&#x2002;" horiz-adv-x="1593" />
<glyph unicode="&#x2003;" horiz-adv-x="3186" />
<glyph unicode="&#x2004;" horiz-adv-x="1062" />
<glyph unicode="&#x2005;" horiz-adv-x="796" />
<glyph unicode="&#x2006;" horiz-adv-x="531" />
<glyph unicode="&#x2007;" horiz-adv-x="531" />
<glyph unicode="&#x2008;" horiz-adv-x="398" />
<glyph unicode="&#x2009;" horiz-adv-x="637" />
<glyph unicode="&#x200a;" horiz-adv-x="177" />
<glyph unicode="&#x2010;" horiz-adv-x="1268" d="M198 730v301h872v-301h-872z" />
<glyph unicode="&#x2011;" horiz-adv-x="1268" d="M198 730v301h872v-301h-872z" />
<glyph unicode="&#x2012;" horiz-adv-x="1268" d="M198 730v301h872v-301h-872z" />
<glyph unicode="&#x2013;" horiz-adv-x="2013" d="M203 738v285h1607v-285h-1607z" />
<glyph unicode="&#x2014;" horiz-adv-x="3566" d="M203 738v285h3160v-285h-3160z" />
<glyph unicode="&#x2018;" horiz-adv-x="818" d="M699 2260q-39 -22 -60.5 -34.5t-57 -38.5t-54.5 -48.5t-34 -55.5t-15 -68q0 -41 20.5 -81t45 -67.5t45 -71t20.5 -91.5q0 -93 -64.5 -161.5t-165.5 -68.5q-114 0 -177 89t-63 220q0 134 65.5 267t179 234t248.5 141z" />
<glyph unicode="&#x2019;" horiz-adv-x="821" d="M139 1640q47 25 76 43t67.5 49.5t58 69t19.5 81.5q0 42 -20.5 82t-45 67.5t-45 71t-20.5 91.5q0 93 64.5 161.5t165.5 68.5q114 0 177 -89t63 -220q0 -133 -65.5 -266.5t-179 -234.5t-248.5 -141z" />
<glyph unicode="&#x201a;" horiz-adv-x="813" d="M79 -353q47 25 76 43t67.5 49.5t58 69t19.5 81.5q0 42 -20.5 82t-45 67.5t-45 71t-20.5 91.5q0 94 64 162t166 68q115 0 178 -89t63 -219q0 -134 -65.5 -267.5t-179.5 -234.5t-249 -141z" />
<glyph unicode="&#x201c;" horiz-adv-x="1443" d="M700 2260q-39 -21 -61 -34t-57 -38.5t-54.5 -48.5t-34.5 -56t-15 -68q0 -41 20.5 -81t45 -67.5t45 -71t20.5 -91.5q0 -93 -64.5 -161.5t-165.5 -68.5q-114 0 -177 89.5t-63 219.5q0 134 65.5 267t179 234t248.5 141zM1257 2425l67 -165q-39 -22 -60.5 -34.5t-57 -38.5 t-54.5 -48.5t-34 -55.5t-15 -68q0 -41 20.5 -81t45 -67.5t45 -71t20.5 -91.5q0 -93 -64.5 -161.5t-165.5 -68.5q-115 0 -177.5 89t-62.5 220q0 134 65.5 267t179 234t248.5 141z" />
<glyph unicode="&#x201d;" horiz-adv-x="1446" d="M139 1640q47 25 76 43t67.5 49.5t58 69t19.5 81.5q0 42 -20.5 82t-45 67.5t-45 71t-20.5 91.5q0 93 64.5 161.5t165.5 68.5q114 0 177 -89t63 -220q0 -133 -65.5 -266.5t-179 -234.5t-248.5 -141zM831 1474l-68 166q47 25 76 43t67.5 49.5t58 69t19.5 81.5q0 42 -20.5 82 t-45 67.5t-45 71t-20.5 91.5q0 93 64.5 161.5t166.5 68.5q114 0 177 -89t63 -220q0 -133 -65.5 -266.5t-179 -234.5t-248.5 -141z" />
<glyph unicode="&#x201e;" horiz-adv-x="1437" d="M79 -353q47 25 76 43t67.5 49.5t58 69t19.5 81.5q0 42 -20.5 82t-45 67.5t-45 71t-20.5 91.5q0 94 64 162t166 68q115 0 178 -89t63 -219q0 -134 -65.5 -267.5t-179.5 -234.5t-249 -141zM771 -519l-67 166q37 20 59.5 33t57 38t54 48t34.5 56t15 68q0 42 -20.5 82 t-44.5 67.5t-44.5 71t-20.5 91.5q0 94 64 162t166 68q115 0 177.5 -89t62.5 -219q0 -134 -65.5 -267.5t-179 -234.5t-248.5 -141z" />
<glyph unicode="&#x2022;" horiz-adv-x="1517" d="M758 563q-112 0 -214 43.5t-175.5 117t-117 175.5t-43.5 214t43.5 214t117 175.5t175.5 117t214 43.5t214 -43.5t175.5 -117t117 -175.5t43.5 -214t-43.5 -214t-117 -175.5t-175.5 -117t-214 -43.5z" />
<glyph unicode="&#x2026;" horiz-adv-x="2947" d="M407 -33q-101 0 -172.5 71t-71.5 173q0 101 71.5 172.5t172.5 71.5t172.5 -71.5t71.5 -172.5q0 -102 -71.5 -173t-172.5 -71zM1474 -33q-101 0 -172.5 71t-71.5 173q0 101 71.5 172.5t172.5 71.5t172 -71.5t71 -172.5q0 -102 -71 -173t-172 -71zM2540 -33 q-101 0 -172.5 71t-71.5 173q0 101 71.5 172.5t172.5 71.5t172.5 -71.5t71.5 -172.5q0 -102 -71.5 -173t-172.5 -71z" />
<glyph unicode="&#x202f;" horiz-adv-x="637" />
<glyph unicode="&#x2039;" horiz-adv-x="1089" d="M600 171l-478 676l478 677h350l-434 -677l435 -676h-351z" />
<glyph unicode="&#x203a;" horiz-adv-x="1089" d="M138 171l435 676l-435 677h350l479 -677l-479 -676h-350z" />
<glyph unicode="&#x205f;" horiz-adv-x="796" />
<glyph unicode="&#x20ac;" horiz-adv-x="2112" d="M1965 2021l-166 -260q-90 77 -212 123.5t-240 46.5q-192 0 -340 -126t-220 -335h826l-67 -224h-809q-7 -57 -7 -125q0 -45 3 -88h749l-67 -225h-640q67 -220 217 -354.5t351 -134.5q119 0 242 47t214 123l170 -265q-125 -121 -304.5 -189t-361.5 -68q-171 0 -324.5 62 t-272.5 173t-204.5 266.5t-124.5 339.5h-270l67 225h173q-2 52 -2 81q0 68 6 132h-229l67 224h199q60 239 193 422.5t323.5 286.5t410.5 103q179 0 350.5 -68.5t299.5 -192.5z" />
<glyph unicode="&#x2122;" horiz-adv-x="3171" d="M1412 2318h353l408 -998l401 998h349v-1397h-246v1040l-2 1l-426 -1041h-164l-423 1041l-2 -1v-1040h-248v1397zM1214 2318v-215h-429v-1182h-246v1182h-429v215h1104z" />
<glyph unicode="&#xfb01;" horiz-adv-x="1995" d="M63 1309v321h290v226q0 276 151 422.5t430 146.5q108 0 257 -29l-45 -307q-90 15 -151 15q-150 0 -206.5 -75.5t-56.5 -241.5v-157h414v-321h-414v-1309h-379v1309h-290zM1354 2152q0 98 69.5 167t167.5 69q97 0 166.5 -69t69.5 -167t-69 -167.5t-167 -69.5t-167.5 69.5 t-69.5 167.5zM1401 1630h378v-1630h-378v1630z" />
<glyph unicode="&#xfb02;" horiz-adv-x="2018" d="M63 1309v321h291v226q0 276 150.5 422.5t430.5 146.5q108 0 257 -29l-45 -307q-92 15 -152 15q-150 0 -206.5 -75.5t-56.5 -241.5v-157h415v-321h-415v-1309h-378v1309h-291zM1771 2425v-1918q0 -100 24.5 -153t94.5 -88l-50 -299q-88 0 -167 24.5t-142 72t-100 125 t-37 174.5v1992z" />
</font>
</defs>
</svg>
