<?xml version="1.0" standalone="no"?>
<!DOCTYPE svg PUBLIC "-//W3C//DTD SVG 1.1//EN" "http://www.w3.org/Graphics/SVG/1.1/DTD/svg11.dtd" >
<svg xmlns="http://www.w3.org/2000/svg">
<metadata></metadata>
<defs>
<font id="aspirathin" horiz-adv-x="2681" >
<font-face units-per-em="3333" ascent="2591" descent="-742" />
<missing-glyph horiz-adv-x="925" />
<glyph unicode="&#xfb03;" horiz-adv-x="2588" d="M48 1508v122h319v292q0 237 136.5 370t375.5 133q87 0 167 -16l-18 -120q-63 7 -111 7q-227 0 -320.5 -99.5t-93.5 -331.5v-235h348v-122h-348v-1508h-136v1508h-319zM1291 1508h-319v122h319v292q0 237 136.5 370t374.5 133q44 0 104 -6l-19 -125q-28 2 -53 2 q-222 0 -314.5 -100t-92.5 -331v-235h460v-122h-460v-1508h-136v1508zM2128 2164q0 50 35.5 85.5t85.5 35.5t85.5 -35.5t35.5 -85.5t-35.5 -85.5t-85.5 -35.5t-85.5 35.5t-35.5 85.5zM2181 1630h136v-1630h-136v1630z" />
<glyph unicode="&#xfb04;" horiz-adv-x="2605" d="M48 1508v122h319v292q0 237 136.5 370t375.5 133q87 0 167 -16l-18 -120q-63 7 -111 7q-227 0 -320.5 -99.5t-93.5 -331.5v-235h348v-122h-348v-1508h-136v1508h-319zM1291 1508h-319v122h319v292q0 237 136.5 370t374.5 133q44 0 104 -6l-19 -125q-28 2 -53 2 q-222 0 -314.5 -100t-92.5 -331v-235h460v-122h-460v-1508h-136v1508zM2313 2425v-2021q0 -150 21.5 -226.5t77.5 -101.5l-17 -109q-99 0 -158.5 78t-59.5 237v2112z" />
<glyph horiz-adv-x="3333" />
<glyph horiz-adv-x="3333" />
<glyph unicode="&#xd;" horiz-adv-x="3333" />
<glyph unicode=" "  horiz-adv-x="925" />
<glyph unicode="&#x09;" horiz-adv-x="925" />
<glyph unicode="&#xa0;" horiz-adv-x="925" />
<glyph unicode="!" horiz-adv-x="803" d="M401 -33q-52 0 -88.5 36.5t-36.5 88.5t36.5 88.5t88.5 36.5t88.5 -36.5t36.5 -88.5t-36.5 -88.5t-88.5 -36.5zM343 570l-17 1748h151l-18 -1748h-116z" />
<glyph unicode="&#x22;" horiz-adv-x="971" d="M758 2314q0 -27 -60 -539h-83q-59 504 -59 539q0 54 28.5 82.5t72.5 28.5q43 0 72 -28.5t29 -82.5zM357 1775h-83q-59 504 -59 539q0 54 28.5 82.5t72.5 28.5q43 0 72 -28.5t29 -82.5q0 -27 -60 -539z" />
<glyph unicode="#" horiz-adv-x="1800" d="M1243 719l-96 -719h-134l96 719h-507l-96 -719h-134l96 719h-331v126h348l84 631h-345v127h362l96 715h134l-96 -715h507l95 715h135l-96 -715h303v-127h-320l-84 -631h312v-126h-329zM703 1476l-84 -631h507l84 631h-507z" />
<glyph unicode="$" horiz-adv-x="1756" d="M1565 2086l-65 -100q-273 170 -577 170q-259 0 -422.5 -124.5t-163.5 -338.5q0 -211 183 -332q107 -71 340 -144q242 -75 274 -87q245 -86 356 -204q127 -137 127 -347q0 -141 -54.5 -254.5t-150 -187t-219 -116t-267.5 -51.5v-317h-127v315q-375 17 -668 232l64 100 q311 -207 654 -207q287 0 457.5 131t170.5 346q0 104 -44 184t-118 131t-170 90.5t-202 71.5t-212 65.5t-202 80.5t-170 108.5t-118 157.5t-44 220q0 256 171 415.5t454 183.5v318h127v-315q339 -11 616 -195z" />
<glyph unicode="%" horiz-adv-x="2598" d="M610 977q-229 0 -356 173.5t-127 498.5q0 327 128 506t357 179q228 0 355 -178.5t127 -504.5q0 -324 -127 -499t-357 -175zM610 1102q171 0 260.5 141t89.5 408q0 269 -90 413.5t-258 144.5q-169 0 -261 -144.5t-92 -415.5q0 -266 90.5 -406.5t260.5 -140.5zM1986 -17 q-229 0 -356 173.5t-127 498.5q0 327 128 506t357 179q228 0 355 -178.5t127 -504.5q0 -324 -127 -499t-357 -175zM1986 108q171 0 260.5 141t89.5 408q0 269 -90 413.5t-258 144.5q-169 0 -261 -144.5t-92 -415.5q0 -266 90.5 -406.5t260.5 -140.5zM535 -66l1382 2450h146 l-1383 -2450h-145z" />
<glyph unicode="&#x26;" horiz-adv-x="2042" d="M2053 0h-179l-311 351q-337 -384 -719 -384q-134 0 -252.5 48t-202 130.5t-131.5 196.5t-48 242q0 71 16 137.5t40.5 121t66 109.5t82 97t98 89.5t104 81t111.5 77.5l-71 81q-55 62 -102 133t-86.5 175t-39.5 199q0 124 59.5 230t170.5 171t249 65q135 0 244.5 -62 t170.5 -168.5t61 -235.5q0 -66 -16.5 -127.5t-50.5 -116t-71.5 -100.5t-95.5 -95.5t-105.5 -85.5t-117.5 -84l632 -717q128 166 236 372l115 -46q-119 -241 -261 -428zM906 2224q-151 0 -246.5 -100.5t-95.5 -239.5q0 -198 216 -441l61 -69q77 52 127.5 90t108.5 91 t92 100.5t57 108t23 124.5q0 145 -98 240.5t-245 95.5zM1473 453l-658 746q-60 -42 -102 -73t-94 -74t-88 -80t-72.5 -84.5t-58 -93.5t-35.5 -101.5t-14 -114.5q0 -138 69 -248.5t181.5 -170t245.5 -59.5q316 0 626 353z" />
<glyph unicode="'" horiz-adv-x="630" d="M357 1775h-83q-59 504 -59 539q0 54 28.5 82.5t72.5 28.5q43 0 72 -28.5t29 -82.5q0 -27 -60 -539z" />
<glyph unicode="(" horiz-adv-x="848" d="M664 2422l91 -77q-104 -102 -184 -241.5t-127.5 -282t-77.5 -306.5t-40.5 -303.5t-10.5 -285.5t10.5 -285t40.5 -303t77.5 -306t127.5 -281.5t184 -242.5l-91 -76q-140 140 -239 315.5t-152.5 371.5t-77 391t-23.5 416q0 175 14 332.5t48.5 322.5t89.5 308t141 281.5 t199 251.5z" />
<glyph unicode=")" horiz-adv-x="848" d="M184 -568l-91 76q104 103 184 242.5t127.5 281.5t77.5 306t40.5 303t10.5 285t-10.5 285.5t-40.5 303.5t-77.5 306.5t-127.5 282t-184 241.5l91 77q113 -113 199 -251.5t141 -281.5t89.5 -308t48.5 -322.5t14 -332.5q0 -221 -23.5 -416t-77 -391t-152.5 -371.5 t-239 -315.5z" />
<glyph unicode="*" horiz-adv-x="1617" d="M1082 2376l98 -59l-270 -472h546v-113h-546l271 -475l-100 -56l-271 469l-269 -472l-103 60l273 474h-550v113h549l-271 471l104 60l268 -470z" />
<glyph unicode="+" horiz-adv-x="1880" d="M868 177v732h-724v133h724v728h142v-728h727v-133h-727v-732h-142z" />
<glyph unicode="," horiz-adv-x="797" d="M233 -255q118 57 118 173q0 41 -17 69.5t-34 53.5t-17 57q0 50 33.5 84.5t85.5 34.5q60 0 92 -47t32 -129q0 -130 -76 -239.5t-183 -142.5z" />
<glyph unicode="-" horiz-adv-x="1315" d="M233 816v129h849v-129h-849z" />
<glyph unicode="." horiz-adv-x="716" d="M358 -33q-52 0 -88.5 36.5t-36.5 88.5t36.5 88.5t88.5 36.5t88.5 -36.5t36.5 -88.5t-36.5 -88.5t-88.5 -36.5z" />
<glyph unicode="/" horiz-adv-x="1340" d="M129 -267l940 2666h147l-941 -2666h-146z" />
<glyph unicode="0" horiz-adv-x="2021" d="M1011 -33q-387 0 -601.5 297t-214.5 851q0 558 216.5 862.5t602.5 304.5q385 0 598.5 -303.5t213.5 -858.5t-213.5 -854t-601.5 -299zM1011 97q329 0 502.5 262.5t173.5 759.5q0 498 -174 765.5t-499 267.5t-502.5 -267t-177.5 -769q0 -495 174 -757t503 -262z" />
<glyph unicode="1" horiz-adv-x="1443" d="M867 129h490v-129h-1159v129h532v1818q-207 -116 -522 -116v118q124 0 240.5 34.5t205 107t109.5 169.5h104v-2131z" />
<glyph unicode="2" horiz-adv-x="1706" d="M1534 129v-129h-1397v102q52 137 127.5 259.5t158 213.5t175 174t182 151t175 133.5t158 131.5t127 136.5t85.5 156t31 182.5q0 108 -38 201t-108 162.5t-177 109t-238 39.5q-152 0 -275 -53.5t-239 -162.5l-90 84q110 125 265 193.5t341 68.5q198 0 355.5 -75.5 t250 -221t92.5 -338.5q0 -111 -32.5 -210.5t-89 -179.5t-130.5 -153t-160.5 -141t-175.5 -135.5t-179 -143t-167 -155.5t-142.5 -183.5t-104.5 -216.5h1220z" />
<glyph unicode="3" horiz-adv-x="1699" d="M140 199l83 91q134 -98 260.5 -145.5t267.5 -47.5q119 0 230 33t200.5 94t143.5 157.5t54 213.5q0 105 -44 196t-120 155.5t-173 107t-208 59.5q-87 13 -232 15v130q130 0 232 20q213 41 334.5 162.5t121.5 292.5q0 102 -44.5 183t-121 132t-173 77.5t-204.5 26.5 q-126 0 -232.5 -36t-219.5 -108l-74 98q239 176 538 176q190 0 341 -65.5t240 -193t89 -296.5q0 -89 -27 -166.5t-66.5 -130.5t-99.5 -100.5t-111.5 -76.5t-117.5 -58q76 -21 146 -53.5t137.5 -84t117 -115.5t80 -151.5t30.5 -187.5q0 -116 -40 -218t-111.5 -177.5 t-167.5 -130t-210.5 -82.5t-238.5 -28q-349 0 -610 232z" />
<glyph unicode="4" horiz-adv-x="1862" d="M1406 0h-137v528h-1183v152l1169 1580h151v-1603h341v-129h-341v-528zM236 657h1033v1396z" />
<glyph unicode="5" horiz-adv-x="1740" d="M1469 2120h-940l-140 -826q203 101 423 101q123 0 235.5 -27.5t210.5 -84.5t170 -138.5t113 -195.5t41 -248q0 -220 -107 -389t-286.5 -257t-400.5 -88q-189 0 -351 65.5t-287 183.5l79 94q254 -213 562 -213q150 0 273.5 47t206 129t127.5 193t45 238q0 176 -85 305 t-226.5 192.5t-319.5 63.5q-223 0 -454 -120l-115 91l172 1013h1054v-129z" />
<glyph unicode="6" horiz-adv-x="1802" d="M953 1359q153 0 285.5 -46.5t230.5 -132t154 -214t56 -285.5q0 -207 -94.5 -370t-264 -253.5t-385.5 -90.5q-188 0 -332 71.5t-234 202t-135.5 306.5t-45.5 392q0 220 45.5 420.5t136.5 368.5t219 291.5t303 193t378 69.5q62 0 108 -8l-18 -121q-50 2 -76 2 q-402 0 -662 -297.5t-297 -808.5l2 -1q108 154 267.5 232.5t358.5 78.5zM1540 679q0 250 -160 400t-423 150q-172 0 -310.5 -64.5t-219.5 -186t-81 -277.5q0 -84 23.5 -168.5t73 -163t119 -139t169.5 -97t217 -36.5q257 0 424.5 162t167.5 420z" />
<glyph unicode="7" horiz-adv-x="1629" d="M1587 2249v-114q-384 -502 -639.5 -1030t-376.5 -1105h-143q239 1163 992 2120h-1318v129h1485z" />
<glyph unicode="8" horiz-adv-x="1839" d="M919 2282q266 0 435 -157.5t169 -414.5q0 -307 -275 -467q116 -53 200 -124.5t129.5 -152t66.5 -160.5t21 -165q0 -193 -97 -347t-268 -240.5t-382 -86.5q-159 0 -298 51.5t-236.5 140t-153.5 211.5t-56 262q0 86 22 168.5t68.5 163.5t128.5 153.5t192 125.5 q-273 161 -273 470q0 167 77.5 297t215.5 201t314 71zM923 97q262 0 432.5 154t170.5 391q0 227 -162 374t-443 147q-283 0 -445.5 -149.5t-162.5 -379.5q0 -99 32 -185t88.5 -149.5t133 -109.5t167.5 -69.5t189 -23.5zM919 1293q226 0 347 118t121 305q0 196 -128.5 316 t-342.5 120q-213 0 -340.5 -120t-127.5 -317q0 -192 125 -307t346 -115z" />
<glyph unicode="9" horiz-adv-x="1801" d="M424 -25l18 121q50 -2 76 -2q402 0 662 297.5t297 808.5l-2 1q-108 -154 -267.5 -232.5t-358.5 -78.5q-153 0 -285.5 46.5t-230.5 132t-154 214t-56 285.5q0 207 94.5 370t264 253.5t385.5 90.5q188 0 332 -71.5t234 -202t135.5 -306.5t45.5 -392q0 -220 -45.5 -420.5 t-136.5 -368.5t-219 -291.5t-303 -193t-378 -69.5q-62 0 -108 8zM262 1570q0 -250 160 -400t423 -150q172 0 310.5 64.5t219.5 186t81 277.5q0 84 -23.5 168.5t-73 163t-119 139t-169.5 97t-217 36.5q-257 0 -424.5 -162t-167.5 -420z" />
<glyph unicode=":" horiz-adv-x="716" d="M358 -33q-52 0 -88.5 36.5t-36.5 88.5t36.5 88.5t88.5 36.5t88.5 -36.5t36.5 -88.5t-36.5 -88.5t-88.5 -36.5zM358 1238q-52 0 -88.5 36.5t-36.5 88.5t36.5 88.5t88.5 36.5t88.5 -36.5t36.5 -88.5t-36.5 -88.5t-88.5 -36.5z" />
<glyph unicode=";" horiz-adv-x="776" d="M229 -255q118 57 118 173q0 41 -17 69.5t-34 53.5t-17 57q0 50 33.5 84.5t85.5 34.5q60 0 92 -47t32 -129q0 -130 -76 -239.5t-183 -142.5zM271 1363q0 52 36.5 88.5t88.5 36.5t88.5 -36.5t36.5 -88.5t-36.5 -88.5t-88.5 -36.5t-88.5 36.5t-36.5 88.5z" />
<glyph unicode="&#x3c;" horiz-adv-x="1835" d="M113 1045l1529 767v-153l-1388 -684l1388 -686v-154l-1529 767v143z" />
<glyph unicode="=" horiz-adv-x="2077" d="M242 577v132h1593v-132h-1593zM242 1239v132h1593v-132h-1593z" />
<glyph unicode="&#x3e;" horiz-adv-x="1835" d="M1581 975l-1388 684v153l1529 -767v-143l-1529 -767v154z" />
<glyph unicode="?" horiz-adv-x="1554" d="M739 570h-122q3 127 27.5 233t63.5 181t88.5 137.5t104 110t108.5 90.5t102.5 87t86 91.5t59.5 111.5t22 140q0 145 -75.5 253t-199.5 162t-278 54q-288 0 -523 -209l-90 84q114 118 270.5 186.5t345.5 68.5q141 0 265 -39.5t220 -113t152 -189.5t56 -258 q0 -89 -22.5 -164.5t-61 -130.5t-88.5 -104t-106 -94t-111.5 -91.5t-107 -104t-92 -125t-66 -161.5t-28.5 -206zM553 92q0 52 36.5 88.5t88.5 36.5t88.5 -36.5t36.5 -88.5t-36.5 -88.5t-88.5 -36.5t-88.5 36.5t-36.5 88.5z" />
<glyph unicode="@" horiz-adv-x="2754" d="M1964 272q66 0 131 32t122.5 95t102 149.5t70.5 203t26 247.5q0 167 -42 316.5t-124.5 271.5t-199 210.5t-271.5 137t-335 48.5q-252 0 -465.5 -94.5t-360.5 -258.5t-229.5 -390t-82.5 -485q0 -244 73 -449.5t205.5 -351.5t324.5 -227.5t423 -81.5q121 0 240.5 21.5 t206.5 57.5l34 -117q-93 -44 -220 -67t-259 -23q-208 0 -390.5 58.5t-324 168t-243 260.5t-155 341t-53.5 404q0 184 40 357t114.5 324t186 277t250 216t312 140t365.5 50q248 0 457 -82t354 -227t226 -349t81 -442q0 -178 -45 -337.5t-123.5 -276t-190.5 -185t-241 -68.5 q-148 0 -224 86.5t-76 234.5q0 29 4 71h-2q-78 -176 -209 -271t-293 -95q-184 0 -280.5 121t-96.5 333q0 165 59 318t163 269.5t256 186.5t327 70q162 0 331 -65q-46 -225 -66 -328.5t-43 -264.5t-23 -258q0 -142 43.5 -212t139.5 -70zM915 618q0 -316 248 -316q88 0 166 40 t139 112.5t108 166t81 207.5q57 189 90 480q-86 32 -189 32q-140 0 -262 -61.5t-204.5 -162.5t-129.5 -231t-47 -267z" />
<glyph unicode="A" horiz-adv-x="2131" d="M1912 0l-272 691h-1154l-269 -691h-144l904 2318h172l914 -2318h-151zM537 820h1052l-529 1342z" />
<glyph unicode="B" horiz-adv-x="2079" d="M346 2318h717q143 0 266 -37.5t216.5 -109.5t147 -186t53.5 -257q0 -101 -26 -187t-72 -147t-95.5 -102.5t-107.5 -72.5q101 -25 186 -73.5t151 -121.5t103.5 -175.5t37.5 -225.5q0 -191 -89 -333t-244 -216t-356 -74h-888v2318zM1134 1127h-647v-998h681q137 0 247 28.5 t192.5 86.5t127.5 153t45 222q0 130 -47 228.5t-134 159t-203.5 90.5t-261.5 30zM1003 2189h-516v-933h564q119 0 218 28.5t174.5 84.5t117.5 147t42 210t-43 208.5t-123 145t-188.5 82.5t-245.5 27z" />
<glyph unicode="C" horiz-adv-x="2118" d="M1958 270l67 -104q-146 -95 -328.5 -147t-372.5 -52q-246 0 -462 91t-368.5 248t-240 376t-87.5 467q0 252 90.5 475t246 382.5t374.5 252t466 92.5q375 0 679 -203l-66 -104q-300 177 -608 177q-218 0 -410.5 -81.5t-330.5 -222.5t-218 -340.5t-80 -426.5 q0 -225 78 -420.5t213.5 -334.5t326.5 -218.5t409 -79.5q321 0 622 173z" />
<glyph unicode="D" horiz-adv-x="2386" d="M1101 0h-755v2318h758q211 0 390.5 -58t310.5 -163t223.5 -249.5t138 -319t45.5 -369.5q0 -248 -75 -459.5t-214 -367t-350.5 -244t-471.5 -88.5zM487 129h546q486 0 761 269.5t275 762.5q0 249 -73 444t-207 323t-322 194.5t-419 66.5h-561v-2060z" />
<glyph unicode="E" horiz-adv-x="1858" d="M346 0v2318h1343v-129h-1202v-956h1049v-129h-1049v-975h1234v-129h-1375z" />
<glyph unicode="F" horiz-adv-x="1817" d="M487 1054v-1054h-141v2318h1358v-129h-1217v-1006h1008v-129h-1008z" />
<glyph unicode="G" horiz-adv-x="2453" d="M2204 990h-747v129h897q0 -179 -30 -332.5t-83.5 -269.5t-129.5 -209.5t-165.5 -156.5t-193.5 -105t-211.5 -60.5t-222.5 -18.5q-207 0 -389.5 61t-320.5 170.5t-238.5 257t-152 325t-51.5 368.5q0 202 57.5 386.5t164 332t250.5 256.5t325.5 168t379.5 59 q375 0 679 -203l-66 -104q-300 177 -609 177q-219 0 -411 -80.5t-330 -221.5t-217.5 -339.5t-79.5 -426.5q0 -222 76 -417.5t208 -336t319 -221.5t401 -81q141 0 271 34.5t243.5 107.5t197 176.5t131.5 251.5t48 323z" />
<glyph unicode="H" horiz-adv-x="2458" d="M346 0v2318h141v-1084h1484v1084h141v-2318h-141v1105h-1484v-1105h-141z" />
<glyph unicode="I" horiz-adv-x="833" d="M346 0v2318h141v-2318h-141z" />
<glyph unicode="J" horiz-adv-x="1573" d="M1112 679v1639h141v-1698q0 -134 -45 -252.5t-127 -207.5t-206.5 -141t-273.5 -52q-165 0 -304 64.5t-234 198.5l99 73q102 -111 199.5 -158.5t227.5 -47.5q242 0 382.5 149.5t140.5 432.5z" />
<glyph unicode="K" horiz-adv-x="1862" d="M534 1162h-47v-1162h-141v2318h141v-1010h47l1055 1010h195l-1127 -1079l1233 -1239h-199z" />
<glyph unicode="L" horiz-adv-x="1694" d="M346 0v2318h141v-2189h1164v-129h-1305z" />
<glyph unicode="M" horiz-adv-x="3054" d="M396 2318h200l937 -1821l927 1821h197l96 -2318h-140l-89 2148l-937 -1841h-115l-948 1844l-86 -2151h-134z" />
<glyph unicode="N" horiz-adv-x="2480" d="M480 2150v-2150h-134v2318h190l1464 -2151v2151h134v-2318h-190z" />
<glyph unicode="O" d="M1341 -33q-248 0 -467 92t-374 250t-245 379.5t-90 471.5q0 253 91.5 475t249 378.5t376 247t464.5 90.5q164 0 317.5 -41t282 -115.5t234.5 -182t180 -238t114.5 -287t40.5 -324.5q0 -201 -57 -385t-163 -330.5t-249.5 -255t-324.5 -167t-380 -58.5zM1341 97 q175 0 334 52t285 148.5t219 227t143 294.5t50 343q0 224 -78.5 420.5t-214.5 336.5t-327 221t-408 81q-146 0 -282.5 -37t-250 -104.5t-208 -164.5t-159.5 -213.5t-100.5 -255.5t-35.5 -288q0 -297 134 -540t371 -382t528 -139z" />
<glyph unicode="P" horiz-adv-x="2005" d="M487 896v-896h-141v2318h804q176 0 318 -54t233.5 -149t140.5 -222t49 -276q0 -205 -88 -368t-257 -258t-393 -95h-666zM487 1025h603q315 0 486.5 156t171.5 436q0 278 -170 425t-488 147h-603v-1164z" />
<glyph unicode="Q" d="M2048 372q154 146 239 350t85 440q0 224 -78.5 420.5t-214.5 336.5t-327 221t-408 81q-146 0 -282.5 -37t-250 -104.5t-208 -164.5t-159.5 -213.5t-100.5 -255.5t-35.5 -288q0 -297 134 -540t371 -382t528 -139q339 0 600 187l-488 563l101 86zM2174 17l-144 165 q-302 -215 -689 -215q-248 0 -467 92t-374 250t-245 379.5t-90 471.5q0 253 91.5 475t249 378.5t376 247t464.5 90.5q164 0 317.5 -41t282 -115.5t234.5 -182t180 -238t114.5 -287t40.5 -324.5q0 -267 -99 -497.5t-277 -395.5l145 -164z" />
<glyph unicode="R" horiz-adv-x="2057" d="M346 0v2318h792q171 0 311.5 -51t234 -141t144.5 -213.5t51 -268.5q0 -266 -162.5 -448.5t-441.5 -220.5l590 -975h-161l-584 966h-633v-966h-141zM487 1095h592q312 0 484.5 143t172.5 407q0 268 -175 406t-482 138h-592v-1094z" />
<glyph unicode="S" horiz-adv-x="1813" d="M198 311q320 -214 674 -214q295 0 471.5 135t176.5 357q0 93 -38.5 169t-83 121.5t-147 93t-159 66.5t-190.5 60q-138 42 -209 66.5t-182 79.5t-167 113.5t-100 154.5t-44 216q0 142 55 259.5t152.5 196.5t233.5 122.5t297 43.5q179 0 353 -52.5t319 -149.5l-67 -103 q-281 175 -595 175q-174 0 -310 -55.5t-215 -165t-79 -256.5q0 -95 36.5 -170.5t87.5 -123.5t143 -92t163.5 -68.5t188.5 -59.5q76 -23 115 -35t110 -37t110 -44t97 -51t90.5 -62.5t71.5 -74t59 -90.5t34 -107.5t14 -129.5q0 -155 -63.5 -277.5t-173 -198.5t-250.5 -116 t-302 -40q-210 0 -400.5 64.5t-342.5 175.5z" />
<glyph unicode="T" horiz-adv-x="1870" d="M1801 2318v-129h-795v-2189h-141v2189h-796v129h1732z" />
<glyph unicode="U" horiz-adv-x="2377" d="M1925 803v1515h138v-1513q0 -249 -110.5 -440t-310 -294.5t-456.5 -103.5q-258 0 -456 103.5t-307 294t-109 439.5v1514h144v-1515q0 -215 92.5 -376t257 -245.5t379.5 -84.5q331 0 534.5 194.5t203.5 511.5z" />
<glyph unicode="V" horiz-adv-x="2005" d="M261 2318l745 -2160l745 2160h142l-799 -2318h-182l-800 2318h149z" />
<glyph unicode="W" horiz-adv-x="3184" d="M116 2318h147l678 -2148l566 1841h169l569 -1842l685 2149h141l-739 -2318h-183l-560 1818l-558 -1818h-183z" />
<glyph unicode="X" horiz-adv-x="1922" d="M31 0l845 1201l-785 1117h172l699 -996l717 996h166l-800 -1112l837 -1206h-171l-753 1084l-763 -1084h-164z" />
<glyph unicode="Y" horiz-adv-x="2072" d="M1950 2318l-847 -1338v-980h-141v985l-827 1333h165l738 -1189l753 1189h159z" />
<glyph unicode="Z" horiz-adv-x="1825" d="M1720 134v-134h-1626v125l1431 2059h-1385v134h1558v-132l-1425 -2052h1447z" />
<glyph unicode="[" horiz-adv-x="935" d="M461 2274v-2691h364v-128h-501v2944h503v-125h-366z" />
<glyph unicode="\" horiz-adv-x="1340" d="M1065 -267l-941 2666h147l940 -2666h-146z" />
<glyph unicode="]" horiz-adv-x="935" d="M108 2274v125h503v-2944h-501v128h364v2691h-366z" />
<glyph unicode="^" horiz-adv-x="1593" d="M896 2318l531 -1164h-140l-489 1050l-490 -1050h-140l532 1164h196z" />
<glyph unicode="_" horiz-adv-x="2156" d="M233 -468v167h1690v-167h-1690z" />
<glyph unicode="`" horiz-adv-x="586" d="M367 1913l-356 440h198l280 -440h-122z" />
<glyph unicode="a" horiz-adv-x="1778" d="M1603 76l-18 -109q-99 0 -158 80.5t-59 250.5h-2q-32 -57 -95.5 -114.5t-151 -106.5t-205 -79.5t-240.5 -30.5q-118 0 -217.5 28.5t-175.5 84t-119 145t-43 203.5q0 113 42.5 204.5t128.5 161t226 107.5t324 38q218 0 528 -63v195q0 130 -35.5 221t-105 143.5t-161 75.5 t-215.5 23q-275 0 -520 -115l-50 111q120 66 270.5 99.5t306.5 33.5q312 0 479 -135.5t167 -398.5v-735q0 -148 21 -220.5t78 -97.5zM1368 749q-284 60 -503 60q-305 0 -456.5 -101t-151.5 -280q0 -73 25.5 -131t67.5 -95t99 -61t115.5 -34t121.5 -10q123 0 245 38 t219 102.5t157.5 158.5t60.5 198v155z" />
<glyph unicode="b" horiz-adv-x="1993" d="M397 0h-126v2394l136 31v-1100l2 -1q105 162 266 250.5t355 88.5q113 0 223.5 -29.5t216.5 -96t186 -164t129 -244.5t49 -326q0 -128 -25 -239t-69 -195t-105 -152t-131 -114t-149 -77t-157.5 -45t-157.5 -14q-381 0 -621 340zM1059 97q192 0 338 92t222.5 252.5 t76.5 363.5q0 207 -80 372.5t-230 260.5t-345 95q-133 0 -249 -46t-204 -132.5t-139 -222.5t-51 -306q0 -171 52 -311t142 -230.5t210 -139t257 -48.5z" />
<glyph unicode="c" horiz-adv-x="1578" d="M1406 201l72 -99q-219 -135 -482 -135q-131 0 -253.5 34t-229.5 103.5t-186.5 167.5t-125.5 235t-46 297q0 194 67 357t182 272t271 169.5t333 60.5q247 0 451 -114l-62 -105q-200 89 -383 89q-208 0 -371.5 -89t-256.5 -255t-93 -382q0 -165 55.5 -300.5t152 -224 t224.5 -137t275 -48.5q196 0 406 104z" />
<glyph unicode="d" horiz-adv-x="1992" d="M1595 0l-22 307q-240 -340 -621 -340q-79 0 -157.5 14t-157.5 45t-149 77t-131 114t-105 152t-69 195t-25 239q0 179 49 326t129 244.5t186 164t216.5 96t223.5 29.5q194 0 355 -88.5t266 -250.5l2 1v1069l136 31v-2425h-126zM933 97q137 0 257 48.5t210 139t142 230.5 t52 311q0 170 -51 306t-139 222.5t-204 132.5t-249 46q-195 0 -345 -95t-230 -260.5t-80 -372.5q0 -203 76.5 -363.5t222.5 -252.5t338 -92z" />
<glyph unicode="e" horiz-adv-x="1835" d="M1556 146q-120 -86 -268.5 -132.5t-307.5 -46.5q-136 0 -259 34.5t-226.5 104.5t-179 168.5t-117.5 234t-42 293.5q0 194 63 357t171 272.5t254 170.5t312 61q169 0 312 -63t240.5 -171t152 -255.5t54.5 -313.5q0 -60 -4 -90h-1416q16 -310 198.5 -491.5t493.5 -181.5 q136 0 253.5 36.5t244.5 111.5zM299 898h1277q-2 98 -29.5 191.5t-80.5 173.5t-126 140.5t-172 95t-212 34.5q-136 0 -256 -50t-204.5 -135.5t-136.5 -202t-60 -247.5z" />
<glyph unicode="f" horiz-adv-x="986" d="M48 1508v122h319v292q0 237 136.5 370t375.5 133q87 0 167 -16l-18 -120q-63 7 -111 7q-227 0 -320.5 -99.5t-93.5 -331.5v-235h460v-122h-460v-1508h-136v1508h-319z" />
<glyph unicode="g" horiz-adv-x="1991" d="M1722 1630v-1587q0 -180 -59 -325t-165 -240t-250.5 -145.5t-317.5 -50.5q-318 0 -585 186l72 99q134 -84 246.5 -119.5t252.5 -35.5q120 0 219.5 23t184 75t143 131t91 195.5t32.5 264.5v256l-2 1q-105 -162 -266 -250.5t-355 -88.5q-93 0 -186 21t-184 63t-169 111.5 t-137.5 159t-93.5 213t-34 266.5q0 122 25 229t69 188.5t105 147.5t131 111t149 75.5t157.5 44.5t157.5 14q381 0 621 -340l22 307h126zM952 149q133 0 249 45.5t204 130t139 215t51 290.5q0 162 -52 296t-142 222.5t-210 136.5t-257 48q-144 0 -264.5 -53t-201.5 -145 t-126 -217t-45 -267q0 -195 79.5 -354t230.5 -253.5t345 -94.5z" />
<glyph unicode="h" horiz-adv-x="1976" d="M1727 0h-136v922q0 290 -132.5 450.5t-396.5 160.5q-184 0 -333.5 -75.5t-236 -213t-86.5 -310.5v-934h-136v2394l136 31v-1095h2q228 333 646 333q318 0 495.5 -179.5t177.5 -499.5v-984z" />
<glyph unicode="i" horiz-adv-x="678" d="M339 2043q-50 0 -85.5 35.5t-35.5 85.5t35.5 85.5t85.5 35.5t85.5 -35.5t35.5 -85.5t-35.5 -85.5t-85.5 -35.5zM271 0v1630h136v-1630h-136z" />
<glyph unicode="j" horiz-adv-x="678" d="M339 2043q-50 0 -85.5 35.5t-35.5 85.5t35.5 85.5t85.5 35.5t85.5 -35.5t35.5 -85.5t-35.5 -85.5t-85.5 -35.5zM271 -101v1731h136v-1848q0 -111 -34 -202.5t-93.5 -152t-136 -97.5t-165.5 -48l-18 121q120 32 184 81.5t95.5 147t31.5 267.5z" />
<glyph unicode="k" horiz-adv-x="1458" d="M451 824h-45v-824h-136v2394l136 31v-1476h45l753 681h196l-820 -741l880 -889h-193z" />
<glyph unicode="l" horiz-adv-x="695" d="M267 282v2112l136 31v-2021q0 -150 21.5 -226.5t77.5 -101.5l-17 -109q-99 0 -158.5 78t-59.5 237z" />
<glyph unicode="m" horiz-adv-x="2932" d="M405 0h-136v1630h126l22 -285q207 318 541 318q200 0 343 -103t201 -289q94 183 249 287.5t356 104.5q139 0 249.5 -52t181 -144t108 -215t37.5 -268v-984h-136v922q0 104 -14 192t-46.5 167t-82 133.5t-125.5 86.5t-173 32q-123 0 -229 -49.5t-178.5 -133.5t-113.5 -196 t-41 -236v-918h-136v922q0 132 -24 239.5t-75 192.5t-138.5 132t-206.5 47q-123 0 -229 -50.5t-177.5 -135t-112 -196t-40.5 -233.5v-918z" />
<glyph unicode="n" horiz-adv-x="1955" d="M1706 0h-136v922q0 289 -129.5 450t-389.5 161q-182 0 -329.5 -77t-232 -214.5t-84.5 -307.5v-934h-136v1630h126l21 -288q228 321 627 321q313 0 488 -181t175 -498v-984z" />
<glyph unicode="o" horiz-adv-x="1974" d="M981 -33q-139 0 -266 39.5t-228.5 115t-176.5 178t-116 234.5t-41 279q0 247 110.5 442t301 301.5t424.5 106.5q174 0 327.5 -62t264.5 -171t175.5 -267t64.5 -342q0 -247 -111.5 -443t-303 -303.5t-425.5 -107.5zM982 97q198 0 358 91.5t251.5 257t91.5 374.5 q0 155 -52.5 288.5t-144 226.5t-220 145.5t-276.5 52.5q-149 0 -278 -52.5t-222 -146t-146 -228.5t-53 -292q0 -208 89.5 -372t247 -254.5t354.5 -90.5z" />
<glyph unicode="p" horiz-adv-x="1992" d="M396 1630l22 -307q240 340 621 340q79 0 157.5 -14t157.5 -45t149 -77t131 -114t105 -152t69 -195t25 -239q0 -179 -49 -326t-129 -244.5t-186 -164t-216.5 -96t-223.5 -29.5q-194 0 -355 88.5t-266 250.5l-2 -1v-992l-136 -31v2348h126zM1695 825q0 203 -76.5 363.5 t-222.5 252.5t-338 92q-137 0 -257 -48.5t-210 -139t-142 -230.5t-52 -311q0 -170 51 -306t139 -222.5t204 -132.5t249 -46q195 0 345 95t230 260.5t80 372.5z" />
<glyph unicode="q" horiz-adv-x="1991" d="M1722 1630v-2317l-136 -31v1023l-2 1q-105 -162 -266 -250.5t-355 -88.5q-113 0 -223.5 29.5t-216.5 96t-186 164t-129 244.5t-49 326q0 128 25 239t69 195t105 152t131 114t149 77t157.5 45t157.5 14q381 0 621 -340l22 307h126zM952 97q133 0 249 46t204 132.5 t139 222.5t51 306q0 171 -52 311t-142 230.5t-210 139t-257 48.5q-192 0 -338 -92t-222.5 -252.5t-76.5 -363.5q0 -207 80 -372.5t230 -260.5t345 -95z" />
<glyph unicode="r" horiz-adv-x="1126" d="M269 0v1630h126l22 -284q204 317 539 317q85 0 158 -19l-21 -129q-69 18 -140 18q-118 0 -221 -51t-174 -136t-112 -196.5t-41 -231.5v-918h-136z" />
<glyph unicode="s" horiz-adv-x="1403" d="M192 240q117 -69 227 -106t236 -37q51 0 101.5 6.5t105 20t100.5 38.5t83 58.5t58 82.5t21 109q0 72 -32 128t-85.5 91.5t-123.5 63.5t-147.5 52t-154.5 49t-147 60.5t-123.5 82t-85.5 118.5t-32 164q0 112 45.5 198.5t124 138.5t176.5 78.5t209 26.5q252 0 468 -126 l-63 -104q-186 100 -393 100q-64 0 -123 -9.5t-115.5 -32.5t-98 -57t-67 -87t-25.5 -119q0 -74 32 -130.5t85.5 -92.5t123.5 -64.5t147.5 -51.5t154.5 -47.5t147 -59t123.5 -79.5t85.5 -116t32 -162q0 -147 -80.5 -252.5t-210.5 -155.5t-294 -50t-306.5 49t-250.5 125z" />
<glyph unicode="t" horiz-adv-x="980" d="M42 1508v122h320v540l136 31v-571h456v-122h-456v-906q0 -110 17.5 -191t47 -134t81 -90.5t106 -58.5t136.5 -41l-18 -120q-103 10 -191 45t-160 95.5t-113.5 156.5t-41.5 218v1026h-320z" />
<glyph unicode="u" horiz-adv-x="1937" d="M1666 1630v-1630h-126l-22 288q-229 -321 -617 -321q-307 0 -479.5 182t-172.5 497v984h136v-922q0 -286 126 -448.5t382 -162.5q134 0 252 45.5t202.5 125t133.5 190.5t49 238v934h136z" />
<glyph unicode="v" horiz-adv-x="1694" d="M258 1630l587 -1464l610 1464h142l-679 -1630h-155l-653 1630h148z" />
<glyph unicode="w" horiz-adv-x="2747" d="M115 1630h146l528 -1446l511 1446h159l494 -1448l547 1448h140l-615 -1630h-155l-495 1449l-512 -1449h-153z" />
<glyph unicode="x" horiz-adv-x="1521" d="M48 0l628 845l-575 785h170l488 -665l487 665h162l-568 -777l640 -853h-172l-550 734l-546 -734h-164z" />
<glyph unicode="y" horiz-adv-x="1680" d="M844 182l594 1448h142l-836 -2038q-40 -99 -113 -170t-160.5 -105.5t-182.5 -34.5q-72 0 -132 20l20 121q49 -12 97 -12q252 0 367 278l129 312l-649 1629h148z" />
<glyph unicode="z" horiz-adv-x="1577" d="M1451 122v-122h-1343v121l1153 1387h-1107v122h1291v-116l-1158 -1392h1164z" />
<glyph unicode="{" horiz-adv-x="941" d="M111 866v122q159 49 216.5 233.5t57.5 579.5q0 141 31 247t90 174.5t131.5 110t168.5 66.5l14 -122q-148 -35 -222.5 -177.5t-74.5 -351.5v-184q0 -529 -261 -637q261 -116 261 -638v-184q0 -211 74.5 -353t222.5 -176l-14 -121q-96 25 -168.5 66t-131.5 109.5t-90 175 t-31 248.5q0 392 -57.5 577t-216.5 235z" />
<glyph unicode="|" horiz-adv-x="783" d="M321 -685v3077h141v-3077h-141z" />
<glyph unicode="}" horiz-adv-x="940" d="M829 988v-122q-159 -50 -216.5 -235t-57.5 -577q0 -142 -31 -248.5t-90 -175t-131.5 -109.5t-168.5 -66l-14 121q148 34 222.5 176t74.5 353v184q0 522 261 638q-261 108 -261 637v184q0 209 -74.5 351.5t-222.5 177.5l14 122q96 -25 168.5 -66.5t131.5 -110t90 -174.5 t31 -247q0 -395 57.5 -579.5t216.5 -233.5z" />
<glyph unicode="~" horiz-adv-x="2066" d="M394 851h-142q21 204 125 313t272 109q88 0 177.5 -32t163 -77.5t144.5 -90.5t147.5 -77t146.5 -32q107 0 168 73.5t88 221.5h142q-21 -204 -125 -313t-272 -109q-75 0 -151 22.5t-136.5 57t-126 74t-121 74t-120.5 57t-124 22.5q-106 0 -167.5 -71.5t-88.5 -221.5z" />
<glyph unicode="&#xa1;" horiz-adv-x="741" d="M371 1528q-52 0 -88.5 36.5t-36.5 88.5t36.5 88.5t88.5 36.5t88.5 -36.5t36.5 -88.5t-36.5 -88.5t-88.5 -36.5zM295 -573l18 1748h116l17 -1748h-151z" />
<glyph unicode="&#xa2;" horiz-adv-x="1678" d="M1032 277v-296h-121v301q-120 12 -228.5 53t-202.5 112t-162.5 166.5t-108 224t-39.5 276.5q0 179 56.5 331.5t156.5 260t235 175t293 85.5v303h121v-296q244 -3 442 -114l-62 -105q-200 89 -383 89q-208 0 -371.5 -89t-256.5 -255t-93 -382q0 -165 55.5 -300.5t152 -224 t224.5 -137t275 -48.5q196 0 406 104l72 -99q-209 -129 -461 -135z" />
<glyph unicode="&#xa3;" horiz-adv-x="1782" d="M484 1021h-313v129h289q-48 266 -48 415q0 156 40 281t104.5 205t152 133.5t177 75.5t184.5 22q159 0 300.5 -65t234.5 -200l-99 -73q-81 102 -196 155t-245 53q-78 0 -149.5 -18.5t-139 -62.5t-117 -110t-79 -167.5t-29.5 -227.5q0 -64 9.5 -147t16.5 -123t26 -146h439 v-129h-417q22 -135 22 -237q0 -93 -18.5 -181.5t-44 -152.5t-66 -130.5t-69 -104.5t-69.5 -86h1227v-129h-1436v116q141 100 239 285t98 388q0 91 -24 232z" />
<glyph unicode="&#xa4;" horiz-adv-x="1962" d="M1622 380l-225 228q-187 -146 -422 -146t-412 147l-226 -229l-94 97l228 224q-148 181 -148 414q0 232 149 410l-229 226l94 95l230 -229q185 146 418 146q229 0 411 -143l226 226l96 -95l-228 -222q155 -182 155 -419q0 -234 -154 -412l228 -222zM974 601q139 0 260 66 t194.5 184t73.5 260q0 139 -69 257t-189 187.5t-262 69.5q-105 0 -201 -40t-166.5 -107.5t-112 -162.5t-41.5 -200q0 -137 67 -255t185.5 -188.5t260.5 -70.5z" />
<glyph unicode="&#xa5;" horiz-adv-x="1783" d="M950 945v-231h465v-125h-465v-589h-137v589h-444v125h444v231h-444v125h380l-642 1179h153l627 -1154l642 1154h146l-657 -1179h397v-125h-465z" />
<glyph unicode="&#xa6;" horiz-adv-x="643" d="M251 -506v1062h141v-1062h-141zM251 1152v1061h141v-1061h-141z" />
<glyph unicode="&#xa7;" horiz-adv-x="1589" d="M1238 40q0 77 -31 139.5t-75.5 104t-120.5 80t-138.5 61.5t-157.5 55q-78 26 -117.5 40t-108.5 42t-105.5 51t-84.5 60t-72.5 75.5t-42 91t-17.5 113.5q0 84 30 156t86.5 127t123.5 97t154 79q-150 78 -228 180t-78 253q0 120 50 217.5t135.5 159.5t194.5 95.5t230 33.5 q251 0 465 -126l-63 -104q-184 100 -387 100q-85 0 -166.5 -20.5t-154.5 -62t-118 -115.5t-45 -170q0 -84 35.5 -150.5t95 -112t137 -83t163 -68t171 -61.5t163 -70t137 -87t95 -119t35.5 -160q0 -145 -88.5 -259.5t-247.5 -210.5q287 -153 287 -427q0 -118 -53 -218 t-141.5 -165.5t-202 -102t-235.5 -36.5q-147 0 -293 49.5t-251 124.5l72 99q238 -143 452 -143q66 0 133.5 12.5t136.5 42t121.5 72.5t86 110.5t33.5 149.5zM671 636l277 -110q67 34 125.5 76t107.5 93t77.5 111t28.5 121q0 113 -97 190.5t-292 151.5l-203 77 q-157 -71 -223 -117q-163 -112 -163 -263q0 -108 84.5 -180.5t277.5 -149.5z" />
<glyph unicode="&#xa8;" horiz-adv-x="1042" d="M300 1993q-48 0 -81.5 34t-33.5 82t33.5 82t81.5 34t82 -34t34 -82t-34 -82t-82 -34zM740 1993q-48 0 -82 34t-34 82t34 82t82 34t82 -34t34 -82t-34 -82t-82 -34z" />
<glyph unicode="&#xa9;" horiz-adv-x="2729" d="M1825 846h136q-12 -130 -93 -230t-206 -153t-273 -53q-123 0 -226 39t-175 107.5t-122.5 162t-74 201t-23.5 225.5q0 121 24.5 233t76 208.5t124.5 168t176 112.5t224 41q94 0 186 -24t173.5 -70.5t138 -124t70.5 -174.5h-136q-13 84 -79 146t-155.5 91t-187.5 29 q-225 0 -360 -163.5t-135 -459.5q0 -291 130 -454t349 -163q161 0 287.5 84t150.5 221zM172 1162q0 247 93 467.5t251.5 378.5t379.5 250.5t468 92.5t468 -92.5t379.5 -250.5t251.5 -378.5t93 -467.5t-93 -468.5t-251.5 -380.5t-379.5 -252.5t-468 -93.5t-468 93.5 t-379.5 252.5t-251.5 380.5t-93 468.5zM2421 1160q0 177 -52.5 341t-149.5 294.5t-227 228t-291.5 150t-336.5 52.5q-218 0 -413.5 -82.5t-336.5 -224t-224 -339.5t-83 -420t83 -420.5t224 -340.5t336.5 -224.5t413.5 -82.5q175 0 336.5 53t291.5 150.5t227 228t149.5 294.5 t52.5 342z" />
<glyph unicode="&#xaa;" horiz-adv-x="1365" d="M1155 1283l-15 -100q-71 0 -118 41t-60 126q-70 -70 -180 -118.5t-238 -48.5q-103 0 -184.5 33t-132 104.5t-50.5 172.5q0 155 119 247.5t359 92.5q133 0 303 -33v96q0 147 -75.5 208.5t-221.5 61.5q-170 0 -339 -80l-49 106q172 95 392 95q205 0 316 -90t111 -265v-461 q0 -87 13.5 -129.5t49.5 -58.5zM958 1679q-177 33 -292 33q-172 0 -263 -57t-91 -162q0 -68 39 -112t91.5 -60t115.5 -16q96 0 187.5 37t152 105t60.5 149v83z" />
<glyph unicode="&#xab;" horiz-adv-x="1478" d="M624 214l-448 633l448 634h152l-407 -634l407 -633h-152zM1133 214l-448 633l448 634h152l-408 -634l409 -633h-153z" />
<glyph unicode="&#xac;" horiz-adv-x="2077" d="M1680 364v762h-1439v132h1593v-894h-154z" />
<glyph unicode="&#xad;" horiz-adv-x="1315" d="M233 816v129h849v-129h-849z" />
<glyph unicode="&#xae;" horiz-adv-x="1822" d="M1132 1183l-181 372h-212v-372h-120v884h309q341 0 341 -250q0 -98 -51 -161.5t-141 -84.5l192 -388h-137zM911 867q-153 0 -291 58t-236.5 157.5t-156.5 237t-58 290.5q0 205 98 375t268.5 268t375.5 98t375.5 -98t268.5 -268t98 -375q0 -153 -58 -290.5t-156.5 -237 t-236.5 -157.5t-291 -58zM912 982q128 0 243.5 48.5t198 132t131 200t48.5 246.5q0 174 -82 317.5t-224.5 226t-314.5 82.5q-128 0 -243.5 -48.5t-198 -131.5t-131 -199.5t-48.5 -246.5q0 -174 82 -318t224.5 -226.5t314.5 -82.5zM739 1664h185q112 0 168 36t56 114 q0 79 -57 112t-172 33h-180v-295z" />
<glyph unicode="&#xaf;" horiz-adv-x="1283" d="M214 2043v118h854v-118h-854z" />
<glyph unicode="&#xb0;" horiz-adv-x="1212" d="M606 1487q-179 0 -306 126.5t-127 305.5t127 305.5t306 126.5q178 0 305 -126.5t127 -305.5t-127 -305.5t-305 -126.5zM606 1618q125 0 213 87.5t88 213.5q0 125 -88 213t-213 88q-126 0 -214 -88t-88 -213q0 -126 88 -213.5t214 -87.5z" />
<glyph unicode="&#xb1;" horiz-adv-x="2081" d="M964 439v665h-722v125h722v651h149v-651h722v-125h-722v-665h-149zM242 67v132h1593v-132h-1593z" />
<glyph unicode="&#xb2;" horiz-adv-x="1044" d="M928 1490v-124h-832v84q36 99 93 185t119 146t129 114.5t126 101t107 93.5t76 104t28 121q0 115 -76 189t-207 74q-79 0 -147 -32t-140 -100l-87 82q153 176 375 176q179 0 297 -104.5t118 -278.5q0 -80 -27.5 -150t-74 -124t-104 -103t-121.5 -99t-122.5 -100 t-111.5 -116t-84 -139h666z" />
<glyph unicode="&#xb3;" horiz-adv-x="1028" d="M85 1503l81 90q159 -118 295 -118q80 0 151.5 28.5t119 87.5t47.5 136q0 106 -81.5 177.5t-196.5 90.5q-46 7 -151 9v125q97 0 150 10q108 22 168.5 83t60.5 147q0 101 -78.5 157t-191.5 56q-65 0 -125.5 -23t-132.5 -70l-70 97q159 121 335 121q170 0 282.5 -92.5 t112.5 -247.5q0 -191 -192 -296q105 -45 173 -129t68 -209q0 -173 -131 -278t-319 -105q-205 0 -375 153z" />
<glyph unicode="&#xb4;" horiz-adv-x="586" d="M97 1913l280 440h198l-356 -440h-122z" />
<glyph unicode="&#xb5;" horiz-adv-x="1777" d="M1569 74v-107q-59 0 -104 23.5t-72 59t-46 91.5t-27.5 108t-14.5 120h-2q-58 -189 -192.5 -295.5t-303.5 -106.5q-110 0 -200 48.5t-172 147.5v-848h-127v2315h128v-1075q0 -124 40.5 -224t127 -163t206.5 -63q149 0 260.5 96t169 258.5t57.5 366.5v804h130v-1110 q0 -72 1 -109t4.5 -94t12.5 -88t24.5 -66.5t40.5 -56.5t59 -32z" />
<glyph unicode="&#xb6;" horiz-adv-x="2030" d="M997 2197v-2722h-129v1551q-353 0 -554.5 182.5t-201.5 480.5q0 299 203.5 464t555.5 165h796v-2843h-129v2722h-541z" />
<glyph unicode="&#xb7;" horiz-adv-x="717" d="M359 826q-52 0 -88.5 36.5t-36.5 88.5t36.5 88.5t88.5 36.5t88.5 -36.5t36.5 -88.5t-36.5 -88.5t-88.5 -36.5z" />
<glyph unicode="&#xb8;" horiz-adv-x="669" d="M298 0h120l-103 -161q113 -6 183.5 -64t70.5 -163q0 -82 -46.5 -139t-116 -80.5t-154.5 -23.5q-124 0 -209 45l35 93q89 -38 177 -38q44 0 82 11t67 41t29 76q0 37 -19 68t-48.5 50t-66.5 32.5t-71.5 19t-64.5 5.5z" />
<glyph unicode="&#xb9;" horiz-adv-x="931" d="M577 1490h290v-124h-732v124h315v971q-135 -65 -309 -65v106q70 0 137 18.5t124 63t75 107.5h100v-1201z" />
<glyph unicode="&#xba;" horiz-adv-x="1441" d="M717 1183q-233 0 -388.5 155t-155.5 396q0 160 72.5 287t197.5 196.5t279 69.5q153 0 277.5 -68.5t197 -194.5t72.5 -285q0 -243 -158.5 -399.5t-393.5 -156.5zM718 1305q179 0 297 122t118 311t-116 308.5t-295 119.5t-296.5 -120.5t-117.5 -311.5q0 -188 116 -308.5 t294 -120.5z" />
<glyph unicode="&#xbb;" horiz-adv-x="1478" d="M192 214l409 633l-408 634h152l448 -634l-448 -633h-153zM702 214l407 633l-407 634h152l448 -634l-448 -633h-152z" />
<glyph unicode="&#xbc;" horiz-adv-x="2516" d="M173 994v124h315v971q-135 -65 -309 -65v106q70 0 137 18.5t124 63t75 107.5h100v-1201h290v-124h-732zM1412 297v118l668 910h125v-903h191v-125h-191v-297h-132v297h-661zM741 -66h-145l1382 2450h146zM1577 422h496v677z" />
<glyph unicode="&#xbd;" horiz-adv-x="2721" d="M2587 123v-124h-832v84q36 99 93 185t119 146t129 114.5t126 101t107 93.5t76 104t28 121q0 115 -76 189t-207 74q-79 0 -147 -32t-140 -100l-87 82q153 176 375 176q179 0 297 -104.5t118 -278.5q0 -80 -27.5 -150t-74 -124t-104 -103t-121.5 -99t-122.5 -100 t-111.5 -116t-84 -139h666zM608 1118h290v-124h-732v124h315v971q-135 -65 -309 -65v106q70 0 137 18.5t124 63t75 107.5h100v-1201zM589 -66l1382 2450h146l-1383 -2450h-145z" />
<glyph unicode="&#xbe;" horiz-adv-x="2462" d="M132 1130l81 90q159 -118 295 -118q80 0 151.5 28.5t119 87.5t47.5 136q0 106 -81.5 177.5t-196.5 90.5q-46 7 -151 9v125q97 0 150 10q108 22 168.5 83t60.5 147q0 101 -79 157t-191 56q-65 0 -125.5 -23t-132.5 -70l-70 97q159 121 335 121q170 0 282.5 -92.5 t112.5 -247.5q0 -191 -192 -296q105 -45 173 -129t68 -209q0 -173 -131 -278t-319 -105q-205 0 -375 153zM2018 0v297h-661v118l668 910h125v-903h191v-125h-191v-297h-132zM1923 2384h146l-1383 -2450h-145zM2018 422v677l-496 -677h496z" />
<glyph unicode="&#xbf;" horiz-adv-x="1532" d="M803 1175h122q-3 -127 -27.5 -233t-63.5 -181t-88.5 -137.5t-104 -110t-108.5 -90.5t-102.5 -87t-86 -91.5t-59.5 -111.5t-22 -140q0 -145 75.5 -253t199.5 -162t278 -54q288 0 523 209l90 -84q-114 -118 -270.5 -186.5t-345.5 -68.5q-141 0 -265 39.5t-220 113 t-152 189.5t-56 258q0 89 22.5 164.5t61 130.5t88.5 104t106 94t111.5 91.5t107 104t92 125t66 161.5t28.5 206zM739 1653q0 52 36.5 88.5t88.5 36.5t88.5 -36.5t36.5 -88.5t-36.5 -88.5t-88.5 -36.5t-88.5 36.5t-36.5 88.5z" />
<glyph unicode="&#xc0;" horiz-adv-x="2131" d="M1912 0l-272 691h-1154l-269 -691h-144l904 2318h172l914 -2318h-151zM946 2570l-381 356h212l299 -356h-130zM537 820h1052l-529 1342z" />
<glyph unicode="&#xc1;" horiz-adv-x="2131" d="M1912 0l-272 691h-1154l-269 -691h-144l904 2318h172l914 -2318h-151zM1073 2563l299 356h212l-381 -356h-130zM537 820h1052l-529 1342z" />
<glyph unicode="&#xc2;" horiz-adv-x="2131" d="M1912 0l-272 691h-1154l-269 -691h-144l904 2318h172l914 -2318h-151zM1167 2919l297 -356h-136l-249 282l-250 -282h-131l289 356h180zM537 820h1052l-529 1342z" />
<glyph unicode="&#xc3;" horiz-adv-x="2131" d="M824 2605h-109q17 132 74 198.5t143 66.5q50 0 93 -24t68 -52.5t58.5 -52.5t67.5 -24q90 0 115 146h108q-17 -132 -73.5 -198.5t-143.5 -66.5q-50 0 -93 24t-67.5 52t-58 52t-67.5 24q-88 0 -115 -145zM1640 691h-1154l-269 -691h-144l904 2318h172l914 -2318h-151z M1589 820l-529 1342l-523 -1342h1052z" />
<glyph unicode="&#xc4;" horiz-adv-x="2131" d="M861 2611q-48 0 -81.5 34t-33.5 82t33.5 82t81.5 34t82 -34t34 -82t-34 -82t-82 -34zM1301 2611q-48 0 -82 34t-34 82t34 82t82 34t82 -34t34 -82t-34 -82t-82 -34zM1912 0l-272 691h-1154l-269 -691h-144l904 2318h172l914 -2318h-151zM537 820h1052l-529 1342z" />
<glyph unicode="&#xc5;" horiz-adv-x="2131" d="M1078 2533q-128 0 -219 91t-91 220q0 128 91 219t219 91q129 0 220 -91t91 -219q0 -129 -91 -220t-220 -91zM1078 2641q84 0 143.5 59t59.5 144q0 84 -59.5 143t-143.5 59t-143 -59t-59 -143q0 -85 59 -144t143 -59zM1912 0l-272 691h-1154l-269 -691h-144l904 2318h172 l914 -2318h-151zM537 820h1052l-529 1342z" />
<glyph unicode="&#xc6;" horiz-adv-x="3099" d="M1728 2189v-956h1049v-129h-1049v-975h1234v-129h-1375v651h-970l-402 -651h-158l1433 2318h1440v-129h-1202zM697 780h890v1409h-19z" />
<glyph unicode="&#xc7;" horiz-adv-x="2118" d="M1958 270l67 -104q-146 -95 -328.5 -147t-372.5 -52q-3 0 -8.5 0.5t-8.5 0.5l-94 -148q113 -6 183.5 -64t70.5 -163q0 -82 -46.5 -139t-116 -80.5t-154.5 -23.5q-124 0 -209 45l35 93q89 -38 177 -38q44 0 82 11t67 41t29 76q0 37 -19 68t-48.5 50t-66.5 32.5t-71.5 19 t-64.5 5.5l131 221q-222 23 -413 122t-325.5 253.5t-211 361t-76.5 438.5q0 252 90.5 475t246 382.5t374.5 252t466 92.5q375 0 679 -203l-66 -104q-300 177 -608 177q-218 0 -410.5 -81.5t-330.5 -222.5t-218 -340.5t-80 -426.5q0 -225 78 -420.5t213.5 -334.5 t326.5 -218.5t409 -79.5q321 0 622 173z" />
<glyph unicode="&#xc8;" horiz-adv-x="1858" d="M346 0v2318h1343v-129h-1202v-956h1049v-129h-1049v-975h1234v-129h-1375zM978 2570l-381 356h212l299 -356h-130z" />
<glyph unicode="&#xc9;" horiz-adv-x="1858" d="M346 0v2318h1343v-129h-1202v-956h1049v-129h-1049v-975h1234v-129h-1375zM943 2563l299 356h212l-381 -356h-130z" />
<glyph unicode="&#xca;" horiz-adv-x="1858" d="M346 0v2318h1343v-129h-1202v-956h1049v-129h-1049v-975h1234v-129h-1375zM1119 2919l297 -356h-136l-249 282l-250 -282h-131l289 356h180z" />
<glyph unicode="&#xcb;" horiz-adv-x="1858" d="M810 2614q-48 0 -81.5 34t-33.5 82t33.5 82t81.5 34t82 -34t34 -82t-34 -82t-82 -34zM1250 2614q-48 0 -82 34t-34 82t34 82t82 34t82 -34t34 -82t-34 -82t-82 -34zM346 0v2318h1343v-129h-1202v-956h1049v-129h-1049v-975h1234v-129h-1375z" />
<glyph unicode="&#xcc;" horiz-adv-x="833" d="M351 2570l-381 356h212l299 -356h-130zM346 0v2318h141v-2318h-141z" />
<glyph unicode="&#xcd;" horiz-adv-x="833" d="M346 0v2318h141v-2318h-141zM369 2563l299 356h212l-381 -356h-130z" />
<glyph unicode="&#xce;" horiz-adv-x="833" d="M504 2919l297 -356h-136l-249 282l-250 -282h-131l289 356h180zM346 0v2318h141v-2318h-141z" />
<glyph unicode="&#xcf;" horiz-adv-x="833" d="M196 2614q-48 0 -81.5 34t-33.5 82t33.5 82t81.5 34t82 -34t34 -82t-34 -82t-82 -34zM636 2614q-48 0 -82 34t-34 82t34 82t82 34t82 -34t34 -82t-34 -82t-82 -34zM346 0v2318h141v-2318h-141z" />
<glyph unicode="&#xd0;" horiz-adv-x="2408" d="M368 1217v1101h758q211 0 390.5 -58t310.5 -163t223.5 -249.5t138 -319t45.5 -369.5q0 -248 -75 -459.5t-214 -367t-350.5 -244t-471.5 -88.5h-755v1088h-213v129h213zM509 2189v-972h416v-129h-416v-959h546q486 0 761 269.5t275 762.5q0 249 -73 444t-207 323 t-322 194.5t-419 66.5h-561z" />
<glyph unicode="&#xd1;" horiz-adv-x="2480" d="M999 2605h-109q17 132 74 198.5t143 66.5q50 0 93 -24t68 -52.5t58.5 -52.5t67.5 -24q90 0 115 146h108q-17 -132 -73.5 -198.5t-143.5 -66.5q-50 0 -93 24t-67.5 52t-58 52t-67.5 24q-88 0 -115 -145zM480 0h-134v2318h190l1464 -2151v2151h134v-2318h-190l-1464 2150 v-2150z" />
<glyph unicode="&#xd2;" d="M1341 -33q-248 0 -467 92t-374 250t-245 379.5t-90 471.5q0 253 91.5 475t249 378.5t376 247t464.5 90.5q164 0 317.5 -41t282 -115.5t234.5 -182t180 -238t114.5 -287t40.5 -324.5q0 -201 -57 -385t-163 -330.5t-249.5 -255t-324.5 -167t-380 -58.5zM1341 97 q175 0 334 52t285 148.5t219 227t143 294.5t50 343q0 224 -78.5 420.5t-214.5 336.5t-327 221t-408 81q-146 0 -282.5 -37t-250 -104.5t-208 -164.5t-159.5 -213.5t-100.5 -255.5t-35.5 -288q0 -297 134 -540t371 -382t528 -139zM1300 2583l-381 356h212l299 -356h-130z" />
<glyph unicode="&#xd3;" d="M1341 -33q-248 0 -467 92t-374 250t-245 379.5t-90 471.5q0 253 91.5 475t249 378.5t376 247t464.5 90.5q164 0 317.5 -41t282 -115.5t234.5 -182t180 -238t114.5 -287t40.5 -324.5q0 -201 -57 -385t-163 -330.5t-249.5 -255t-324.5 -167t-380 -58.5zM1341 97 q175 0 334 52t285 148.5t219 227t143 294.5t50 343q0 224 -78.5 420.5t-214.5 336.5t-327 221t-408 81q-146 0 -282.5 -37t-250 -104.5t-208 -164.5t-159.5 -213.5t-100.5 -255.5t-35.5 -288q0 -297 134 -540t371 -382t528 -139zM1273 2577l299 356h212l-381 -356h-130z" />
<glyph unicode="&#xd4;" d="M1341 -33q-248 0 -467 92t-374 250t-245 379.5t-90 471.5q0 253 91.5 475t249 378.5t376 247t464.5 90.5q164 0 317.5 -41t282 -115.5t234.5 -182t180 -238t114.5 -287t40.5 -324.5q0 -201 -57 -385t-163 -330.5t-249.5 -255t-324.5 -167t-380 -58.5zM1341 97 q175 0 334 52t285 148.5t219 227t143 294.5t50 343q0 224 -78.5 420.5t-214.5 336.5t-327 221t-408 81q-146 0 -282.5 -37t-250 -104.5t-208 -164.5t-159.5 -213.5t-100.5 -255.5t-35.5 -288q0 -297 134 -540t371 -382t528 -139zM1426 2933l297 -356h-136l-249 282 l-250 -282h-131l289 356h180z" />
<glyph unicode="&#xd5;" d="M1085 2615h-109q17 132 74 198.5t143 66.5q50 0 93 -24t68 -52.5t58.5 -52.5t67.5 -24q90 0 115 146h108q-17 -132 -73.5 -198.5t-143.5 -66.5q-50 0 -93 24t-67.5 52t-58 52t-67.5 24q-88 0 -115 -145zM165 1160q0 253 91.5 475t249 378.5t376 247t464.5 90.5 q164 0 317.5 -41t282 -115.5t234.5 -182t180 -238t114.5 -287t40.5 -324.5q0 -201 -57 -385t-163 -330.5t-249.5 -255t-324.5 -167t-380 -58.5q-248 0 -467 92t-374 250t-245 379.5t-90 471.5zM2372 1162q0 224 -78.5 420.5t-214.5 336.5t-327 221t-408 81 q-146 0 -282.5 -37t-250 -104.5t-208 -164.5t-159.5 -213.5t-100.5 -255.5t-35.5 -288q0 -297 134 -540t371 -382t528 -139q175 0 334 52t285 148.5t219 227t143 294.5t50 343z" />
<glyph unicode="&#xd6;" d="M1120 2625q-48 0 -81.5 34t-33.5 82t33.5 82t81.5 34t82 -34t34 -82t-34 -82t-82 -34zM1341 -33q-248 0 -467 92t-374 250t-245 379.5t-90 471.5q0 253 91.5 475t249 378.5t376 247t464.5 90.5q164 0 317.5 -41t282 -115.5t234.5 -182t180 -238t114.5 -287t40.5 -324.5 q0 -201 -57 -385t-163 -330.5t-249.5 -255t-324.5 -167t-380 -58.5zM1341 97q175 0 334 52t285 148.5t219 227t143 294.5t50 343q0 224 -78.5 420.5t-214.5 336.5t-327 221t-408 81q-146 0 -282.5 -37t-250 -104.5t-208 -164.5t-159.5 -213.5t-100.5 -255.5t-35.5 -288 q0 -297 134 -540t371 -382t528 -139zM1560 2625q-48 0 -82 34t-34 82t34 82t82 34t82 -34t34 -82t-34 -82t-82 -34z" />
<glyph unicode="&#xd7;" horiz-adv-x="1788" d="M284 264l-99 100l610 609l-609 609l101 101l609 -609l608 607l97 -96l-607 -609l611 -609l-101 -103l-611 611z" />
<glyph unicode="&#xd8;" d="M2323 2397l98 -87l-250 -289q163 -162 253.5 -382.5t90.5 -475.5q0 -201 -57 -385t-163 -330.5t-249.5 -255t-324.5 -167t-380 -58.5q-419 0 -733 246l-252 -291l-97 88l251 290q-164 163 -254.5 384.5t-90.5 475.5q0 253 91.5 475t249 378.5t376 247t464.5 90.5 q416 0 727 -243zM1341 97q175 0 334 52t285 148.5t219 227t143 294.5t50 343q0 222 -76 416t-215 338l-1384 -1600q276 -219 644 -219zM600 404l1383 1600q-274 217 -639 217q-146 0 -282.5 -37t-250 -104.5t-208 -164.5t-159.5 -213.5t-100.5 -255.5t-35.5 -288 q0 -222 76.5 -415.5t215.5 -338.5z" />
<glyph unicode="&#xd9;" horiz-adv-x="2377" d="M1925 803v1515h138v-1513q0 -249 -110.5 -440t-310 -294.5t-456.5 -103.5q-258 0 -456 103.5t-307 294t-109 439.5v1514h144v-1515q0 -215 92.5 -376t257 -245.5t379.5 -84.5q331 0 534.5 194.5t203.5 511.5zM783 2931h212l299 -356h-130z" />
<glyph unicode="&#xda;" horiz-adv-x="2377" d="M1925 803v1515h138v-1513q0 -249 -110.5 -440t-310 -294.5t-456.5 -103.5q-258 0 -456 103.5t-307 294t-109 439.5v1514h144v-1515q0 -215 92.5 -376t257 -245.5t379.5 -84.5q331 0 534.5 194.5t203.5 511.5zM1401 2924h212l-381 -356h-130z" />
<glyph unicode="&#xdb;" horiz-adv-x="2377" d="M1925 803v1515h138v-1513q0 -249 -110.5 -440t-310 -294.5t-456.5 -103.5q-258 0 -456 103.5t-307 294t-109 439.5v1514h144v-1515q0 -215 92.5 -376t257 -245.5t379.5 -84.5q331 0 534.5 194.5t203.5 511.5zM1590 2569h-136l-249 282l-250 -282h-131l289 356h180z" />
<glyph unicode="&#xdc;" horiz-adv-x="2377" d="M1925 803v1515h138v-1513q0 -249 -110.5 -440t-310 -294.5t-456.5 -103.5q-258 0 -456 103.5t-307 294t-109 439.5v1514h144v-1515q0 -215 92.5 -376t257 -245.5t379.5 -84.5q331 0 534.5 194.5t203.5 511.5zM853 2736q0 48 33.5 82t81.5 34t82 -34t34 -82t-34 -82 t-82 -34t-81.5 34t-33.5 82zM1292 2736q0 48 34 82t82 34t82 -34t34 -82t-34 -82t-82 -34t-82 34t-34 82z" />
<glyph unicode="&#xdd;" horiz-adv-x="2072" d="M1950 2318l-847 -1338v-980h-141v985l-827 1333h165l738 -1189l753 1189h159zM981 2553l299 356h212l-381 -356h-130z" />
<glyph unicode="&#xde;" horiz-adv-x="1962" d="M487 2318v-458h664q149 0 279.5 -51t223.5 -139.5t146.5 -214t53.5 -268.5q0 -191 -91 -346.5t-251.5 -243.5t-358.5 -88h-666v-509h-141v2318h141zM487 638h586q130 0 241.5 31.5t202 95.5t142.5 172.5t52 250.5q0 116 -35.5 209t-96.5 154.5t-146.5 102.5t-181 59 t-204.5 18h-560v-1093z" />
<glyph unicode="&#xdf;" horiz-adv-x="1876" d="M407 1738v-1738h-136v1781q0 154 52 278.5t142.5 203t207.5 120.5t250 42q179 0 324.5 -72t227 -197t81.5 -277q0 -73 -20 -136t-52.5 -107t-72 -83t-78.5 -73t-71.5 -67t-52.5 -74t-20 -87q0 -56 31 -102.5t80 -81.5t108.5 -70t119 -78t108.5 -95.5t80 -132t31 -178.5 q0 -245 -172.5 -396t-440.5 -151q-173 0 -361 74l19 119q171 -63 330 -63q71 0 139 14t131.5 45.5t111 77.5t76.5 114.5t29 151.5q0 85 -31 153t-80 112.5t-108.5 83t-119 75t-108.5 77.5t-80 102t-31 137q0 62 20 116t52.5 94t71.5 77.5t78.5 73.5t72 74.5t52.5 89 t20 107.5q0 73 -31 145.5t-89.5 135.5t-157 102.5t-219.5 39.5q-111 0 -203 -33.5t-162 -99.5t-109.5 -174.5t-39.5 -249.5z" />
<glyph unicode="&#xe0;" horiz-adv-x="1778" d="M1603 76l-18 -109q-99 0 -158 80.5t-59 250.5h-2q-32 -57 -95.5 -114.5t-151 -106.5t-205 -79.5t-240.5 -30.5q-118 0 -217.5 28.5t-175.5 84t-119 145t-43 203.5q0 113 42.5 204.5t128.5 161t226 107.5t324 38q218 0 528 -63v195q0 130 -35.5 221t-105 143.5t-161 75.5 t-215.5 23q-275 0 -520 -115l-50 111q120 66 270.5 99.5t306.5 33.5q312 0 479 -135.5t167 -398.5v-735q0 -148 21 -220.5t78 -97.5zM1368 749q-284 60 -499 60q-55 0 -106.5 -3.5t-114.5 -14t-116 -27t-105.5 -46t-88.5 -68t-58.5 -95t-22.5 -125.5q0 -74 25.5 -132.5 t67.5 -95.5t99 -61t115 -34t121 -10q123 0 245.5 38t219.5 102.5t157.5 158.5t60.5 198v155zM457 2332h198l280 -440h-122z" />
<glyph unicode="&#xe1;" horiz-adv-x="1778" d="M1603 76l-18 -109q-99 0 -158 80.5t-59 250.5h-2q-32 -57 -95.5 -114.5t-151 -106.5t-205 -79.5t-240.5 -30.5q-118 0 -217.5 28.5t-175.5 84t-119 145t-43 203.5q0 113 42.5 204.5t128.5 161t226 107.5t324 38q218 0 528 -63v195q0 130 -35.5 221t-105 143.5t-161 75.5 t-215.5 23q-275 0 -520 -115l-50 111q120 66 270.5 99.5t306.5 33.5q312 0 479 -135.5t167 -398.5v-735q0 -148 21 -220.5t78 -97.5zM1368 749q-284 60 -499 60q-55 0 -106.5 -3.5t-114.5 -14t-116 -27t-105.5 -46t-88.5 -68t-58.5 -95t-22.5 -125.5q0 -74 25.5 -132.5 t67.5 -95.5t99 -61t115 -34t121 -10q123 0 245.5 38t219.5 102.5t157.5 158.5t60.5 198v155zM1083 2332h198l-356 -440h-122z" />
<glyph unicode="&#xe2;" horiz-adv-x="1778" d="M1603 76l-18 -109q-99 0 -158 80.5t-59 250.5h-2q-32 -57 -95.5 -114.5t-151 -106.5t-205 -79.5t-240.5 -30.5q-118 0 -217.5 28.5t-175.5 84t-119 145t-43 203.5q0 113 42.5 204.5t128.5 161t226 107.5t324 38q218 0 528 -63v195q0 130 -35.5 221t-105 143.5t-161 75.5 t-215.5 23q-275 0 -520 -115l-50 111q120 66 270.5 99.5t306.5 33.5q312 0 479 -135.5t167 -398.5v-735q0 -148 21 -220.5t78 -97.5zM1368 749q-284 60 -499 60q-55 0 -106.5 -3.5t-114.5 -14t-116 -27t-105.5 -46t-88.5 -68t-58.5 -95t-22.5 -125.5q0 -74 25.5 -132.5 t67.5 -95.5t99 -61t115 -34t121 -10q123 0 245.5 38t219.5 102.5t157.5 158.5t60.5 198v155zM1240 1892h-127l-233 349l-233 -349h-123l270 440h169z" />
<glyph unicode="&#xe3;" horiz-adv-x="1778" d="M1603 76l-18 -109q-99 0 -158 80.5t-59 250.5h-2q-32 -57 -95.5 -114.5t-151 -106.5t-205 -79.5t-240.5 -30.5q-118 0 -217.5 28.5t-175.5 84t-119 145t-43 203.5q0 113 42.5 204.5t128.5 161t226 107.5t324 38q218 0 528 -63v195q0 130 -35.5 221t-105 143.5t-161 75.5 t-215.5 23q-275 0 -520 -115l-50 111q120 66 270.5 99.5t306.5 33.5q312 0 479 -135.5t167 -398.5v-735q0 -148 21 -220.5t78 -97.5zM644 1951h-109q17 138 74 207t143 69q50 0 93 -25t68 -54.5t58.5 -54.5t67.5 -25q90 0 115 152h108q-17 -137 -73.5 -206.5t-143.5 -69.5 q-41 0 -76.5 16.5t-60 40t-46.5 46.5t-48.5 39.5t-54.5 16.5q-88 0 -115 -152zM685 97q123 0 245.5 38t219.5 102.5t157.5 158.5t60.5 198v155q-284 60 -499 60q-55 0 -106.5 -3.5t-114.5 -14t-116 -27t-105.5 -46t-88.5 -68t-58.5 -95t-22.5 -125.5q0 -74 25.5 -132.5 t67.5 -95.5t99 -61t115 -34t121 -10z" />
<glyph unicode="&#xe4;" horiz-adv-x="1778" d="M1603 76l-18 -109q-99 0 -158 80.5t-59 250.5h-2q-32 -57 -95.5 -114.5t-151 -106.5t-205 -79.5t-240.5 -30.5q-118 0 -217.5 28.5t-175.5 84t-119 145t-43 203.5q0 113 42.5 204.5t128.5 161t226 107.5t324 38q218 0 528 -63v195q0 130 -35.5 221t-105 143.5t-161 75.5 t-215.5 23q-275 0 -520 -115l-50 111q120 66 270.5 99.5t306.5 33.5q312 0 479 -135.5t167 -398.5v-735q0 -148 21 -220.5t78 -97.5zM1368 749q-284 60 -499 60q-55 0 -106.5 -3.5t-114.5 -14t-116 -27t-105.5 -46t-88.5 -68t-58.5 -95t-22.5 -125.5q0 -74 25.5 -132.5 t67.5 -95.5t99 -61t115 -34t121 -10q123 0 245.5 38t219.5 102.5t157.5 158.5t60.5 198v155zM545 2068q0 48 33.5 82t81.5 34t82 -34t34 -82t-34 -82t-82 -34t-81.5 34t-33.5 82zM984 2068q0 48 34 82t82 34t82 -34t34 -82t-34 -82t-82 -34t-82 34t-34 82z" />
<glyph unicode="&#xe5;" horiz-adv-x="1778" d="M1603 76l-18 -109q-99 0 -158 80.5t-59 250.5h-2q-32 -57 -95.5 -114.5t-151 -106.5t-205 -79.5t-240.5 -30.5q-118 0 -217.5 28.5t-175.5 84t-119 145t-43 203.5q0 113 42.5 204.5t128.5 161t226 107.5t324 38q218 0 528 -63v195q0 130 -35.5 221t-105 143.5t-161 75.5 t-215.5 23q-275 0 -520 -115l-50 111q120 66 270.5 99.5t306.5 33.5q312 0 479 -135.5t167 -398.5v-735q0 -148 21 -220.5t78 -97.5zM1368 749q-284 60 -499 60q-55 0 -106.5 -3.5t-114.5 -14t-116 -27t-105.5 -46t-88.5 -68t-58.5 -95t-22.5 -125.5q0 -74 25.5 -132.5 t67.5 -95.5t99 -61t115 -34t121 -10q123 0 245.5 38t219.5 102.5t157.5 158.5t60.5 198v155zM576 2178q0 128 91 219t219 91q129 0 220 -91t91 -219q0 -129 -91 -220t-220 -91q-128 0 -219 91t-91 220zM1089 2178q0 84 -59.5 143t-143.5 59t-143 -59t-59 -143q0 -85 59 -144 t143 -59t143.5 59t59.5 144z" />
<glyph unicode="&#xe6;" horiz-adv-x="3044" d="M2190 -33q-245 0 -441 110.5t-296 313.5q-59 -129 -182 -227t-277 -147.5t-317 -49.5q-119 0 -219.5 28.5t-176.5 84t-119 144.5t-43 203q0 113 42.5 205t128.5 161.5t226 107.5t324 38q218 0 528 -63v195q0 130 -35.5 221t-105 143.5t-161 75.5t-215.5 23 q-275 0 -520 -115l-50 111q120 66 270.5 99.5t306.5 33.5q264 0 424 -97t205 -284q108 183 285.5 282t391.5 99q169 0 312.5 -63t241 -171t152 -255t54.5 -314q0 -60 -4 -90h-1416q16 -310 198.5 -491.5t493.5 -181.5q136 0 253.5 36.5t244.5 111.5l72 -98 q-117 -85 -266 -132.5t-310 -47.5zM1368 594v155q-284 60 -503 60q-305 0 -456.5 -101t-151.5 -280q0 -73 25.5 -131t67.5 -95t99 -61t115.5 -34t121.5 -10q123 0 245 38t219 102.5t157.5 158.5t60.5 198zM1508 898h1277q-2 98 -29.5 191.5t-80.5 173.5t-126 140.5t-172 95 t-212 34.5q-136 0 -256 -50t-204.5 -135.5t-136.5 -202t-60 -247.5z" />
<glyph unicode="&#xe7;" horiz-adv-x="1578" d="M1406 201l72 -99q-216 -134 -481 -135l-94 -148q113 -6 183.5 -64t70.5 -163q0 -82 -46.5 -139t-116 -80.5t-154.5 -23.5q-124 0 -209 45l35 93q89 -38 177 -38q44 0 82 11t67 41t29 76q0 37 -19 68t-48.5 50t-66.5 32.5t-71.5 19t-64.5 5.5l131 222q-118 14 -224.5 55.5 t-199 113t-159.5 166t-105.5 221.5t-38.5 274q0 194 67 357t182 272t271 169.5t333 60.5q247 0 451 -114l-62 -105q-200 89 -383 89q-208 0 -371.5 -89t-256.5 -255t-93 -382q0 -165 55.5 -300.5t152 -224t224.5 -137t275 -48.5q196 0 406 104z" />
<glyph unicode="&#xe8;" horiz-adv-x="1835" d="M1556 146q-120 -86 -268.5 -132.5t-307.5 -46.5q-136 0 -259 34.5t-226.5 104.5t-179 168.5t-117.5 234t-42 293.5q0 194 63 357t171 272.5t254 170.5t312 61q169 0 312 -63t240.5 -171t152 -255.5t54.5 -313.5q0 -60 -4 -90h-1416q16 -310 198.5 -491.5t493.5 -181.5 q136 0 253.5 36.5t244.5 111.5zM299 898h1277q-2 98 -29.5 191.5t-80.5 173.5t-126 140.5t-172 95t-212 34.5q-136 0 -256 -50t-204.5 -135.5t-136.5 -202t-60 -247.5zM601 2332h198l280 -440h-122z" />
<glyph unicode="&#xe9;" horiz-adv-x="1835" d="M1556 146q-120 -86 -268.5 -132.5t-307.5 -46.5q-136 0 -259 34.5t-226.5 104.5t-179 168.5t-117.5 234t-42 293.5q0 194 63 357t171 272.5t254 170.5t312 61q169 0 312 -63t240.5 -171t152 -255.5t54.5 -313.5q0 -60 -4 -90h-1416q16 -310 198.5 -491.5t493.5 -181.5 q136 0 253.5 36.5t244.5 111.5zM299 898h1277q-2 98 -29.5 191.5t-80.5 173.5t-126 140.5t-172 95t-212 34.5q-136 0 -256 -50t-204.5 -135.5t-136.5 -202t-60 -247.5zM1185 2332h198l-356 -440h-122z" />
<glyph unicode="&#xea;" horiz-adv-x="1835" d="M1556 146q-120 -86 -268.5 -132.5t-307.5 -46.5q-136 0 -259 34.5t-226.5 104.5t-179 168.5t-117.5 234t-42 293.5q0 194 63 357t171 272.5t254 170.5t312 61q169 0 312 -63t240.5 -171t152 -255.5t54.5 -313.5q0 -60 -4 -90h-1416q16 -310 198.5 -491.5t493.5 -181.5 q136 0 253.5 36.5t244.5 111.5zM1326 1892h-127l-233 349l-233 -349h-123l270 440h169zM299 898h1277q-2 98 -29.5 191.5t-80.5 173.5t-126 140.5t-172 95t-212 34.5q-136 0 -256 -50t-204.5 -135.5t-136.5 -202t-60 -247.5z" />
<glyph unicode="&#xeb;" horiz-adv-x="1835" d="M1556 146q-120 -86 -268.5 -132.5t-307.5 -46.5q-136 0 -259 34.5t-226.5 104.5t-179 168.5t-117.5 234t-42 293.5q0 194 63 357t171 272.5t254 170.5t312 61q169 0 312 -63t240.5 -171t152 -255.5t54.5 -313.5q0 -60 -4 -90h-1416q16 -310 198.5 -491.5t493.5 -181.5 q136 0 253.5 36.5t244.5 111.5zM649 2068q0 48 33.5 82t81.5 34t82 -34t34 -82t-34 -82t-82 -34t-81.5 34t-33.5 82zM1088 2068q0 48 34 82t82 34t82 -34t34 -82t-34 -82t-82 -34t-82 34t-34 82zM299 898h1277q-2 98 -29.5 191.5t-80.5 173.5t-126 140.5t-172 95t-212 34.5 q-136 0 -256 -50t-204.5 -135.5t-136.5 -202t-60 -247.5z" />
<glyph unicode="&#xec;" horiz-adv-x="678" d="M276 1891l-356 440h198l280 -440h-122zM271 0v1630h136v-1630h-136z" />
<glyph unicode="&#xed;" horiz-adv-x="678" d="M271 0v1630h136v-1630h-136zM289 1891l280 440h198l-356 -440h-122z" />
<glyph unicode="&#xee;" horiz-adv-x="678" d="M421 2332l277 -440h-127l-233 349l-233 -349h-123l270 440h169zM271 0v1630h136v-1630h-136z" />
<glyph unicode="&#xef;" horiz-adv-x="678" d="M119 1948q-48 0 -81.5 34t-33.5 82t33.5 82t81.5 34t82 -34t34 -82t-34 -82t-82 -34zM559 1948q-48 0 -82 34t-34 82t34 82t82 34t82 -34t34 -82t-34 -82t-82 -34zM271 0v1630h136v-1630h-136z" />
<glyph unicode="&#xf0;" horiz-adv-x="1831" d="M550 2324l108 68q163 -91 326 -241l286 161l82 -94l-276 -156q122 -124 225 -265.5t187 -303.5t132 -342t48 -356q0 -191 -57 -347.5t-157.5 -261.5t-239.5 -162t-303 -57q-162 0 -300.5 55.5t-237 154.5t-154.5 242t-56 312q0 171 57 316.5t155.5 245t234 156 t289.5 56.5q156 0 293.5 -57t237.5 -168l2 1q-155 388 -478 713l-306 -173l-81 95l295 166q-145 131 -312 242zM903 97q183 0 327 83.5t222.5 228.5t78.5 325q0 131 -43.5 247.5t-122 204t-197 139t-259.5 51.5q-142 0 -259 -52.5t-192.5 -142t-116 -206t-40.5 -246.5 q0 -176 70.5 -318.5t209 -228t322.5 -85.5z" />
<glyph unicode="&#xf1;" horiz-adv-x="1955" d="M1706 0h-136v922q0 289 -129.5 450t-389.5 161q-182 0 -329.5 -77t-232 -214.5t-84.5 -307.5v-934h-136v1630h126l21 -288q228 321 627 321q313 0 488 -181t175 -498v-984zM747 1952h-109q17 138 74 207t143 69q50 0 93 -25t68 -54.5t58.5 -54.5t67.5 -25q90 0 115 152 h108q-17 -137 -73.5 -206.5t-143.5 -69.5q-41 0 -76.5 16.5t-60 40t-46.5 46.5t-48.5 39.5t-54.5 16.5q-88 0 -115 -152z" />
<glyph unicode="&#xf2;" horiz-adv-x="1974" d="M981 -33q-139 0 -266 39.5t-228.5 115t-176.5 178t-116 234.5t-41 279q0 247 110.5 442t301 301.5t424.5 106.5q174 0 327.5 -62t264.5 -171t175.5 -267t64.5 -342q0 -247 -111.5 -443t-303 -303.5t-425.5 -107.5zM982 97q198 0 358 91.5t251.5 257t91.5 374.5 q0 155 -52.5 288.5t-144 226.5t-220 145.5t-276.5 52.5q-149 0 -278 -52.5t-222 -146t-146 -228.5t-53 -292q0 -208 89.5 -372t247 -254.5t354.5 -90.5zM970 1892l-356 440h198l280 -440h-122z" />
<glyph unicode="&#xf3;" horiz-adv-x="1974" d="M981 -33q-139 0 -266 39.5t-228.5 115t-176.5 178t-116 234.5t-41 279q0 247 110.5 442t301 301.5t424.5 106.5q174 0 327.5 -62t264.5 -171t175.5 -267t64.5 -342q0 -247 -111.5 -443t-303 -303.5t-425.5 -107.5zM982 97q198 0 358 91.5t251.5 257t91.5 374.5 q0 155 -52.5 288.5t-144 226.5t-220 145.5t-276.5 52.5q-149 0 -278 -52.5t-222 -146t-146 -228.5t-53 -292q0 -208 89.5 -372t247 -254.5t354.5 -90.5zM897 1892l280 440h198l-356 -440h-122z" />
<glyph unicode="&#xf4;" horiz-adv-x="1974" d="M981 -33q-139 0 -266 39.5t-228.5 115t-176.5 178t-116 234.5t-41 279q0 247 110.5 442t301 301.5t424.5 106.5q174 0 327.5 -62t264.5 -171t175.5 -267t64.5 -342q0 -247 -111.5 -443t-303 -303.5t-425.5 -107.5zM982 97q198 0 358 91.5t251.5 257t91.5 374.5 q0 155 -52.5 288.5t-144 226.5t-220 145.5t-276.5 52.5q-149 0 -278 -52.5t-222 -146t-146 -228.5t-53 -292q0 -208 89.5 -372t247 -254.5t354.5 -90.5zM1068 2332l277 -440h-127l-233 349l-233 -349h-123l270 440h169z" />
<glyph unicode="&#xf5;" horiz-adv-x="1974" d="M732 1951h-109q17 138 74 207t143 69q50 0 93 -25t68 -54.5t58.5 -54.5t67.5 -25q90 0 115 152h108q-17 -137 -73.5 -206.5t-143.5 -69.5q-41 0 -76.5 16.5t-60 40t-46.5 46.5t-48.5 39.5t-54.5 16.5q-88 0 -115 -152zM153 813q0 247 110.5 442t301 301.5t424.5 106.5 q174 0 327.5 -62t264.5 -171t175.5 -267t64.5 -342q0 -247 -111.5 -443t-303 -303.5t-425.5 -107.5q-139 0 -266 39.5t-228.5 115t-176.5 178t-116 234.5t-41 279zM1683 820q0 155 -52.5 288.5t-144 226.5t-220 145.5t-276.5 52.5q-149 0 -278 -52.5t-222 -146t-146 -228.5 t-53 -292q0 -208 89.5 -372t247 -254.5t354.5 -90.5q198 0 358 91.5t251.5 257t91.5 374.5z" />
<glyph unicode="&#xf6;" horiz-adv-x="1974" d="M766 1952q-48 0 -81.5 34t-33.5 82t33.5 82t81.5 34t82 -34t34 -82t-34 -82t-82 -34zM981 -33q-139 0 -266 39.5t-228.5 115t-176.5 178t-116 234.5t-41 279q0 247 110.5 442t301 301.5t424.5 106.5q174 0 327.5 -62t264.5 -171t175.5 -267t64.5 -342q0 -247 -111.5 -443 t-303 -303.5t-425.5 -107.5zM982 97q198 0 358 91.5t251.5 257t91.5 374.5q0 155 -52.5 288.5t-144 226.5t-220 145.5t-276.5 52.5q-149 0 -278 -52.5t-222 -146t-146 -228.5t-53 -292q0 -208 89.5 -372t247 -254.5t354.5 -90.5zM1206 1952q-48 0 -82 34t-34 82t34 82t82 34 t82 -34t34 -82t-34 -82t-82 -34z" />
<glyph unicode="&#xf7;" horiz-adv-x="2078" d="M1038 127q-58 0 -99 41t-41 99t41 99t99 41t99 -41t41 -99t-41 -99t-99 -41zM1038 1541q-58 0 -99 41t-41 99t41 98.5t99 40.5t99 -40.5t41 -98.5t-41 -99t-99 -41zM241 908v132h1593v-132h-1593z" />
<glyph unicode="&#xf8;" horiz-adv-x="1974" d="M1649 1715l101 -85l-168 -202q114 -113 176.5 -268.5t62.5 -338.5q0 -247 -111.5 -443t-303 -303.5t-425.5 -107.5q-277 0 -489 150l-168 -203l-100 86l168 202q-114 114 -176.5 270.5t-62.5 340.5q0 247 110.5 442t301 301.5t424.5 106.5q278 0 492 -150zM982 97 q198 0 358 91.5t251.5 257t91.5 374.5q0 304 -187 504l-918 -1104q173 -123 404 -123zM479 306l917 1104q-174 123 -406 123q-149 0 -278 -52.5t-222 -146t-146 -228.5t-53 -292q0 -307 188 -508z" />
<glyph unicode="&#xf9;" horiz-adv-x="1937" d="M1666 1630v-1630h-126l-22 288q-229 -321 -617 -321q-307 0 -479.5 182t-172.5 497v984h136v-922q0 -286 126 -448.5t382 -162.5q134 0 252 45.5t202.5 125t133.5 190.5t49 238v934h136zM933 1894l-356 440h198l280 -440h-122z" />
<glyph unicode="&#xfa;" horiz-adv-x="1937" d="M1666 1630v-1630h-126l-22 288q-229 -321 -617 -321q-307 0 -479.5 182t-172.5 497v984h136v-922q0 -286 126 -448.5t382 -162.5q134 0 252 45.5t202.5 125t133.5 190.5t49 238v934h136zM875 1894l280 440h198l-356 -440h-122z" />
<glyph unicode="&#xfb;" horiz-adv-x="1937" d="M1666 1630v-1630h-126l-22 288q-229 -321 -617 -321q-307 0 -479.5 182t-172.5 497v984h136v-922q0 -286 126 -448.5t382 -162.5q134 0 252 45.5t202.5 125t133.5 190.5t49 238v934h136zM1057 2334l277 -440h-127l-233 349l-233 -349h-123l270 440h169z" />
<glyph unicode="&#xfc;" horiz-adv-x="1937" d="M1666 1630v-1630h-126l-22 288q-229 -321 -617 -321q-307 0 -479.5 182t-172.5 497v984h136v-922q0 -286 126 -448.5t382 -162.5q134 0 252 45.5t202.5 125t133.5 190.5t49 238v934h136zM737 1951q-48 0 -81.5 34t-33.5 82t33.5 82t81.5 34t82 -34t34 -82t-34 -82 t-82 -34zM1177 1951q-48 0 -82 34t-34 82t34 82t82 34t82 -34t34 -82t-34 -82t-82 -34z" />
<glyph unicode="&#xfd;" horiz-adv-x="1680" d="M844 182l594 1448h142l-836 -2038q-40 -99 -113 -170t-160.5 -105.5t-182.5 -34.5q-72 0 -132 20l20 121q49 -12 97 -12q252 0 367 278l129 312l-649 1629h148zM806 1922l280 440h198l-356 -440h-122z" />
<glyph unicode="&#xfe;" horiz-adv-x="1990" d="M406 2425v-1100l2 -1q105 162 266 250.5t355 88.5q93 0 185.5 -21t183.5 -63t169 -112t138 -161t94 -217.5t34 -273.5t-34 -273.5t-94 -217.5t-138 -161t-169 -112t-183.5 -63t-185.5 -21q-194 0 -355 88.5t-266 250.5l-2 -1v-992l-136 -31v3112zM1695 815 q0 205 -80.5 368t-230.5 256.5t-345 93.5q-135 0 -251 -47t-203.5 -135.5t-137.5 -226t-50 -309.5t50 -309.5t137.5 -226t203.5 -135.5t251 -47q195 0 345 93.5t230.5 256.5t80.5 368z" />
<glyph unicode="&#xff;" horiz-adv-x="1680" d="M844 182l594 1448h142l-836 -2038q-40 -99 -113 -170t-160.5 -105.5t-182.5 -34.5q-72 0 -132 20l20 121q49 -12 97 -12q252 0 367 278l129 312l-649 1629h148zM661 1979q-48 0 -81.5 34t-33.5 82t33.5 82t81.5 34t82 -34t34 -82t-34 -82t-82 -34zM1101 1979 q-48 0 -82 34t-34 82t34 82t82 34t82 -34t34 -82t-34 -82t-82 -34z" />
<glyph unicode="&#x152;" horiz-adv-x="3517" d="M3348 2318v-129h-1202v-956h1049v-129h-1049v-975h1234v-129h-1375v164q-292 -197 -664 -197q-248 0 -467 92t-374 250t-245 379.5t-90 471.5q0 253 91.5 475t249 378.5t375.5 247t464 90.5q368 0 660 -194v161h1343zM2005 334v1653q-135 113 -304 173.5t-358 60.5 q-217 0 -409.5 -81.5t-329.5 -222t-216.5 -338t-79.5 -420.5q0 -222 78.5 -419t215 -338t328.5 -223t410 -82q190 0 360 61.5t305 175.5z" />
<glyph unicode="&#x153;" horiz-adv-x="3360" d="M153 813q0 185 64.5 344t176 269.5t266 173.5t330.5 63q259 0 462 -130.5t299 -355.5q94 229 288 357.5t441 128.5q169 0 312.5 -62.5t241 -170.5t152 -255.5t54.5 -314.5q0 -60 -4 -90h-1416q16 -310 198.5 -491.5t493.5 -181.5q136 0 253.5 36.5t244.5 111.5l71 -99 q-118 -85 -267 -132t-308 -47q-262 0 -466.5 126t-295.5 354q-99 -222 -303 -351t-460 -129q-139 0 -266 39.5t-228.5 115t-176.5 178t-116 234.5t-41 279zM1683 820q0 155 -52.5 288.5t-144 226.5t-220 145.5t-276.5 52.5q-149 0 -278 -52.5t-222 -146t-146 -228.5 t-53 -292q0 -208 89.5 -372t247 -254.5t354.5 -90.5q198 0 358 91.5t251.5 257t91.5 374.5zM1824 898h1277q-2 98 -29.5 191.5t-80.5 173.5t-126 140.5t-172 95t-212 34.5q-136 0 -256 -50t-204.5 -135.5t-136.5 -202t-60 -247.5z" />
<glyph unicode="&#x178;" horiz-adv-x="2072" d="M844 2604q-48 0 -81.5 34t-33.5 82t33.5 82t81.5 34t82 -34t34 -82t-34 -82t-82 -34zM1284 2604q-48 0 -82 34t-34 82t34 82t82 34t82 -34t34 -82t-34 -82t-82 -34zM1950 2318l-847 -1338v-980h-141v985l-827 1333h165l738 -1189l753 1189h159z" />
<glyph unicode="&#x2c6;" horiz-adv-x="966" d="M564 2353l277 -440h-127l-233 349l-233 -349h-123l270 440h169z" />
<glyph unicode="&#x2dc;" horiz-adv-x="1079" d="M285 1986h-109q17 138 74 207t143 69q50 0 93 -25t68 -54.5t58.5 -54.5t67.5 -25q90 0 115 152h108q-17 -137 -73.5 -206.5t-143.5 -69.5q-41 0 -76.5 16.5t-60 39.5t-46.5 46.5t-48.5 40t-54.5 16.5q-88 0 -115 -152z" />
<glyph unicode="&#x2000;" horiz-adv-x="1577" />
<glyph unicode="&#x2001;" horiz-adv-x="3154" />
<glyph unicode="&#x2002;" horiz-adv-x="1577" />
<glyph unicode="&#x2003;" horiz-adv-x="3154" />
<glyph unicode="&#x2004;" horiz-adv-x="1051" />
<glyph unicode="&#x2005;" horiz-adv-x="788" />
<glyph unicode="&#x2006;" horiz-adv-x="525" />
<glyph unicode="&#x2007;" horiz-adv-x="525" />
<glyph unicode="&#x2008;" horiz-adv-x="394" />
<glyph unicode="&#x2009;" horiz-adv-x="630" />
<glyph unicode="&#x200a;" horiz-adv-x="175" />
<glyph unicode="&#x2010;" horiz-adv-x="1315" d="M233 816v129h849v-129h-849z" />
<glyph unicode="&#x2011;" horiz-adv-x="1315" d="M233 816v129h849v-129h-849z" />
<glyph unicode="&#x2012;" horiz-adv-x="1315" d="M233 816v129h849v-129h-849z" />
<glyph unicode="&#x2013;" horiz-adv-x="2055" d="M224 821v120h1607v-120h-1607z" />
<glyph unicode="&#x2014;" horiz-adv-x="3608" d="M224 821v120h3160v-120h-3160z" />
<glyph unicode="&#x2018;" horiz-adv-x="660" d="M478 2343q-15 -7 -30 -17t-35.5 -29.5t-33.5 -50t-13 -67.5q0 -48 32 -92t32 -79q0 -48 -31.5 -80.5t-81.5 -32.5q-57 0 -87.5 45t-30.5 122q0 123 72 227.5t174 135.5z" />
<glyph unicode="&#x2019;" horiz-adv-x="663" d="M202 1977q15 7 30 17t35.5 29.5t33.5 50t13 67.5q0 48 -32 92t-32 79q0 48 31.5 80.5t81.5 32.5q57 0 87.5 -45t30.5 -122q0 -123 -72 -227.5t-174 -135.5z" />
<glyph unicode="&#x201a;" horiz-adv-x="792" d="M239 -242q15 7 30 17t35.5 29.5t33.5 50t13 67.5q0 48 -32 92t-32 79q0 48 31.5 80.5t81.5 32.5q57 0 87.5 -45t30.5 -122q0 -123 -72 -227.5t-174 -135.5z" />
<glyph unicode="&#x201c;" horiz-adv-x="1014" d="M478 2343q-15 -7 -30 -17t-35.5 -29.5t-33.5 -50t-13 -67.5q0 -48 32 -92t32 -79q0 -48 -31.5 -80.5t-81.5 -32.5q-57 0 -87.5 45t-30.5 122q0 123 72 227.5t174 135.5zM799 2425l33 -82q-15 -7 -30 -17t-35.5 -29.5t-33.5 -50t-13 -67.5q0 -48 32 -92t32 -79 q0 -48 -31.5 -80.5t-81.5 -32.5q-57 0 -87.5 45t-30.5 122q0 123 72 227.5t174 135.5z" />
<glyph unicode="&#x201d;" horiz-adv-x="1017" d="M202 1977q15 7 30 17t35.5 29.5t33.5 50t13 67.5q0 48 -32 92t-32 79q0 48 31.5 80.5t81.5 32.5q57 0 87.5 -45t30.5 -122q0 -123 -72 -227.5t-174 -135.5zM589 1895l-33 82q15 7 30 17t35.5 29.5t33.5 50t13 67.5q0 48 -32 92t-32 79q0 48 31.5 80.5t81.5 32.5 q57 0 87.5 -45t30.5 -122q0 -123 -72 -227.5t-174 -135.5z" />
<glyph unicode="&#x201e;" horiz-adv-x="1146" d="M239 -242q15 7 30 17t35.5 29.5t33.5 50t13 67.5q0 48 -32 92t-32 79q0 48 31.5 80.5t81.5 32.5q57 0 87.5 -45t30.5 -122q0 -123 -72 -227.5t-174 -135.5zM626 -324l-33 82q15 7 30 17t35.5 29.5t33.5 50t13 67.5q0 48 -32 92t-32 79q0 48 31.5 80.5t81.5 32.5 q57 0 87.5 -45t30.5 -122q0 -123 -72 -227.5t-174 -135.5z" />
<glyph unicode="&#x2022;" horiz-adv-x="1590" d="M795 563q-112 0 -214 43.5t-175.5 117t-117 175.5t-43.5 214t43.5 214t117 175.5t175.5 117t214 43.5t214 -43.5t175.5 -117t117 -175.5t43.5 -214t-43.5 -214t-117 -175.5t-175.5 -117t-214 -43.5z" />
<glyph unicode="&#x2026;" horiz-adv-x="2849" d="M358 -33q-52 0 -88.5 36.5t-36.5 88.5t36.5 88.5t88.5 36.5t88.5 -36.5t36.5 -88.5t-36.5 -88.5t-88.5 -36.5zM1425 -33q-52 0 -88.5 36.5t-36.5 88.5t36.5 88.5t88.5 36.5t88.5 -36.5t36.5 -88.5t-36.5 -88.5t-88.5 -36.5zM2491 -33q-52 0 -88.5 36.5t-36.5 88.5 t36.5 88.5t88.5 36.5t88.5 -36.5t36.5 -88.5t-36.5 -88.5t-88.5 -36.5z" />
<glyph unicode="&#x202f;" horiz-adv-x="630" />
<glyph unicode="&#x2039;" horiz-adv-x="969" d="M624 214l-448 633l448 634h152l-408 -634l409 -633h-153z" />
<glyph unicode="&#x203a;" horiz-adv-x="969" d="M192 214l409 633l-408 634h152l448 -634l-448 -633h-153z" />
<glyph unicode="&#x205f;" horiz-adv-x="788" />
<glyph unicode="&#x20ac;" horiz-adv-x="2037" d="M1847 2085l-66 -104q-241 171 -482 171q-288 0 -503.5 -202t-289.5 -530h1060l-38 -125h-1044q-11 -91 -11 -180q0 -59 4 -106h966l-38 -125h-913q38 -230 147.5 -407.5t278.5 -278.5t372 -101q250 0 492 166l67 -103q-119 -92 -267.5 -142.5t-303.5 -50.5 q-235 0 -432.5 117t-325.5 325t-169 475h-230l38 125h178q-3 52 -3 106q0 96 10 180h-208l38 125h191q39 189 125 348.5t206 273t274 177t324 63.5q305 0 553 -197z" />
<glyph unicode="&#x2122;" horiz-adv-x="3196" d="M1410 2318h221l536 -1197l527 1197h219v-1395h-129v1277l-2 1l-577 -1278h-89l-574 1279l-2 -1v-1278h-130v1395zM1192 2318v-115h-473v-1280h-129v1280h-473v115h1075z" />
<glyph unicode="&#xfb01;" horiz-adv-x="1664" d="M48 1508v122h319v292q0 237 136.5 370t374.5 133q44 0 104 -6l-19 -125q-28 2 -53 2q-222 0 -314.5 -100t-92.5 -331v-235h460v-122h-460v-1508h-136v1508h-319zM1204 2164q0 50 35.5 85.5t85.5 35.5t85.5 -35.5t35.5 -85.5t-35.5 -85.5t-85.5 -35.5t-85.5 35.5 t-35.5 85.5zM1257 1630h136v-1630h-136v1630z" />
<glyph unicode="&#xfb02;" horiz-adv-x="1681" d="M48 1508v122h319v292q0 237 136.5 370t374.5 133q44 0 104 -6l-19 -125q-28 2 -53 2q-222 0 -314.5 -100t-92.5 -331v-235h460v-122h-460v-1508h-136v1508h-319zM1389 2425v-2021q0 -150 21.5 -226.5t77.5 -101.5l-17 -109q-99 0 -158.5 78t-59.5 237v2112z" />
</font>
</defs>
</svg>
