<?xml version="1.0" encoding="utf-8"?>
<!-- Generator: Adobe Illustrator 16.0.4, SVG Export Plug-In . SVG Version: 6.00 Build 0)  -->
<!DOCTYPE svg PUBLIC "-//W3C//DTD SVG 1.1 Tiny//EN" "http://www.w3.org/Graphics/SVG/1.1/DTD/svg11-tiny.dtd">
<svg version="1.1" baseProfile="tiny" id="Layer_1" xmlns="http://www.w3.org/2000/svg" xmlns:xlink="http://www.w3.org/1999/xlink"
	 x="0px" y="0px" width="313.945px" height="224.739px" viewBox="0 0 313.945 224.739" xml:space="preserve">
<path fill="#FFFFFF" d="M287.252,67.691l-236-70.085c-12.857-3.82-27.371-1.225-38.104,6.803C2.284,12.53-4.182,25.478-4.154,39.036
	l0.3,146.793c0.028,13.746,6.691,26.77,17.822,34.836c7.409,5.366,16.161,8.203,25.311,8.203c4.533,0,9.021-0.713,13.342-2.117
	l235.696-76.705c18.06-5.877,30.025-22.582,29.779-41.57C317.852,89.487,305.458,73.099,287.252,67.691z"/>
<path fill="#87B03F" d="M286.069,71.699L50.07,1.614C38.265-1.894,25.495,0.388,15.634,7.763C5.771,15.14-0.026,26.741,0,39.056
	l0.3,146.789c0.026,12.467,6.012,24.165,16.106,31.482c6.736,4.881,14.755,7.412,22.873,7.412c4.044,0,8.113-0.629,12.056-1.91
	l235.695-76.705c16.229-5.281,27.134-20.506,26.911-37.567C313.723,91.495,302.425,76.559,286.069,71.699z"/>
<g>
	<path fill="#FFFFFF" d="M73.759,109.47c0.009,1.881-0.168,3.555-0.534,5.01c-0.367,1.459-0.851,2.73-1.46,3.82
		c-0.608,1.085-1.32,1.997-2.136,2.734c-0.82,0.738-1.667,1.334-2.547,1.781c-0.874,0.452-1.767,0.784-2.676,0.987
		c-0.907,0.202-1.764,0.307-2.562,0.311c-1.665,0.013-3.11-0.261-4.334-0.792c-1.228-0.539-2.33-1.334-3.309-2.395h-0.086
		l0.073,15.787l-4.343,0.017l-0.188-40.401l3.338-0.012l0.96,3.079h0.083c0.248-0.386,0.564-0.755,0.953-1.119
		c0.39-0.364,0.91-0.753,1.568-1.168c0.651-0.407,1.44-0.763,2.364-1.077c0.919-0.314,1.925-0.465,3.011-0.469
		c1.519-0.013,2.99,0.236,4.413,0.75c1.423,0.506,2.676,1.318,3.767,2.433c1.088,1.122,1.968,2.561,2.632,4.317
		C73.412,104.816,73.748,106.959,73.759,109.47 M69.133,109.548c-0.004-1.586-0.18-2.996-0.521-4.256
		c-0.342-1.255-0.848-2.324-1.523-3.203c-0.674-0.881-1.496-1.557-2.478-2.029c-0.977-0.469-2.109-0.704-3.39-0.701
		c-0.922,0.004-1.759,0.142-2.512,0.39c-0.754,0.245-1.441,0.56-2.049,0.949c-0.609,0.378-1.134,0.792-1.57,1.235
		c-0.44,0.438-0.794,0.828-1.06,1.172l0.067,14.188c0.942,0.949,2.014,1.695,3.21,2.25c1.201,0.543,2.487,0.809,3.866,0.805
		c0.843-0.004,1.733-0.166,2.668-0.48c0.936-0.319,1.801-0.887,2.591-1.699c0.792-0.809,1.442-1.919,1.953-3.307
		C68.896,113.464,69.146,111.694,69.133,109.548"/>
	<path fill="#FFFFFF" d="M80.977,103.407c0.002,0.746,0.16,1.352,0.477,1.828c0.32,0.467,0.745,0.857,1.279,1.151
		c0.535,0.29,1.148,0.534,1.844,0.717c0.702,0.187,1.423,0.356,2.167,0.501c1.023,0.229,1.994,0.477,2.907,0.746
		c0.916,0.273,1.759,0.68,2.533,1.234c0.775,0.543,1.402,1.289,1.881,2.226c0.48,0.94,0.727,2.163,0.732,3.667
		c0.004,1.372-0.259,2.59-0.786,3.65c-0.526,1.049-1.278,1.943-2.241,2.665c-0.969,0.717-2.127,1.26-3.475,1.641
		c-1.351,0.377-2.835,0.571-4.45,0.575c-0.991,0.005-1.896-0.045-2.7-0.145c-0.812-0.103-1.525-0.228-2.145-0.389
		c-0.616-0.158-1.149-0.324-1.587-0.494c-0.437-0.166-0.802-0.326-1.089-0.48l-0.016-3.709c1.127,0.448,2.237,0.809,3.344,1.074
		c1.101,0.256,2.318,0.385,3.644,0.377c1.044-0.004,1.991-0.107,2.83-0.295c0.838-0.194,1.563-0.48,2.171-0.857
		c0.602-0.368,1.064-0.842,1.39-1.404c0.325-0.56,0.486-1.215,0.481-1.956c-0.001-0.763-0.156-1.388-0.452-1.885
		c-0.304-0.489-0.71-0.903-1.214-1.223c-0.506-0.319-1.093-0.585-1.757-0.787c-0.662-0.216-1.359-0.397-2.089-0.563
		c-0.956-0.203-1.921-0.447-2.905-0.73c-0.982-0.277-1.876-0.67-2.681-1.188c-0.809-0.506-1.459-1.207-1.958-2.086
		c-0.5-0.882-0.753-2.018-0.759-3.409c-0.007-1.431,0.245-2.669,0.753-3.717c0.51-1.048,1.2-1.915,2.073-2.606
		c0.871-0.691,1.885-1.21,3.044-1.559c1.162-0.352,2.391-0.521,3.683-0.529c1.503-0.005,2.9,0.132,4.182,0.41
		c1.291,0.273,2.456,0.633,3.505,1.068l0.019,3.766c-1.116-0.43-2.246-0.777-3.391-1.056c-1.144-0.27-2.318-0.411-3.526-0.427
		c-1.021,0.008-1.894,0.111-2.619,0.331c-0.72,0.207-1.316,0.501-1.779,0.88c-0.463,0.372-0.8,0.811-1.01,1.316
		C81.075,102.239,80.972,102.798,80.977,103.407"/>
	<path fill="#FFFFFF" d="M98.606,84.853l4.428-0.021l0.026,4.939l-4.431,0.021L98.606,84.853z M98.773,96.106l4.435-0.029
		l0.126,27.129l-4.433,0.024L98.773,96.106z"/>
	<polygon fill="#FFFFFF" points="110.207,76.221 110.186,71.817 23.397,72.228 23.416,76.631 23.803,158.849 23.789,158.849 
		23.803,161.593 55.525,161.447 55.516,158.696 35.67,158.792 35.283,76.577 	"/>
	<polygon fill="#FFFFFF" points="129.995,144.915 129.995,144.915 129.6,61.308 129.594,61.308 129.594,61.146 97.572,61.3 
		97.582,63.669 117.675,63.571 118.061,144.968 44.772,145.312 44.793,150.007 118.081,149.667 118.081,149.667 130.016,149.604 
		130.016,149.604 	"/>
</g>
<g>
	<path fill="#FFFFFF" d="M142.812,103.627c0-1.052,0.456-1.612,1.262-1.612s1.262,0.561,1.262,1.612v10.479
		c0,3.189,1.717,4.872,4.556,4.872c2.839,0,4.557-1.683,4.557-4.872v-10.479c0-1.052,0.456-1.612,1.262-1.612
		s1.262,0.561,1.262,1.612v11.11c0,4.031-3.084,6.344-7.08,6.344s-7.08-2.312-7.08-6.344V103.627z"/>
	<path fill="#FFFFFF" d="M164.125,119.47c0,1.051-0.456,1.611-1.262,1.611s-1.262-0.561-1.262-1.611v-15.843
		c0-1.052,0.456-1.612,1.262-1.612s1.262,0.561,1.262,1.612v0.911h0.069c0.947-1.367,2.489-2.523,4.873-2.523
		c3.294,0,6.693,2.208,6.693,6.659v10.796c0,1.051-0.455,1.611-1.262,1.611c-0.806,0-1.262-0.561-1.262-1.611v-10.866
		c0-2.594-1.752-4.276-4.557-4.276c-2.348,0-4.556,1.683-4.556,4.872V119.47z"/>
	<path fill="#FFFFFF" d="M180.952,95.706c0.945,0,1.717,0.771,1.717,1.717s-0.771,1.718-1.717,1.718
		c-0.947,0-1.719-0.771-1.719-1.718S180.004,95.706,180.952,95.706z M182.213,119.47c0,1.051-0.456,1.611-1.262,1.611
		c-0.807,0-1.262-0.561-1.262-1.611v-15.843c0-1.052,0.455-1.612,1.262-1.612c0.806,0,1.262,0.561,1.262,1.612V119.47z"/>
	<path fill="#FFFFFF" d="M196.549,103.171c0.245-0.736,0.631-1.156,1.332-1.156s1.156,0.561,1.156,1.156
		c0,0.21-0.035,0.456-0.141,0.736l-5.607,16.229c-0.245,0.735-0.841,0.945-1.297,0.945c-0.455,0-1.051-0.21-1.297-0.945
		l-5.607-16.229c-0.105-0.28-0.141-0.526-0.141-0.736c0-0.596,0.456-1.156,1.156-1.156c0.701,0,1.087,0.42,1.332,1.156l4.521,13.529
		h0.07L196.549,103.171z"/>
	<path fill="#FFFFFF" d="M203.561,112.669c0.105,3.259,2.314,6.309,5.539,6.309c3.995,0,5.047-2.874,6.238-2.874
		c0.701,0,1.191,0.245,1.191,1.227c0,1.121-2.908,3.75-7.255,3.75c-5.958,0-8.447-4.836-8.447-9.533
		c0-4.697,2.769-9.533,8.026-9.533s7.957,4.416,7.957,9.113c0,0.666-0.211,1.542-1.719,1.542H203.561z M214.077,110.566
		c-0.105-3.119-1.857-6.449-5.258-6.449c-3.399,0-5.152,3.33-5.258,6.449H214.077z"/>
	<path fill="#FFFFFF" d="M222.491,119.47c0,1.051-0.455,1.611-1.262,1.611c-0.806,0-1.262-0.561-1.262-1.611v-15.843
		c0-1.052,0.456-1.612,1.262-1.612c0.807,0,1.262,0.561,1.262,1.612v1.752h0.07c0.912-2.068,2.523-3.365,4.102-3.365
		c1.191,0,1.682,0.666,1.682,1.367c0,0.701-0.49,1.086-1.717,1.367c-1.402,0.315-4.137,1.507-4.137,5.643V119.47z"/>
	<path fill="#FFFFFF" d="M242.682,104.889c0,0.561-0.211,1.227-1.262,1.227c-0.982,0-2.279-1.998-4.803-1.998
		c-1.752,0-3.645,0.841-3.645,2.628c0,0.841,0.455,1.717,1.717,2.208l3.82,1.542c2.523,1.016,4.662,2.243,4.662,5.187
		c0,3.295-2.944,5.397-6.869,5.397c-4.066,0-6.73-2.348-6.73-3.539c0-0.387,0.561-1.228,1.191-1.228
		c1.192,0,2.349,2.664,5.644,2.664c2.419,0,4.03-1.437,4.03-3.189c0-1.647-1.227-2.313-2.594-2.874l-4.346-1.788
		c-1.893-0.771-3.26-1.893-3.26-4.206c0-3.049,3.015-4.907,5.854-4.907C239.737,102.015,242.751,103.557,242.682,104.889z"/>
	<path fill="#FFFFFF" d="M247.836,95.706c0.945,0,1.717,0.771,1.717,1.717s-0.771,1.718-1.717,1.718
		c-0.947,0-1.719-0.771-1.719-1.718S246.889,95.706,247.836,95.706z M249.098,119.47c0,1.051-0.456,1.611-1.262,1.611
		c-0.807,0-1.262-0.561-1.262-1.611v-15.843c0-1.052,0.455-1.612,1.262-1.612c0.806,0,1.262,0.561,1.262,1.612V119.47z"/>
	<path fill="#FFFFFF" d="M256.879,119.47c0,1.051-0.455,1.611-1.262,1.611s-1.262-0.561-1.262-1.611v-15.142h-1.647
		c-0.841,0-1.087-0.631-1.087-1.051c0-0.421,0.246-1.052,1.087-1.052h1.647v-4.101c0-1.086,0.455-1.647,1.262-1.647
		s1.262,0.561,1.262,1.647v4.101h1.647c0.841,0,1.087,0.631,1.087,1.052c0,0.42-0.246,1.051-1.087,1.051h-1.647V119.47z"/>
	<path fill="#FFFFFF" d="M260.385,103.907c-0.105-0.28-0.141-0.526-0.141-0.736c0-0.596,0.457-1.156,1.157-1.156
		c0.701,0,1.087,0.42,1.332,1.156l4.521,13.529h0.069l4.521-13.529c0.246-0.736,0.631-1.156,1.332-1.156s1.156,0.561,1.156,1.156
		c0,0.21-0.034,0.456-0.14,0.736l-8.062,23.273c-0.28,0.84-0.666,1.262-1.367,1.262c-0.771,0-1.156-0.562-1.156-1.053
		c0-0.314,0.07-0.666,0.211-1.016l2.277-5.994L260.385,103.907z"/>
</g>
</svg>
