<?xml version="1.0" encoding="UTF-8" standalone="no"?>
<!DOCTYPE svg PUBLIC "-//W3C//DTD SVG 1.1//EN" "http://www.w3.org/Graphics/SVG/1.1/DTD/svg11.dtd">
<svg width="100%" height="100%" viewBox="0 0 1984 667" version="1.1" xmlns="http://www.w3.org/2000/svg" xmlns:xlink="http://www.w3.org/1999/xlink" xml:space="preserve" xmlns:serif="http://www.serif.com/" style="fill-rule:evenodd;clip-rule:evenodd;stroke-linejoin:round;stroke-miterlimit:1.41421;">
    <g transform="matrix(4.16667,0,0,4.16667,0,0)">
        <path d="M221.562,56.649L216.498,56.649C212.76,45.315 200.942,40.853 190.572,40.853C169.59,40.853 160.906,57.735 160.906,77.993C160.906,111.997 185.506,117.785 195.515,117.785C205.284,117.785 214.086,113.565 219.391,105.125L223.129,106.692L219.391,120.077C209.746,121.885 203.715,122.85 195.877,122.85C159.942,122.85 144.146,100.665 144.146,78.958C144.146,54.118 163.319,35.789 190.331,35.789C206.006,35.789 212.036,38.442 220.598,40.611L221.562,56.649Z" style="fill:white;fill-rule:nonzero;"/>
        <path d="M298.475,52.309L293.779,52.309C289.542,43.989 280.718,40.853 272.585,40.853C250.936,40.853 239.365,55.926 239.365,77.993C239.365,100.665 251.966,117.785 274.192,117.785C280.146,117.785 284.156,117.183 287.021,115.374C289.769,113.565 290.114,111.514 290.114,103.558C290.114,95.358 288.852,93.911 285.418,92.827L285.418,90.173C288.969,90.414 292.521,90.535 296.186,90.535C299.737,90.535 303.289,90.414 306.839,90.173L306.839,92.827C303.861,93.309 302.372,95.238 302.372,102.352C302.372,108.983 302.716,112.841 302.83,116.821C294.238,120.559 284.156,122.85 274.877,122.85C249.56,122.85 223.442,108.741 223.442,78.596C223.442,47.124 249.101,35.789 272.471,35.789C282.898,35.789 290.686,37.597 297.79,40.129L298.475,52.309Z" style="fill:white;fill-rule:nonzero;"/>
        <path d="M357.301,90.722L343.906,59.008L331.039,90.722L357.301,90.722ZM328.518,96.511L324.938,107.12C324.274,109.169 324.008,111.823 324.008,113.149C324.008,116.043 325.599,118.334 328.784,118.334L328.784,120.987C324.938,120.987 321.222,120.505 317.376,120.505C313.528,120.505 309.816,120.987 305.97,120.987L305.97,118.334C311.274,117.37 316.314,106.036 318.834,100.249L347.087,35.373L348.681,35.373L377.73,103.142C382.373,113.872 383.565,117.852 388.34,118.334L388.34,120.987C383.831,120.987 379.454,120.505 374.945,120.505C370.435,120.505 366.055,120.987 361.545,120.987L361.545,118.334C364.332,118.334 365.922,116.647 365.922,113.872C365.922,112.185 365.261,110.134 364.332,107.723L359.689,96.511L328.518,96.511Z" style="fill:white;fill-rule:nonzero;"/>
        <path d="M412.204,79.749C412.204,83.729 414.284,84.571 420.663,84.571C437.303,84.571 443.407,75.889 443.407,62.504C443.407,49.964 436.611,39.955 421.216,39.955C414.42,39.955 412.756,41.04 412.756,44.055L412.204,79.749ZM390.013,36.819C395.838,36.819 401.664,37.302 407.488,37.302C413.313,37.302 419,36.819 424.821,36.819C445.07,36.819 460.322,44.417 460.322,61.782C460.322,79.749 441.6,88.913 422.879,88.913C419.414,88.913 415.948,88.671 412.342,88.431L412.342,109.29C412.342,113.994 414.145,117.25 419.552,118.334L419.552,120.987C414.699,120.987 409.844,120.505 404.99,120.505C400.135,120.505 395.145,120.987 390.292,120.987L390.292,118.334C397.226,117.49 397.501,112.064 397.501,106.396L397.501,81.437C397.501,69.137 396.669,58.284 396.669,48.757C396.669,43.693 395.424,40.678 390.013,39.473L390.013,36.819Z" style="fill:white;fill-rule:nonzero;"/>
        <path d="M98.321,16.985C105.518,38.611 89.57,55.767 80.68,73.209C71.292,86.043 63.954,99.809 65.152,117.18C84.136,121.215 106.225,118.405 118.082,99.88C125.703,89.862 127.044,76.238 125.139,63.118C121.258,53.82 117.304,44.523 108.908,37.169C120.482,41.133 130.854,52.595 135.725,63.839C140.898,83.782 132.619,97.069 119.492,107.81C112.93,113.719 105.378,117.18 97.616,120.064C87.664,122.586 76.162,123.379 65.858,122.946C66.634,135.776 79.405,146.663 89.852,150.337C79.337,148.898 69.387,144.643 63.035,134.48C60.706,130.226 58.941,125.685 58.096,120.783C42.499,114.369 23.02,103.918 17.87,85.464C13.494,70.614 15.542,52.449 27.045,42.216L34.807,42.216C27.045,54.902 25.631,73.86 30.572,88.349C35.441,99.809 46.169,107.521 55.978,114.296C56.684,86.907 75.386,67.156 83.501,42.936C76.442,38.538 66.56,38.997 59.017,42.457C55.015,44.289 49.366,50.593 49.376,54.469C49.398,61.607 50.473,68.309 55.978,73.209C49.345,72.922 43.488,69.101 39.745,63.118C36.431,57.353 39.536,50.72 42.57,45.819C52.45,35.366 67.973,32.482 81.385,37.169C82.653,37.602 83.501,39.114 84.914,39.331C87.523,30.825 92.181,19.725 86.326,11.219C90.771,12.084 96.273,11.796 98.321,16.985Z" style="fill:white;fill-rule:nonzero;"/>
    </g>
</svg>
