<svg viewBox="0 0 1984 667" xmlns="http://www.w3.org/2000/svg" fill-rule="evenodd" clip-rule="evenodd" stroke-linejoin="round" stroke-miterlimit="1.414"><g fill="#fff" fill-rule="nonzero"><path d="M923.176 236.038h-21.1C886.5 188.813 837.259 170.22 794.05 170.22c-87.425 0-123.609 70.342-123.609 154.75 0 141.684 102.5 165.8 144.204 165.8 40.705 0 77.38-17.583 99.484-52.75l15.575 6.53-15.575 55.77c-40.188 7.534-65.317 11.554-97.975 11.554-149.73 0-215.546-92.437-215.546-182.883 0-103.5 79.887-179.871 192.437-179.871 65.313 0 90.438 11.054 126.113 20.092l4.017 66.825zM1243.647 217.954h-19.567c-17.654-34.666-54.42-47.733-88.308-47.733-90.204 0-138.417 62.804-138.417 154.75 0 94.467 52.504 165.8 145.113 165.8 24.808 0 41.516-2.508 53.454-10.046 11.45-7.537 12.887-16.083 12.887-49.233 0-34.167-5.258-40.196-19.566-44.713v-11.058a659.033 659.033 0 0 0 44.866 1.508c14.796 0 29.596-.504 44.388-1.508v11.058c-12.408 2.009-18.613 10.046-18.613 39.688 0 27.63 1.434 43.704 1.909 60.288-35.8 15.575-77.809 25.12-116.471 25.12-105.488 0-214.313-58.787-214.313-184.391 0-131.134 106.913-178.363 204.288-178.363 43.446 0 75.896 7.533 105.496 18.083l2.854 50.75zM1488.755 378.009l-55.812-132.142-53.613 132.142h109.425zm-119.929 24.12l-14.917 44.205c-2.766 8.537-3.875 19.596-3.875 25.12 0 12.059 6.63 21.605 19.9 21.605v11.054c-16.025 0-31.508-2.008-47.533-2.008-16.033 0-31.5 2.008-47.525 2.008v-11.054c22.1-4.017 43.1-51.242 53.6-75.354l117.721-270.317h6.642l121.037 282.37c19.346 44.709 24.313 61.292 44.209 63.3v11.055c-18.788 0-37.025-2.008-55.813-2.008-18.792 0-37.042 2.008-55.833 2.008v-11.054c11.612 0 18.237-7.03 18.237-18.592 0-7.03-2.754-15.575-6.625-25.62l-19.346-46.718h-129.879zM1717.518 332.288c0 16.583 8.667 20.091 35.246 20.091 69.333 0 94.767-36.175 94.767-91.945 0-52.25-28.317-93.955-92.463-93.955-28.317 0-35.25 4.521-35.25 17.084l-2.3 148.725zm-92.463-178.875c24.271 0 48.546 2.012 72.813 2.012 24.27 0 47.967-2.012 72.22-2.012 84.372 0 147.922 31.658 147.922 104.012 0 74.863-78.009 113.046-156.013 113.046-14.437 0-28.879-1.008-43.904-2.008v86.912c0 19.6 7.513 33.167 30.042 37.684v11.054c-20.221 0-40.45-2.008-60.675-2.008-20.23 0-41.021 2.008-61.242 2.008v-11.054c28.892-3.517 30.037-26.125 30.037-49.742V339.321c0-51.25-3.466-96.47-3.466-136.167 0-21.1-5.188-33.662-27.734-38.683v-11.058zM409.671 70.77c29.988 90.11-36.462 161.593-73.504 234.268-39.117 53.475-69.692 110.833-64.7 183.212 79.1 16.813 171.138 5.105 220.542-72.083 31.754-41.742 37.341-98.508 29.404-153.175-16.17-38.742-32.646-77.48-67.63-108.121 48.226 16.517 91.442 64.275 111.738 111.125 21.554 83.096-12.941 138.458-67.637 183.213-27.342 24.62-58.809 39.041-91.15 51.058-41.467 10.508-89.392 13.813-132.325 12.008 3.233 53.459 56.445 98.821 99.975 114.13-43.813-5.996-85.271-23.725-111.738-66.071-9.704-17.725-17.058-36.646-20.58-57.071C177.08 476.538 95.917 432.992 74.459 356.1c-18.233-61.875-9.7-137.562 38.23-180.2h32.341c-32.341 52.859-38.233 131.85-17.646 192.221 20.288 47.75 64.988 79.884 105.859 108.113 2.942-114.121 80.867-196.417 114.68-297.334-29.413-18.325-70.588-16.412-102.018-1.996-16.675 7.634-40.212 33.9-40.17 50.05.091 29.742 4.57 57.667 27.508 78.084-27.638-1.196-52.042-17.117-67.638-42.046-13.808-24.021-.87-51.658 11.771-72.08 41.167-43.554 105.846-55.57 161.73-36.041 5.283 1.804 8.816 8.104 14.704 9.008 10.87-35.441 30.279-81.691 5.883-117.133 18.52 3.604 41.446 2.404 49.98 24.025z"/></g></svg>