<?xml version="1.0" encoding="utf-8"?>
<!-- Generator: Adobe Illustrator 16.0.0, SVG Export Plug-In . SVG Version: 6.00 Build 0)  -->
<!DOCTYPE svg PUBLIC "-//W3C//DTD SVG 1.1//EN" "http://www.w3.org/Graphics/SVG/1.1/DTD/svg11.dtd">
<svg version="1.1" id="Layer_1" xmlns="http://www.w3.org/2000/svg" xmlns:xlink="http://www.w3.org/1999/xlink" x="0px" y="0px"
	 width="200px" height="70px" viewBox="0 0 200 70" enable-background="new 0 0 200 70" xml:space="preserve">
<g>
	<path fill="#00AEEF" d="M45.907,69.016V22.421h12.316v46.595H45.907z"/>
	<path fill="#00AEEF" d="M70.714,22.342l12.239,32.465l12.334-32.465H108.5L89.653,69.016H76.35L62.966,35.869"/>
	<path fill="#00AEEF" d="M39.112,50.459c0,11.119-3.41,18.557-21.215,18.557c-4.64,0-17.897,0-17.897,0V1.846h11.553v22.14
		c3.408-1.413,8.618-2.731,13.636-2.731c9.944,0,13.923,6.029,13.923,15.731V50.459z M11.553,59.219c0,0,4.451,0,6.916,0
		c7.573,0,9.089-3.014,9.089-8.383V36.703c0-3.673-1.612-5.651-5.873-5.651c-3.216,0-7.291,1.318-10.132,2.638V59.219z"/>
	<path fill="#00AEEF" d="M106.16,45.74c0-12.904,9.637-23.319,23.162-23.319c13.441,0,22.424,9.955,22.424,24.427v2.767h-33.264
		c0.836,5.436,5.285,9.954,12.883,9.954c3.797,0,8.982-1.567,11.857-4.334l5.276,7.744c-4.444,4.058-11.483,6.176-18.437,6.176
		C116.443,69.154,106.16,60.027,106.16,45.74z M129.322,32.007c-7.322,0-10.467,5.069-10.93,9.493h22.047
		C140.074,37.26,137.109,32.007,129.322,32.007z"/>
	<path fill="#00AEEF" d="M154.414,45.74c0-12.904,9.635-23.319,23.166-23.319c13.432,0,22.42,9.955,22.42,24.427v2.767h-33.262
		c0.832,5.436,5.281,9.954,12.879,9.954c3.801,0,8.984-1.567,11.857-4.334l5.28,7.744c-4.444,4.058-11.483,6.176-18.438,6.176
		C164.697,69.154,154.414,60.027,154.414,45.74z M177.58,32.007c-7.324,0-10.477,5.069-10.932,9.493h22.047
		C188.326,37.26,185.361,32.007,177.58,32.007z"/>
</g>
</svg>
