<?xml version="1.0" encoding="utf-8"?>
<!-- Generator: Adobe Illustrator 16.0.0, SVG Export Plug-In . SVG Version: 6.00 Build 0)  -->
<!DOCTYPE svg PUBLIC "-//W3C//DTD SVG 1.1//EN" "http://www.w3.org/Graphics/SVG/1.1/DTD/svg11.dtd">
<svg version="1.1" id="Layer_1" xmlns="http://www.w3.org/2000/svg" xmlns:xlink="http://www.w3.org/1999/xlink" x="0px" y="0px"
	 width="100px" height="100.1px" viewBox="0 0 100 100.1" enable-background="new 0 0 100 100.1" xml:space="preserve">

<path class="liquid" d="M36.547,39.774L17.505,80.191c-0.964,1.55-1.523,3.383-1.523,5.343c0,5.594,4.534,10.126,10.127,10.126
	h47.782c5.592,0,10.125-4.532,10.125-10.126c0-1.96-0.557-3.793-1.522-5.343L63.452,39.774H36.547z"/>
<g>
	<path class="bubbles" d="M73.892,95.66c5.592,0,10.125-4.531,10.125-10.124c0-1.962-0.557-3.794-1.522-5.345L63.452,39.775H50.415
		L73.892,95.66z"/>
	<path class="bubbles" d="M37.655,75.965c0,1.53-1.242,2.773-2.773,2.773l0,0c-1.532,0-2.774-1.243-2.774-2.773l0,0
		c0-1.533,1.242-2.773,2.774-2.773l0,0C36.414,73.192,37.655,74.432,37.655,75.965L37.655,75.965z"/>
	<path class="bubbles" d="M48.167,63.192c0,2.137-1.732,3.87-3.869,3.87l0,0c-2.136,0-3.869-1.733-3.869-3.87l0,0
		c0-2.136,1.733-3.868,3.869-3.868l0,0C46.436,59.324,48.167,61.056,48.167,63.192L48.167,63.192z"/>
	<path class="bubbles" d="M55.918,84.168c0,2.363-1.916,4.278-4.278,4.278l0,0c-2.361,0-4.276-1.915-4.276-4.278l0,0
		c0-2.361,1.915-4.276,4.276-4.276l0,0C54.002,79.892,55.918,81.807,55.918,84.168L55.918,84.168z"/>
</g>
<path class="outline" d="M58.802,0c1.672,0,3.027,1.355,3.027,3.027l0,0c0,1.673-1.355,3.028-3.027,3.028v13.02
	c0,0.399,0.081,0.781,0.228,1.126l27.784,58.822c0.986,1.957,1.543,4.17,1.543,6.512c0,7.989-6.478,14.466-14.465,14.466H26.109
	c-7.99,0-14.466-6.477-14.466-14.466c0-2.342,0.557-4.555,1.544-6.512L40.971,20.2c0.146-0.345,0.229-0.727,0.229-1.126
	l-0.001-13.02c-1.671,0-3.027-1.355-3.027-3.028l0,0C38.171,1.355,39.527,0,41.198,0H58.802z M45.538,6.055v13.02
	c0,1.028-0.215,2.008-0.603,2.893l-27.43,58.224c-0.964,1.55-1.523,3.383-1.523,5.343c0,5.594,4.534,10.126,10.127,10.126h47.782
	c5.592,0,10.125-4.532,10.125-10.126c0-1.96-0.557-3.793-1.522-5.343L55.063,21.967c-0.387-0.885-0.601-1.865-0.601-2.893V6.055
	H45.538z"/>
</svg>
