<?xml version="1.0" encoding="utf-8"?>
<!-- Generator: Adobe Illustrator 16.0.0, SVG Export Plug-In . SVG Version: 6.00 Build 0)  -->
<!DOCTYPE svg PUBLIC "-//W3C//DTD SVG 1.1//EN" "http://www.w3.org/Graphics/SVG/1.1/DTD/svg11.dtd">
<svg version="1.1" id="Layer_1" xmlns="http://www.w3.org/2000/svg" xmlns:xlink="http://www.w3.org/1999/xlink" x="0px" y="0px"
	 width="275px" height="70px" viewBox="0 0 275 70" enable-background="new 0 0 275 70" xml:space="preserve">
  <g>
  	<path fill="#2BACE2" class="letters" d="M113.98,69.736V21.361h12.786v48.375H113.98z"/>
  	<path fill="#2BACE2" class="letters" d="M139.734,21.279l12.707,33.706l12.805-33.706h13.719l-19.568,48.458h-13.811l-13.895-34.413"/>
  	<path fill="#2BACE2" class="letters" d="M106.925,50.471c0,11.543-3.54,19.266-22.026,19.266c-4.817,0-18.581,0-18.581,0V0h11.995v22.986
  		c3.538-1.467,8.947-2.835,14.157-2.835c10.324,0,14.455,6.26,14.455,16.332V50.471z M78.313,59.564c0,0,4.621,0,7.18,0
  		c7.862,0,9.437-3.129,9.437-8.703V36.189c0-3.813-1.674-5.868-6.098-5.868c-3.339,0-7.57,1.369-10.519,2.739V59.564z"/>
  	<path fill="#2BACE2" class="letters" d="M176.535,45.57c0-13.396,10.006-24.209,24.047-24.209c13.955,0,23.281,10.335,23.281,25.36v2.875h-34.535
  		c0.869,5.643,5.488,10.332,13.375,10.332c3.943,0,9.326-1.625,12.311-4.5l5.477,8.041c-4.611,4.215-11.92,6.414-19.143,6.414
  		C187.211,69.881,176.535,60.404,176.535,45.57z M200.582,31.313c-7.602,0-10.865,5.263-11.348,9.856h22.891
  		C211.746,36.768,208.668,31.313,200.582,31.313z"/>
  	<path fill="#2BACE2" class="letters" d="M227.672,45.57c0-13.396,10.002-24.209,24.051-24.209c13.945,0,23.277,10.335,23.277,25.36v2.875h-34.533
  		c0.863,5.643,5.482,10.332,13.371,10.332c3.945,0,9.328-1.625,12.311-4.5l5.48,8.041c-4.613,4.215-11.92,6.414-19.143,6.414
  		C238.348,69.881,227.672,60.404,227.672,45.57z M251.723,31.313c-7.604,0-10.877,5.263-11.35,9.856h22.891
  		C262.879,36.768,259.801,31.313,251.723,31.313z"/>
  </g>
  <g>
  	<linearGradient id="SVGID_1_" gradientUnits="userSpaceOnUse" x1="24.3784" y1="67.543" x2="24.3784" y2="41.4023">
  		<stop  offset="0" style="stop-color:#EE3E25"/>
  		<stop  offset="1" style="stop-color:#F26A23"/>
  	</linearGradient>
  	<path fill="url(#SVGID_1_)" d="M15.828,41.402L3.726,58.787c-0.612,0.879-0.968,1.914-0.968,3.025c0,3.164,2.882,5.73,6.437,5.73
  		h30.368c3.554,0,6.437-2.566,6.437-5.73c0-1.111-0.354-2.146-0.968-3.025L32.929,41.402H15.828z"/>
  	<g>
  		<linearGradient id="SVGID_2_" gradientUnits="userSpaceOnUse" x1="35.3208" y1="67.543" x2="35.3208" y2="41.4043">
  			<stop  offset="0" style="stop-color:#F16723"/>
  			<stop  offset="1" style="stop-color:#F79736"/>
  		</linearGradient>
  		<path fill="url(#SVGID_2_)" d="M39.562,67.543c3.554,0,6.437-2.564,6.437-5.73c0-1.111-0.354-2.146-0.968-3.025L32.929,41.404
  			h-8.286L39.562,67.543z"/>
  		<linearGradient id="SVGID_3_" gradientUnits="userSpaceOnUse" x1="13.6724" y1="59.7383" x2="13.6724" y2="56.6348">
  			<stop  offset="0" style="stop-color:#F16723"/>
  			<stop  offset="1" style="stop-color:#F79736"/>
  		</linearGradient>
  		<path fill="url(#SVGID_3_)" d="M15.224,58.186c0,0.857-0.695,1.553-1.552,1.553l0,0c-0.857,0-1.551-0.695-1.551-1.553l0,0
  			c0-0.855,0.694-1.551,1.551-1.551l0,0C14.529,56.635,15.224,57.33,15.224,58.186L15.224,58.186z"/>
  		<linearGradient id="SVGID_4_" gradientUnits="userSpaceOnUse" x1="21.6196" y1="53.127" x2="21.6196" y2="48.252">
  			<stop  offset="0" style="stop-color:#F16723"/>
  			<stop  offset="1" style="stop-color:#F79736"/>
  		</linearGradient>
  		<path fill="url(#SVGID_4_)" d="M24.058,50.689c0,1.348-1.092,2.438-2.438,2.438l0,0c-1.346,0-2.438-1.09-2.438-2.438l0,0
  			c0-1.346,1.092-2.438,2.438-2.438l0,0C22.966,48.252,24.058,49.344,24.058,50.689L24.058,50.689z"/>
  		<linearGradient id="SVGID_5_" gradientUnits="userSpaceOnUse" x1="24.564" y1="63.4609" x2="24.564" y2="59.7363">
  			<stop  offset="0" style="stop-color:#F16723"/>
  			<stop  offset="1" style="stop-color:#F79736"/>
  		</linearGradient>
  		<path fill="url(#SVGID_5_)" d="M26.426,61.598c0,1.029-0.834,1.863-1.861,1.863l0,0c-1.029,0-1.862-0.834-1.862-1.863l0,0
  			c0-1.027,0.833-1.861,1.862-1.861l0,0C25.592,59.736,26.426,60.57,26.426,61.598L26.426,61.598z"/>
  	</g>
  	<linearGradient id="SVGID_6_" gradientUnits="userSpaceOnUse" x1="24.3784" y1="70" x2="24.3784" y2="21.2441">
  		<stop  offset="0.0051" style="stop-color:#D0D0CF"/>
  		<stop  offset="1" style="stop-color:#E5E5E5"/>
  	</linearGradient>
  	<path fill="url(#SVGID_6_)" class="outline" d="M27.214,24.671v7.37c0,0.582,0.137,1.136,0.382,1.638l17.435,25.108
  		c0.614,0.879,0.968,1.914,0.968,3.025c0,3.164-2.882,5.73-6.437,5.73H9.194c-3.555,0-6.437-2.566-6.437-5.73
  		c0-1.111,0.355-2.146,0.968-3.025L21.16,33.679c0.246-0.501,0.383-1.056,0.383-1.638v-7.37H27.214z M18.785,21.244
  		c-1.062,0-1.924,0.768-1.924,1.713l0,0c0,0.947,0.862,1.714,1.924,1.714v7.37c0,0.225-0.052,0.442-0.145,0.637L0.981,58.125
  		C0.354,59.232,0,60.486,0,61.812C0,66.334,4.116,70,9.194,70h30.368c5.078,0,9.195-3.666,9.195-8.188
  		c0-1.326-0.354-2.58-0.981-3.688L30.117,32.678c-0.094-0.195-0.146-0.412-0.146-0.637v-7.37c1.063,0,1.925-0.767,1.925-1.714l0,0
  		c0-0.946-0.862-1.713-1.925-1.713H18.785z"/>
  </g>
</svg>
