<?xml version="1.0" encoding="utf-8"?>
<!-- Generator: Adobe Illustrator 16.0.0, SVG Export Plug-In . SVG Version: 6.00 Build 0)  -->
<!DOCTYPE svg PUBLIC "-//W3C//DTD SVG 1.1//EN" "http://www.w3.org/Graphics/SVG/1.1/DTD/svg11.dtd">
<svg version="1.1" id="Layer_1" xmlns="http://www.w3.org/2000/svg" xmlns:xlink="http://www.w3.org/1999/xlink" x="0px" y="0px"
	 width="55px" height="55px" viewBox="0 0 55 55" enable-background="new 0 0 55 55" xml:space="preserve">
<path class="liquid" d="M17.855,22.742L4.203,42.352c-0.691,0.99-1.092,2.16-1.092,3.412c0,3.57,3.251,6.465,7.261,6.465h34.256
	c4.01,0,7.261-2.895,7.261-6.465c0-1.252-0.399-2.422-1.092-3.412l-13.651-19.61H17.855z"/>
<g>
	<path class="bubbles" d="M44.628,52.229c4.01,0,7.261-2.893,7.261-6.465c0-1.252-0.399-2.422-1.092-3.412L37.146,22.742h-9.348
		L44.628,52.229z"/>
	<path class="bubbles" d="M17.172,41.674c0,0.967-0.783,1.75-1.75,1.75l0,0c-0.966,0-1.75-0.783-1.75-1.75l0,0
		c0-0.967,0.784-1.75,1.75-1.75l0,0C16.389,39.924,17.172,40.707,17.172,41.674L17.172,41.674z"/>
	<path class="bubbles" d="M27.138,33.217c0,1.52-1.231,2.75-2.75,2.75l0,0c-1.518,0-2.75-1.23-2.75-2.75l0,0
		c0-1.518,1.231-2.75,2.75-2.75l0,0C25.907,30.467,27.138,31.699,27.138,33.217L27.138,33.217z"/>
	<path class="bubbles" d="M29.81,45.522c0,1.16-0.94,2.101-2.1,2.101l0,0c-1.16,0-2.101-0.94-2.101-2.101l0,0
		c0-1.159,0.94-2.1,2.101-2.1l0,0C28.869,43.423,29.81,44.363,29.81,45.522L29.81,45.522z"/>
</g>
<path class="outline" d="M30.698,3.867v8.314c0,0.656,0.155,1.282,0.432,1.847l19.667,28.324c0.692,0.99,1.092,2.16,1.092,3.412
	c0,3.57-3.251,6.465-7.261,6.465H10.372c-4.01,0-7.261-2.895-7.261-6.465c0-1.252,0.401-2.422,1.092-3.412l19.667-28.324
	c0.277-0.565,0.432-1.191,0.432-1.847V3.867H30.698z M21.19,0c-1.198,0-2.17,0.866-2.17,1.933l0,0c0,1.068,0.972,1.934,2.17,1.934
	v8.314c0,0.254-0.059,0.499-0.164,0.719L1.107,41.605C0.399,42.854,0,44.268,0,45.764C0,50.865,4.643,55,10.372,55h34.256
	C50.356,55,55,50.865,55,45.764c0-1.496-0.399-2.909-1.106-4.158l-19.92-28.706c-0.105-0.22-0.164-0.464-0.164-0.719V3.867
	c1.198,0,2.171-0.865,2.171-1.934l0,0C35.98,0.866,35.008,0,33.81,0H21.19z"/>
</svg>
