<svg xmlns="http://www.w3.org/2000/svg" width="200" height="62" viewBox="0 0 200 62">
  <g fill="none" fill-rule="evenodd">
    <path fill="currentColor" d="M162.633647,50.4075661 C159.543306,52.9158339 155.174065,54.3877791 150.568238,54.3877791 C141.612142,54.3877791 134.270183,48.8044871 134.270183,38.6187864 C134.270183,28.6779857 141.277352,22.3978517 150.114485,22.3978517 C159.267438,22.3978517 165.133194,29.1128169 165.133194,37.675761 C165.133194,38.5625343 165.05396,39.4490936 164.99526,39.8826415 L139.250529,39.8826415 C139.761643,46.276777 144.130884,50.25699 150.803261,50.25699 C154.287093,50.25699 157.554873,49.1621052 160.3102,47.3323066 L162.633647,50.4075661 Z M197.136278,50.4075661 L194.812831,47.3323066 C192.057504,49.1621052 188.791063,50.25699 185.305892,50.25699 C178.633738,50.25699 174.264274,46.276777 173.75316,39.8826415 L199.497891,39.8826415 C199.556591,39.4490936 199.636048,38.5625343 199.636048,37.675761 C199.636048,29.1128169 193.770069,22.3978517 184.617116,22.3978517 C175.779983,22.3978517 168.772814,28.6779857 168.772814,38.6187864 C168.772814,48.8044871 176.114773,54.3877791 185.070869,54.3877791 C189.676696,54.3877791 194.04616,52.9158125 197.136278,50.4075661 Z M72.312934,10.0433423 C80.1470351,10.0433423 86.0511797,14.0982017 86.0511797,21.3226445 C86.0511797,26.1134871 83.4529811,29.1874632 80.2849688,30.6962183 C85.3624037,31.9038212 89.2997649,35.7334581 89.2997649,41.7306204 C89.2997649,49.0309928 83.4735149,53.764514 75.2651179,53.764514 L57.4718879,53.764514 L57.4718879,10.0433423 L72.312934,10.0433423 Z M93.7444455,53.764514 L98.6453341,53.764514 L98.6453341,23.0200474 L93.7444455,23.0200474 L93.7444455,53.764514 Z M118.366958,48.5399096 L128.720024,23.0200474 L133.75907,23.0200474 L120.7683,53.764514 L115.65136,53.764514 L103.132422,23.0200474 L108.466529,23.0200474 L118.366958,48.5399096 Z M74.0444712,49.4645407 C79.8312159,49.4645193 84.1622909,47.0311331 84.1622909,41.5041147 C84.1622909,35.922106 79.7327875,33.3747183 73.3762291,33.3747183 L62.471205,33.3747183 L62.471205,49.4645407 L74.0444712,49.4645407 Z M160.232305,36.2232581 C159.976748,31.1310494 156.413683,26.5288546 150.153991,26.5288546 C144.229312,26.5288546 139.9585,30.6399661 139.348957,36.2232581 L160.232305,36.2232581 Z M194.734936,36.2232581 C194.479379,31.1310494 190.916314,26.5288546 184.656845,26.5288546 C178.732167,26.5288546 174.461131,30.6399661 173.851588,36.2232581 L194.734936,36.2232581 Z M71.821015,29.225535 C76.879032,29.225535 81.0121341,26.8116125 81.0121341,21.6056162 C81.0121341,16.4374779 76.8995658,14.3247075 71.1717443,14.3247075 L62.471205,14.3247075 L62.471205,29.225535 L71.821015,29.225535 Z M96.2044872,16.2670104 C94.2950645,16.2670104 92.7398504,14.7779329 92.7398504,12.9483481 C92.7398504,11.1185495 94.2950645,9.62818873 96.2044872,9.62818873 C98.1136866,9.62818873 99.6677848,11.1185495 99.6677848,12.9483481 C99.6677848,14.7779329 98.1136866,16.2670104 96.2044872,16.2670104 Z"/>
    <path fill="#EF4658" d="M36.115787,52.2275786 C36.115787,53.9766655 35.4085077,55.6188877 34.1191026,56.8550936 L29.2992521,61.4769022 C2.51641388,35.7927329 28.7533738,60.962119 1.99668443,35.2962793 C0.70836131,34.060938 0,32.4195804 0,30.6755082 C0,29.1842452 0.459677439,27.6843362 1.69263729,26.4721662 L6.88596443,21.4915484 C33.7739387,47.2796426 7.35538003,21.9523805 34.1191026,47.60577 C35.4085077,48.8411112 36.115787,50.4833335 36.115787,52.2275786 Z M33.8161374,14.1567962 L29.8238506,17.9906079 L20.1828873,8.7471636 L28.9961066,0.2915433 L33.8161374,4.91231439 C36.4750171,7.46271304 36.4750171,11.6072622 33.8161374,14.1567962 Z M16.6834598,52.8085901 L7.64445925,61.4769022 L2.82442842,56.8550936 C0.164647117,54.306597 0.164647117,50.155304 2.81847732,47.6125139 L7.04448011,43.5603041 L16.6834598,52.8085901 Z M36.7920484,30.8024315 C36.7920484,32.5534205 36.0836871,34.1937407 34.795364,35.4299465 L29.9755135,40.0517551 C3.12937725,14.308793 29.3383851,39.4456701 2.67294586,13.8711322 C0.0140662378,11.3205606 0.0140662378,7.17220726 2.67294586,4.62751497 L7.49297669,0 C8.00657471,0.493513984 34.364901,25.7678626 34.795364,26.1797583 C36.0836871,27.4159642 36.7920484,29.0581864 36.7920484,30.8024315 Z"/>
  </g>
</svg>
