<svg width="103" height="40" viewBox="0 0 103 40" xmlns="http://www.w3.org/2000/svg"><title>logo-bivee-reverse-bw</title><g fill="#FFF" fill-rule="evenodd"><path d="M37.8 9.92v20.865h8.126c3.75 0 6.41-2.26 6.41-5.742 0-2.862-1.8-4.69-4.118-5.266 1.447-.72 2.634-2.187 2.634-4.473 0-3.448-2.697-5.383-6.275-5.383H37.8zm7.263 11.135c2.903 0 4.926 1.216 4.926 3.88 0 2.637-1.98 3.798-4.622 3.798h-5.286v-7.678h4.98zm-1.007-9.09c2.616 0 4.494 1.008 4.494 3.474 0 2.483-1.887 3.635-4.198 3.635h-4.27v-7.11h3.974zM55.49 12.89c.872 0 1.58-.71 1.58-1.583s-.708-1.584-1.58-1.584c-.873 0-1.583.71-1.583 1.584 0 .874.71 1.584 1.583 1.584zm-1.124 17.895h2.238v-14.67h-2.238v14.67zM61.09 16.114h-2.436l5.718 14.67h2.337l5.932-14.67h-2.3l-4.73 12.178M85.83 29.183l-1.06-1.467c-1.26.873-2.75 1.395-4.343 1.395-3.047 0-5.043-1.898-5.276-4.95h11.76c.026-.206.063-.63.063-1.053 0-4.086-2.68-7.29-6.86-7.29-4.037 0-7.237 2.997-7.237 7.74 0 4.86 3.353 7.526 7.444 7.526 2.104 0 4.1-.703 5.51-1.9zm-10.634-6.77c.278-2.663 2.23-4.625 4.935-4.625 2.86 0 4.487 2.196 4.604 4.626h-9.538zM101.59 29.183l-1.06-1.467c-1.26.873-2.752 1.395-4.344 1.395-3.047 0-5.043-1.898-5.276-4.95h11.76c.025-.206.062-.63.062-1.053 0-4.086-2.68-7.29-6.86-7.29-4.037 0-7.237 2.997-7.237 7.74 0 4.86 3.353 7.526 7.444 7.526 2.103 0 4.098-.703 5.51-1.9zm-10.635-6.77c.278-2.663 2.23-4.625 4.935-4.625 2.86 0 4.486 2.196 4.603 4.626h-9.538z"/><g><path d="M21.357 9.227l-2.484 2.49-5.998-6.004L18.358.22l3 3.002c1.653 1.657 1.653 4.35 0 6.005M22.788 33.96c0 1.136-.44 2.203-1.242 3.006l-3 3.003c-16.663-16.687-.34-.336-16.986-17.01-.802-.802-1.242-1.868-1.242-3 0-.97.286-1.944 1.053-2.732l3.232-3.236c16.73 16.754.292.3 16.944 16.965.802.803 1.242 1.87 1.242 3.003M10.698 34.337L5.074 39.97l-3-3.004C.42 35.31.42 32.614 2.072 30.962L4.7 28.33l5.998 6.008zM23.21 20.04c0 1.14-.442 2.204-1.244 3.008l-2.998 3.002C2.265 9.326 18.57 25.656 1.98 9.042.327 7.385.327 4.69 1.98 3.037l3-3.006C5.3.35 21.7 16.77 21.966 17.04c.802.803 1.243 1.87 1.243 3.003"/></g></g></svg>