<?xml version="1.0" encoding="utf-8"?>
<!-- Generator: Adobe Illustrator 16.0.0, SVG Export Plug-In . SVG Version: 6.00 Build 0)  -->
<!DOCTYPE svg PUBLIC "-//W3C//DTD SVG 1.1//EN" "http://www.w3.org/Graphics/SVG/1.1/DTD/svg11.dtd">
<svg version="1.1" id="Layer_1" xmlns="http://www.w3.org/2000/svg" xmlns:xlink="http://www.w3.org/1999/xlink" x="0px" y="0px"
	 width="200px" height="65px" viewBox="0 0 200 65" enable-background="new 0 0 200 65" xml:space="preserve">
<g class="svglogo">
	<path d="M45.679,64.859V18.497h12.254v46.363H45.679z"/>
	<path d="M70.362,18.418l12.179,32.304l12.272-32.304h13.148L89.206,64.859H75.97l-13.317-32.98"/>
	<path d="M38.917,46.396c0,11.062-3.393,18.464-21.109,18.464c-4.617,0-17.808,0-17.808,0V0h11.496v20.054
		c3.391-1.406,8.575-2.717,13.568-2.717c9.894,0,13.853,6,13.853,15.652V46.396z M11.496,55.11c0,0,4.429,0,6.881,0
		c7.535,0,9.044-2.998,9.044-8.341V32.708c0-3.655-1.604-5.625-5.844-5.625c-3.2,0-7.255,1.312-10.082,2.625V55.11L11.496,55.11z"/>
	<path d="M105.633,41.698c0-12.838,9.588-23.202,23.045-23.202c13.375,0,22.312,9.905,22.312,24.305v2.755h-33.098
		c0.834,5.409,5.26,9.902,12.818,9.902c3.779,0,8.938-1.558,11.799-4.313l5.25,7.707C143.34,62.892,136.334,65,129.412,65
		C115.863,64.998,105.633,55.915,105.633,41.698z M128.678,28.035c-7.285,0-10.412,5.044-10.875,9.446h21.938
		C139.377,33.263,136.428,28.035,128.678,28.035z"/>
	<path d="M154.641,41.698c0-12.838,9.586-23.202,23.051-23.202c13.365,0,22.309,9.905,22.309,24.305v2.755h-33.096
		c0.826,5.409,5.254,9.902,12.814,9.902c3.781,0,8.939-1.558,11.799-4.313l5.252,7.707C192.348,62.892,185.346,65,178.424,65
		C164.873,64.998,154.641,55.915,154.641,41.698z M177.691,28.035c-7.287,0-10.424,5.044-10.877,9.446h21.938
		C188.383,33.263,185.434,28.035,177.691,28.035z"/>
</g>
</svg>
