<?xml version="1.0" encoding="utf-8"?>
<!-- Generator: Adobe Illustrator 17.0.2, SVG Export Plug-In . SVG Version: 6.00 Build 0)  -->
<!DOCTYPE svg PUBLIC "-//W3C//DTD SVG 1.1//EN" "http://www.w3.org/Graphics/SVG/1.1/DTD/svg11.dtd">
<svg version="1.1" id="Layer_1" xmlns="http://www.w3.org/2000/svg" xmlns:xlink="http://www.w3.org/1999/xlink" x="0px" y="0px"
	 width="360px" height="151.2px" viewBox="0 0 360 151.2" enable-background="new 0 0 360 151.2" xml:space="preserve">
<g>
	<rect x="198.913" y="6.401" fill="#757779" width="1.343" height="138.398"/>
	<g>
		<g>
			<linearGradient id="SVGID_1_" gradientUnits="userSpaceOnUse" x1="86.1779" y1="137.9872" x2="86.1779" y2="84.5107">
				<stop  offset="0" style="stop-color:#FFFFFF"/>
				<stop  offset="1" style="stop-color:#0076C0"/>
			</linearGradient>
			<path fill="url(#SVGID_1_)" d="M64.581,107.834h6.769v-60.16h-6.769V107.834z M5.102,80.563c0,15.603,15.229,28.221,33.25,28.221
				c6.769,0,13.537-1.969,19.036-5.396v-7.584c-5.077,4.375-12.098,7.293-19.29,7.293c-14.298,0-25.89-10.648-25.89-22.752
				c0-12.105,11.506-22.752,25.721-22.752c7.361,0,14.382,2.771,19.459,7.293V57.3c-5.669-3.646-11.93-5.396-19.036-5.396
				C20.078,51.905,5.102,64.811,5.102,80.563z M78.456,107.834h6.768V73.562h-6.768V107.834z M148.339,72.614
				c-12.437,0-19.29,8.384-19.29,18.521c0,9.846,7.615,17.648,19.459,17.648c8.122,0,14.552-3.5,18.36-9.627l-5.754-2.844
				c-2.623,4.084-6.346,7.074-12.099,7.074c-7.699,0-12.945-5.104-13.03-11.449h31.22C167.884,81.729,161.115,72.614,148.339,72.614
				z M136.326,86.979c0.845-4.957,6.26-8.969,12.098-8.969c5.922,0,10.745,4.012,11.676,8.969H136.326z M110.858,72.614
				c-4.907,0-8.545,1.823-11.336,5.105h-0.17v-4.157h-6.769v34.272h6.769V91.572c0-6.125,0.592-13.562,9.899-13.562
				c7.868,0,8.375,4.959,8.375,10.502v19.322h6.769V87.488C124.396,79.469,121.857,72.614,110.858,72.614z"/>
			<g>
				<path fill="#0076C0" d="M142.733,42.235c-0.748,2.988-4.855,14.433-23.72,13.174c-21.675-1.446-34.786,2.839-41.978,15.038
					l9.607-0.003c0,0,9.324-13.299,29.353-8.962c19.712,4.27,54.05,1.495,59.051-19.274L142.733,42.235z"/>
				
					<radialGradient id="SVGID_2_" cx="117.8184" cy="52.6022" r="45.1728" gradientTransform="matrix(0.9505 0 0 1 3.2499 0)" gradientUnits="userSpaceOnUse">
					<stop  offset="0" style="stop-color:#FFFFFF"/>
					<stop  offset="0.6629" style="stop-color:#888A8C"/>
					<stop  offset="1" style="stop-color:#C2C4C6"/>
				</radialGradient>
				<path fill="url(#SVGID_2_)" d="M173.524,46.401c-1.476,3.036-9.711,15.138-45.126,8.197
					C85.478,46.186,77.04,70.436,77.04,70.436c9.998-15.12,28.636-11.766,52.437-5.625c31.279,8.07,42.312-14.271,44.066-18.423
					L173.524,46.401z"/>
			</g>
		</g>
		<g>
			<g>
				<path fill="#67686B" d="M232.174,88.863c-0.699,0.4-1.696,0.689-2.584,0.689c-4.768,0-5.468-5.127-5.468-7.992
					c0-2.709,0.108-9.19,5.656-9.19c0.754,0,1.776,0.155,2.396,0.532v1.709c-0.754-0.421-1.427-0.732-2.369-0.732
					c-3.286,0-3.743,3.929-3.743,7.039c0,1.951,0,7.125,3.608,7.125c0.917,0,1.778-0.332,2.504-0.756V88.863z"/>
				<path fill="#67686B" d="M247.74,80.961c0,3.129-0.27,8.592-4.981,8.592c-4.443,0-4.983-4.686-4.983-8.592
					c0-4.24,0.673-8.591,4.983-8.591C247.337,72.37,247.74,77.275,247.74,80.961z M239.716,80.961c0,2.951,0.134,7.082,3.043,7.082
					c2.908,0,3.042-4.131,3.042-7.082c0-2.953-0.134-7.082-3.042-7.082C239.85,73.768,239.716,78.008,239.716,80.961z"/>
				<path fill="#67686B" d="M262.606,89.33h-1.643c0,0-5.035-12.698-5.277-13.408l-0.009,13.408h-1.527V72.592h1.643
					c0,0,5.092,12.787,5.279,13.365l-0.004-13.365h1.539V89.33z"/>
				<path fill="#67686B" d="M339.356,89.33h-1.643c0,0-5.035-12.699-5.277-13.408l-0.009,13.408h-1.527V72.592h1.643
					c0,0,5.092,12.787,5.279,13.363l-0.004-13.363h1.539V89.33z"/>
				<path fill="#67686B" d="M276.691,75.233c-0.809-0.754-1.697-1.354-2.99-1.354c-1.885,0-2.936,1.288-2.936,2.708
					c0,1.954,1.724,2.864,3.475,3.84c1.724,1,3.446,2.064,3.446,4.375c0,2.441-1.912,4.75-5.09,4.75
					c-1.131,0-2.288-0.268-3.204-0.846v-2.019c0.861,0.756,1.992,1.355,3.285,1.355c1.993,0,3.097-1.443,3.071-2.953
					c0.025-1.953-1.725-2.82-3.447-3.818c-1.725-0.977-3.475-2.065-3.475-4.462c0-2.241,1.669-4.439,4.659-4.439
					c1.211,0,2.234,0.333,3.205,0.888V75.233z"/>
				<path fill="#67686B" d="M292.311,84.025c0,3.086-0.298,5.527-4.256,5.527c-4.066,0-4.255-2.531-4.255-5.527V72.592h1.885v11.344
					c0,2.775,0.189,4.107,2.37,4.107c2.154,0,2.371-1.332,2.371-4.107V72.592h1.885V84.025z"/>
				<path fill="#67686B" d="M301.116,87.91h4.417v1.42h-6.303V72.592h1.886V87.91z"/>
				<path fill="#67686B" d="M316.494,74.013h-3.043V89.33h-1.886V74.013h-3.042v-1.421h7.971V74.013z"/>
				<path fill="#67686B" d="M323.955,89.33h-1.886V72.592h1.886V89.33z"/>
				<path fill="#67686B" d="M350.265,80.494h4.633v3.086c0,2.643-0.162,5.973-4.362,5.973c-4.283,0-4.687-3.707-4.687-8.992
					c0-3.951,0.566-8.19,4.875-8.19c2.423,0,3.635,1.332,4.146,3.152l-1.858,0.6c-0.215-0.999-0.727-2.243-2.209-2.243
					c-2.8,0.022-3.016,3.597-3.016,6.548c0,6.193,0.942,7.615,2.908,7.615c2.129,0,2.316-1.287,2.316-4.863v-1.264h-2.747V80.494z"
					/>
			</g>
			<g>
				<path fill="#67686B" d="M228.536,99.936h4.629v3.086c0,2.641-0.16,5.971-4.359,5.971c-4.28,0-4.684-3.707-4.684-8.99
					c0-3.953,0.566-8.191,4.872-8.191c2.422,0,3.633,1.33,4.145,3.15l-1.858,0.6c-0.215-0.998-0.726-2.24-2.205-2.24
					c-2.801,0.021-3.014,3.596-3.014,6.549c0,6.193,0.941,7.613,2.906,7.613c2.125,0,2.312-1.287,2.312-4.863v-1.264h-2.744V99.936z
					"/>
				<path fill="#67686B" d="M239.568,108.77V92.031h2.021c2.825,0,5.544,0.178,5.544,4.262c0,2.133-0.566,4.219-3.823,4.309
					l4.495,8.168h-1.991l-4.306-8.191h-0.053v8.191H239.568z M241.455,99.315h0.672c2.637,0,3.066-0.756,3.066-2.955
					c0-2.641-0.967-2.908-3.363-2.908h-0.375V99.315z"/>
				<path fill="#67686B" d="M262.956,100.4c0,3.131-0.27,8.592-4.979,8.592c-4.44,0-4.979-4.684-4.979-8.592
					c0-4.24,0.672-8.59,4.979-8.59C262.553,91.811,262.956,96.717,262.956,100.4z M254.936,100.4c0,2.953,0.134,7.082,3.041,7.082
					c2.906,0,3.041-4.129,3.041-7.082c0-2.953-0.135-7.08-3.041-7.08C255.07,93.207,254.936,97.447,254.936,100.4z"/>
				<path fill="#67686B" d="M277.785,103.465c0,3.086-0.297,5.527-4.252,5.527c-4.064,0-4.252-2.531-4.252-5.527V92.031h1.884
					v11.344c0,2.775,0.188,4.107,2.368,4.107c2.153,0,2.369-1.332,2.369-4.107V92.031h1.883V103.465z"/>
				<path fill="#67686B" d="M284.702,108.77V92.031h2.099c2.906,0,5.49,0.223,5.49,4.352c0,3.242-1.372,4.373-5.22,4.373h-0.484
					v8.014H284.702z M286.587,99.334h0.725c2.64,0,2.961-0.797,3.042-2.951c0-2.309-0.753-2.932-3.391-2.932h-0.376V99.334z"/>
			</g>
		</g>
	</g>
</g>
</svg>
