<?xml version="1.0" encoding="UTF-8" standalone="no"?>
<svg width="51px" height="20px" viewBox="0 0 51 20" version="1.1" xmlns="http://www.w3.org/2000/svg" xmlns:xlink="http://www.w3.org/1999/xlink">
    <!-- Generator: Sketch 3.6.1 (26313) - http://www.bohemiancoding.com/sketch -->
    <title>logo-bivee-reverse-bw</title>
    <desc>Created with Sketch.</desc>
    <defs></defs>
    <g id="-assets" stroke="none" stroke-width="1" fill="none" fill-rule="evenodd">
        <g id="logos" transform="translate(-48.000000, -26.000000)" fill="#FFFFFF">
            <g id="logo-bivee-reverse-bw" transform="translate(48.000000, 26.000000)">
                <g id="logo-icon">
                    <path d="M10.8004699,4.6816151 L9.5263253,5.91835172 L6.44649398,2.93813539 L9.2616988,0.213948348 L10.8004699,1.70228468 C11.6506627,2.52441333 11.6506627,3.86037237 10.8004699,4.6816151 Z M11.5355181,16.9517965 C11.5355181,17.5152381 11.3102651,18.0459009 10.8968434,18.4427906 L9.35807229,19.9328988 C0.803036145,11.6549138 9.18455422,19.7667898 0.637759036,11.4954492 C0.226168675,11.0967877 0,10.5678967 0,10.005341 C0,9.52473241 0.146963855,9.04146606 0.541156627,8.65077777 L2.19896386,7.04550072 C10.7869639,15.3575934 2.34913253,7.1938914 10.8968434,15.4625743 C11.3102651,15.8607928 11.5355181,16.3887978 11.5355181,16.9517965 Z" id="Combined-Shape"></path>
                    <path d="M5.32865301,17.1384587 L2.44202651,19.9330759 L0.901424096,18.4429678 C0.0530626506,17.6212821 0.0530626506,16.2831083 0.900508434,15.4636374 L2.24973735,14.1577994 L5.32865301,17.1384587 Z M11.7519349,10.0466246 C11.7519349,10.6118381 11.5257663,11.1402861 11.1132602,11.5376187 L9.57357349,13.0272839 C0.998850602,4.73158068 9.37166988,12.8323827 0.854175904,4.58983436 C0.00444096386,3.76770572 0.00444096386,2.43130372 0.854175904,1.61138986 L2.39294699,0.119952821 C2.55730843,0.278531514 10.9768265,8.42451521 11.1132602,8.55695943 C11.5257663,8.9560639 11.7519349,9.48451189 11.7519349,10.0466246 Z" id="Combined-Shape"></path>
                </g>
                <path d="M18.3412328,5.31424021 L18.3412328,15.7714286 L22.419446,15.7714286 C24.3006572,15.7714286 25.6360013,14.6390928 25.6360013,12.8932206 C25.6360013,11.4586278 24.7337418,10.5428344 23.5698269,10.2541113 C24.2961459,9.8932075 24.8916372,9.15786596 24.8916372,8.01199631 C24.8916372,6.28416924 23.5382479,5.31424021 21.7427513,5.31424021 L18.3412328,5.31424021 Z M21.9863614,10.8947156 C23.4435106,10.8947156 24.4585526,11.5037408 24.4585526,12.839085 C24.4585526,14.1608952 23.4660671,14.7428527 22.1397455,14.7428527 L19.4871024,14.7428527 L19.4871024,10.8947156 L21.9863614,10.8947156 Z M21.4810961,6.33830482 C22.7938837,6.33830482 23.736745,6.84357017 23.736745,8.07966578 C23.736745,9.32478398 22.7893724,9.9022301 21.6299689,9.9022301 L19.4871024,9.9022301 L19.4871024,6.33830482 L21.4810961,6.33830482 Z M27.1226208,6.80296849 C27.5602167,6.80296849 27.9166092,6.44657596 27.9166092,6.00898008 C27.9166092,5.57138419 27.5602167,5.21499166 27.1226208,5.21499166 C26.6850249,5.21499166 26.3286324,5.57138419 26.3286324,6.00898008 C26.3286324,6.44657596 26.6850249,6.80296849 27.1226208,6.80296849 L27.1226208,6.80296849 Z M26.5587086,15.7714286 L27.6820217,15.7714286 L27.6820217,8.41801311 L26.5587086,8.41801311 L26.5587086,15.7714286 Z M29.6242867,8.41801311 L28.401725,8.41801311 L31.2709104,15.7714286 L32.4438478,15.7714286 L35.4213044,8.41801311 L34.2664121,8.41801311 L31.8934695,14.5217991 L29.6242867,8.41801311 Z M41.843285,14.9684176 L41.3109519,14.233076 C40.6793702,14.6706719 39.9304948,14.9323272 39.131995,14.9323272 C37.6026651,14.9323272 36.601157,13.9804433 36.4838632,12.4511134 L42.3846408,12.4511134 C42.3981747,12.3473535 42.4162199,12.1353225 42.4162199,11.9232915 C42.4162199,9.87516231 41.0718531,8.26914029 38.9740996,8.26914029 C36.9485269,8.26914029 35.3425049,9.77140246 35.3425049,12.1488564 C35.3425049,14.5849572 37.025219,15.9203014 39.0778595,15.9203014 C40.1335032,15.9203014 41.1350113,15.5684202 41.843285,14.9684176 L41.843285,14.9684176 Z M36.5064197,11.5759216 C36.6462699,10.2405774 37.6252216,9.25711451 38.9831222,9.25711451 C40.4177149,9.25711451 41.2342598,10.3578712 41.2929067,11.5759216 L36.5064197,11.5759216 Z M49.6283523,14.9684176 L49.0960192,14.233076 C48.4644375,14.6706719 47.715562,14.9323272 46.9170623,14.9323272 C45.3877324,14.9323272 44.3862242,13.9804433 44.2689305,12.4511134 L50.1697081,12.4511134 C50.1832419,12.3473535 50.2012871,12.1353225 50.2012871,11.9232915 C50.2012871,9.87516231 48.8569204,8.26914029 46.7591669,8.26914029 C44.7335942,8.26914029 43.1275721,9.77140246 43.1275721,12.1488564 C43.1275721,14.5849572 44.8102862,15.9203014 46.8629267,15.9203014 C47.9185704,15.9203014 48.9200786,15.5684202 49.6283523,14.9684176 L49.6283523,14.9684176 Z M44.291487,11.5759216 C44.4313372,10.2405774 45.4102888,9.25711451 46.7681895,9.25711451 C48.2027822,9.25711451 49.0193271,10.3578712 49.077974,11.5759216 L44.291487,11.5759216 Z" id="Bivee"></path>
            </g>
        </g>
    </g>
</svg>