<svg xmlns="http://www.w3.org/2000/svg" width="600" height="68"><g fill="none" fill-rule="evenodd"><path fill="#E4B05E" d="M130.337 0h9.686v21.015L159.012 0h10.993l-18.911 20.938 20.987 30.218h-11.686L144.79 27.917l-4.767 5.292v17.947h-9.686V0zm43.624 15.186h8.687l.23 4.065a20.004 20.004 0 0 1 1.653-1.61c.641-.563 1.41-1.087 2.307-1.573s1.909-.882 3.036-1.189c1.128-.307 2.41-.46 3.844-.46 4.51 0 7.944 1.342 10.301 4.026 2.358 2.685 3.537 6.302 3.537 10.853v21.858h-9.072V29.375c0-2.301-.627-4.078-1.883-5.33-1.256-1.254-2.883-1.88-4.882-1.88-1.23 0-2.383.243-3.46.729a8.094 8.094 0 0 0-2.767 2.032 9.72 9.72 0 0 0-1.806 3.03c-.436 1.15-.654 2.39-.654 3.72v19.48h-9.07v-35.97zm37.474 17.947c0-2.608.474-5.075 1.422-7.402.948-2.326 2.268-4.358 3.96-6.097 1.69-1.738 3.728-3.119 6.11-4.141 2.384-1.023 5.01-1.534 7.88-1.534s5.497.511 7.88 1.534c2.384 1.022 4.42 2.403 6.112 4.141 1.691 1.739 3.011 3.771 3.96 6.097.947 2.327 1.421 4.794 1.421 7.402 0 2.607-.474 5.074-1.422 7.4a19.298 19.298 0 0 1-3.959 6.136c-1.691 1.764-3.728 3.158-6.112 4.18-2.383 1.023-5.01 1.534-7.88 1.534s-5.496-.511-7.88-1.534c-2.382-1.022-4.42-2.416-6.11-4.18a19.298 19.298 0 0 1-3.96-6.135c-.948-2.327-1.422-4.794-1.422-7.401zm19.373 11.427c1.742 0 3.254-.345 4.535-1.035a9.674 9.674 0 0 0 3.19-2.723 11.941 11.941 0 0 0 1.884-3.681c.41-1.33.615-2.659.615-3.988 0-1.279-.205-2.595-.615-3.95a11.398 11.398 0 0 0-1.883-3.682c-.846-1.099-1.91-1.994-3.19-2.684-1.282-.69-2.794-1.035-4.536-1.035-1.743 0-3.255.345-4.536 1.035-1.281.69-2.345 1.585-3.19 2.684a11.398 11.398 0 0 0-1.884 3.682c-.41 1.355-.615 2.671-.615 3.95 0 1.329.205 2.658.615 3.988a11.941 11.941 0 0 0 1.884 3.681 9.674 9.674 0 0 0 3.19 2.723c1.281.69 2.793 1.035 4.536 1.035zm18.716-29.374h9.994l6.919 25.003 7.61-25.003h7.61l7.688 25.003 6.842-25.003h9.533l-12.223 35.97h-8.764l-7.38-21.705-7.15 21.705h-8.456l-12.223-35.97zM308.742 0h9.071v51.156h-9.071V0zm48.698 45.94l-1.269 1.266c-.692.69-1.691 1.42-2.998 2.186-1.307.767-2.973 1.457-4.997 2.071-2.024.614-4.446.92-7.265.92-2.87 0-5.483-.485-7.841-1.457-2.358-.971-4.37-2.314-6.035-4.026-1.665-1.713-2.947-3.771-3.844-6.174-.896-2.404-1.345-5.062-1.345-7.977 0-2.659.449-5.126 1.345-7.401.897-2.275 2.153-4.257 3.767-5.944 1.615-1.687 3.537-3.017 5.766-3.988 2.23-.972 4.702-1.457 7.419-1.457 3.28 0 6.06.6 8.34 1.802 2.281 1.202 4.113 2.774 5.497 4.717 1.384 1.943 2.383 4.141 2.998 6.596.615 2.454.923 4.96.923 7.516v1.304h-26.907c0 1.33.295 2.53.884 3.604a9.228 9.228 0 0 0 2.307 2.761 10.407 10.407 0 0 0 3.228 1.764c1.205.41 2.396.614 3.575.614 1.743 0 3.267-.166 4.574-.498 1.307-.333 2.422-.716 3.344-1.15.923-.436 1.679-.896 2.268-1.381.59-.486 1.038-.882 1.346-1.19l4.92 5.523zm-8.841-16.565c0-.92-.18-1.841-.538-2.762a7.756 7.756 0 0 0-1.576-2.492c-.692-.742-1.576-1.355-2.652-1.84-1.077-.487-2.307-.73-3.69-.73-1.487 0-2.806.243-3.96.73-1.153.485-2.114 1.098-2.882 1.84a7.931 7.931 0 0 0-1.769 2.492c-.41.92-.615 1.841-.615 2.762H348.6zm38.012 18.253a17.383 17.383 0 0 1-1.691 1.61 12.376 12.376 0 0 1-2.345 1.535 15.89 15.89 0 0 1-2.998 1.15c-1.102.307-2.345.46-3.729.46-1.947 0-3.87-.409-5.765-1.227-1.897-.818-3.588-2.02-5.074-3.605-1.486-1.585-2.69-3.528-3.613-5.828-.923-2.301-1.384-4.934-1.384-7.9 0-2.812.41-5.28 1.23-7.401.82-2.122 1.845-3.925 3.075-5.407 1.025-1.227 2.153-2.25 3.383-3.068a23.23 23.23 0 0 1 3.728-2.033c1.256-.536 2.473-.92 3.652-1.15 1.178-.23 2.203-.345 3.075-.345 1.178 0 2.152.038 2.92.115.77.077 1.462.179 2.077.307.615.127 1.178.294 1.69.498.513.205 1.103.435 1.769.69V0h8.994v51.156h-8.763l-.231-3.528zm0-23.469a7.52 7.52 0 0 0-3.037-1.495c-1.153-.282-2.626-.422-4.42-.422s-3.28.345-4.459 1.035A10.723 10.723 0 0 0 371.62 26c-.769 1.023-1.37 2.211-1.806 3.566a13.821 13.821 0 0 0-.654 4.257c0 3.068.769 5.624 2.306 7.67 1.538 2.045 3.767 3.067 6.689 3.067 1.537 0 2.844-.294 3.92-.882 1.077-.588 1.948-1.342 2.614-2.262a9.48 9.48 0 0 0 1.46-3.03 11.8 11.8 0 0 0 .462-3.183V24.16zm20.561 32.826a14.99 14.99 0 0 0 4.651 2.11c1.666.434 3.626.651 5.881.651 2.358 0 4.33-.716 5.92-2.147 1.588-1.432 2.383-3.426 2.383-5.983v-3.911a16.847 16.847 0 0 1-4.036 2.492c-1.46.64-3.396.96-5.804.96-2.614 0-4.933-.435-6.958-1.305-2.024-.869-3.754-2.083-5.189-3.643-1.435-1.56-2.524-3.4-3.267-5.522-.743-2.122-1.115-4.46-1.115-7.017 0-2.66.474-5.165 1.423-7.517a17.875 17.875 0 0 1 4.074-6.135c1.768-1.739 3.908-3.107 6.42-4.104 2.51-.997 5.33-1.495 8.455-1.495 3.127 0 6.01.255 8.649.767 2.64.511 4.78 1.048 6.42 1.61V51.77c0 2.505-.437 4.73-1.308 6.672-.871 1.943-2.075 3.58-3.613 4.909-1.537 1.33-3.357 2.34-5.458 3.03s-4.382 1.035-6.842 1.035c-1.896 0-3.575-.09-5.035-.269-1.461-.179-2.768-.422-3.921-.728a17.528 17.528 0 0 1-3.152-1.15 16.277 16.277 0 0 1-2.652-1.611l4.074-6.673zm18.835-33.976a12.963 12.963 0 0 0-2.23-.575c-.768-.128-1.973-.192-3.613-.192-1.845 0-3.46.307-4.843.92-1.384.614-2.562 1.432-3.536 2.454a10.028 10.028 0 0 0-2.191 3.567 12.491 12.491 0 0 0-.73 4.256c0 2.761.691 5.088 2.075 6.98 1.384 1.892 3.613 2.838 6.688 2.838 2.768 0 4.856-.588 6.266-1.764 1.41-1.177 2.114-3.043 2.114-5.6V23.01zm48.698 22.932l-1.269 1.265c-.692.69-1.691 1.42-2.998 2.186-1.307.767-2.973 1.457-4.997 2.071-2.024.614-4.446.92-7.265.92-2.87 0-5.484-.485-7.841-1.457-2.358-.971-4.37-2.314-6.035-4.026-1.665-1.713-2.947-3.771-3.844-6.174-.896-2.404-1.345-5.062-1.345-7.977 0-2.659.449-5.126 1.345-7.401.897-2.275 2.153-4.257 3.767-5.944 1.615-1.687 3.537-3.017 5.766-3.988 2.23-.972 4.702-1.457 7.418-1.457 3.28 0 6.06.6 8.342 1.802 2.28 1.202 4.112 2.774 5.496 4.717 1.384 1.943 2.383 4.141 2.998 6.596.615 2.454.923 4.96.923 7.516v1.304h-26.907c0 1.33.295 2.53.884 3.604a9.228 9.228 0 0 0 2.307 2.761 10.407 10.407 0 0 0 3.228 1.764c1.205.41 2.396.614 3.575.614 1.743 0 3.267-.166 4.574-.498 1.307-.333 2.422-.716 3.344-1.15.923-.436 1.679-.896 2.268-1.381.59-.486 1.038-.882 1.345-1.19l4.92 5.523zm-8.841-16.566c0-.92-.18-1.841-.538-2.762a7.756 7.756 0 0 0-1.576-2.492c-.692-.742-1.576-1.355-2.652-1.84-1.077-.487-2.307-.73-3.69-.73-1.487 0-2.806.243-3.96.73-1.153.485-2.114 1.098-2.882 1.84a7.931 7.931 0 0 0-1.769 2.492c-.41.92-.615 1.841-.615 2.762h17.682zM490.612 0h9.686v42.566h25.292v8.59h-34.978V0zm59.69 47.782c-.973 1.176-2.46 2.224-4.458 3.144-1.999.92-4.228 1.38-6.688 1.38-1.486 0-2.96-.23-4.42-.69a12.502 12.502 0 0 1-3.998-2.109c-1.204-.946-2.178-2.16-2.921-3.643-.743-1.483-1.115-3.221-1.115-5.215 0-2.045.384-3.873 1.153-5.484a11.384 11.384 0 0 1 3.229-4.065c1.384-1.1 3.05-1.93 4.997-2.492 1.947-.563 4.1-.844 6.457-.844a81.827 81.827 0 0 1 4.92.153c.923.051 1.871.103 2.845.154v-.844c0-1.79-.718-3.196-2.153-4.218-1.435-1.023-3.305-1.534-5.612-1.534-2.562 0-4.612.332-6.15.997-1.537.665-2.895 1.38-4.074 2.147l-4.151-6.135a31.918 31.918 0 0 1 2.46-1.573c.922-.536 1.998-1.022 3.228-1.457 1.23-.434 2.653-.792 4.267-1.074 1.614-.28 3.498-.421 5.65-.421 2.307 0 4.395.32 6.266.958 1.87.64 3.472 1.534 4.805 2.685a11.691 11.691 0 0 1 3.075 4.141c.717 1.61 1.076 3.362 1.076 5.254v24.16h-8.457l-.23-3.375zm0-12.885a829.81 829.81 0 0 1-2.69-.154 58.376 58.376 0 0 0-2.268-.115 64.748 64.748 0 0 0-2.037-.038c-2.921 0-4.971.575-6.15 1.726-1.179 1.15-1.768 2.467-1.768 3.95 0 1.533.55 2.735 1.653 3.604 1.102.87 2.729 1.304 4.881 1.304a9.165 9.165 0 0 0 3.114-.537c1-.358 1.883-.844 2.652-1.457a7.907 7.907 0 0 0 1.884-2.148c.486-.818.73-1.687.73-2.607v-3.528zM564.56 0h9.072v17.64c.615-.614 1.793-1.304 3.536-2.07 1.742-.768 3.844-1.151 6.304-1.151 2.614 0 4.933.486 6.957 1.457 2.024.972 3.754 2.275 5.19 3.912 1.434 1.636 2.523 3.579 3.266 5.828.743 2.25 1.115 4.628 1.115 7.133 0 2.71-.474 5.254-1.422 7.631-.948 2.378-2.306 4.449-4.075 6.213-1.768 1.764-3.907 3.17-6.419 4.218-2.511 1.048-5.33 1.572-8.456 1.572-3.126 0-6.01-.255-8.649-.767-2.639-.51-4.779-1.048-6.419-1.61V0zm9.072 43.793c.717.256 1.46.448 2.229.576.769.127 1.973.191 3.613.191 1.845 0 3.46-.32 4.843-.958 1.384-.64 2.563-1.496 3.537-2.57a10.671 10.671 0 0 0 2.19-3.72c.487-1.406.73-2.85.73-4.333 0-1.38-.166-2.71-.499-3.988-.333-1.278-.858-2.416-1.576-3.413a7.89 7.89 0 0 0-2.729-2.377c-1.102-.588-2.421-.882-3.959-.882-2.767 0-4.856.703-6.265 2.109-1.41 1.406-2.114 3.336-2.114 5.79v13.575z"/><path fill="#FFF" d="M0 0h16.467c3.59 0 6.527.555 8.81 1.666 2.283 1.11 4.091 2.48 5.425 4.107 1.334 1.627 2.257 3.37 2.77 5.23.513 1.86.77 3.565.77 5.115 0 2.893-.514 5.372-1.54 7.439-1.025 2.066-2.36 3.758-4 5.075a16.293 16.293 0 0 1-5.54 2.906c-2.053.62-4.08.93-6.08.93H9.311v19.217H0V0zm16.313 24.254c2.462 0 4.424-.723 5.886-2.17 1.462-1.446 2.193-3.332 2.193-5.656 0-2.428-.77-4.404-2.308-5.928-1.54-1.524-3.463-2.286-5.771-2.286H9.31v16.04h7.002zM38.497 0h16.467c3.59 0 6.528.555 8.81 1.666 2.283 1.11 4.091 2.48 5.425 4.107 1.334 1.627 2.257 3.37 2.77 5.23.513 1.86.77 3.565.77 5.115 0 2.893-.513 5.372-1.54 7.439-1.025 2.066-2.359 3.758-4 5.075a16.293 16.293 0 0 1-5.54 2.906c-2.053.62-4.079.93-6.08.93h-7.771v19.217h-9.31V0zM54.81 24.254c2.462 0 4.424-.723 5.886-2.17 1.462-1.446 2.193-3.332 2.193-5.656 0-2.428-.769-4.404-2.308-5.928-1.539-1.524-3.463-2.286-5.771-2.286h-7.002v16.04h7.002zM76.994 0h16.467c3.591 0 6.528.555 8.81 1.666 2.283 1.11 4.092 2.48 5.425 4.107 1.334 1.627 2.258 3.37 2.77 5.23.513 1.86.77 3.565.77 5.115 0 2.893-.513 5.372-1.539 7.439-1.026 2.066-2.36 3.758-4.001 5.075a16.293 16.293 0 0 1-5.54 2.906c-2.052.62-4.079.93-6.08.93h-7.77v19.217h-9.312V0zm16.313 24.254c2.463 0 4.425-.723 5.887-2.17 1.462-1.446 2.193-3.332 2.193-5.656 0-2.428-.77-4.404-2.309-5.928-1.539-1.524-3.462-2.286-5.77-2.286h-7.003v16.04h7.002z"/></g></svg>