<svg xmlns="http://www.w3.org/2000/svg" width="600" height="68" viewBox="0 0 600 68">
  <g fill="none" fill-rule="evenodd">
    <path fill="#E4B05E" d="M130.337079,0 L140.023411,0 L140.023411,21.0146873 L159.011697,0 L170.004915,0 L151.093505,20.9379913 L172.080557,51.1561913 L160.395458,51.1561913 L144.789701,27.9173218 L140.023411,33.2093416 L140.023411,51.1561913 L130.337079,51.1561913 L130.337079,0 Z M173.961054,15.1857959 L182.648003,15.1857959 L182.87863,19.2506807 C183.339886,18.7393719 183.890822,18.2025057 184.531456,17.640066 C185.17209,17.0776263 185.940839,16.5535426 186.837726,16.0677992 C187.734613,15.5820558 188.746799,15.1857974 189.874314,14.8790122 C191.001829,14.5722269 192.283077,14.4188365 193.718096,14.4188365 C198.228157,14.4188365 201.661902,15.761002 204.019434,18.4453733 C206.376965,21.1297446 207.555714,24.7472002 207.555714,29.2978487 L207.555714,51.1561913 L198.484387,51.1561913 L198.484387,29.3745446 C198.484387,27.0736549 197.856575,25.2968835 196.600933,24.0441769 C195.345291,22.7914703 193.718106,22.1651264 191.719329,22.1651264 C190.489313,22.1651264 189.33619,22.4079944 188.259925,22.8937378 C187.183661,23.3794812 186.261162,24.0569552 185.492402,24.9261802 C184.723641,25.7954051 184.121455,26.8052249 183.685824,27.9556697 C183.250193,29.1061146 183.032381,30.3460199 183.032381,31.6754228 L183.032381,51.1561913 L173.961054,51.1561913 L173.961054,15.1857959 Z M211.434977,33.1326456 C211.434977,30.5249707 211.909039,28.0579426 212.857177,25.7314875 C213.805315,23.4050324 215.125,21.3726103 216.816273,19.6341604 C218.507546,17.8957104 220.54473,16.5151973 222.927887,15.4925797 C225.311044,14.469962 227.937603,13.9586609 230.807641,13.9586609 C233.67768,13.9586609 236.304239,14.469962 238.687396,15.4925797 C241.070553,16.5151973 243.107737,17.8957104 244.79901,19.6341604 C246.490283,21.3726103 247.809968,23.4050324 248.758106,25.7314875 C249.706244,28.0579426 250.180306,30.5249707 250.180306,33.1326456 C250.180306,35.7403206 249.706244,38.2073486 248.758106,40.5338037 C247.809968,42.8602588 246.490283,44.9054634 244.79901,46.6694789 C243.107737,48.4334943 241.070553,49.8267899 238.687396,50.8494075 C236.304239,51.8720252 233.67768,52.3833263 230.807641,52.3833263 C227.937603,52.3833263 225.311044,51.8720252 222.927887,50.8494075 C220.54473,49.8267899 218.507546,48.4334943 216.816273,46.6694789 C215.125,44.9054634 213.805315,42.8602588 212.857177,40.5338037 C211.909039,38.2073486 211.434977,35.7403206 211.434977,33.1326456 L211.434977,33.1326456 Z M230.807641,44.5603405 C232.550165,44.5603405 234.062038,44.2152123 235.343305,43.5249454 C236.624572,42.8346785 237.688008,41.9271189 238.533644,40.8022395 C239.379281,39.6773601 240.007092,38.4502374 240.417098,37.1208345 C240.827103,35.7914315 241.032103,34.4620485 241.032103,33.1326456 C241.032103,31.8543736 240.827103,30.5377731 240.417098,29.1828048 C240.007092,27.8278364 239.379281,26.6007137 238.533644,25.5013997 C237.688008,24.4020857 236.624572,23.5073087 235.343305,22.8170418 C234.062038,22.1267749 232.550165,21.7816467 230.807641,21.7816467 C229.065118,21.7816467 227.553245,22.1267749 226.271978,22.8170418 C224.990711,23.5073087 223.927275,24.4020857 223.081638,25.5013997 C222.236002,26.6007137 221.60819,27.8278364 221.198185,29.1828048 C220.788179,30.5377731 220.58318,31.8543736 220.58318,33.1326456 C220.58318,34.4620485 220.788179,35.7914315 221.198185,37.1208345 C221.60819,38.4502374 222.236002,39.6773601 223.081638,40.8022395 C223.927275,41.9271189 224.990711,42.8346785 226.271978,43.5249454 C227.553245,44.2152123 229.065118,44.5603405 230.807641,44.5603405 L230.807641,44.5603405 Z M249.523906,15.1857959 L259.51774,15.1857959 L266.436549,40.188672 L274.047238,15.1857959 L281.657928,15.1857959 L289.345493,40.188672 L296.187426,15.1857959 L305.720007,15.1857959 L293.496778,51.1561913 L284.732954,51.1561913 L277.352891,29.4512406 L270.203456,51.1561913 L261.747134,51.1561913 L249.523906,15.1857959 Z M308.741811,0 L317.813138,0 L317.813138,51.1561913 L308.741811,51.1561913 L308.741811,0 Z M357.43958,45.9408674 C357.285828,46.0942601 356.863016,46.5160835 356.171131,47.2063504 C355.479247,47.8966173 354.479874,48.6252215 353.172981,49.3921847 C351.866088,50.1591479 350.200466,50.8494045 348.176064,51.462975 C346.151661,52.0765456 343.730103,52.3833263 340.911315,52.3833263 C338.041276,52.3833263 335.42753,51.8975902 333.069998,50.9261035 C330.712466,49.9546167 328.700907,48.6124512 327.03526,46.8995667 C325.369612,45.1866821 324.088364,43.128695 323.191477,40.7255436 C322.29459,38.3223921 321.846153,35.6636262 321.846153,32.7491659 C321.846153,30.0903601 322.29459,27.6233321 323.191477,25.3480078 C324.088364,23.0726836 325.343987,21.0913916 326.958384,19.4040726 C328.572781,17.7167535 330.494653,16.3873705 332.724058,15.4158837 C334.953463,14.444397 337.426271,13.9586609 340.142558,13.9586609 C343.422602,13.9586609 346.202911,14.5594397 348.483566,15.7610155 C350.764222,16.9625912 352.596407,18.5348422 353.980175,20.4778157 C355.363944,22.4207892 356.363317,24.6193841 356.978326,27.0736664 C357.593334,29.5279488 357.900834,32.0333244 357.900834,34.5898685 L357.900834,35.8936994 L330.994356,35.8936994 C330.994356,37.2231024 331.289043,38.42466 331.878426,39.4984086 C332.467808,40.5721571 333.236557,41.4924991 334.184695,42.2594624 C335.132833,43.0264256 336.209081,43.6144219 337.413472,44.023469 C338.617864,44.432516 339.809424,44.6370365 340.98819,44.6370365 C342.730714,44.6370365 344.255399,44.4708636 345.562291,44.1385129 C346.869184,43.8061621 347.98387,43.4226863 348.906382,42.9880738 C349.828895,42.5534613 350.584831,42.0932903 351.174214,41.6075469 C351.763597,41.1218035 352.212034,40.7255451 352.519538,40.4187598 L357.43958,45.9408674 Z M348.59888,29.3745446 C348.59888,28.4541887 348.419505,27.5338467 348.06075,26.6134908 C347.701995,25.6931349 347.176684,24.8622706 346.484799,24.1208728 C345.792915,23.379475 344.908854,22.7659136 343.832589,22.2801703 C342.756325,21.7944269 341.526327,21.5515588 340.142558,21.5515588 C338.656288,21.5515588 337.336603,21.7944269 336.183462,22.2801703 C335.030321,22.7659136 334.069385,23.379475 333.300625,24.1208728 C332.531865,24.8622706 331.942491,25.6931349 331.532485,26.6134908 C331.12248,27.5338467 330.91748,28.4541887 330.91748,29.3745446 L348.59888,29.3745446 Z M386.610933,47.6281781 C386.149676,48.1394869 385.585927,48.6763531 384.919668,49.2387928 C384.253409,49.8012325 383.471848,50.3125337 382.574961,50.7727116 C381.678074,51.2328895 380.6787,51.6163654 379.57681,51.9231507 C378.474921,52.229936 377.23211,52.3833263 375.848341,52.3833263 C373.900815,52.3833263 371.978943,51.9742854 370.082667,51.1561913 C368.186392,50.3380972 366.495145,49.1365395 365.008875,47.5514821 C363.522604,45.9664248 362.318231,44.0234805 361.395719,41.7225908 C360.473206,39.4217011 360.011957,36.7885002 360.011957,33.8229091 C360.011957,31.0107106 360.421957,28.5436826 361.241968,26.421751 C362.061979,24.2998194 363.086977,22.4974828 364.316994,21.0146873 C365.342007,19.7875461 366.469506,18.7649438 367.699522,17.9468497 C368.929539,17.1287556 370.172349,16.4512816 371.427991,15.9144073 C372.683633,15.3775331 373.900819,14.9940572 375.079585,14.7639682 C376.258351,14.5338793 377.283349,14.4188365 378.154611,14.4188365 C379.333377,14.4188365 380.307125,14.4571841 381.075886,14.5338804 C381.844646,14.6105768 382.53652,14.712837 383.151528,14.8406642 C383.766537,14.9684914 384.330286,15.1346643 384.842793,15.3391878 C385.355299,15.5437113 385.944674,15.7737968 386.610933,16.0294512 L386.610933,0 L395.605384,0 L395.605384,51.1561913 L386.841559,51.1561913 L386.610933,47.6281781 Z M386.610933,24.1592208 C385.739671,23.4433884 384.727485,22.9448698 383.574344,22.66365 C382.421204,22.3824301 380.947769,22.2418223 379.153994,22.2418223 C377.36022,22.2418223 375.873972,22.5869506 374.695207,23.2772175 C373.516441,23.9674844 372.491442,24.8750439 371.620181,25.9999233 C370.85142,27.0225409 370.249234,28.2113161 369.813603,29.5662845 C369.377972,30.9212528 369.16016,32.3401135 369.16016,33.8229091 C369.16016,36.890762 369.928909,39.4472677 371.466429,41.492503 C373.00395,43.5377382 375.233322,44.5603405 378.154611,44.5603405 C379.692132,44.5603405 380.999005,44.2663424 382.075269,43.6783372 C383.151534,43.0903321 384.022782,42.3361629 384.689041,41.415807 C385.3553,40.4954512 385.842174,39.4856314 386.149679,38.3863174 C386.457183,37.2870035 386.610933,36.2260536 386.610933,35.203436 L386.610933,24.1592208 Z M407.172212,56.9850826 C408.607232,57.9565694 410.157542,58.6596085 411.823189,59.094221 C413.488837,59.5288335 415.449146,59.7461364 417.704177,59.7461364 C420.061708,59.7461364 422.03483,59.0303148 423.623602,57.5986502 C425.212373,56.1669855 426.006747,54.172911 426.006747,51.6163669 L426.006747,47.704874 C424.77673,48.7274917 423.43142,49.558356 421.970775,50.197492 C420.510131,50.8366281 418.575446,51.1561913 416.166664,51.1561913 C413.552878,51.1561913 411.23382,50.7215853 409.209417,49.8523603 C407.185015,48.9831353 405.45533,47.7687951 404.020311,46.2093032 C402.585291,44.6498113 401.496231,42.8091272 400.753096,40.6871956 C400.009961,38.565264 399.638399,36.2260613 399.638399,33.6695172 C399.638399,31.0107114 400.11246,28.5053357 401.060598,26.1533152 C402.008736,23.8012946 403.366859,21.75609 405.135008,20.0176401 C406.903157,18.2791901 409.042841,16.9114595 411.554125,15.9144073 C414.065408,14.9173551 416.884154,14.4188365 420.010446,14.4188365 C423.136738,14.4188365 426.019546,14.6744871 428.658957,15.1857959 C431.298368,15.6971047 433.438052,16.2339709 435.078074,16.7964106 L435.078074,51.7697588 C435.078074,54.275172 434.64245,56.499332 433.771188,58.4423055 C432.899926,60.385279 431.695553,62.0214427 430.158032,63.3508456 C428.620512,64.6802485 426.801139,65.6900683 424.699861,66.3803352 C422.598583,67.0706021 420.317961,67.4157303 417.857928,67.4157303 C415.961652,67.4157303 414.283218,67.3262526 412.822573,67.1472946 C411.361928,66.9683365 410.055055,66.7254684 408.901915,66.4186831 C407.748774,66.1118978 406.698151,65.728422 405.750013,65.268244 C404.801875,64.8080661 403.917814,64.2711999 403.097803,63.6576293 L407.172212,56.9850826 Z M426.006747,23.0087817 C425.289237,22.7531273 424.546114,22.5613893 423.777353,22.4335621 C423.008593,22.3057349 421.80422,22.2418223 420.164198,22.2418223 C418.319173,22.2418223 416.7048,22.548603 415.321032,23.1621736 C413.937263,23.7757441 412.758515,24.593826 411.784752,25.6164436 C410.810988,26.6390612 410.080677,27.8278364 409.593796,29.1828048 C409.106914,30.5377731 408.863477,31.9566338 408.863477,33.4394294 C408.863477,36.200497 409.555351,38.5269172 410.939119,40.4187598 C412.322888,42.3106024 414.55226,43.2565096 417.627301,43.2565096 C420.394838,43.2565096 422.483273,42.6685132 423.892667,41.492503 C425.302061,40.3164927 426.006747,38.4502435 426.006747,35.8936994 L426.006747,23.0087817 Z M474.704515,45.9408674 C474.550763,46.0942601 474.127951,46.5160835 473.436067,47.2063504 C472.744183,47.8966173 471.744809,48.6252215 470.437917,49.3921847 C469.131024,50.1591479 467.465402,50.8494045 465.440999,51.462975 C463.416597,52.0765456 460.995038,52.3833263 458.17625,52.3833263 C455.306212,52.3833263 452.692466,51.8975902 450.334934,50.9261035 C447.977402,49.9546167 445.965843,48.6124512 444.300195,46.8995667 C442.634548,45.1866821 441.3533,43.128695 440.456413,40.7255436 C439.559526,38.3223921 439.111089,35.6636262 439.111089,32.7491659 C439.111089,30.0903601 439.559526,27.6233321 440.456413,25.3480078 C441.3533,23.0726836 442.608923,21.0913916 444.22332,19.4040726 C445.837716,17.7167535 447.759588,16.3873705 449.988994,15.4158837 C452.218399,14.444397 454.691207,13.9586609 457.407494,13.9586609 C460.687538,13.9586609 463.467846,14.5594397 465.748502,15.7610155 C468.029158,16.9625912 469.861342,18.5348422 471.245111,20.4778157 C472.62888,22.4207892 473.628253,24.6193841 474.243261,27.0736664 C474.85827,29.5279488 475.165769,32.0333244 475.165769,34.5898685 L475.165769,35.8936994 L448.259291,35.8936994 C448.259291,37.2231024 448.553978,38.42466 449.143361,39.4984086 C449.732744,40.5721571 450.501493,41.4924991 451.449631,42.2594624 C452.397769,43.0264256 453.474017,43.6144219 454.678408,44.023469 C455.882799,44.432516 457.07436,44.6370365 458.253126,44.6370365 C459.99565,44.6370365 461.520335,44.4708636 462.827227,44.1385129 C464.13412,43.8061621 465.248806,43.4226863 466.171318,42.9880738 C467.093831,42.5534613 467.849767,42.0932903 468.43915,41.6075469 C469.028533,41.1218035 469.47697,40.7255451 469.784474,40.4187598 L474.704515,45.9408674 Z M465.863816,29.3745446 C465.863816,28.4541887 465.684441,27.5338467 465.325686,26.6134908 C464.966931,25.6931349 464.441619,24.8622706 463.749735,24.1208728 C463.057851,23.379475 462.17379,22.7659136 461.097525,22.2801703 C460.021261,21.7944269 458.791263,21.5515588 457.407494,21.5515588 C455.921224,21.5515588 454.601538,21.7944269 453.448398,22.2801703 C452.295257,22.7659136 451.334321,23.379475 450.565561,24.1208728 C449.796801,24.8622706 449.207426,25.6931349 448.797421,26.6134908 C448.387415,27.5338467 448.182416,28.4541887 448.182416,29.3745446 L465.863816,29.3745446 Z M490.611862,0 L500.298194,0 L500.298194,42.5662461 L525.590283,42.5662461 L525.590283,51.1561913 L490.611862,51.1561913 L490.611862,0 Z M550.302848,47.78157 C549.329085,48.9575802 547.842837,50.0057476 545.84406,50.9261035 C543.845283,51.8464593 541.615912,52.3066304 539.155879,52.3066304 C537.669609,52.3066304 536.196173,52.0765448 534.735529,51.6163669 C533.274884,51.156189 531.942386,50.4531499 530.737995,49.5072286 C529.533604,48.5613073 528.559855,47.3469671 527.81672,45.8641715 C527.073585,44.3813759 526.702023,42.642952 526.702023,40.6488476 C526.702023,38.6036124 527.086398,36.7757108 527.855158,35.165088 C528.623918,33.5544652 529.700167,32.1995172 531.083935,31.1002032 C532.467704,30.0008893 534.133326,29.1700249 536.080853,28.6075852 C538.028379,28.0451455 540.180876,27.7639299 542.538407,27.7639299 C543.255917,27.7639299 544.050291,27.7767124 544.921553,27.8022779 C545.792814,27.8278433 546.638438,27.8661909 547.458449,27.9173218 C548.380962,27.9684527 549.329085,28.0195828 550.302848,28.0707137 L550.302848,27.2270583 C550.302848,25.4374775 549.585349,24.0313993 548.15033,23.0087817 C546.715311,21.9861641 544.844688,21.4748629 542.538407,21.4748629 C539.975873,21.4748629 537.925876,21.8072087 536.388355,22.4719101 C534.850835,23.1366116 533.492712,23.8524332 532.313946,24.6193964 L528.162661,18.4837213 C528.88017,17.9724125 529.700169,17.4483288 530.622681,16.9114545 C531.545194,16.3745803 532.621442,15.8888442 533.851459,15.4542317 C535.081475,15.0196192 536.503661,14.6617084 538.118057,14.3804886 C539.732454,14.0992687 541.615889,13.9586609 543.768418,13.9586609 C546.074699,13.9586609 548.163133,14.2782241 550.033783,14.9173601 C551.904434,15.5564961 553.505994,16.4512732 554.838512,17.601718 C556.17103,18.7521628 557.196028,20.1326759 557.913538,21.7432987 C558.631047,23.3539215 558.989797,25.1051279 558.989797,26.9969705 L558.989797,51.1561913 L550.533475,51.1561913 L550.302848,47.78157 Z M550.302848,34.8966522 C549.380336,34.8455213 548.483462,34.7943912 547.6122,34.7432603 C546.894691,34.6921295 546.138754,34.6537819 545.344369,34.6282164 C544.549983,34.602651 543.870922,34.5898685 543.307164,34.5898685 C540.385875,34.5898685 538.335878,35.1650823 537.157112,36.3155271 C535.978346,37.4659719 535.388972,38.7825724 535.388972,40.2653679 C535.388972,41.7992944 535.939908,43.0008521 537.041798,43.8700771 C538.143688,44.7393021 539.770873,45.173908 541.923402,45.173908 C542.999667,45.173908 544.037478,44.9949526 545.036866,44.6370365 C546.036255,44.2791203 546.920316,43.7933842 547.689076,43.1798136 C548.457836,42.566243 549.085648,41.8504214 549.57253,41.0323273 C550.059411,40.2142332 550.302848,39.3450213 550.302848,38.4246654 L550.302848,34.8966522 Z M564.560325,0 L573.631652,0 L573.631652,17.640066 C574.24666,17.0264954 575.425408,16.3362388 577.167932,15.5692756 C578.910455,14.8023124 581.011702,14.4188365 583.471735,14.4188365 C586.08552,14.4188365 588.404579,14.9045726 590.428981,15.8760594 C592.453384,16.8475461 594.183069,18.151364 595.618088,19.7875522 C597.053107,21.4237405 598.142168,23.3666848 598.885303,25.6164436 C599.628438,27.8662024 600,30.2437527 600,32.7491659 C600,35.4591027 599.525938,38.0028259 598.5778,40.3804119 C597.629663,42.7579979 596.27154,44.8287675 594.503391,46.5927829 C592.735242,48.3567983 590.595558,49.7628765 588.084274,50.8110596 C585.57299,51.8592426 582.754245,52.3833263 579.627952,52.3833263 C576.50166,52.3833263 573.618852,52.1276757 570.979442,51.6163669 C568.340031,51.1050581 566.200347,50.5681919 564.560325,50.0057522 L564.560325,0 Z M573.631652,43.7933811 C574.349161,44.0490355 575.092285,44.2407735 575.861045,44.3686007 C576.629806,44.4964279 577.834179,44.5603405 579.474201,44.5603405 C581.319226,44.5603405 582.933598,44.2407773 584.317367,43.6016413 C585.701136,42.9625053 586.879884,42.1060759 587.853647,41.0323273 C588.82741,39.9585788 589.557722,38.7186735 590.044603,37.3125743 C590.531485,35.9064751 590.774922,34.4620493 590.774922,32.9792537 C590.774922,31.5987199 590.60836,30.269337 590.27523,28.9910649 C589.942101,27.7127929 589.416789,26.5751478 588.699279,25.5780956 C587.98177,24.5810434 587.072083,23.7885267 585.970194,23.2005215 C584.868304,22.6125164 583.548618,22.3185182 582.011098,22.3185182 C579.24356,22.3185182 577.155126,23.0215573 575.745732,24.4276566 C574.336338,25.8337558 573.631652,27.7639176 573.631652,30.2181999 L573.631652,43.7933811 Z"/>
    <path fill="#FFF" d="M0,0 L16.4666858,0 C20.0575699,0 22.994356,0.555334754 25.2771322,1.66602092 C27.5599085,2.77670709 29.368148,4.14567183 30.7019049,5.77295622 C32.0356618,7.4002406 32.9590182,9.14373344 33.4720016,11.003487 C33.984985,12.8632406 34.2414729,14.5679892 34.2414729,16.1177838 C34.2414729,19.0107338 33.7284972,21.4903681 32.7025303,23.5567609 C31.6765634,25.6231538 30.3428265,27.3149876 28.7012795,28.6323131 C27.0597325,29.9496385 25.2130199,30.9182456 23.1610862,31.5381635 C21.1091524,32.1580814 19.0828983,32.4680356 17.0822629,32.4680356 L9.31060274,32.4680356 L9.31060274,51.6853933 L0,51.6853933 L0,0 Z M16.3127916,24.2541651 C18.7751121,24.2541651 20.7372442,23.5309384 22.199247,22.0844634 C23.6612498,20.6379884 24.3922402,18.7524332 24.3922402,16.4277412 C24.3922402,13.9997296 23.6227766,12.023771 22.0838263,10.4998063 C20.544876,8.97584153 18.621217,8.21387059 16.3127916,8.21387059 L9.31060274,8.21387059 L9.31060274,24.2541651 L16.3127916,24.2541651 Z M38.4972411,0 L54.9639269,0 C58.5548109,0 61.491597,0.555334754 63.7743733,1.66602092 C66.0571496,2.77670709 67.8653891,4.14567183 69.199146,5.77295622 C70.5329029,7.4002406 71.4562592,9.14373344 71.9692427,11.003487 C72.4822261,12.8632406 72.738714,14.5679892 72.738714,16.1177838 C72.738714,19.0107338 72.2257382,21.4903681 71.1997714,23.5567609 C70.1738045,25.6231538 68.8400676,27.3149876 67.1985206,28.6323131 C65.5569736,29.9496385 63.710261,30.9182456 61.6583272,31.5381635 C59.6063935,32.1580814 57.5801393,32.4680356 55.579504,32.4680356 L47.8078438,32.4680356 L47.8078438,51.6853933 L38.4972411,51.6853933 L38.4972411,0 Z M54.8100327,24.2541651 C57.2723531,24.2541651 59.2344853,23.5309384 60.6964881,22.0844634 C62.1584909,20.6379884 62.8894813,18.7524332 62.8894813,16.4277412 C62.8894813,13.9997296 62.1200177,12.023771 60.5810674,10.4998063 C59.0421171,8.97584153 57.1184581,8.21387059 54.8100327,8.21387059 L47.8078438,8.21387059 L47.8078438,24.2541651 L54.8100327,24.2541651 Z M76.9944822,0 L93.461168,0 C97.052052,0 99.9888381,0.555334754 102.271614,1.66602092 C104.554391,2.77670709 106.36263,4.14567183 107.696387,5.77295622 C109.030144,7.4002406 109.9535,9.14373344 110.466484,11.003487 C110.979467,12.8632406 111.235955,14.5679892 111.235955,16.1177838 C111.235955,19.0107338 110.722979,21.4903681 109.697012,23.5567609 C108.671046,25.6231538 107.337309,27.3149876 105.695762,28.6323131 C104.054215,29.9496385 102.207502,30.9182456 100.155568,31.5381635 C98.1036346,32.1580814 96.0773804,32.4680356 94.076745,32.4680356 L86.3050849,32.4680356 L86.3050849,51.6853933 L76.9944822,51.6853933 L76.9944822,0 Z M93.3072737,24.2541651 C95.7695942,24.2541651 97.7317264,23.5309384 99.1937292,22.0844634 C100.655732,20.6379884 101.386722,18.7524332 101.386722,16.4277412 C101.386722,13.9997296 100.617259,12.023771 99.0783085,10.4998063 C97.5393582,8.97584153 95.6156992,8.21387059 93.3072737,8.21387059 L86.3050849,8.21387059 L86.3050849,24.2541651 L93.3072737,24.2541651 Z"/>
  </g>
</svg>
