<svg viewBox="0 0 950 630" xmlns="http://www.w3.org/2000/svg" fill-rule="evenodd" clip-rule="evenodd" stroke-linecap="square"><path d="M753.614 240.008c-2.108 0-3.824-1.708-3.824-3.807v-2.882h1.912l-2.868-5.712-2.869 5.712h1.912v2.882c0 3.15 2.574 5.711 5.737 5.711h5.975a.954.954 0 0 0 .956-.952.954.954 0 0 0-.956-.952h-5.975zM731.326 233.32h1.912v2.88c0 2.1-1.715 3.808-3.824 3.808h-5.975a.954.954 0 0 0-.956.952c0 .525.429.951.956.951h5.975c3.163 0 5.736-2.562 5.736-5.711v-2.88h1.913l-2.869-5.713-2.868 5.712zM738.644 233.32h1.912v10.02c0 .525.428.951.956.951a.954.954 0 0 0 .956-.951v-10.02h1.912l-2.868-5.713-2.868 5.712z" fill="#cad936" fill-rule="nonzero"/><path d="M757.686 215.219c-.1-5.967-5.267-10.791-11.603-10.791-4.325 0-8.31 2.31-10.296 5.926a6.234 6.234 0 0 0-2.744-.634c-3.209 0-5.836 2.4-5.984 5.404-4.012.84-6.883 4.194-6.883 8.115 0 4.587 3.947 8.32 8.797 8.32h2.163l3.06-6.094 3.06 6.094h1.2l3.06-6.094 3.06 6.094h1.2l3.06-6.094 3.06 6.094h3.46c4.851 0 8.797-3.733 8.797-8.32 0-3.788-2.639-7.034-6.467-8.02" fill="#cad936" fill-rule="nonzero"/><g fill="#a4a1b0" fill-rule="nonzero"><path d="M686.302 273.649c3.59 0 5.606-2.502 5.606-5.811 0-3.255-1.95-5.811-5.59-5.811h-4.042v11.622h4.026zm-2.06-1.725v-8.173h1.825c2.452 0 3.865 1.244 3.865 4.096 0 2.768-1.329 4.077-3.916 4.077h-1.775zM697.967 273.649c3.59 0 5.605-2.502 5.605-5.811 0-3.255-1.95-5.811-5.59-5.811h-4.042v11.622h4.027zm-2.061-1.725v-8.173h1.825c2.452 0 3.866 1.244 3.866 4.096 0 2.768-1.328 4.077-3.916 4.077h-1.775zM705.606 273.649h1.975v-5.009h5.29v5.009h1.98v-11.622h-1.98v4.903h-5.29v-4.903h-1.975v11.622zM729.593 271.087c-.772.581-1.92.963-2.983.963-2.332 0-3.986-1.825-3.986-4.203 0-2.406 1.7-4.246 4.027-4.246 1.007 0 2.11.346 2.942.973l.88-1.369c-1.073-.867-2.54-1.344-3.958-1.344-3.334 0-5.887 2.603-5.887 6.027 0 3.364 2.467 5.926 5.817 5.926 1.424 0 2.981-.466 4.046-1.323l-.898-1.404zM739.47 269.457c0 1.605-1.063 2.597-2.576 2.597-1.522 0-2.63-1.023-2.63-2.597v-7.43h-1.97v7.426c0 2.627 1.838 4.361 4.538 4.361s4.565-1.734 4.565-4.367v-7.42h-1.926v7.43zM744.01 273.649h1.934v-4.362h1.856l2.507 4.362h2.322l-2.797-4.618c1.477-.521 2.375-1.785 2.375-3.395 0-2.085-1.504-3.61-4.002-3.61h-4.196v11.623zm1.934-6.082v-3.825h2.006c1.354 0 2.286.646 2.286 1.925 0 1.218-.853 1.9-2.286 1.9h-2.006zM761.97 273.649h2.128l-4.275-11.622h-2.269l-4.222 11.622h2.023l1.003-2.918h4.591l1.02 2.918zm-5.058-4.568l1.733-4.999 1.75 5h-3.483zM772.77 262.027h-9.024v1.73h3.518v9.892h1.98v-9.892h3.526v-1.73zM774.573 262.027h1.976v11.622h-1.976zM784.838 273.814c3.386 0 5.945-2.562 5.945-5.996 0-3.44-2.568-5.957-5.928-5.957s-5.963 2.512-5.963 5.972c0 3.42 2.542 5.981 5.946 5.981zm0-1.734c-2.287 0-3.95-1.795-3.95-4.242 0-2.457 1.672-4.237 3.95-4.237 2.269 0 3.931 1.78 3.931 4.237 0 2.441-1.653 4.242-3.931 4.242zM794.627 265.135l5.357 8.514h2.154v-11.622h-1.873l.035 8.583-5.4-8.583h-2.129v11.622h1.882l-.026-8.514z"/></g><path d="M739.96 303.114v51.9" fill="none" stroke="#979797" stroke-width="1.0026869999999999"/><path d="M637.495 385.26v-29.813H843.31v30.305" fill="none" stroke="#979797" stroke-width="1.0026869999999999" stroke-linecap="butt"/><path d="M555.259 385.351h164.475a7.037 7.037 0 0 1 7.036 7.037v43.977a7.037 7.037 0 0 1-7.036 7.036H555.259a7.037 7.037 0 0 1-7.037-7.036v-43.977a7.037 7.037 0 0 1 7.037-7.037" fill="#cad936" fill-rule="nonzero"/><g fill="#fff" fill-rule="nonzero"><path d="M621.284 417.016c-.65.49-1.617.81-2.512.81-1.964 0-3.357-1.537-3.357-3.538 0-2.026 1.432-3.576 3.39-3.576.85 0 1.778.291 2.48.819l.738-1.152c-.903-.731-2.136-1.132-3.331-1.132-2.808 0-4.957 2.192-4.957 5.075 0 2.833 2.077 4.991 4.898 4.991 1.198 0 2.512-.393 3.403-1.115l-.752-1.182zM629.046 418.362l-.723-.992a3.163 3.163 0 0 1-1.878.638c-1.145 0-1.926-.68-2.04-1.803h5.055c.017-.135.033-.371.033-.591 0-1.963-1.245-3.462-3.246-3.462-1.922 0-3.446 1.389-3.446 3.623 0 2.296 1.596 3.538 3.543 3.538 1.038 0 2.026-.355 2.702-.95zm-4.619-3.242c.143-.992.844-1.65 1.815-1.65 1.04 0 1.614.75 1.694 1.65h-3.509zM637.081 419.173v-4.184c0-1.688-.87-2.837-2.542-2.837-.925 0-1.744.359-2.263 1.077l-.135-.938h-1.314v6.882h1.605v-3.86c0-1.016.62-1.734 1.63-1.734.92 0 1.423.587 1.423 1.5v4.094h1.596zM637.952 413.646h1.207v3.226c0 1.811 1.47 2.441 2.897 2.441l.19-1.296c-.933-.186-1.495-.401-1.495-1.618v-2.753h1.68v-1.355h-1.68v-2.41l-1.592.295v2.115h-1.207v1.355zM644.092 419.173h1.592v-3.01c0-1.356.299-2.521 1.659-2.521.253 0 .49.039.739.114l.248-1.473a3.23 3.23 0 0 0-.907-.131c-.916 0-1.478.376-1.866 1.194l-.013-.003-.139-1.052h-1.313v6.882zM655.492 418.16c-.36-.194-.465-.455-.465-.996v-2.592c0-1.613-1.03-2.42-2.87-2.42-.92 0-1.972.202-2.732.748l.485 1.072c.549-.3 1.28-.502 1.972-.502.908 0 1.57.35 1.57 1.274v.35a8.018 8.018 0 0 0-1.537-.164c-1.912 0-2.988.916-2.988 2.26 0 1.362 1.119 2.123 2.453 2.123.852 0 1.74-.308 2.204-1.026.063.713.849 1.022 1.718 1.022l.19-1.149zm-2.04-1.937v.434c0 .84-.987 1.389-1.828 1.389-.586 0-1.16-.266-1.16-.955 0-.636.502-1.016 1.625-1.016.503 0 1.026.075 1.364.148zM656.91 417.641c0 1.131.909 1.672 1.888 1.672l.207-1.263c-.405-.206-.503-.477-.503-1.017v-8.098l-1.592.295v8.411z"/></g><path d="M761.072 385.351h164.476a7.037 7.037 0 0 1 7.036 7.037v43.977a7.037 7.037 0 0 1-7.036 7.036H761.072a7.037 7.037 0 0 1-7.036-7.036v-43.977a7.037 7.037 0 0 1 7.036-7.037" fill="#cad936" fill-rule="nonzero"/><g fill="#fff" fill-rule="nonzero"><path d="M814.039 415.244c0 1.351-.897 2.187-2.173 2.187-1.275 0-2.216-.861-2.216-2.187v-6.258h-1.654v6.254c0 2.212 1.548 3.673 3.826 3.673 2.27 0 3.844-1.46 3.844-3.677v-6.25h-1.627v6.258zM823.617 418.774v-4.184c0-1.689-.87-2.837-2.542-2.837-.923 0-1.741.359-2.26 1.076l-.141-.937h-1.31v6.882h1.609v-3.86c0-1.017.616-1.735 1.627-1.735.924 0 1.425.588 1.425 1.5v4.095h1.592zM826.036 410.688a1 1 0 0 0 0-1.997 1 1 0 0 0-1.003.996c0 .554.449 1.001 1.003 1.001zm-.81 8.086h1.601v-6.882h-1.6v6.882zM828.217 413.247h1.205v3.226c0 1.811 1.469 2.44 2.902 2.44l.185-1.296c-.932-.186-1.495-.4-1.495-1.617v-2.753h1.68v-1.355h-1.68v-2.411l-1.592.295v2.116h-1.205v1.355zM834.277 414.421h3.682v1.271h-3.682zM839.985 408.986v9.788h3.888c1.856 0 3.149-1.149 3.149-2.765 0-1.276-.8-2.141-1.847-2.415.738-.376 1.213-1.077 1.213-2.07 0-1.596-1.213-2.538-3.07-2.538h-3.333zm3.51 5.448c1.09 0 1.856.464 1.856 1.452s-.766 1.444-1.733 1.444h-2.006v-2.896h1.883zm-.396-4.011c.932 0 1.645.362 1.645 1.274 0 .921-.722 1.364-1.557 1.364h-1.575v-2.638h1.487zM854.524 417.76c-.36-.194-.466-.456-.466-.996v-2.593c0-1.612-1.029-2.418-2.876-2.418-.915 0-1.97.202-2.727.746l.484 1.073a4.322 4.322 0 0 1 1.97-.502c.906 0 1.575.35 1.575 1.275v.35a7.982 7.982 0 0 0-1.54-.164c-1.908 0-2.99.916-2.99 2.259 0 1.363 1.126 2.123 2.454 2.123.853 0 1.741-.308 2.208-1.026.061.714.844 1.023 1.715 1.023l.193-1.15zm-2.04-1.938v.436c0 .84-.985 1.388-1.83 1.388-.59 0-1.16-.265-1.16-.954 0-.637.5-1.017 1.626-1.017.502 0 1.03.076 1.364.147zM856.169 416.938l-.712.962c.826.633 1.565 1.013 2.7 1.013 1.53 0 2.735-.675 2.735-2.136 0-2.533-3.624-1.664-3.624-3.015 0-.52.528-.738 1.1-.738.536 0 1.178.19 1.706.519l.598-.997c-.642-.498-1.477-.793-2.4-.793-1.408 0-2.57.666-2.57 2.12 0 2.55 3.598 1.608 3.598 2.971 0 .57-.607.765-1.231.765-.721 0-1.31-.266-1.9-.671zM868.201 417.963l-.721-.992a3.17 3.17 0 0 1-1.882.638c-1.144 0-1.927-.68-2.04-1.803h5.057a5.11 5.11 0 0 0 .035-.591c0-1.964-1.25-3.462-3.246-3.462-1.926 0-3.448 1.388-3.448 3.623 0 2.296 1.601 3.537 3.545 3.537 1.038 0 2.023-.354 2.7-.95zm-4.617-3.242c.14-.993.844-1.65 1.811-1.65 1.038 0 1.619.75 1.698 1.65h-3.51zM875.211 418.774h1.32v-10.239l-1.601.296v3.88c-.51-.667-1.31-.958-2.155-.958-2.032 0-3.175 1.62-3.175 3.58 0 2.149 1.354 3.58 3.175 3.58.932 0 1.776-.376 2.304-1.123l.132.984zm-2.093-1.259c-1.117 0-1.918-.84-1.918-2.182 0-1.296.757-2.17 1.891-2.17 1.161 0 1.891.916 1.891 2.15 0 1.14-.615 2.202-1.864 2.202z"/></g><g fill="#a4a1b0" fill-rule="nonzero"><path d="M617.849 497.215c-.837.482-1.885.868-3.119.868-2.958 0-5.149-2.232-5.149-5.28 0-3.09 2.252-5.37 5.21-5.37 1.183 0 2.166.366 3.048.888l.331-.522a6.103 6.103 0 0 0-3.405-1.018c-3.359 0-5.9 2.602-5.9 6.027 0 3.364 2.456 5.926 5.805 5.926 1.274 0 2.542-.365 3.515-.998l-.336-.52zM623.482 498.734c2.366 0 4.21-1.754 4.21-4.281 0-2.508-1.819-4.222-4.17-4.222-2.367 0-4.192 1.74-4.192 4.261 0 2.503 1.8 4.242 4.152 4.242zm.004-.651c-1.995 0-3.465-1.48-3.465-3.596 0-2.14 1.5-3.604 3.505-3.604 2.001 0 3.475 1.463 3.475 3.574 0 2.131-1.509 3.626-3.515 3.626zM630.315 498.57v-4.604c0-1.635 1.108-3.083 2.803-3.083 1.64 0 2.226 1.363 2.226 3.063v4.623h.682v-4.603c0-1.665 1.138-3.083 2.818-3.083 1.66 0 2.21 1.389 2.21 3.063v4.623h.683v-4.934c0-1.92-.988-3.404-2.888-3.404-1.384 0-2.428.782-3.034 1.965-.391-1.248-1.394-1.965-2.727-1.965-1.194 0-2.051.576-2.713 1.594l-.11-1.429h-.632v8.173h.682zM644.84 498.57v-4.604c0-1.635 1.108-3.083 2.803-3.083 1.64 0 2.226 1.363 2.226 3.063v4.623h.681v-4.603c0-1.665 1.139-3.083 2.819-3.083 1.66 0 2.21 1.389 2.21 3.063v4.623h.682v-4.934c0-1.92-.987-3.404-2.887-3.404-1.385 0-2.427.782-3.034 1.965-.391-1.248-1.394-1.965-2.727-1.965-1.194 0-2.051.576-2.713 1.594l-.11-1.429h-.632v8.173h.682zM665.687 490.396h-.682v4.683c0 1.72-1.378 3.004-3.194 3.004-1.77 0-2.547-1.224-2.547-3.064v-4.623h-.682v4.934c0 2.09 1.198 3.404 3.27 3.404 1.338 0 2.336-.547 3.093-1.61l.11 1.445h.632v-8.173zM675.424 498.57v-4.935c0-2.111-1.22-3.404-3.325-3.404-1.353 0-2.381.537-3.143 1.61l-.106-1.445h-.631v8.173h.681v-4.683c0-1.73 1.394-3.003 3.24-3.003 1.784 0 2.601 1.192 2.601 3.063v4.623h.683zM678.196 488.325c.336 0 .606-.27.606-.606a.606.606 0 1 0-.606.606zm-.34 10.244h.68v-8.173h-.68v8.173zM687.297 497.561c-.637.316-1.259.522-2.035.522-1.956 0-3.546-1.304-3.546-3.56 0-2.207 1.525-3.64 3.616-3.64.697 0 1.278.16 1.92.446l.31-.526a4.595 4.595 0 0 0-2.26-.572c-2.372 0-4.277 1.65-4.277 4.306 0 2.753 2.046 4.197 4.216 4.197.888 0 1.71-.24 2.417-.677l-.361-.496zM696.329 498.187c-.391-.17-.497-.64-.497-1.593v-3.686c0-1.78-1.178-2.677-3.238-2.677-1.014 0-2.072.216-2.893.667l.25.556a5.97 5.97 0 0 1 2.607-.577c1.59 0 2.592.547 2.592 2.322v.978c-.912-.186-1.77-.316-2.647-.316-2.522 0-3.615 1.083-3.615 2.562 0 1.57 1.229 2.311 2.783 2.311 1.725 0 3.058-.917 3.47-1.66h.01c0 1.194.466 1.66 1.087 1.66l.091-.547zm-1.179-3.374v.778c0 1.439-1.774 2.492-3.42 2.492-1.002 0-2.15-.392-2.15-1.66 0-1.153.948-1.91 3.049-1.91.997 0 1.905.17 2.521.3zM697.297 491.008h1.604v5.144c0 1.69 1.218 2.452 2.537 2.582l.09-.601c-1.238-.3-1.946-.713-1.946-2.582v-4.543h2.287v-.612h-2.287v-2.863l-.681.155v2.708h-1.604v.612zM704.183 488.325a.606.606 0 1 0-.607-.606c0 .336.271.606.607.606zm-.34 10.244h.68v-8.173h-.68v8.173zM711.109 498.734c2.367 0 4.212-1.754 4.212-4.281 0-2.508-1.82-4.222-4.172-4.222-2.366 0-4.192 1.74-4.192 4.261 0 2.503 1.8 4.242 4.152 4.242zm.005-.651c-1.995 0-3.464-1.48-3.464-3.596 0-2.14 1.498-3.604 3.505-3.604 2 0 3.474 1.463 3.474 3.574 0 2.131-1.51 3.626-3.515 3.626zM724.466 498.57v-4.935c0-2.111-1.218-3.404-3.324-3.404-1.355 0-2.382.537-3.144 1.61l-.105-1.445h-.633v8.173h.683v-4.683c0-1.73 1.393-3.003 3.238-3.003 1.786 0 2.603 1.192 2.603 3.063v4.623h.682zM726.501 497.366l-.36.496a4.899 4.899 0 0 0 2.792.872c1.602 0 2.93-.772 2.93-2.296 0-2.853-4.665-1.7-4.665-4.027 0-1.142 1.133-1.528 2.15-1.528.747 0 1.424.205 1.97.501l.316-.521a4.69 4.69 0 0 0-2.348-.632c-1.446 0-2.78.672-2.78 2.216 0 2.888 4.67 1.78 4.67 4.056 0 1.238-1.389 1.58-2.354 1.58-.897 0-1.614-.297-2.321-.717z"/></g><g fill="#a4a1b0" fill-rule="nonzero"><path d="M617.062 540.6h-8.684v.646h3.99v10.975h.708v-10.975h3.986v-.647zM623.573 551.489l-.356-.496c-.802.471-1.545.742-2.497.742-2.106 0-3.365-1.329-3.47-3.375h7.1c.01-.075.02-.265.02-.451 0-2.236-1.499-4.026-3.806-4.026-2.22 0-4.01 1.664-4.01 4.317 0 2.707 1.864 4.187 4.13 4.187 1.074 0 2.097-.33 2.889-.898zm-6.303-3.77c.106-1.76 1.43-3.184 3.294-3.184 1.94 0 3.078 1.544 3.11 3.184h-6.404zM632.021 551.213c-.637.316-1.259.522-2.035.522-1.956 0-3.546-1.303-3.546-3.56 0-2.206 1.525-3.64 3.615-3.64.698 0 1.28.16 1.921.446l.31-.526a4.597 4.597 0 0 0-2.26-.572c-2.372 0-4.277 1.65-4.277 4.307 0 2.753 2.046 4.197 4.217 4.197.887 0 1.71-.241 2.417-.677l-.362-.497zM641.631 552.221v-4.934c0-2.14-1.249-3.404-3.375-3.404-1.394 0-2.467.541-3.24 1.67h-.009v-5.49l-.682.155v12.003h.682v-4.683c0-1.765 1.434-3.003 3.29-3.003 1.81 0 2.651 1.173 2.651 3.064v4.622h.683zM651.257 552.221v-4.934c0-2.11-1.218-3.404-3.324-3.404-1.355 0-2.382.537-3.144 1.61l-.105-1.444h-.633v8.172h.683v-4.683c0-1.73 1.393-3.003 3.238-3.003 1.786 0 2.603 1.193 2.603 3.064v4.622h.682zM654.029 541.977a.606.606 0 1 0-.607-.606c0 .336.271.606.607.606zm-.341 10.244h.682v-8.172h-.682v8.172zM663.13 551.213c-.636.316-1.258.522-2.036.522-1.955 0-3.544-1.303-3.544-3.56 0-2.206 1.524-3.64 3.615-3.64.696 0 1.279.16 1.92.446l.311-.526a4.6 4.6 0 0 0-2.261-.572c-2.372 0-4.277 1.65-4.277 4.307 0 2.753 2.045 4.197 4.216 4.197.888 0 1.71-.241 2.417-.677l-.36-.497zM672.118 551.84c-.392-.17-.496-.641-.496-1.594v-3.685c0-1.78-1.179-2.678-3.24-2.678-1.012 0-2.07.216-2.892.667l.25.557a5.97 5.97 0 0 1 2.607-.577c1.59 0 2.592.546 2.592 2.32v.979c-.912-.186-1.77-.316-2.646-.316-2.523 0-3.616 1.083-3.616 2.562 0 1.57 1.229 2.312 2.783 2.312 1.724 0 3.059-.918 3.47-1.66h.01c0 1.194.466 1.66 1.087 1.66l.09-.547zm-1.179-3.374v.777c0 1.44-1.775 2.492-3.419 2.492-1.002 0-2.151-.391-2.151-1.66 0-1.153.947-1.91 3.049-1.91.997 0 1.905.17 2.521.3zM674.334 550.807c0 1.108.466 1.58 1.093 1.58l.085-.547c-.39-.17-.496-.692-.496-1.644v-10.133l-.682.155v10.59zM683.516 547.729h3.339c2.296 0 3.7-1.565 3.7-3.615 0-1.976-1.304-3.515-3.715-3.515h-4.031v11.622h.707v-4.492zm0-.647v-5.836h3.023c2.121 0 3.299 1.008 3.299 2.868 0 1.86-1.178 2.968-3.3 2.968h-3.022zM692.375 552.221h.682v-4.602c0-1.61 1.133-3.084 2.748-3.084.25 0 .492.035.702.09l.105-.647a3.21 3.21 0 0 0-.792-.095c-1.194 0-2.056.587-2.703 1.59l-.11-1.424h-.632v8.172zM701.458 552.387c2.367 0 4.212-1.755 4.212-4.282 0-2.507-1.82-4.222-4.172-4.222-2.367 0-4.192 1.74-4.192 4.262 0 2.502 1.8 4.242 4.152 4.242zm.005-.652c-1.996 0-3.465-1.48-3.465-3.596 0-2.14 1.5-3.604 3.505-3.604 2 0 3.475 1.464 3.475 3.575 0 2.13-1.51 3.625-3.515 3.625zM707.96 541.977a.606.606 0 1 0 0 0zm-.34 10.75c0 1.706-.416 2.181-1.56 2.488l.09.606c1.164-.146 2.151-.972 2.151-2.507v-9.265h-.681v8.678zM717.814 551.489l-.356-.496c-.803.471-1.545.742-2.498.742-2.105 0-3.364-1.329-3.47-3.375h7.1c.01-.075.02-.265.02-.451 0-2.236-1.498-4.026-3.804-4.026-2.222 0-4.012 1.664-4.012 4.317 0 2.707 1.866 4.187 4.131 4.187 1.073 0 2.096-.33 2.889-.898zm-6.303-3.77c.105-1.76 1.43-3.184 3.295-3.184 1.94 0 3.078 1.544 3.108 3.184h-6.403zM726.262 551.213c-.637.316-1.258.522-2.036.522-1.955 0-3.544-1.303-3.544-3.56 0-2.206 1.524-3.64 3.615-3.64.696 0 1.278.16 1.92.446l.31-.526a4.594 4.594 0 0 0-2.26-.572c-2.372 0-4.277 1.65-4.277 4.307 0 2.753 2.046 4.197 4.216 4.197.888 0 1.71-.241 2.417-.677l-.361-.497zM727.423 544.66h1.608v5.144c0 1.69 1.213 2.453 2.533 2.583l.088-.602c-1.232-.3-1.944-.712-1.944-2.582v-4.543h2.287v-.611h-2.287v-2.863l-.677.155v2.708h-1.608v.611z"/></g><g fill="#a4a1b0" fill-rule="nonzero"><path d="M617.618 572.451h.758l-4.584-11.622h-.862l-4.532 11.622h.722l1.349-3.465h5.785l1.364 3.465zm-6.893-4.112l2.622-6.728 2.652 6.728h-5.274zM619.811 571.248l-.361.496a4.902 4.902 0 0 0 2.793.872c1.604 0 2.933-.772 2.933-2.296 0-2.853-4.668-1.7-4.668-4.027 0-1.142 1.134-1.528 2.151-1.528.742 0 1.419.205 1.97.501l.316-.522a4.683 4.683 0 0 0-2.347-.631c-1.448 0-2.782.672-2.782 2.215 0 2.889 4.668 1.78 4.668 4.057 0 1.238-1.389 1.58-2.352 1.58-.897 0-1.614-.297-2.32-.717zM627.022 571.248l-.362.496a4.902 4.902 0 0 0 2.794.872c1.604 0 2.932-.772 2.932-2.296 0-2.853-4.668-1.7-4.668-4.027 0-1.142 1.134-1.528 2.152-1.528a4.18 4.18 0 0 1 1.97.501l.316-.522a4.683 4.683 0 0 0-2.347-.631c-1.449 0-2.782.672-2.782 2.215 0 2.889 4.668 1.78 4.668 4.057 0 1.238-1.39 1.58-2.352 1.58-.897 0-1.614-.297-2.321-.717zM634.97 562.207c.335 0 .605-.27.605-.606a.606.606 0 1 0-.606.606zm-.342 10.244h.682v-8.173h-.682v8.173zM637.94 571.248l-.362.496a4.899 4.899 0 0 0 2.793.872c1.605 0 2.933-.772 2.933-2.296 0-2.853-4.668-1.7-4.668-4.027 0-1.142 1.133-1.528 2.151-1.528a4.18 4.18 0 0 1 1.97.501l.316-.522a4.683 4.683 0 0 0-2.346-.631c-1.449 0-2.783.672-2.783 2.215 0 2.889 4.669 1.78 4.669 4.057 0 1.238-1.39 1.58-2.352 1.58-.898 0-1.615-.297-2.321-.717zM644.398 564.89h1.604v5.144c0 1.69 1.218 2.452 2.537 2.582l.09-.601c-1.238-.301-1.945-.713-1.945-2.583v-4.542h2.286v-.612h-2.286v-2.863l-.682.155v2.708h-1.604v.612zM657.666 572.07c-.391-.17-.497-.642-.497-1.594v-3.686c0-1.78-1.178-2.677-3.238-2.677-1.014 0-2.072.215-2.893.667l.25.556a5.97 5.97 0 0 1 2.607-.577c1.59 0 2.592.547 2.592 2.321v.979c-.912-.186-1.77-.316-2.647-.316-2.522 0-3.615 1.082-3.615 2.562 0 1.569 1.229 2.311 2.783 2.311 1.725 0 3.058-.917 3.47-1.66h.01c0 1.194.466 1.66 1.087 1.66l.091-.547zm-1.179-3.375v.778c0 1.439-1.775 2.492-3.42 2.492-1.002 0-2.15-.392-2.15-1.66 0-1.153.947-1.91 3.049-1.91.997 0 1.905.17 2.521.3zM667.096 572.451v-4.934c0-2.111-1.218-3.404-3.323-3.404-1.354 0-2.382.536-3.144 1.61l-.105-1.445h-.632v8.173h.682v-4.684c0-1.729 1.394-3.002 3.24-3.002 1.784 0 2.6 1.192 2.6 3.063v4.623h.682zM675.22 571.443c-.638.316-1.26.522-2.037.522-1.955 0-3.545-1.304-3.545-3.56 0-2.207 1.525-3.64 3.615-3.64.698 0 1.28.16 1.921.446l.31-.526a4.6 4.6 0 0 0-2.26-.572c-2.372 0-4.278 1.649-4.278 4.306 0 2.753 2.046 4.197 4.218 4.197.887 0 1.71-.24 2.416-.677l-.36-.496zM683.763 571.718l-.356-.496c-.802.472-1.544.743-2.496.743-2.107 0-3.366-1.33-3.47-3.375h7.1c.01-.075.02-.266.02-.451 0-2.236-1.5-4.026-3.806-4.026-2.222 0-4.012 1.664-4.012 4.317 0 2.707 1.866 4.186 4.132 4.186 1.073 0 2.096-.33 2.888-.898zm-6.302-3.77c.105-1.76 1.428-3.183 3.294-3.183 1.94 0 3.078 1.543 3.108 3.184h-6.402z"/></g><g fill="#a4a1b0" fill-rule="nonzero"><path d="M617.849 605.94c-.837.48-1.885.867-3.119.867-2.958 0-5.149-2.231-5.149-5.28 0-3.088 2.252-5.37 5.21-5.37 1.183 0 2.166.366 3.048.888l.331-.522a6.103 6.103 0 0 0-3.405-1.017c-3.359 0-5.9 2.601-5.9 6.026 0 3.365 2.456 5.927 5.805 5.927 1.274 0 2.542-.366 3.515-.998l-.336-.521zM626.82 606.912c-.39-.17-.496-.642-.496-1.594v-3.685c0-1.78-1.178-2.678-3.24-2.678-1.012 0-2.07.216-2.892.667l.25.557a5.985 5.985 0 0 1 2.608-.577c1.59 0 2.593.547 2.593 2.322v.977c-.913-.186-1.771-.316-2.648-.316-2.522 0-3.615 1.083-3.615 2.562 0 1.57 1.228 2.312 2.782 2.312 1.725 0 3.06-.918 3.47-1.66h.01c0 1.194.467 1.66 1.089 1.66l.09-.547zm-1.177-3.374v.777c0 1.44-1.775 2.492-3.42 2.492-1.003 0-2.151-.391-2.151-1.66 0-1.153.948-1.91 3.048-1.91.998 0 1.906.17 2.523.3zM629.683 599.12h-.631v11.773l.681-.155v-4.974l.01-.005c.697 1.073 1.806 1.7 3.114 1.7 1.826 0 4.031-1.214 4.031-4.312 0-3.074-2.17-4.192-3.98-4.192-1.344 0-2.347.617-3.114 1.705l-.11-1.54zm6.513 4.037c0 2.085-1.288 3.65-3.283 3.65-1.76 0-3.225-1.214-3.225-3.545 0-2.352 1.49-3.655 3.315-3.655 1.965 0 3.193 1.51 3.193 3.55zM645.723 606.912c-.39-.17-.496-.642-.496-1.594v-3.685c0-1.78-1.179-2.678-3.239-2.678-1.013 0-2.071.216-2.894.667l.251.557a5.988 5.988 0 0 1 2.608-.577c1.59 0 2.592.547 2.592 2.322v.977c-.913-.186-1.77-.316-2.648-.316-2.521 0-3.614 1.083-3.614 2.562 0 1.57 1.227 2.312 2.782 2.312 1.725 0 3.059-.918 3.47-1.66h.01c0 1.194.466 1.66 1.088 1.66l.09-.547zm-1.178-3.374v.777c0 1.44-1.775 2.492-3.42 2.492-1.002 0-2.15-.391-2.15-1.66 0-1.153.947-1.91 3.047-1.91.999 0 1.906.17 2.523.3zM653.65 606.285c-.637.316-1.259.522-2.035.522-1.956 0-3.546-1.304-3.546-3.56 0-2.206 1.524-3.64 3.615-3.64.698 0 1.279.16 1.921.446l.31-.526a4.607 4.607 0 0 0-2.26-.572c-2.372 0-4.277 1.65-4.277 4.307 0 2.752 2.045 4.197 4.216 4.197.888 0 1.71-.241 2.417-.678l-.361-.496zM656.212 597.05a.606.606 0 1 0 0-1.214.606.606 0 1 0 0 1.214zm-.341 10.243h.682v-8.172h-.682v8.172zM658.474 599.732h1.605v5.144c0 1.69 1.218 2.453 2.537 2.583l.09-.602c-1.239-.3-1.946-.712-1.946-2.582v-4.543h2.287v-.611h-2.287v-2.863l-.681.155v2.708h-1.605v.61zM667.936 606.38l-2.887-7.26h-.742l3.254 8.168-.647 1.565c-.452 1.088-1.163 1.394-1.84 1.394-.17 0-.32-.02-.487-.06l-.1.606c.24.08.482.1.662.1.938 0 1.87-.536 2.286-1.554l4.192-10.218h-.712l-2.979 7.26zM678.045 595.671v11.622h4.452c2.01 0 3.455-1.173 3.455-3.124 0-1.69-1.078-2.667-2.397-2.988.712-.376 1.51-1.133 1.51-2.552 0-1.97-1.535-2.958-3.425-2.958h-3.595zm3.951 5.971c1.905 0 3.238.772 3.238 2.547 0 1.736-1.273 2.458-3.067 2.458h-3.415v-5.005h3.244zm-.657-5.325c1.8 0 3.008.698 3.008 2.322 0 1.63-1.208 2.357-2.767 2.357h-2.828v-4.679h2.587zM695.002 599.12h-.682v4.683c0 1.72-1.379 3.004-3.193 3.004-1.771 0-2.548-1.224-2.548-3.064v-4.622h-.682v4.933c0 2.09 1.199 3.405 3.27 3.405 1.338 0 2.336-.547 3.092-1.61l.111 1.444h.632v-8.172zM697.84 597.05a.606.606 0 1 0 0-1.214.605.605 0 0 0-.606.607c0 .336.27.607.606.607zm-.34 10.243h.681v-8.172h-.681v8.172zM701.23 605.879c0 1.108.467 1.58 1.094 1.58l.085-.547c-.391-.17-.497-.692-.497-1.644v-10.134l-.681.156v10.589zM711.726 607.293h.631v-12.159l-.682.156v5.36l-.01.005c-.697-1.074-1.804-1.7-3.113-1.7-1.825 0-4.03 1.213-4.03 4.312 0 3.074 2.17 4.192 3.98 4.192 1.344 0 2.347-.617 3.114-1.705l.11 1.54zm-3.32-.486c-1.965 0-3.194-1.51-3.194-3.55 0-2.086 1.289-3.65 3.285-3.65 1.76 0 3.224 1.213 3.224 3.545 0 2.351-1.49 3.655-3.315 3.655zM715.328 597.05a.606.606 0 1 0 0-1.214.606.606 0 1 0 0 1.214zm-.341 10.243h.682v-8.172h-.682v8.172zM725.934 607.293v-4.933c0-2.111-1.22-3.405-3.325-3.405-1.354 0-2.382.537-3.143 1.61l-.106-1.444h-.632v8.172h.682v-4.682c0-1.73 1.394-3.004 3.24-3.004 1.784 0 2.601 1.194 2.601 3.063v4.623h.683zM735.592 599.12h-.624l-.115 1.54c-.765-1.088-1.768-1.705-3.113-1.705-1.812 0-3.981 1.118-3.981 4.061 0 2.969 2.204 4.182 4.033 4.182 1.31 0 2.42-.627 3.114-1.7l.009.005v1.284c0 2.517-1.408 3.455-3.36 3.455-.941 0-1.618-.221-2.498-.778l-.365.497c.858.596 1.79.932 2.933.932 2.305 0 3.967-1.359 3.967-3.815v-7.957zm-3.861 7.427c-1.988 0-3.28-1.565-3.28-3.52 0-1.91 1.23-3.42 3.192-3.42 1.83 0 3.316 1.303 3.316 3.524 0 2.202-1.46 3.416-3.228 3.416z"/></g><g fill="#a4a1b0" fill-rule="nonzero"><path d="M823.538 494.486c0 2.12-1.487 3.54-3.694 3.54-2.155 0-3.66-1.344-3.66-3.54v-7.596h-.72v7.591c0 2.527 1.767 4.196 4.37 4.196 2.604 0 4.399-1.67 4.399-4.201v-7.586h-.695v7.596zM834.145 498.512v-4.933c0-2.111-1.222-3.405-3.325-3.405-1.354 0-2.383.536-3.148 1.61l-.106-1.445h-.633v8.173h.686v-4.683c0-1.73 1.39-3.003 3.237-3.003 1.785 0 2.603 1.193 2.603 3.063v4.623h.686zM836.916 488.269a.607.607 0 1 0 0-1.214.607.607 0 0 0 0 1.214zm-.343 10.243h.686v-8.173h-.686v8.173zM839.132 490.951h1.6v5.145c0 1.69 1.223 2.451 2.543 2.581l.088-.601c-1.24-.301-1.944-.712-1.944-2.583v-4.542h2.287v-.612h-2.287v-2.863l-.686.156v2.707h-1.6v.612zM850.47 498.512h6.543v-.647h-5.84V486.89h-.704v11.622zM864.639 497.78l-.352-.496c-.809.47-1.548.742-2.498.742-2.11 0-3.368-1.329-3.474-3.374h7.098c.009-.076.026-.266.026-.452 0-2.236-1.504-4.026-3.808-4.026-2.225 0-4.01 1.665-4.01 4.317 0 2.708 1.864 4.186 4.133 4.186 1.073 0 2.093-.33 2.885-.897zm-6.306-3.77c.105-1.76 1.433-3.184 3.298-3.184 1.944 0 3.078 1.544 3.105 3.184h-6.403zM873.989 498.131c-.396-.17-.502-.642-.502-1.595v-3.685c0-1.78-1.178-2.677-3.237-2.677-1.011 0-2.066.215-2.893.667l.255.556a5.966 5.966 0 0 1 2.603-.576c1.592 0 2.595.546 2.595 2.321v.977c-.915-.184-1.768-.315-2.647-.315-2.525 0-3.615 1.083-3.615 2.562 0 1.57 1.23 2.311 2.779 2.311 1.724 0 3.06-.917 3.474-1.66h.009c0 1.194.466 1.66 1.09 1.66l.089-.546zm-1.179-3.375v.778c0 1.439-1.777 2.492-3.421 2.492-1.003 0-2.155-.391-2.155-1.66 0-1.153.95-1.91 3.052-1.91 1.002 0 1.908.17 2.524.3zM882.863 498.512h.633v-12.159l-.686.156v5.36l-.008.005c-.695-1.073-1.803-1.7-3.114-1.7-1.82 0-4.028 1.214-4.028 4.312 0 3.073 2.172 4.191 3.975 4.191 1.346 0 2.349-.616 3.114-1.704l.114 1.539zm-3.325-.486c-1.96 0-3.192-1.51-3.192-3.55 0-2.086 1.293-3.65 3.29-3.65 1.758 0 3.218 1.213 3.218 3.545 0 2.351-1.486 3.655-3.316 3.655z"/></g><g fill="#a4a1b0" fill-rule="nonzero"><path d="M819.413 552.875c3.553 0 5.567-2.507 5.567-5.811 0-3.25-1.952-5.811-5.558-5.811h-3.8v11.622h3.79zm-3.079-.647v-10.329h2.806c3.087 0 5.119 1.78 5.119 5.154 0 3.325-1.97 5.175-5.19 5.175h-2.735zM833.732 552.494c-.387-.17-.493-.642-.493-1.595v-3.685c0-1.78-1.178-2.677-3.237-2.677-1.02 0-2.075.215-2.893.667l.246.556a5.992 5.992 0 0 1 2.612-.577c1.583 0 2.586.546 2.586 2.321v.978c-.906-.185-1.768-.315-2.647-.315-2.516 0-3.615 1.082-3.615 2.562 0 1.569 1.231 2.311 2.788 2.311 1.724 0 3.052-.917 3.465-1.66h.01c0 1.194.465 1.66 1.09 1.66l.088-.546zm-1.179-3.375v.778c0 1.439-1.768 2.492-3.421 2.492-.994 0-2.146-.392-2.146-1.66 0-1.153.95-1.91 3.052-1.91.994 0 1.9.17 2.515.3zM834.611 545.313h1.61v5.145c0 1.69 1.214 2.452 2.533 2.582l.088-.601c-1.231-.301-1.944-.713-1.944-2.583v-4.543h2.287v-.61h-2.287v-2.864l-.677.156v2.707h-1.61v.611zM847.884 552.494c-.396-.17-.502-.642-.502-1.595v-3.685c0-1.78-1.178-2.677-3.236-2.677-1.012 0-2.067.215-2.894.667l.255.556a5.954 5.954 0 0 1 2.603-.577c1.592 0 2.595.546 2.595 2.321v.978c-.915-.185-1.768-.315-2.647-.315-2.525 0-3.615 1.082-3.615 2.562 0 1.569 1.222 2.311 2.779 2.311 1.724 0 3.06-.917 3.474-1.66h.009c0 1.194.466 1.66 1.09 1.66l.089-.546zm-1.179-3.375v.778c0 1.439-1.777 2.492-3.421 2.492-1.003 0-2.146-.392-2.146-1.66 0-1.153.94-1.91 3.043-1.91.994 0 1.908.17 2.524.3zM854.823 541.253h.707v11.622h-.707zM866.125 552.875v-4.934c0-2.111-1.213-3.404-3.324-3.404-1.355 0-2.384.536-3.14 1.61l-.106-1.445h-.633v8.173h.686v-4.684c0-1.729 1.39-3.002 3.237-3.002 1.785 0 2.603 1.193 2.603 3.063v4.623h.677zM875.836 544.702h-.634l-.114 1.54c-.765-1.089-1.768-1.705-3.114-1.705-1.803 0-3.975 1.118-3.975 4.06 0 2.97 2.207 4.182 4.028 4.182 1.31 0 2.419-.626 3.114-1.7l.009.006v1.283c0 2.518-1.408 3.455-3.36 3.455-.941 0-1.61-.22-2.498-.777l-.36.497c.852.596 1.785.932 2.928.932 2.304 0 3.976-1.359 3.976-3.816v-7.957zm-3.862 7.425c-1.996 0-3.28-1.564-3.28-3.519 0-1.91 1.222-3.42 3.192-3.42 1.821 0 3.308 1.304 3.308 3.525 0 2.201-1.46 3.414-3.22 3.414zM884.983 552.143l-.352-.497c-.8.472-1.548.743-2.498.743-2.11 0-3.369-1.33-3.474-3.375h7.107c.008-.075.017-.266.017-.451 0-2.236-1.504-4.026-3.808-4.026-2.217 0-4.01 1.664-4.01 4.317 0 2.707 1.864 4.186 4.133 4.186 1.073 0 2.093-.33 2.885-.897zm-6.298-3.77c.106-1.76 1.425-3.184 3.29-3.184 1.944 0 3.078 1.544 3.113 3.184h-6.403zM887.217 551.672l-.36.496c.633.446 1.6.872 2.787.872 1.61 0 2.938-.772 2.938-2.296 0-2.853-4.67-1.7-4.67-4.027 0-1.142 1.134-1.528 2.146-1.528.747 0 1.425.205 1.97.5l.317-.52a4.655 4.655 0 0 0-2.34-.632c-1.451 0-2.788.672-2.788 2.215 0 2.889 4.67 1.78 4.67 4.057 0 1.238-1.39 1.58-2.348 1.58-.897 0-1.618-.296-2.322-.717zM893.673 545.313h1.6v5.145c0 1.69 1.223 2.452 2.542 2.582l.088-.601c-1.24-.301-1.943-.713-1.943-2.583v-4.543h2.286v-.61h-2.286v-2.864l-.686.156v2.707h-1.601v.611z"/></g><g><path d="M573.35 549.083h21.945v1H573.35v52.086h21.946v1H572.35V443.505h1v105.578z" fill="#979797" fill-rule="nonzero"/></g><g><path d="M573.014 495.05h22.28" fill="none" stroke="#979797" stroke-width="1.0026869999999999" stroke-linecap="butt"/></g><g><path d="M779.206 494.55h21.946v1h-21.946v53.533h21.946v1h-22.946V443.505h1v51.046z" fill="#979797" fill-rule="nonzero"/></g><g><path d="M216.21 224.598a8.54 8.54 0 0 0-6.976 2.962c-3.078 3.565-2.707 8.946.842 12.042l.048.032a8.562 8.562 0 0 0 11.184-12.965 8.672 8.672 0 0 0-.696-.534 8.542 8.542 0 0 0-4.402-1.537m-.227-7.754c.592.043 1.173.088 1.764.13.314.014.51.282.534.502l.308 3.48c.813.191 1.623.467 2.396.825l2.395-2.54a.54.54 0 0 1 .712-.082l1.472 1.004c.266.169.3.493.211.696l-1.473 3.172c.625.588 1.19 1.217 1.667 1.894l3.334-.988c.27-.08.54.04.664.292.26.533.518 1.069.777 1.603.146.278 0 .565-.178.695l-2.849 2.023c.242.809.41 1.64.486 2.477l3.383.81a.556.556 0 0 1 .437.582c-.042.59-.088 1.189-.13 1.78-.013.315-.282.494-.502.518l-3.48.323a12.433 12.433 0 0 1-.825 2.38l2.525 2.396a.564.564 0 0 1 .097.728l-1.004 1.473c-.168.265-.493.283-.695.194l-3.173-1.457a12.582 12.582 0 0 1-1.91 1.65l1.004 3.335c.08.27-.039.54-.291.664-.534.26-1.07.517-1.602.777-.28.145-.583 0-.713-.178l-2.007-2.849c-.808.241-1.64.41-2.476.486l-.81 3.383a.557.557 0 0 1-.582.437c-.591-.042-1.19-.088-1.78-.13-.314-.014-.495-.282-.519-.502l-.323-3.48a12.425 12.425 0 0 1-2.38-.825l-2.395 2.54a.56.56 0 0 1-.729.082l-1.472-1.004c-.266-.168-.284-.493-.194-.695l1.456-3.173a12.473 12.473 0 0 1-1.65-1.894l-3.335.988a.572.572 0 0 1-.68-.292c-.26-.533-.517-1.069-.777-1.602-.146-.278 0-.582.178-.712l2.849-2.007a12.667 12.667 0 0 1-.47-2.476l-3.398-.81a.556.556 0 0 1-.437-.582c.042-.591.088-1.19.129-1.78.013-.315.299-.495.518-.519l3.464-.323c.191-.815.468-1.607.825-2.38l-2.525-2.395a.561.561 0 0 1-.08-.729l.987-1.473c.168-.265.51-.283.712-.193l3.172 1.456a12.515 12.515 0 0 1 1.894-1.65l-.987-3.335a.55.55 0 0 1 .291-.664c.533-.259 1.053-.534 1.586-.793.279-.146.582.016.712.195l2.023 2.848c.81-.242 1.64-.41 2.477-.486l.81-3.382a.555.555 0 0 1 .582-.438m-18.403-5.956a5.156 5.156 0 0 0-3.69 9.032l.016.016a5.152 5.152 0 1 0 6.312-8.125 5.11 5.11 0 0 0-2.638-.923m-1.473-6.717c.204.044.361.218.42.373l1.069 2.93a8.6 8.6 0 0 1 2.735.55l2.137-2.266a.561.561 0 0 1 .729-.081l1.472.987c.266.169.283.51.194.712l-1.294 2.833c.649.7 1.147 1.494 1.521 2.33l3.124-.097a.55.55 0 0 1 .566.453c.113.582.228 1.166.34 1.749.069.306-.15.551-.356.63l-2.93 1.085a8.6 8.6 0 0 1-.55 2.735l2.25 2.137a.56.56 0 0 1 .08.728l-.986 1.473c-.17.266-.51.283-.713.195l-2.832-1.312a8.493 8.493 0 0 1-2.315 1.538l.081 3.124a.55.55 0 0 1-.453.566c-.582.113-1.166.228-1.748.34-.306.068-.551-.15-.631-.356l-1.084-2.93a8.486 8.486 0 0 1-2.72-.566l-2.152 2.266a.54.54 0 0 1-.713.08l-1.472-.986c-.266-.169-.284-.51-.194-.713l1.294-2.832a8.483 8.483 0 0 1-1.537-2.315l-3.108.081a.552.552 0 0 1-.567-.453c-.112-.582-.227-1.166-.34-1.748-.068-.306.15-.55.357-.63l2.93-1.085a8.576 8.576 0 0 1 .55-2.736l-2.266-2.136a.561.561 0 0 1-.081-.728l1.003-1.474c.169-.265.494-.283.696-.194l2.833 1.311a8.567 8.567 0 0 1 2.33-1.537l-.097-3.108a.569.569 0 0 1 .453-.583c.582-.112 1.166-.21 1.749-.323a.562.562 0 0 1 .226-.017" fill="#ee4558" fill-rule="nonzero"/><g fill="#a4a1b0" fill-rule="nonzero"><path d="M142.942 278.705c3.59 0 5.606-2.502 5.606-5.81 0-3.255-1.95-5.812-5.59-5.812h-4.042v11.622h4.026zm-2.06-1.724v-8.173h1.825c2.452 0 3.865 1.244 3.865 4.096 0 2.768-1.328 4.077-3.915 4.077h-1.775zM154.607 278.705c3.59 0 5.605-2.502 5.605-5.81 0-3.255-1.95-5.812-5.59-5.812h-4.04v11.622h4.025zm-2.06-1.724v-8.173h1.824c2.452 0 3.866 1.244 3.866 4.096 0 2.768-1.328 4.077-3.916 4.077h-1.775zM162.246 278.705h1.975v-5.009h5.29v5.01h1.98v-11.623h-1.98v4.904h-5.29v-4.904h-1.975v11.622zM183.21 278.87c3.39 0 5.946-2.561 5.946-5.996 0-3.439-2.566-5.956-5.926-5.956-3.359 0-5.962 2.512-5.962 5.971 0 3.42 2.542 5.982 5.942 5.982zm0-1.734c-2.286 0-3.946-1.795-3.946-4.242 0-2.456 1.67-4.236 3.946-4.236 2.272 0 3.936 1.78 3.936 4.236 0 2.442-1.655 4.242-3.936 4.242zM193.085 274.654h2.327c2.471 0 3.996-1.634 3.996-3.83 0-2.126-1.424-3.74-4.012-3.74h-4.252v11.621h1.941v-4.05zm0-1.715v-4.14h2.06c1.44 0 2.302.736 2.302 2.05 0 1.299-.837 2.09-2.302 2.09h-2.06zM201.253 278.705h7.45v-1.719h-5.49v-3.284h4.658v-1.71h-4.658v-3.19h5.355v-1.719h-7.315v11.622zM210.867 278.705h1.94v-4.361h1.85l2.508 4.361h2.326l-2.803-4.617c1.485-.522 2.377-1.786 2.377-3.395 0-2.086-1.5-3.61-3.996-3.61h-4.202v11.622zm1.94-6.082v-3.825h2c1.355 0 2.287.647 2.287 1.926 0 1.218-.852 1.9-2.286 1.9h-2zM228.827 278.705h2.13l-4.276-11.622h-2.266l-4.222 11.622h2.026l1.002-2.918h4.589l1.017 2.918zm-5.053-4.567l1.729-5 1.75 5h-3.48zM239.627 267.083h-9.02v1.73h3.52v9.892h1.98v-9.892h3.52v-1.73zM241.524 267.083h1.975v11.622h-1.975zM251.74 278.87c3.39 0 5.947-2.561 5.947-5.996 0-3.439-2.566-5.956-5.926-5.956-3.36 0-5.962 2.512-5.962 5.971 0 3.42 2.542 5.982 5.942 5.982zm0-1.734c-2.285 0-3.945-1.795-3.945-4.242 0-2.456 1.67-4.236 3.946-4.236 2.271 0 3.936 1.78 3.936 4.236 0 2.442-1.655 4.242-3.936 4.242zM261.53 270.191l5.36 8.514h2.151v-11.622h-1.87l.03 8.584-5.4-8.584h-2.126v11.622h1.886l-.03-8.514zM271.668 275.958l-.887 1.4c1.193.956 2.612 1.513 4.216 1.513 2.307 0 4.172-1.148 4.172-3.505 0-4.256-6.107-2.537-6.107-5.144 0-1.053.983-1.58 2.136-1.58.932 0 2.081.346 2.908.948l.872-1.363c-1.062-.832-2.501-1.31-3.89-1.31-2.207 0-3.971 1.21-3.971 3.46 0 4.167 6.066 2.523 6.066 5.16 0 1.113-1.053 1.574-2.266 1.574-1.133 0-2.26-.401-3.249-1.153z"/></g><path d="M210.097 354.947h102.907v30.804h-1v-29.804H107.19v29.313h-1v-30.313h102.908v-52.333h1v52.333z" fill="#979797" fill-rule="nonzero"/><path d="M24.453 385.351h164.475a7.037 7.037 0 0 1 7.036 7.037v43.977a7.037 7.037 0 0 1-7.036 7.036H24.453a7.037 7.037 0 0 1-7.037-7.036v-43.977a7.037 7.037 0 0 1 7.037-7.037" fill="#ee4558" fill-rule="nonzero"/><g fill="#fff" fill-rule="nonzero"><path d="M66.23 419.173h1.794l-3.601-9.786h-1.909l-3.555 9.786h1.706l.845-2.457h3.863l.857 2.457zm-4.256-3.846l1.457-4.21 1.473 4.21h-2.93zM74.306 419.173h1.312v-10.238l-1.6.295v3.88c-.51-.667-1.304-.958-2.148-.958-2.031 0-3.18 1.621-3.18 3.58 0 2.15 1.36 3.581 3.18 3.581.929 0 1.773-.376 2.3-1.123l.136.983zm-2.098-1.257c-1.111 0-1.913-.841-1.913-2.183 0-1.297.752-2.171 1.887-2.171 1.161 0 1.888.916 1.888 2.15 0 1.14-.613 2.204-1.862 2.204zM79.039 419.173v-3.86c0-.974.49-1.734 1.478-1.734.886 0 1.258.6 1.258 1.5v4.094h1.588v-3.86c0-.991.472-1.742 1.482-1.734.887.004 1.258.587 1.258 1.5v4.094h1.6v-4.184c0-1.685-.71-2.837-2.394-2.837-.933 0-1.79.368-2.288 1.14-.401-.756-1.212-1.14-2.065-1.14-.84 0-1.63.376-2.074 1.072l-.13-.933h-1.314v6.882h1.601zM90.082 411.088a1 1 0 0 0 0-1.997.999.999 0 1 0 0 1.997zm-.802 8.085h1.595v-6.882H89.28v6.882zM99.212 419.173v-4.184c0-1.688-.87-2.837-2.542-2.837-.924 0-1.744.359-2.263 1.077l-.135-.938h-1.313v6.882h1.604v-3.86c0-1.016.621-1.734 1.63-1.734.92 0 1.423.587 1.423 1.5v4.094h1.596zM101.582 411.088a.999.999 0 1 0-.005-1.998.999.999 0 0 0 .005 1.998zm-.802 8.085h1.596v-6.882h-1.596v6.882zM104.658 417.337l-.714.962c.832.633 1.571 1.014 2.707 1.014 1.524 0 2.728-.676 2.728-2.137 0-2.533-3.623-1.663-3.623-3.014 0-.52.532-.74 1.102-.74.531 0 1.182.19 1.701.52l.6-.997c-.638-.498-1.473-.793-2.403-.793-1.4 0-2.562.667-2.562 2.12 0 2.55 3.597 1.608 3.597 2.972 0 .57-.613.764-1.228.764-.722 0-1.313-.266-1.905-.671zM110.234 413.646h1.208v3.226c0 1.811 1.47 2.441 2.896 2.441l.19-1.296c-.932-.186-1.495-.401-1.495-1.618v-2.753h1.681v-1.355h-1.68v-2.41l-1.592.295v2.115h-1.208v1.355zM116.374 419.173h1.592v-3.01c0-1.356.3-2.521 1.659-2.521.253 0 .49.039.739.114l.25-1.473a3.235 3.235 0 0 0-.908-.131c-.917 0-1.479.376-1.867 1.194l-.013-.003-.139-1.052h-1.313v6.882zM127.819 418.16c-.36-.194-.465-.455-.465-.996v-2.592c0-1.613-1.03-2.42-2.871-2.42-.92 0-1.972.202-2.732.748l.485 1.072c.55-.3 1.28-.502 1.972-.502.908 0 1.571.35 1.571 1.274v.35a8.008 8.008 0 0 0-1.537-.164c-1.913 0-2.99.916-2.99 2.26 0 1.362 1.12 2.123 2.454 2.123.853 0 1.74-.308 2.204-1.026.063.713.849 1.022 1.719 1.022l.19-1.149zm-2.04-1.937v.434c0 .84-.988 1.389-1.829 1.389-.586 0-1.16-.266-1.16-.955 0-.636.503-1.016 1.626-1.016.502 0 1.025.075 1.363.148zM128.49 413.646h1.207v3.226c0 1.811 1.47 2.441 2.897 2.441l.19-1.296c-.934-.186-1.495-.401-1.495-1.618v-2.753h1.68v-1.355h-1.68v-2.41l-1.592.295v2.115h-1.207v1.355zM135.388 411.088a1 1 0 0 0 0-1.997.999.999 0 1 0 0 1.997zm-.802 8.085h1.595v-6.882h-1.595v6.882zM141.42 419.313c2.013 0 3.58-1.457 3.58-3.597 0-2.137-1.554-3.564-3.564-3.564-2.022 0-3.572 1.448-3.572 3.585 0 2.132 1.545 3.576 3.555 3.576zm0-1.397c-1.12 0-1.955-.917-1.955-2.183 0-1.28.848-2.171 1.967-2.171 1.12 0 1.955.895 1.955 2.162 0 1.275-.857 2.192-1.968 2.192zM152.536 419.173v-4.184c0-1.688-.87-2.837-2.542-2.837-.926 0-1.744.359-2.263 1.077l-.136-.938h-1.313v6.882h1.604v-3.86c0-1.016.621-1.734 1.63-1.734.921 0 1.423.587 1.423 1.5v4.094h1.597z"/></g><path d="M230.267 385.351h164.475a7.037 7.037 0 0 1 7.037 7.037v43.977a7.037 7.037 0 0 1-7.037 7.036H230.267a7.037 7.037 0 0 1-7.036-7.036v-43.977a7.037 7.037 0 0 1 7.036-7.037" fill="#ee4558" fill-rule="nonzero"/><g fill="#fff" fill-rule="nonzero"><path d="M289.052 408.986h-7.596v1.458h2.964v8.33h1.669v-8.33h2.963v-1.458zM294.722 417.963l-.722-.992a3.167 3.167 0 0 1-1.879.638c-1.144 0-1.925-.68-2.04-1.803h5.055c.016-.135.034-.372.034-.591 0-1.964-1.246-3.462-3.247-3.462-1.921 0-3.446 1.388-3.446 3.623 0 2.296 1.596 3.537 3.542 3.537 1.04 0 2.028-.354 2.703-.95zm-4.62-3.242c.144-.993.845-1.65 1.816-1.65 1.039 0 1.613.75 1.693 1.65h-3.508zM301.401 417.018a2.9 2.9 0 0 1-1.595.497c-1.212 0-2.095-.886-2.095-2.186 0-1.305.895-2.183 2.112-2.183.549 0 1.13.178 1.583.473l.671-1.12c-.633-.48-1.524-.746-2.385-.746-1.968 0-3.581 1.367-3.581 3.623 0 2.355 1.76 3.537 3.56 3.537.924 0 1.803-.312 2.5-.84l-.77-1.055zM309.786 418.774v-4.184c0-1.693-.908-2.837-2.588-2.837-.84 0-1.651.295-2.145.916v-4.134l-1.6.296v9.943h1.6v-3.956c0-.976.73-1.639 1.697-1.639.972 0 1.436.668 1.436 1.63v3.965h1.6zM317.607 418.774v-4.184c0-1.689-.87-2.837-2.542-2.837-.924 0-1.743.359-2.263 1.076l-.134-.937h-1.314v6.882h1.605v-3.86c0-1.017.62-1.735 1.63-1.735.92 0 1.423.588 1.423 1.5v4.095h1.595zM319.977 410.688a1 1 0 1 0-.005-1.998 1 1 0 0 0 .005 1.998zm-.802 8.086h1.596v-6.882h-1.596v6.882zM327.753 417.018a2.902 2.902 0 0 1-1.597.497c-1.21 0-2.094-.886-2.094-2.186 0-1.305.895-2.183 2.112-2.183.549 0 1.131.178 1.583.473l.671-1.12c-.633-.48-1.524-.746-2.385-.746-1.968 0-3.58 1.367-3.58 3.623 0 2.355 1.76 3.537 3.559 3.537.924 0 1.802-.312 2.5-.84l-.77-1.055zM335.859 417.76c-.36-.194-.465-.456-.465-.996v-2.593c0-1.612-1.03-2.418-2.87-2.418-.922 0-1.973.202-2.733.746l.486 1.073a4.29 4.29 0 0 1 1.972-.502c.908 0 1.57.35 1.57 1.275v.35a8 8 0 0 0-1.537-.164c-1.913 0-2.99.916-2.99 2.259 0 1.363 1.12 2.123 2.454 2.123.853 0 1.74-.308 2.204-1.026.063.714.849 1.023 1.719 1.023l.19-1.15zm-2.04-1.938v.436c0 .84-.988 1.388-1.828 1.388-.587 0-1.16-.265-1.16-.954 0-.637.501-1.017 1.625-1.017.502 0 1.025.076 1.363.147zM337.277 417.241c0 1.132.908 1.672 1.888 1.672l.206-1.262c-.405-.207-.502-.477-.502-1.018v-8.098l-1.592.296v8.41z"/></g><g fill="#a4a1b0" fill-rule="nonzero"><path d="M75.002 498.57h.707v-4.845h3.174l2.928 4.844h.808l-2.959-4.888c1.886-.256 3.028-1.595 3.028-3.355 0-1.94-1.378-3.38-3.715-3.38h-3.971v11.623zm.707-5.491v-5.486h2.969c2 0 3.293.898 3.293 2.728 0 1.775-1.218 2.758-3.293 2.758h-2.969zM90.931 497.836l-.356-.496c-.802.472-1.543.743-2.497.743-2.106 0-3.364-1.33-3.469-3.375h7.1c.01-.075.02-.266.02-.451 0-2.236-1.5-4.026-3.806-4.026-2.221 0-4.011 1.664-4.011 4.317 0 2.707 1.865 4.186 4.132 4.186 1.073 0 2.095-.33 2.887-.898zm-6.302-3.77c.105-1.76 1.429-3.183 3.294-3.183 1.94 0 3.079 1.543 3.109 3.184h-6.403zM93.293 497.366l-.36.496a4.899 4.899 0 0 0 2.792.872c1.604 0 2.933-.772 2.933-2.296 0-2.853-4.668-1.7-4.668-4.027 0-1.142 1.133-1.528 2.15-1.528.743 0 1.42.205 1.971.501l.316-.521a4.682 4.682 0 0 0-2.346-.632c-1.45 0-2.783.672-2.783 2.216 0 2.888 4.668 1.78 4.668 4.056 0 1.238-1.389 1.58-2.352 1.58-.897 0-1.614-.297-2.321-.717zM104.46 498.734c2.366 0 4.21-1.754 4.21-4.281 0-2.508-1.819-4.222-4.17-4.222-2.367 0-4.192 1.74-4.192 4.261 0 2.503 1.8 4.242 4.152 4.242zm.004-.651c-1.995 0-3.464-1.48-3.464-3.596 0-2.14 1.5-3.604 3.505-3.604 2 0 3.475 1.463 3.475 3.574 0 2.131-1.51 3.626-3.516 3.626zM117.66 490.396h-.683v4.683c0 1.72-1.378 3.004-3.193 3.004-1.77 0-2.547-1.224-2.547-3.064v-4.623h-.682v4.934c0 2.09 1.198 3.404 3.27 3.404 1.338 0 2.335-.547 3.093-1.61l.11 1.445h.632v-8.173zM120.191 498.57h.682v-4.604c0-1.61 1.133-3.083 2.748-3.083.25 0 .491.035.701.09l.106-.647a3.21 3.21 0 0 0-.792-.095c-1.194 0-2.056.587-2.702 1.59l-.111-1.425h-.632v8.173zM131.405 497.561c-.637.316-1.26.522-2.036.522-1.956 0-3.545-1.304-3.545-3.56 0-2.207 1.524-3.64 3.615-3.64.697 0 1.279.16 1.92.446l.311-.526a4.597 4.597 0 0 0-2.261-.572c-2.371 0-4.276 1.65-4.276 4.306 0 2.753 2.044 4.197 4.216 4.197.888 0 1.71-.24 2.417-.677l-.361-.496zM139.948 497.836l-.355-.496c-.803.472-1.544.743-2.497.743-2.106 0-3.364-1.33-3.47-3.375h7.1c.01-.075.02-.266.02-.451 0-2.236-1.5-4.026-3.806-4.026-2.22 0-4.01 1.664-4.01 4.317 0 2.707 1.864 4.186 4.13 4.186 1.074 0 2.097-.33 2.888-.898zm-6.301-3.77c.104-1.76 1.428-3.183 3.293-3.183 1.94 0 3.079 1.543 3.109 3.184h-6.402zM142.178 497.366l-.36.496a4.899 4.899 0 0 0 2.792.872c1.604 0 2.933-.772 2.933-2.296 0-2.853-4.667-1.7-4.667-4.027 0-1.142 1.132-1.528 2.15-1.528.742 0 1.419.205 1.971.501l.316-.521a4.685 4.685 0 0 0-2.347-.632c-1.45 0-2.783.672-2.783 2.216 0 2.888 4.668 1.78 4.668 4.056 0 1.238-1.389 1.58-2.35 1.58-.899 0-1.616-.297-2.323-.717z"/></g><g fill="#a4a1b0" fill-rule="nonzero"><path d="M291.277 498.543l-.332.521a6.33 6.33 0 0 0 3.726 1.204c2.12 0 3.956-1.038 3.956-3.17 0-4.041-6.618-2.32-6.618-5.74 0-1.51 1.294-2.392 3.028-2.392.932 0 1.985.256 2.983.877l.336-.516a6.129 6.129 0 0 0-3.37-1.013c-2.16 0-3.7 1.183-3.7 3.12 0 4.005 6.62 2.335 6.62 5.715 0 1.479-1.27 2.467-3.25 2.467-1.284 0-2.397-.416-3.379-1.073zM307.847 491.93h-.682v4.682c0 1.72-1.379 3.004-3.194 3.004-1.77 0-2.547-1.224-2.547-3.064v-4.623h-.682v4.934c0 2.09 1.199 3.405 3.27 3.405 1.338 0 2.336-.547 3.092-1.61l.111 1.444h.632v-8.173zM309.992 498.899l-.36.496a4.899 4.899 0 0 0 2.792.873c1.604 0 2.933-.773 2.933-2.297 0-2.853-4.668-1.7-4.668-4.027 0-1.142 1.133-1.528 2.151-1.528.742 0 1.42.206 1.971.501l.316-.521a4.685 4.685 0 0 0-2.347-.632c-1.45 0-2.783.672-2.783 2.216 0 2.888 4.668 1.78 4.668 4.056 0 1.239-1.389 1.58-2.351 1.58-.898 0-1.615-.296-2.322-.717zM316.45 492.54h1.605v5.145c0 1.69 1.219 2.452 2.537 2.583l.09-.602c-1.238-.3-1.945-.713-1.945-2.582v-4.543h2.286v-.612h-2.286v-2.862l-.682.155v2.707h-1.605v.612zM329.718 499.721c-.39-.17-.496-.642-.496-1.594v-3.686c0-1.78-1.178-2.677-3.239-2.677-1.012 0-2.07.216-2.893.667l.25.557a5.973 5.973 0 0 1 2.609-.577c1.589 0 2.592.546 2.592 2.32v.979c-.913-.186-1.77-.316-2.648-.316-2.522 0-3.615 1.083-3.615 2.562 0 1.57 1.228 2.312 2.783 2.312 1.725 0 3.058-.918 3.47-1.66h.01c0 1.193.466 1.66 1.088 1.66l.09-.547zm-1.177-3.374v.777c0 1.439-1.775 2.492-3.42 2.492-1.003 0-2.151-.392-2.151-1.66 0-1.153.948-1.91 3.048-1.91.998 0 1.906.17 2.523.3zM332.296 489.859a.606.606 0 1 0 0-1.214.606.606 0 1 0 0 1.214zm-.34 10.243h.68v-8.173h-.68v8.173zM342.901 500.102v-4.934c0-2.111-1.218-3.404-3.324-3.404-1.353 0-2.382.537-3.144 1.61l-.105-1.445h-.632v8.173h.682v-4.683c0-1.73 1.394-3.003 3.239-3.003 1.785 0 2.602 1.193 2.602 3.063v4.623h.682zM351.923 499.721c-.39-.17-.496-.642-.496-1.594v-3.686c0-1.78-1.178-2.677-3.239-2.677-1.013 0-2.071.216-2.894.667l.251.557a5.976 5.976 0 0 1 2.608-.577c1.59 0 2.592.546 2.592 2.32v.979c-.913-.186-1.77-.316-2.648-.316-2.521 0-3.614 1.083-3.614 2.562 0 1.57 1.228 2.312 2.782 2.312 1.725 0 3.059-.918 3.47-1.66h.01c0 1.193.466 1.66 1.088 1.66l.09-.547zm-1.178-3.374v.777c0 1.439-1.775 2.492-3.42 2.492-1.002 0-2.15-.392-2.15-1.66 0-1.153.947-1.91 3.048-1.91.998 0 1.905.17 2.522.3zM354.79 500.102l.112-1.539c.767 1.088 1.77 1.705 3.113 1.705 1.81 0 3.981-1.118 3.981-4.192 0-3.099-2.206-4.312-4.03-4.312-1.31 0-2.418.626-3.115 1.7l-.01-.005v-5.516l-.682.156v12.003h.632zm3.32-.486c-1.825 0-3.314-1.304-3.314-3.656 0-2.331 1.465-3.544 3.224-3.544 1.995 0 3.284 1.564 3.284 3.65 0 2.04-1.228 3.55-3.194 3.55zM364.493 489.859a.606.606 0 1 0 0-1.214.606.606 0 1 0 0 1.214zm-.341 10.243h.682v-8.173h-.682v8.173zM367.883 498.688c0 1.108.467 1.58 1.093 1.58l.085-.547c-.391-.17-.496-.692-.496-1.644v-10.134l-.682.156v10.589zM371.949 489.859a.606.606 0 1 0 0-1.214.606.606 0 1 0 0 1.214zm-.341 10.243h.681v-8.173h-.681v8.173zM374.211 492.54h1.604v5.145c0 1.69 1.219 2.452 2.537 2.583l.09-.602c-1.238-.3-1.945-.713-1.945-2.582v-4.543h2.287v-.612h-2.287v-2.862l-.682.155v2.707h-1.604v.612zM383.63 499.19l-2.888-7.26h-.743l3.255 8.167-.648 1.565c-.45 1.088-1.162 1.393-1.84 1.393-.17 0-.32-.02-.486-.06l-.1.607c.24.08.48.1.662.1.938 0 1.87-.536 2.286-1.554l4.192-10.219h-.713l-2.978 7.26zM402.296 500.102l-2.026-2.291c.527-.692.963-1.444 1.31-2.146l-.577-.23c-.3.57-.702 1.238-1.184 1.864l-3.168-3.595c1.188-.827 2.291-1.685 2.291-3.053 0-1.304-1.008-2.337-2.387-2.337-1.424 0-2.401 1.098-2.401 2.337 0 1.022.672 2.01 1.143 2.541l.356.407c-1.304.882-2.598 1.875-2.598 3.575 0 1.735 1.35 3.094 3.18 3.094 1.428 0 2.642-.828 3.604-1.926l1.56 1.76h.897zm-5.75-11.15c.982 0 1.719.716 1.719 1.684 0 1.103-.958 1.835-2.046 2.577l-.305-.346c-.317-.356-1.084-1.253-1.084-2.211 0-.893.672-1.705 1.715-1.705zm2.842 8.878c-.867.988-1.945 1.77-3.139 1.77-1.328 0-2.486-.972-2.486-2.396 0-1.404 1.123-2.276 2.326-3.114l3.3 3.74z"/></g><g fill="#a4a1b0" fill-rule="nonzero"><path d="M291.277 518.772l-.332.522a6.33 6.33 0 0 0 3.726 1.203c2.12 0 3.956-1.038 3.956-3.169 0-4.041-6.618-2.321-6.618-5.74 0-1.51 1.294-2.392 3.028-2.392.932 0 1.985.256 2.983.877l.336-.517a6.129 6.129 0 0 0-3.37-1.012c-2.16 0-3.7 1.183-3.7 3.119 0 4.005 6.62 2.336 6.62 5.715 0 1.48-1.27 2.467-3.25 2.467-1.284 0-2.397-.416-3.379-1.073zM307.396 519.6l-.357-.497c-.802.471-1.543.742-2.497.742-2.105 0-3.364-1.329-3.469-3.374h7.1c.01-.075.02-.266.02-.452 0-2.235-1.5-4.025-3.805-4.025-2.222 0-4.012 1.664-4.012 4.316 0 2.708 1.865 4.187 4.131 4.187 1.073 0 2.096-.33 2.889-.897zm-6.303-3.77c.105-1.76 1.429-3.185 3.295-3.185 1.94 0 3.078 1.545 3.108 3.184h-6.403zM315.756 519.324c-.636.316-1.258.521-2.036.521-1.955 0-3.544-1.303-3.544-3.56 0-2.206 1.524-3.64 3.615-3.64.696 0 1.279.16 1.92.446l.311-.526a4.609 4.609 0 0 0-2.261-.571c-2.372 0-4.277 1.649-4.277 4.307 0 2.752 2.045 4.196 4.216 4.196.888 0 1.71-.24 2.417-.677l-.361-.496zM325.06 512.159h-.682v4.683c0 1.72-1.38 3.003-3.194 3.003-1.77 0-2.547-1.223-2.547-3.063v-4.623h-.682v4.933c0 2.091 1.198 3.405 3.269 3.405 1.338 0 2.337-.546 3.093-1.61l.111 1.445h.631v-8.173zM327.59 520.332h.683v-4.603c0-1.61 1.133-3.084 2.748-3.084.25 0 .49.036.702.09l.105-.646a3.203 3.203 0 0 0-.792-.095c-1.194 0-2.056.586-2.703 1.589l-.11-1.424h-.632v8.173zM333.851 510.089a.606.606 0 1 0 0-1.214.605.605 0 0 0-.606.607c0 .336.27.607.606.607zm-.34 10.243h.682v-8.173h-.682v8.173zM336.07 512.77h1.604v5.145c0 1.69 1.219 2.452 2.537 2.582l.091-.602c-1.24-.3-1.946-.712-1.946-2.582v-4.543h2.286v-.611h-2.286v-2.863l-.682.156v2.707h-1.604v.611zM345.533 519.419l-2.889-7.26h-.742l3.254 8.167-.646 1.565c-.451 1.088-1.164 1.393-1.84 1.393-.17 0-.321-.019-.487-.06l-.1.607c.24.08.481.1.662.1.937 0 1.87-.536 2.286-1.553l4.191-10.219h-.711l-2.978 7.26z"/></g><g fill="#a4a1b0" fill-rule="nonzero"><path d="M299.87 552.535h.757l-4.582-11.622h-.863l-4.532 11.622h.722l1.348-3.464h5.787l1.363 3.464zm-6.894-4.11l2.622-6.73 2.653 6.73h-5.275zM303.13 544.363h-.632v11.772l.682-.155v-4.974l.01-.005c.697 1.074 1.805 1.7 3.114 1.7 1.825 0 4.031-1.213 4.031-4.312 0-3.074-2.17-4.192-3.98-4.192-1.345 0-2.347.617-3.114 1.705l-.111-1.54zm6.513 4.036c0 2.086-1.289 3.65-3.284 3.65-1.76 0-3.224-1.213-3.224-3.545 0-2.351 1.49-3.655 3.314-3.655 1.966 0 3.194 1.51 3.194 3.55zM313.118 544.363h-.633v11.772l.683-.155v-4.974l.01-.005c.696 1.074 1.805 1.7 3.113 1.7 1.825 0 4.031-1.213 4.031-4.312 0-3.074-2.17-4.192-3.98-4.192-1.345 0-2.347.617-3.114 1.705l-.11-1.54zm6.513 4.036c0 2.086-1.289 3.65-3.284 3.65-1.76 0-3.225-1.213-3.225-3.545 0-2.351 1.49-3.655 3.314-3.655 1.966 0 3.195 1.51 3.195 3.55zM322.459 551.122c0 1.107.466 1.579 1.093 1.579l.084-.546c-.39-.171-.496-.693-.496-1.645v-10.133l-.681.155v10.59zM326.656 542.292a.606.606 0 1 0 0-1.214.606.606 0 1 0 0 1.214zm-.34 10.243h.681v-8.172h-.682v8.172zM335.67 551.527c-.637.316-1.26.522-2.037.522-1.955 0-3.544-1.303-3.544-3.56 0-2.206 1.524-3.64 3.615-3.64.696 0 1.279.161 1.92.446l.311-.526a4.609 4.609 0 0 0-2.261-.572c-2.372 0-4.277 1.65-4.277 4.307 0 2.753 2.045 4.197 4.216 4.197.888 0 1.71-.24 2.417-.677l-.36-.497zM344.657 552.155c-.39-.171-.496-.642-.496-1.595v-3.685c0-1.78-1.179-2.678-3.24-2.678-1.012 0-2.07.216-2.893.667l.251.557a5.985 5.985 0 0 1 2.607-.577c1.59 0 2.593.547 2.593 2.322v.977c-.913-.186-1.77-.316-2.647-.316-2.523 0-3.615 1.084-3.615 2.562 0 1.57 1.227 2.312 2.782 2.312 1.724 0 3.059-.918 3.47-1.66h.01c0 1.194.466 1.66 1.088 1.66l.09-.546zm-1.178-3.375v.777c0 1.44-1.775 2.492-3.42 2.492-1.002 0-2.151-.391-2.151-1.66 0-1.153.948-1.91 3.048-1.91.999 0 1.905.17 2.523.3zM345.624 544.975h1.605v5.143c0 1.69 1.218 2.453 2.537 2.583l.09-.602c-1.238-.3-1.945-.711-1.945-2.582v-4.542h2.286v-.612h-2.286V541.5l-.682.155v2.708h-1.605v.612zM352.511 542.292a.606.606 0 1 0 0-1.214.606.606 0 1 0 0 1.214zm-.341 10.243h.682v-8.172h-.682v8.172zM359.481 552.7c2.366 0 4.212-1.754 4.212-4.28 0-2.508-1.82-4.223-4.172-4.223-2.366 0-4.191 1.74-4.191 4.263 0 2.501 1.8 4.24 4.151 4.24zm.005-.651c-1.995 0-3.465-1.48-3.465-3.595 0-2.14 1.5-3.605 3.505-3.605 2.001 0 3.475 1.465 3.475 3.575 0 2.13-1.509 3.625-3.515 3.625zM372.838 552.535v-4.933c0-2.11-1.219-3.405-3.324-3.405-1.354 0-2.382.537-3.144 1.61l-.106-1.444h-.631v8.172h.682v-4.682c0-1.73 1.394-3.004 3.239-3.004 1.785 0 2.602 1.194 2.602 3.064v4.622h.682z"/></g><g fill="#a4a1b0" fill-rule="nonzero"><path d="M295.804 572.765c3.555 0 5.57-2.507 5.57-5.811 0-3.25-1.95-5.811-5.555-5.811h-3.8v11.622h3.785zm-3.078-.646V561.79h2.812c3.084 0 5.12 1.78 5.12 5.154 0 3.324-1.97 5.175-5.195 5.175h-2.737zM309.96 572.033l-.355-.497c-.802.472-1.544.743-2.497.743-2.106 0-3.364-1.33-3.47-3.374h7.1c.01-.076.02-.266.02-.452 0-2.236-1.5-4.026-3.806-4.026-2.22 0-4.01 1.665-4.01 4.317 0 2.708 1.864 4.186 4.13 4.186 1.074 0 2.097-.33 2.888-.897zm-6.302-3.77c.106-1.76 1.429-3.184 3.294-3.184 1.94 0 3.079 1.544 3.109 3.184h-6.403zM312.322 564.592h-.742l3.274 8.173h.778l3.403-8.173h-.711l-3.058 7.34-2.944-7.34zM327.003 572.033l-.356-.497c-.802.472-1.544.743-2.497.743-2.106 0-3.364-1.33-3.47-3.374h7.1c.01-.076.02-.266.02-.452 0-2.236-1.499-4.026-3.806-4.026-2.22 0-4.01 1.665-4.01 4.317 0 2.708 1.865 4.186 4.13 4.186 1.074 0 2.097-.33 2.89-.897zm-6.303-3.77c.106-1.76 1.43-3.184 3.294-3.184 1.94 0 3.079 1.544 3.11 3.184H320.7zM329.652 571.352c0 1.107.467 1.578 1.094 1.578l.085-.546c-.391-.17-.497-.692-.497-1.645v-10.133l-.682.156v10.59zM337.113 572.93c2.367 0 4.212-1.754 4.212-4.281 0-2.507-1.82-4.222-4.172-4.222-2.367 0-4.192 1.74-4.192 4.262 0 2.502 1.8 4.241 4.152 4.241zm.005-.651c-1.996 0-3.464-1.48-3.464-3.595 0-2.14 1.498-3.605 3.505-3.605 2 0 3.474 1.464 3.474 3.575 0 2.13-1.51 3.625-3.515 3.625zM343.901 564.592h-.631v11.773l.681-.156v-4.974l.01-.004c.697 1.073 1.806 1.7 3.114 1.7 1.825 0 4.031-1.214 4.031-4.312 0-3.074-2.17-4.192-3.98-4.192-1.344 0-2.347.616-3.114 1.704l-.11-1.539zm6.513 4.036c0 2.087-1.288 3.65-3.283 3.65-1.76 0-3.225-1.212-3.225-3.544 0-2.352 1.49-3.655 3.315-3.655 1.965 0 3.193 1.509 3.193 3.55zM353.934 572.765v-4.603c0-1.634 1.108-3.083 2.803-3.083 1.64 0 2.226 1.364 2.226 3.063v4.623h.682v-4.603c0-1.665 1.138-3.083 2.818-3.083 1.66 0 2.211 1.388 2.211 3.063v4.623h.682v-4.933c0-1.921-.988-3.405-2.888-3.405-1.384 0-2.426.782-3.033 1.966-.392-1.25-1.394-1.966-2.728-1.966-1.193 0-2.05.577-2.712 1.595l-.111-1.43h-.632v8.173h.682zM374.23 572.033l-.356-.497c-.802.472-1.544.743-2.497.743-2.105 0-3.364-1.33-3.47-3.374h7.1c.01-.076.02-.266.02-.452 0-2.236-1.498-4.026-3.805-4.026-2.221 0-4.011 1.665-4.011 4.317 0 2.708 1.864 4.186 4.131 4.186 1.073 0 2.096-.33 2.889-.897zm-6.302-3.77c.105-1.76 1.429-3.184 3.294-3.184 1.94 0 3.078 1.544 3.109 3.184h-6.403zM384.095 572.765v-4.933c0-2.111-1.219-3.405-3.324-3.405-1.354 0-2.382.536-3.144 1.61l-.105-1.445h-.632v8.173h.682v-4.683c0-1.73 1.394-3.003 3.238-3.003 1.786 0 2.603 1.193 2.603 3.063v4.623h.682zM385.257 565.204h1.606v5.144c0 1.69 1.218 2.452 2.536 2.582l.09-.601c-1.238-.301-1.945-.712-1.945-2.583v-4.542h2.286v-.612h-2.286v-2.863l-.681.156v2.707h-1.606v.612zM405.2 572.765l-2.025-2.291c.526-.692.962-1.444 1.308-2.146l-.577-.23c-.3.57-.701 1.238-1.183 1.864l-3.169-3.595c1.189-.827 2.292-1.684 2.292-3.053 0-1.304-1.008-2.337-2.387-2.337-1.424 0-2.402 1.098-2.402 2.337 0 1.022.672 2.01 1.144 2.542l.356.406c-1.304.883-2.597 1.875-2.597 3.575 0 1.734 1.348 3.093 3.178 3.093 1.429 0 2.643-.826 3.606-1.925l1.558 1.76h.898zm-5.751-11.15c.983 0 1.72.716 1.72 1.683 0 1.104-.958 1.836-2.046 2.578l-.306-.346c-.315-.356-1.082-1.254-1.082-2.211 0-.892.672-1.705 1.714-1.705zm2.843 8.879c-.868.988-1.945 1.77-3.139 1.77-1.329 0-2.487-.973-2.487-2.397 0-1.404 1.123-2.276 2.326-3.114l3.3 3.741z"/></g><g fill="#a4a1b0" fill-rule="nonzero"><path d="M292.27 581.372l-.462 11.623h.672l.431-10.785 4.753 9.245h.577l4.698-9.23.446 10.77h.702l-.481-11.623h-.988l-4.648 9.13-4.698-9.13h-1.003zM313.435 592.614c-.391-.17-.496-.642-.496-1.595v-3.685c0-1.78-1.178-2.678-3.239-2.678-1.012 0-2.07.216-2.893.667l.25.557a5.982 5.982 0 0 1 2.608-.577c1.59 0 2.592.547 2.592 2.322v.977c-.912-.185-1.77-.316-2.648-.316-2.521 0-3.615 1.084-3.615 2.562 0 1.57 1.23 2.312 2.783 2.312 1.725 0 3.059-.917 3.47-1.66h.01c0 1.194.466 1.66 1.088 1.66l.09-.546zm-1.178-3.375v.777c0 1.44-1.775 2.492-3.419 2.492-1.004 0-2.151-.391-2.151-1.66 0-1.153.947-1.91 3.048-1.91.998 0 1.905.17 2.522.3zM316.012 582.751a.606.606 0 1 0 0-1.213.606.606 0 1 0 0 1.213zm-.34 10.244h.682v-8.173h-.683v8.173zM326.53 592.995v-4.934c0-2.11-1.219-3.405-3.325-3.405-1.353 0-2.381.537-3.143 1.61l-.106-1.444h-.631v8.173h.681v-4.683c0-1.73 1.395-3.004 3.24-3.004 1.784 0 2.602 1.194 2.602 3.064v4.623h.682zM327.693 585.434h1.604v5.144c0 1.69 1.218 2.452 2.537 2.582l.09-.602c-1.238-.3-1.945-.711-1.945-2.582v-4.542h2.287v-.612h-2.287v-2.863l-.682.156v2.707h-1.604v.612zM340.678 592.263l-.355-.497c-.802.471-1.544.742-2.497.742-2.106 0-3.364-1.329-3.47-3.374h7.1c.01-.075.02-.265.02-.451 0-2.237-1.5-4.027-3.806-4.027-2.22 0-4.01 1.665-4.01 4.317 0 2.708 1.864 4.187 4.13 4.187 1.074 0 2.097-.33 2.888-.897zm-6.301-3.77c.104-1.76 1.428-3.185 3.293-3.185 1.94 0 3.079 1.545 3.109 3.184h-6.402zM350.543 592.995v-4.934c0-2.11-1.218-3.405-3.323-3.405-1.355 0-2.382.537-3.145 1.61l-.104-1.444h-.633v8.173h.683v-4.683c0-1.73 1.393-3.004 3.238-3.004 1.786 0 2.603 1.194 2.603 3.064v4.623h.681zM359.653 592.614c-.39-.17-.496-.642-.496-1.595v-3.685c0-1.78-1.179-2.678-3.239-2.678-1.013 0-2.071.216-2.893.667l.25.557a5.988 5.988 0 0 1 2.608-.577c1.59 0 2.592.547 2.592 2.322v.977c-.913-.185-1.77-.316-2.647-.316-2.522 0-3.615 1.084-3.615 2.562 0 1.57 1.228 2.312 2.783 2.312 1.725 0 3.058-.917 3.469-1.66h.01c0 1.194.466 1.66 1.088 1.66l.09-.546zm-1.178-3.375v.777c0 1.44-1.775 2.492-3.42 2.492-1.002 0-2.15-.391-2.15-1.66 0-1.153.947-1.91 3.048-1.91.998 0 1.906.17 2.522.3zM369.084 592.995v-4.934c0-2.11-1.218-3.405-3.324-3.405-1.353 0-2.381.537-3.144 1.61l-.105-1.444h-.631v8.173h.682v-4.683c0-1.73 1.394-3.004 3.238-3.004 1.786 0 2.603 1.194 2.603 3.064v4.623h.681zM377.207 591.987c-.637.315-1.259.521-2.036.521-1.955 0-3.545-1.303-3.545-3.56 0-2.206 1.524-3.64 3.615-3.64.697 0 1.279.161 1.92.446l.312-.526a4.609 4.609 0 0 0-2.262-.572c-2.372 0-4.277 1.65-4.277 4.308 0 2.752 2.046 4.196 4.217 4.196.887 0 1.71-.24 2.417-.676l-.361-.497zM385.75 592.263l-.355-.497c-.803.471-1.545.742-2.497.742-2.106 0-3.365-1.329-3.47-3.374h7.1c.01-.075.02-.265.02-.451 0-2.237-1.5-4.027-3.805-4.027-2.222 0-4.012 1.665-4.012 4.317 0 2.708 1.866 4.187 4.131 4.187 1.073 0 2.096-.33 2.889-.897zm-6.302-3.77c.106-1.76 1.43-3.185 3.295-3.185 1.94 0 3.078 1.545 3.108 3.184h-6.403z"/></g><g fill="#a4a1b0" fill-rule="nonzero"><path d="M75.253 541.253l-.461 11.622h.672l.43-10.785 4.754 9.246h.577l4.697-9.231.447 10.77h.702l-.482-11.622h-.988l-4.647 9.13-4.698-9.13h-1.003zM96.419 552.494c-.39-.17-.496-.642-.496-1.595v-3.685c0-1.78-1.179-2.677-3.24-2.677-1.012 0-2.07.215-2.892.667l.25.556a5.972 5.972 0 0 1 2.607-.577c1.59 0 2.593.546 2.593 2.321v.978c-.913-.185-1.77-.315-2.647-.315-2.523 0-3.616 1.082-3.616 2.562 0 1.569 1.229 2.311 2.783 2.311 1.725 0 3.059-.917 3.47-1.66h.01c0 1.194.466 1.66 1.088 1.66l.09-.546zm-1.178-3.375v.778c0 1.439-1.775 2.492-3.42 2.492-1.002 0-2.15-.392-2.15-1.66 0-1.153.947-1.91 3.048-1.91.998 0 1.905.17 2.522.3zM105.85 552.875v-4.934c0-2.111-1.218-3.404-3.324-3.404-1.354 0-2.381.536-3.144 1.61l-.105-1.445h-.632v8.173h.682v-4.684c0-1.729 1.394-3.002 3.239-3.002 1.785 0 2.603 1.193 2.603 3.063v4.623h.681zM114.96 552.494c-.39-.17-.496-.642-.496-1.595v-3.685c0-1.78-1.179-2.677-3.24-2.677-1.012 0-2.07.215-2.893.667l.251.556a5.973 5.973 0 0 1 2.608-.577c1.59 0 2.592.546 2.592 2.321v.978c-.913-.185-1.77-.315-2.647-.315-2.523 0-3.615 1.082-3.615 2.562 0 1.569 1.227 2.311 2.783 2.311 1.724 0 3.058-.917 3.468-1.66h.011c0 1.194.466 1.66 1.088 1.66l.09-.546zm-1.178-3.375v.778c0 1.439-1.775 2.492-3.42 2.492-1.002 0-2.151-.392-2.151-1.66 0-1.153.948-1.91 3.048-1.91.999 0 1.906.17 2.523.3zM124.471 544.702h-.631l-.11 1.54c-.768-1.089-1.77-1.705-3.114-1.705-1.81 0-3.982 1.118-3.982 4.06 0 2.97 2.207 4.182 4.032 4.182 1.308 0 2.416-.626 3.114-1.7l.01.006v1.283c0 2.518-1.41 3.455-3.36 3.455-.942 0-1.614-.22-2.502-.777l-.36.497c.856.596 1.79.932 2.933.932 2.3 0 3.97-1.359 3.97-3.816v-7.957zm-3.86 7.425c-1.996 0-3.284-1.564-3.284-3.519 0-1.91 1.228-3.42 3.193-3.42 1.825 0 3.314 1.304 3.314 3.525 0 2.201-1.463 3.414-3.223 3.414zM133.534 552.143l-.356-.497c-.802.472-1.545.743-2.497.743-2.106 0-3.365-1.33-3.47-3.375h7.1c.01-.075.02-.266.02-.451 0-2.236-1.499-4.026-3.805-4.026-2.222 0-4.012 1.664-4.012 4.317 0 2.707 1.866 4.186 4.132 4.186 1.073 0 2.095-.33 2.888-.897zm-6.303-3.77c.106-1.76 1.43-3.184 3.295-3.184 1.94 0 3.078 1.544 3.108 3.184h-6.403zM136.875 552.875v-4.603c0-1.635 1.109-3.083 2.803-3.083 1.64 0 2.227 1.363 2.227 3.063v4.623h.681v-4.603c0-1.665 1.138-3.083 2.818-3.083 1.66 0 2.211 1.388 2.211 3.063v4.623h.682v-4.934c0-1.92-.988-3.404-2.888-3.404-1.384 0-2.427.782-3.033 1.965-.391-1.248-1.394-1.965-2.727-1.965-1.194 0-2.052.576-2.714 1.594l-.11-1.429h-.631v8.173h.681zM157.172 552.143l-.356-.497c-.803.472-1.545.743-2.497.743-2.106 0-3.365-1.33-3.47-3.375h7.1c.01-.075.02-.266.02-.451 0-2.236-1.5-4.026-3.806-4.026-2.221 0-4.01 1.664-4.01 4.317 0 2.707 1.864 4.186 4.13 4.186 1.073 0 2.096-.33 2.889-.897zm-6.303-3.77c.105-1.76 1.43-3.184 3.294-3.184 1.94 0 3.078 1.544 3.109 3.184h-6.403zM167.036 552.875v-4.934c0-2.111-1.218-3.404-3.324-3.404-1.354 0-2.382.536-3.144 1.61l-.105-1.445h-.632v8.173h.682v-4.684c0-1.729 1.393-3.002 3.239-3.002 1.785 0 2.602 1.193 2.602 3.063v4.623h.682zM168.199 545.313h1.604v5.145c0 1.69 1.219 2.452 2.537 2.582l.09-.601c-1.238-.301-1.945-.713-1.945-2.583v-4.543h2.286v-.61h-2.286v-2.864l-.682.156v2.707h-1.604v.611z"/></g><g><path d="M38.28 494.55H60.06v1H38.28l.001 53.533h21.781v1h-22.78L37.276 443.4h1l.002 51.15z" fill="#979797" fill-rule="nonzero"/></g><g><path d="M243.972 494.55h21.946v1h-21.946v53.533h21.946v1h-22.946V443.505h1v51.046z" fill="#979797" fill-rule="nonzero"/></g></g><path d="M475.72 143.456h265.183v27.135l1.657-5.964.963.268-3.12 11.234-3.121-11.234.964-.268 1.657 5.966v-26.137H208.778v25.645l1.656-5.965.964.268-3.12 11.233-3.121-11.233.964-.268 1.657 5.965v-26.645H474.72V91.523h1v51.933z" fill="#979797" fill-rule="nonzero"/><g><g fill="#a4a1b0" fill-rule="nonzero"><path d="M427.75 30.894c3.59 0 5.606-2.502 5.606-5.81 0-3.255-1.95-5.812-5.59-5.812h-4.042v11.622h4.027zm-2.06-1.725v-8.172h1.825c2.451 0 3.866 1.243 3.866 4.096 0 2.768-1.33 4.076-3.916 4.076h-1.775zM442.429 30.894h2.13l-4.276-11.622h-2.267l-4.222 11.622h2.026l1.003-2.918h4.587l1.019 2.918zm-5.054-4.567l1.73-5 1.75 5h-3.48zM453.229 19.272h-9.02v1.73h3.52v9.892h1.98v-9.892h3.52v-1.73zM461.498 30.894h2.131l-4.277-11.622h-2.266l-4.221 11.622h2.025l1.003-2.918h4.588l1.017 2.918zm-5.054-4.567l1.73-5 1.75 5h-3.48zM477.023 28.332c-.772.582-1.92.963-2.983.963-2.332 0-3.986-1.825-3.986-4.202 0-2.407 1.699-4.247 4.025-4.247 1.008 0 2.111.346 2.944.973l.877-1.368c-1.073-.868-2.537-1.344-3.956-1.344-3.335 0-5.886 2.602-5.886 6.026 0 3.365 2.467 5.927 5.816 5.927 1.424 0 2.983-.467 4.04-1.324l-.891-1.404zM484.75 31.06c3.389 0 5.946-2.562 5.946-5.997 0-3.44-2.567-5.956-5.927-5.956-3.359 0-5.961 2.512-5.961 5.97 0 3.42 2.542 5.983 5.942 5.983zm0-1.735c-2.287 0-3.947-1.795-3.947-4.242 0-2.456 1.67-4.237 3.947-4.237 2.27 0 3.936 1.78 3.936 4.237 0 2.442-1.655 4.242-3.936 4.242zM499.738 26.702c0 1.606-1.068 2.598-2.577 2.598-1.524 0-2.632-1.023-2.632-2.598v-7.43h-1.965v7.426c0 2.627 1.834 4.362 4.537 4.362 2.698 0 4.568-1.735 4.568-4.367v-7.421h-1.93v7.43zM506.128 22.38l5.36 8.514h2.151V19.272h-1.87l.03 8.583-5.4-8.583h-2.126v11.622h1.886l-.03-8.514zM524.465 28.332c-.772.582-1.92.963-2.984.963-2.33 0-3.986-1.825-3.986-4.202 0-2.407 1.7-4.247 4.027-4.247 1.008 0 2.11.346 2.943.973l.878-1.368c-1.073-.868-2.538-1.344-3.957-1.344-3.334 0-5.885 2.602-5.885 6.026 0 3.365 2.466 5.927 5.815 5.927 1.424 0 2.984-.467 4.042-1.324l-.893-1.404zM527.288 19.272h1.976v11.622h-1.976zM532.346 30.894h7.15v-1.72h-5.185v-9.902h-1.965v11.622z"/></g><path d="M484.08 72.597v-6.912l5.451-3.023v6.912l-5.451 3.023zm-23.43-9.936l5.45 3.023v6.913l-5.45-3.023v-6.913zm14.44-17.845l5.086 2.442-5.086 2.444-5.086-2.444 5.086-2.442zm8.99 18.171v-6.952l5.451-3.023v6.952l-5.451 3.023zm-7.81 7.029l5.45-3.023v6.952l-5.45 3.022v-6.951zm-7.81-3.024l5.451 3.024v6.95l-5.451-3.021v-6.953zm5.45-7.028l-5.451 3.023v-6.952l5.451-3.023v6.952zm7.81 3.023l-5.45-3.023v-6.952l5.45 3.023v6.952zm-6.63 4.985l-5.379-2.982 5.379-2.983 5.378 2.983-5.378 2.982zm7.81-19.405l5.243 2.518-5.243 2.907-5.242-2.907 5.242-2.518zm-15.62 0l5.242 2.518-5.243 2.907-5.242-2.907 5.242-2.518zm-6.63 4.445l5.45 3.023v6.952l-5.45-3.023v-6.952zm31.229-2.158a1.353 1.353 0 0 0-.032-.158l-.006-.022a1.163 1.163 0 0 0-.052-.14l-.013-.028a2.455 2.455 0 0 0-.034-.068l-.023-.036-.022-.036a1.22 1.22 0 0 0-.08-.109l-.007-.008a1.121 1.121 0 0 0-.23-.208l-.02-.015a1.141 1.141 0 0 0-.131-.075c-.003 0-.006-.003-.008-.005l-7.81-3.75-7.81-3.752a1.18 1.18 0 0 0-1.021 0l-7.81 3.752-7.811 3.75-.008.005a1.071 1.071 0 0 0-.131.075l-.021.014a1.246 1.246 0 0 0-.23.208l-.01.011a1.549 1.549 0 0 0-.099.144l-.022.035c-.012.022-.022.044-.032.067l-.015.03c-.02.045-.037.092-.051.139l-.006.024a1.048 1.048 0 0 0-.028.127l-.005.03c-.007.05-.01.102-.01.153v19.26c0 .428.232.824.607 1.032l7.586 4.207c.068.062.142.117.225.164l7.81 4.33v.001a1.085 1.085 0 0 0 .261.105 1.349 1.349 0 0 0 .138.028l.035.006a1.173 1.173 0 0 0 .274 0l.034-.006c.035-.005.07-.012.104-.02l.035-.008c.037-.01.073-.023.108-.036l.023-.008c.044-.018.087-.038.129-.061h.002l7.81-4.332c.083-.046.156-.102.224-.163l7.586-4.207c.375-.209.608-.604.608-1.032v-19.26c0-.051-.004-.103-.011-.154" fill="#00a9be" fill-rule="nonzero"/></g></svg>