<svg viewBox="0 0 840 700" xmlns="http://www.w3.org/2000/svg" fill-rule="evenodd" clip-rule="evenodd" stroke-linejoin="round" stroke-miterlimit="1.414"><path d="M606.277 181.52l-3.432-2.184 21.094-19.523-8.756 27.375-3.844-2.446L350.7 577.819l3.589 2.384-21.473 19.105 9.292-27.198 3.594 2.388L606.277 181.52z" fill="url(#_Linear1)" fill-rule="nonzero" transform="matrix(.9585 0 0 .9585 -182.896 -30.802)"/><path d="M606.277 181.52l-3.432-2.184 21.094-19.523-8.756 27.375-3.844-2.446L350.7 577.819l3.589 2.384-21.473 19.105 9.292-27.198 3.594 2.388L606.277 181.52z" fill="url(#_Linear2)" fill-rule="nonzero" transform="matrix(-.9585 0 0 .9585 1032.01 -30.802)"/><path d="M606.277 181.52l-3.432-2.184 21.094-19.523-8.756 27.375-3.844-2.446-285.938 434.625 3.589 2.385-21.473 19.104 9.292-27.198 3.595 2.389L606.277 181.52z" fill="url(#_Linear3)" fill-rule="nonzero" transform="scale(-.9585 .9585) rotate(56.668 -159.788 -348.6)"/><g fill="#a09fad" fill-rule="nonzero"><path d="M365.439 47.94c4.117 0 6.43-2.87 6.43-6.666 0-3.734-2.238-6.667-6.413-6.667h-4.636V47.94h4.619zm-2.364-1.98v-9.374h2.093c2.812 0 4.434 1.427 4.434 4.7 0 3.174-1.524 4.675-4.491 4.675h-2.036zM381.802 47.94h2.444l-4.906-13.333h-2.6l-4.842 13.333h2.323l1.15-3.348h5.264l1.167 3.348zm-5.798-5.24l1.984-5.735 2.007 5.735h-3.991zM393.414 34.607h-10.347v1.984h4.037V47.94h2.273V36.59h4.037v-1.984zM402.174 47.94h2.444l-4.906-13.333h-2.6L392.27 47.94h2.323l1.15-3.348h5.263l1.168 3.348zm-5.798-5.24l1.985-5.735 2.007 5.735h-3.992zM418.882 45c-.885.667-2.202 1.104-3.422 1.104-2.675 0-4.573-2.093-4.573-4.819 0-2.76 1.95-4.872 4.619-4.872 1.156 0 2.422.397 3.376 1.116l1.007-1.57c-1.231-.995-2.91-1.542-4.539-1.542-3.824 0-6.751 2.985-6.751 6.914 0 3.859 2.83 6.799 6.67 6.799 1.635 0 3.424-.535 4.637-1.52L418.882 45zM426.97 48.13c3.887 0 6.82-2.94 6.82-6.88 0-3.946-2.945-6.833-6.798-6.833-3.854 0-6.839 2.882-6.839 6.85 0 3.923 2.916 6.863 6.816 6.863zm0-1.991c-2.624 0-4.528-2.059-4.528-4.865 0-2.818 1.915-4.861 4.527-4.861 2.605 0 4.515 2.043 4.515 4.86 0 2.801-1.898 4.866-4.515 4.866zM443.688 43.131c0 1.84-1.225 2.98-2.956 2.98-1.748 0-3.02-1.174-3.02-2.98v-8.524h-2.253v8.518c0 3.014 2.104 5.005 5.204 5.005 3.094 0 5.24-1.991 5.24-5.01v-8.513h-2.215v8.524zM450.544 38.174l6.149 9.766h2.467V34.607h-2.145l.035 9.847-6.195-9.847h-2.439V47.94h2.163l-.035-9.766zM471.255 45c-.885.667-2.202 1.104-3.421 1.104-2.675 0-4.572-2.093-4.572-4.819 0-2.76 1.95-4.872 4.618-4.872 1.156 0 2.42.397 3.375 1.116l1.008-1.57c-1.232-.995-2.911-1.542-4.539-1.542-3.824 0-6.752 2.985-6.752 6.914 0 3.859 2.83 6.799 6.672 6.799 1.633 0 3.422-.535 4.636-1.52L471.255 45zM473.718 34.607h2.266V47.94h-2.266zM478.64 47.94h8.202v-1.974h-5.946V34.607h-2.255V47.94z"/></g><g fill="#a09fad" fill-rule="nonzero"><path d="M344.826 448.84c-.097 2.485-2.023 4.094-4.473 4.094-3.195 0-5.224-2.72-5.224-5.812 0-3.258 2.229-5.873 5.527-5.873 1.443 0 2.962.497 4.052 1.339l1.215-1.885c-1.477-1.193-3.493-1.849-5.466-1.849-4.632 0-8.09 3.582-8.09 8.358 0 4.458 3.01 8.096 8.028 8.096 4.713 0 7.247-3.244 7.247-8.648h-6.875v2.18h4.059zM357.074 455.308c4.665 0 8.186-3.526 8.186-8.255 0-4.735-3.534-8.199-8.159-8.199-4.624 0-8.206 3.458-8.206 8.22 0 4.708 3.499 8.234 8.18 8.234zm0-2.388c-3.147 0-5.432-2.47-5.432-5.839 0-3.381 2.298-5.832 5.432-5.832 3.127 0 5.418 2.45 5.418 5.832 0 3.362-2.278 5.84-5.418 5.84zM368.687 439.081h-2.926l5.521 16h2.436l5.543-16h-2.802l-3.893 11.976-3.879-11.976zM381.288 455.08h10.256v-2.367h-7.557v-4.521h6.411v-2.353h-6.411v-4.39h7.37v-2.368h-10.07v16zM394.172 455.08h2.67v-6.004h2.547l3.451 6.005h3.203l-3.858-6.357c2.042-.718 3.271-2.458 3.271-4.673 0-2.871-2.063-4.97-5.5-4.97h-5.784v16zm2.67-8.372v-5.266h2.754c1.863 0 3.148.89 3.148 2.65 0 1.678-1.174 2.616-3.148 2.616h-2.754zM410.892 443.361l7.378 11.72h2.961v-16h-2.574l.042 11.817-7.434-11.817h-2.927v16h2.596l-.042-11.72zM435.074 455.08h2.934l-5.887-15.999H429l-5.812 16h2.789l1.38-4.017h6.315l1.4 4.017zm-6.957-6.287l2.38-6.881 2.41 6.881h-4.79zM442.477 443.361l7.379 11.72h2.96v-16h-2.574l.041 11.817-7.433-11.817h-2.926v16h2.595l-.042-11.72zM467.79 451.553c-1.062.8-2.643 1.326-4.105 1.326-3.21 0-5.488-2.513-5.488-5.784 0-3.313 2.34-5.846 5.542-5.846 1.388 0 2.907.476 4.052 1.339l1.208-1.885c-1.477-1.193-3.492-1.849-5.446-1.849-4.589 0-8.103 3.582-8.103 8.296 0 4.632 3.396 8.158 8.007 8.158 1.96 0 4.107-.641 5.563-1.822l-1.23-1.933zM471.205 455.08h10.257v-2.367h-7.558v-4.521h6.412v-2.353h-6.412v-4.39h7.371v-2.368h-10.07v16zM489.553 439.081v16h6.363c3.03 0 5.142-1.878 5.142-4.522 0-2.084-1.318-3.499-3.023-3.948 1.208-.614 1.982-1.76 1.982-3.381 0-2.61-1.982-4.149-5.018-4.149h-5.446zm5.735 8.904c1.781 0 3.03.76 3.03 2.374 0 1.615-1.242 2.36-2.823 2.36h-3.278v-4.734h3.071zm-.649-6.556c1.526 0 2.692.593 2.692 2.084 0 1.504-1.173 2.23-2.547 2.23h-2.567v-4.314h2.422zM515.295 439.081h-2.947l-4.197 6.751-4.01-6.75h-3.154l5.756 9.338v6.66h2.692v-6.674l5.86-9.325zM371.205 471.52h6.212v-2.353h-6.212v-4.714h7.44v-2.368h-10.138v16h2.698v-6.564zM390.79 472.314c0 2.209-1.47 3.576-3.547 3.576-2.098 0-3.623-1.408-3.623-3.576v-10.229h-2.706v10.223c0 3.616 2.527 6.004 6.246 6.004 3.714 0 6.288-2.388 6.288-6.012v-10.215h-2.658v10.23zM399.478 466.365l7.378 11.72h2.96v-16h-2.573l.041 11.817-7.433-11.817h-2.927v16h2.595l-.04-11.72zM424.792 474.557c-1.063.8-2.644 1.326-4.107 1.326-3.21 0-5.487-2.513-5.487-5.785 0-3.312 2.34-5.845 5.542-5.845 1.387 0 2.906.476 4.052 1.339l1.208-1.885c-1.477-1.193-3.493-1.849-5.447-1.849-4.589 0-8.102 3.582-8.102 8.296 0 4.631 3.395 8.158 8.007 8.158 1.96 0 4.106-.641 5.562-1.822l-1.228-1.933zM439.11 462.085h-12.415v2.382h4.844v13.618h2.727v-13.618h4.845v-2.382zM441.248 462.085h2.72v15.999h-2.72zM454.78 478.312c4.665 0 8.186-3.527 8.186-8.255 0-4.735-3.534-8.199-8.158-8.199-4.625 0-8.207 3.458-8.207 8.22 0 4.707 3.5 8.234 8.18 8.234zm0-2.388c-3.147 0-5.431-2.47-5.431-5.839 0-3.382 2.298-5.832 5.431-5.832 3.127 0 5.418 2.45 5.418 5.832 0 3.361-2.278 5.84-5.418 5.84zM468.147 466.365l7.378 11.72h2.96v-16h-2.574l.042 11.817-7.434-11.817h-2.926v16h2.595l-.041-11.72z"/></g><g fill="#a09fad" fill-rule="nonzero"><path d="M679.176 623.936c4.117 0 6.43-2.871 6.43-6.667 0-3.733-2.238-6.666-6.413-6.666h-4.636v13.333h4.619zm-2.365-1.98v-9.375h2.094c2.813 0 4.434 1.428 4.434 4.7 0 3.174-1.524 4.675-4.491 4.675h-2.037zM692.082 623.936c4.118 0 6.43-2.871 6.43-6.667 0-3.733-2.238-6.666-6.413-6.666h-4.636v13.333h4.619zm-2.364-1.98v-9.375h2.094c2.812 0 4.434 1.428 4.434 4.7 0 3.174-1.524 4.675-4.492 4.675h-2.036zM700.37 623.936h2.266v-5.746h6.068v5.746h2.272v-13.333h-2.272v5.625h-6.068v-5.625h-2.266v13.333zM727.241 620.996c-.885.667-2.202 1.104-3.422 1.104-2.675 0-4.572-2.093-4.572-4.82 0-2.76 1.95-4.871 4.618-4.871 1.157 0 2.422.397 3.376 1.116l1.007-1.57c-1.23-.995-2.91-1.542-4.539-1.542-3.824 0-6.751 2.985-6.751 6.914 0 3.859 2.83 6.798 6.67 6.798 1.635 0 3.424-.534 4.637-1.519l-1.024-1.61zM737.795 619.127c0 1.84-1.225 2.979-2.956 2.979-1.749 0-3.02-1.173-3.02-2.98v-8.523h-2.254v8.518c0 3.014 2.105 5.004 5.205 5.004 3.094 0 5.24-1.99 5.24-5.01v-8.512h-2.215v8.524zM742.524 623.936h2.225v-5.005h2.122l2.876 5.005h2.67l-3.216-5.298c1.702-.598 2.726-2.047 2.726-3.893 0-2.394-1.72-4.142-4.584-4.142h-4.82v13.333zm2.225-6.977v-4.39h2.295c1.553 0 2.622.743 2.622 2.21 0 1.398-.977 2.18-2.622 2.18h-2.295zM762.35 623.936h2.443l-4.906-13.333h-2.6l-4.842 13.333h2.323l1.15-3.348h5.264l1.167 3.348zm-5.799-5.24l1.984-5.735 2.007 5.735h-3.99zM773.961 610.603h-10.347v1.984h4.038v11.349h2.271v-11.349h4.038v-1.984zM775.359 610.603h2.266v13.332h-2.266zM786.252 624.125c3.889 0 6.822-2.94 6.822-6.879 0-3.946-2.945-6.833-6.799-6.833-3.853 0-6.838 2.881-6.838 6.85 0 3.923 2.916 6.862 6.815 6.862zm0-1.99c-2.622 0-4.526-2.06-4.526-4.866 0-2.818 1.915-4.86 4.526-4.86 2.606 0 4.516 2.042 4.516 4.86 0 2.801-1.898 4.866-4.516 4.866zM797.008 614.17l6.148 9.766h2.467v-13.333h-2.145l.035 9.847-6.194-9.847h-2.44v13.333h2.164l-.035-9.766z"/></g><path d="M663.415 636.066c-1.853 1.858-2.362 4.513-2.362 7.182 0 2.664.509 5.314 2.362 7.172l.437-.365c-1.738-1.709-2.112-4.67-2.112-6.807 0-2.14.374-5.108 2.112-6.812l-.437-.37zM665.48 647.693h.676v-5.305h7.124v5.305h.677v-11.128h-.677v5.204h-7.124v-5.204h-.676v11.128zM679.694 647.851c2.266 0 4.032-1.68 4.032-4.099 0-2.4-1.742-4.042-3.994-4.042-2.266 0-4.013 1.665-4.013 4.08 0 2.395 1.723 4.061 3.975 4.061zm.005-.624c-1.911 0-3.317-1.416-3.317-3.442 0-2.05 1.435-3.45 3.355-3.45 1.915 0 3.327 1.4 3.327 3.421 0 2.041-1.445 3.471-3.365 3.471zM691.978 639.868h-.653v4.484c0 1.646-1.32 2.875-3.057 2.875-1.695 0-2.44-1.17-2.44-2.933v-4.426h-.652v4.724c0 2.002 1.147 3.26 3.13 3.26 1.282 0 2.237-.524 2.962-1.542l.105 1.383h.605v-7.825zM693.72 646.541l-.345.475c.61.427 1.536.835 2.674.835 1.536 0 2.808-.739 2.808-2.198 0-2.732-4.47-1.628-4.47-3.855 0-1.095 1.086-1.464 2.06-1.464.71 0 1.359.197 1.887.48l.303-.5a4.489 4.489 0 0 0-2.247-.604c-1.387 0-2.664.643-2.664 2.121 0 2.766 4.469 1.705 4.469 3.884 0 1.186-1.33 1.512-2.251 1.512-.86 0-1.546-.283-2.223-.686zM706.523 646.992l-.34-.475c-.769.451-1.48.71-2.392.71-2.015 0-3.22-1.272-3.321-3.23h6.797c.01-.073.02-.255.02-.433 0-2.14-1.436-3.854-3.644-3.854-2.126 0-3.84 1.593-3.84 4.133 0 2.592 1.786 4.008 3.955 4.008 1.027 0 2.006-.317 2.765-.859zm-6.033-3.61c.1-1.685 1.368-3.048 3.153-3.048 1.857 0 2.947 1.478 2.976 3.048h-6.13zM715.04 647.693h.604v-11.64l-.653.147v5.132l-.01.005c-.667-1.027-1.728-1.627-2.98-1.627-1.748 0-3.86 1.161-3.86 4.128 0 2.943 2.078 4.013 3.811 4.013 1.287 0 2.247-.59 2.981-1.632l.106 1.474zm-3.179-.466c-1.882 0-3.058-1.445-3.058-3.399 0-1.997 1.234-3.494 3.144-3.494 1.685 0 3.087 1.161 3.087 3.394 0 2.251-1.426 3.5-3.173 3.5zM722.053 637.885a.58.58 0 1 0-.581-.58c0 .321.26.58.581.58zm-.327 9.808h.653v-7.825h-.653v7.825zM731.39 647.693v-4.724c0-2.02-1.167-3.259-3.183-3.259-1.296 0-2.28.513-3.01 1.541l-.1-1.383h-.606v7.825h.653v-4.484c0-1.656 1.335-2.875 3.101-2.875 1.71 0 2.492 1.142 2.492 2.933v4.426h.653zM741.351 647.693c3.403 0 5.333-2.4 5.333-5.564 0-3.11-1.867-5.564-5.319-5.564h-3.639v11.128h3.625zm-2.948-.619v-9.889h2.693c2.953 0 4.902 1.704 4.902 4.934 0 3.183-1.887 4.955-4.974 4.955h-2.62zM748.695 647.693h6.61v-.619h-5.93v-4.68h5.04v-.62h-5.04v-4.589h5.77v-.62h-6.45v11.128zM764.625 646.397c-.8.461-1.81.83-2.99.83-2.83 0-4.93-2.136-4.93-5.055 0-2.957 2.16-5.14 4.99-5.14 1.13 0 2.07.35 2.92.85l.32-.5a5.864 5.864 0 0 0-3.26-.975c-3.22 0-5.65 2.491-5.65 5.77 0 3.221 2.35 5.674 5.56 5.674 1.21 0 2.43-.35 3.36-.955l-.32-.499zM770.195 647.693c3.4 0 5.34-2.4 5.34-5.564 0-3.11-1.87-5.564-5.32-5.564h-3.64v11.128h3.62zm-2.95-.619v-9.889h2.7c2.95 0 4.9 1.704 4.9 4.934 0 3.183-1.89 4.955-4.97 4.955h-2.63zM786.465 642.94c0 2.885-2.04 4.287-4.28 4.287-2.79 0-4.82-2.189-4.82-5.069 0-2.962 2.15-5.127 4.99-5.127 1.16 0 2.1.365 2.92.85l.32-.5a5.864 5.864 0 0 0-3.26-.974c-3.22 0-5.65 2.496-5.65 5.77 0 3.077 2.15 5.674 5.53 5.674 2.51 0 4.97-1.43 4.97-5.53h-4.31v.62h3.59zM791.305 639.868l2.86 7.825h.73l2.46-6.956 2.38 6.956h.74l2.95-7.825h-.67l-2.63 6.951-2.37-6.95h-.76l-2.45 6.941-2.54-6.942h-.7zM805.085 637.885a.58.58 0 1 0 0-1.16.58.58 0 0 0 0 1.16zm-.32 9.808h.65v-7.825h-.65v7.825zM806.435 640.454h1.54v4.925c0 1.618 1.16 2.347 2.43 2.472l.08-.576c-1.18-.288-1.86-.68-1.86-2.472v-4.349h2.19v-.586h-2.19v-2.74l-.65.148v2.592h-1.54v.586zM818.745 647.693v-4.724c0-2.05-1.19-3.259-3.23-3.259-1.33 0-2.36.518-3.1 1.598h-.01v-5.256l-.65.148v11.493h.65v-4.484c0-1.69 1.38-2.875 3.15-2.875 1.73 0 2.54 1.123 2.54 2.933v4.426h.65zM676.11 665.693v-4.724c0-2.02-1.166-3.259-3.182-3.259-1.297 0-2.281.513-3.01 1.541l-.101-1.383h-.605v7.825h.653v-4.484c0-1.656 1.334-2.875 3.1-2.875 1.71 0 2.492 1.142 2.492 2.933v4.426h.653zM681.535 665.851c2.266 0 4.032-1.68 4.032-4.099 0-2.4-1.742-4.042-3.994-4.042-2.266 0-4.013 1.665-4.013 4.08 0 2.395 1.723 4.061 3.975 4.061zm.005-.624c-1.911 0-3.317-1.416-3.317-3.442 0-2.05 1.435-3.45 3.355-3.45 1.915 0 3.327 1.4 3.327 3.421 0 2.041-1.445 3.471-3.365 3.471zM687.766 665.693v-4.407c0-1.565 1.06-2.952 2.683-2.952 1.57 0 2.132 1.305 2.132 2.933v4.426h.653v-4.407c0-1.594 1.089-2.952 2.698-2.952 1.588 0 2.117 1.33 2.117 2.933v4.426h.652v-4.724c0-1.838-.945-3.259-2.765-3.259-1.325 0-2.323.75-2.904 1.881-.374-1.195-1.334-1.88-2.611-1.88-1.143 0-1.964.551-2.597 1.525l-.106-1.368h-.605v7.825h.653zM701.044 655.885a.58.58 0 1 0 0-1.16.58.58 0 1 0 0 1.16zm-.326 9.808h.653v-7.825h-.653v7.825zM710.38 665.693v-4.724c0-2.02-1.166-3.259-3.183-3.259-1.296 0-2.28.513-3.01 1.541l-.1-1.383h-.605v7.825h.653v-4.484c0-1.656 1.334-2.875 3.101-2.875 1.71 0 2.491 1.142 2.491 2.933v4.426h.653zM718.791 665.328c-.375-.163-.476-.614-.476-1.527v-3.528c0-1.704-1.128-2.563-3.1-2.563-.97 0-1.983.206-2.77.638l.24.533a5.728 5.728 0 0 1 2.496-.552c1.521 0 2.481.523 2.481 2.223v.936c-.873-.178-1.694-.303-2.534-.303-2.415 0-3.46 1.037-3.46 2.453 0 1.503 1.175 2.213 2.663 2.213 1.651 0 2.928-.878 3.322-1.589h.01c0 1.143.446 1.59 1.041 1.59l.087-.524zm-1.129-3.23v.743c0 1.378-1.699 2.386-3.273 2.386-.96 0-2.06-.374-2.06-1.589 0-1.104.907-1.829 2.92-1.829.954 0 1.823.163 2.413.288zM719.237 658.454h1.536v4.925c0 1.618 1.167 2.347 2.43 2.472l.086-.576c-1.186-.288-1.863-.68-1.863-2.472v-4.349h2.19v-.586h-2.19v-2.74l-.653.148v2.592h-1.536v.586zM730.643 664.992l-.34-.475c-.769.451-1.479.71-2.39.71-2.018 0-3.223-1.272-3.323-3.23h6.797c.01-.073.02-.255.02-.433 0-2.14-1.436-3.854-3.644-3.854-2.127 0-3.84 1.593-3.84 4.133 0 2.592 1.785 4.008 3.955 4.008 1.027 0 2.007-.317 2.765-.859zm-6.034-3.61c.101-1.685 1.368-3.048 3.154-3.048 1.858 0 2.947 1.478 2.976 3.048h-6.13zM739.16 665.693h.604v-11.64l-.653.147v5.132l-.009.005c-.668-1.027-1.729-1.627-2.982-1.627-1.747 0-3.859 1.161-3.859 4.128 0 2.943 2.078 4.013 3.811 4.013 1.287 0 2.247-.59 2.982-1.632l.105 1.474zm-3.179-.466c-1.882 0-3.058-1.445-3.058-3.399 0-1.997 1.234-3.494 3.145-3.494 1.685 0 3.086 1.161 3.086 3.394 0 2.251-1.425 3.5-3.173 3.5zM746.49 665.693v-4.407c0-1.565 1.055-2.952 2.685-2.952 1.57 0 2.13 1.305 2.13 2.933v4.426h.65v-4.407c0-1.594 1.09-2.952 2.7-2.952 1.59 0 2.12 1.33 2.12 2.933v4.426h.65v-4.724c0-1.838-.95-3.259-2.76-3.259-1.33 0-2.33.75-2.91 1.881-.37-1.195-1.33-1.88-2.61-1.88-1.14 0-1.96.551-2.598 1.525l-.105-1.368h-.605v7.825h.653zM765.615 664.992l-.35-.475c-.76.451-1.47.71-2.39.71-2.01 0-3.22-1.272-3.32-3.23h6.8c.01-.073.02-.255.02-.433 0-2.14-1.44-3.854-3.64-3.854-2.13 0-3.85 1.593-3.85 4.133 0 2.592 1.79 4.008 3.96 4.008 1.03 0 2.01-.317 2.77-.859zm-6.04-3.61c.1-1.685 1.37-3.048 3.16-3.048 1.85 0 2.94 1.478 2.97 3.048h-6.13zM768.415 665.693v-4.407c0-1.565 1.06-2.952 2.68-2.952 1.57 0 2.13 1.305 2.13 2.933v4.426h.66v-4.407c0-1.594 1.09-2.952 2.69-2.952 1.59 0 2.12 1.33 2.12 2.933v4.426h.65v-4.724c0-1.838-.94-3.259-2.76-3.259-1.33 0-2.32.75-2.9 1.881-.38-1.195-1.34-1.88-2.62-1.88-1.14 0-1.96.551-2.59 1.525l-.11-1.368h-.6v7.825h.65zM781.975 665.693l.1-1.474c.73 1.042 1.7 1.632 2.98 1.632 1.73 0 3.81-1.07 3.81-4.013 0-2.967-2.11-4.128-3.86-4.128-1.25 0-2.31.6-2.98 1.627l-.01-.005v-5.28l-.65.148v11.493h.61zm3.17-.466c-1.74 0-3.17-1.248-3.17-3.499 0-2.233 1.4-3.394 3.09-3.394 1.91 0 3.14 1.497 3.14 3.494 0 1.954-1.17 3.4-3.06 3.4zM796.625 664.992l-.34-.475c-.77.451-1.48.71-2.4.71-2.01 0-3.22-1.272-3.32-3.23h6.8c.01-.073.02-.255.02-.433 0-2.14-1.44-3.854-3.64-3.854-2.13 0-3.84 1.593-3.84 4.133 0 2.592 1.78 4.008 3.95 4.008 1.03 0 2.01-.317 2.77-.859zm-6.04-3.61c.1-1.685 1.37-3.048 3.16-3.048 1.85 0 2.94 1.478 2.97 3.048h-6.13zM798.775 665.693h.65v-4.407c0-1.54 1.09-2.952 2.63-2.952.24 0 .47.033.67.086l.1-.619a3.02 3.02 0 0 0-.76-.09c-1.14 0-1.96.56-2.58 1.52l-.11-1.363h-.6v7.825zM803.245 664.541l-.35.475c.61.427 1.54.835 2.67.835 1.54 0 2.81-.739 2.81-2.198 0-2.732-4.47-1.628-4.47-3.855 0-1.095 1.09-1.464 2.06-1.464.71 0 1.36.197 1.89.48l.3-.5c-.6-.35-1.38-.604-2.24-.604-1.39 0-2.67.643-2.67 2.121 0 2.766 4.47 1.705 4.47 3.884 0 1.186-1.33 1.512-2.25 1.512-.86 0-1.55-.283-2.22-.686zM809.065 668.42c1.85-1.858 2.36-4.508 2.36-7.172 0-2.669-.51-5.324-2.36-7.182l-.44.37c1.74 1.704 2.12 4.671 2.12 6.812 0 2.136-.38 5.098-2.12 6.807l.44.365z" fill="#a09fad" fill-rule="nonzero"/><g><path d="M742.506 579.805h-2.08v10.92c0 .572-.47 1.037-1.045 1.037a1.034 1.034 0 0 1-1.035-1.037v-10.92h-2.09l3.125-6.225 3.125 6.225zm7.984 0h-2.09v3.14c0 2.288 1.87 4.149 4.17 4.149h6.508c.575 0 1.045.465 1.045 1.037 0 .573-.47 1.038-1.045 1.038h-6.508c-3.45 0-6.25-2.792-6.25-6.224v-3.14h-2.089l3.134-6.225 3.125 6.225zm-15.959 0h-2.08v3.139c0 3.432-2.808 6.224-6.259 6.224h-6.506a1.04 1.04 0 0 1-1.042-1.037 1.04 1.04 0 0 1 1.042-1.037h6.506c2.3 0 4.17-1.862 4.17-4.15v-3.14h-2.08l3.124-6.224 3.125 6.225zm22.477-19.725c-.115-6.503-5.742-11.76-12.643-11.76-4.715 0-9.057 2.518-11.224 6.458a6.803 6.803 0 0 0-2.99-.69c-3.499 0-6.36 2.615-6.523 5.888-4.371.916-7.5 4.57-7.5 8.843 0 5 4.3 9.068 9.585 9.068h2.358l3.335-6.642 3.336 6.642h1.304l3.335-6.642 3.336 6.642h1.313l3.335-6.642 3.326 6.642h3.777c5.281 0 9.585-4.068 9.585-9.068 0-4.127-2.876-7.665-7.045-8.74z" fill="#cad936" fill-rule="nonzero"/></g><g fill="#a09fad" fill-rule="nonzero"><path d="M45.485 630.563c4.119 0 6.43-2.871 6.43-6.667 0-3.733-2.236-6.666-6.412-6.666h-4.636v13.333h4.618zm-2.363-1.98v-9.375h2.093c2.813 0 4.435 1.428 4.435 4.7 0 3.174-1.524 4.675-4.492 4.675h-2.036zM58.392 630.563c4.118 0 6.43-2.871 6.43-6.667 0-3.733-2.237-6.666-6.412-6.666h-4.637v13.333h4.62zm-2.363-1.98v-9.375h2.093c2.812 0 4.434 1.428 4.434 4.7 0 3.174-1.524 4.675-4.491 4.675h-2.036zM66.68 630.563h2.266v-5.746h6.069v5.746h2.271V617.23h-2.271v5.625h-6.069v-5.625h-2.265v13.333zM90.083 630.752c3.889 0 6.822-2.94 6.822-6.879 0-3.946-2.945-6.833-6.799-6.833-3.853 0-6.838 2.881-6.838 6.85 0 3.923 2.916 6.862 6.815 6.862zm0-1.99c-2.622 0-4.526-2.06-4.526-4.866 0-2.818 1.915-4.86 4.526-4.86 2.606 0 4.516 2.042 4.516 4.86 0 2.801-1.898 4.866-4.516 4.866zM100.936 625.915h2.67c2.835 0 4.583-1.875 4.583-4.394 0-2.44-1.633-4.291-4.6-4.291H98.71v13.333h2.225v-4.648zm0-1.967v-4.751h2.365c1.65 0 2.64.845 2.64 2.353 0 1.49-.96 2.398-2.64 2.398h-2.365zM109.73 630.563h8.547v-1.974h-6.297v-3.767h5.343v-1.96h-5.343v-3.66h6.142v-1.972h-8.392v13.333zM120.084 630.563h2.226v-5.005h2.122l2.875 5.005h2.67l-3.216-5.298c1.702-.598 2.727-2.047 2.727-3.893 0-2.394-1.72-4.142-4.585-4.142h-4.819v13.333zm2.226-6.977v-4.39h2.294c1.553 0 2.623.743 2.623 2.21 0 1.398-.978 2.18-2.623 2.18h-2.294zM139.91 630.563h2.444l-4.907-13.333h-2.6l-4.842 13.333h2.324l1.15-3.348h5.263l1.168 3.348zm-5.798-5.24l1.984-5.735 2.008 5.735h-3.992zM151.522 617.23h-10.347v1.984h4.037v11.349h2.273v-11.349h4.037v-1.984zM152.92 617.23h2.265v13.332h-2.266zM163.813 630.752c3.888 0 6.821-2.94 6.821-6.879 0-3.946-2.944-6.833-6.798-6.833s-6.838 2.881-6.838 6.85c0 3.923 2.915 6.862 6.815 6.862zm0-1.99c-2.623 0-4.526-2.06-4.526-4.866 0-2.818 1.915-4.86 4.526-4.86 2.606 0 4.515 2.042 4.515 4.86 0 2.801-1.898 4.866-4.515 4.866zM174.569 620.797l6.148 9.766h2.467V617.23h-2.145l.034 9.847-6.194-9.847h-2.439v13.333h2.163l-.034-9.766zM185.824 627.41l-1.018 1.605c1.37 1.1 2.997 1.737 4.837 1.737 2.645 0 4.786-1.317 4.786-4.02 0-4.883-7.006-2.91-7.006-5.9 0-1.21 1.127-1.813 2.45-1.813 1.07 0 2.387.396 3.337 1.087l1-1.565c-1.219-.954-2.87-1.5-4.463-1.5-2.53 0-4.555 1.385-4.555 3.968 0 4.78 6.958 2.893 6.958 5.918 0 1.277-1.207 1.806-2.599 1.806-1.3 0-2.594-.46-3.727-1.323z"/></g><g fill="#a09fad" fill-rule="nonzero"><path d="M23.7 642.61c-1.777 1.781-2.265 4.325-2.265 6.883 0 2.555.488 5.094 2.264 6.874l.42-.35c-1.667-1.637-2.025-4.477-2.025-6.524 0-2.052.358-4.895 2.024-6.53l-.419-.353zM25.908 643.088l-.423 10.667h.616l.396-9.898 4.362 8.485h.53l4.31-8.471.41 9.884h.644l-.442-10.667h-.907l-4.265 8.38-4.311-8.38h-.92zM44.952 653.405c-.359-.157-.455-.59-.455-1.464v-3.381c0-1.634-1.082-2.458-2.973-2.458-.93 0-1.9.198-2.655.612l.23.511a5.488 5.488 0 0 1 2.394-.529c1.458 0 2.378.502 2.378 2.13v.897c-.837-.17-1.624-.29-2.43-.29-2.314 0-3.316.995-3.316 2.352 0 1.44 1.127 2.121 2.553 2.121 1.582 0 2.806-.842 3.184-1.523h.009c0 1.095.428 1.523.998 1.523l.083-.501zm-1.081-3.097v.713c0 1.32-1.629 2.287-3.138 2.287-.92 0-1.974-.36-1.974-1.523 0-1.058.87-1.753 2.798-1.753.915 0 1.748.156 2.314.276zM53.147 653.755v-4.528c0-1.937-1.118-3.125-3.05-3.125-1.243 0-2.186.493-2.885 1.477l-.097-1.325h-.58v7.5h.626v-4.297c0-1.588 1.279-2.757 2.973-2.757 1.638 0 2.387 1.096 2.387 2.811v4.244h.626zM61.209 653.405c-.36-.157-.456-.59-.456-1.464v-3.381c0-1.634-1.081-2.458-2.973-2.458-.928 0-1.9.198-2.655.612l.23.511a5.49 5.49 0 0 1 2.394-.529c1.458 0 2.379.502 2.379 2.13v.897c-.838-.17-1.625-.29-2.43-.29-2.315 0-3.317.995-3.317 2.352 0 1.44 1.127 2.121 2.553 2.121 1.583 0 2.807-.842 3.184-1.523h.01c0 1.095.427 1.523.998 1.523l.083-.501zm-1.081-3.097v.713c0 1.32-1.63 2.287-3.138 2.287-.92 0-1.975-.36-1.975-1.523 0-1.058.87-1.753 2.798-1.753.915 0 1.748.156 2.315.276zM69.477 646.254h-.58l-.1 1.412c-.705-.998-1.625-1.564-2.858-1.564-1.66 0-3.654 1.027-3.654 3.728 0 2.724 2.025 3.836 3.7 3.836 1.201 0 2.217-.575 2.857-1.56l.009.006v1.178c0 2.31-1.293 3.17-3.082 3.17-.865 0-1.482-.203-2.296-.714l-.332.456c.787.548 1.643.856 2.692.856 2.112 0 3.644-1.247 3.644-3.502v-7.302zm-3.543 6.814c-1.831 0-3.013-1.435-3.013-3.23 0-1.753 1.127-3.138 2.93-3.138 1.675 0 3.042 1.197 3.042 3.235 0 2.02-1.344 3.133-2.959 3.133zM77.414 653.083l-.327-.457c-.736.434-1.416.682-2.29.682-1.934 0-3.089-1.22-3.185-3.097h6.515c.01-.069.019-.243.019-.414 0-2.052-1.376-3.695-3.492-3.695-2.039 0-3.682 1.528-3.682 3.962 0 2.485 1.712 3.842 3.792 3.842.984 0 1.924-.304 2.65-.823zm-5.783-3.46c.096-1.616 1.31-2.923 3.023-2.923 1.78 0 2.824 1.418 2.852 2.923h-5.875zM85.577 653.755h.58v-11.16l-.626.144v4.919l-.009.004c-.64-.985-1.657-1.56-2.858-1.56-1.675 0-3.699 1.114-3.699 3.958 0 2.82 1.992 3.846 3.653 3.846 1.233 0 2.154-.566 2.858-1.564l.1 1.413zm-3.046-.447c-1.804 0-2.931-1.385-2.931-3.258 0-1.914 1.182-3.35 3.014-3.35 1.615 0 2.958 1.114 2.958 3.253 0 2.159-1.366 3.355-3.041 3.355zM92.566 653.755l.102-1.413c.703.998 1.623 1.564 2.857 1.564 1.661 0 3.653-1.027 3.653-3.846 0-2.844-2.025-3.958-3.699-3.958-1.201 0-2.218.575-2.857 1.56l-.01-.004v-5.062l-.626.143v11.016h.58zm3.046-.447c-1.674 0-3.041-1.196-3.041-3.355 0-2.14 1.344-3.253 2.959-3.253 1.83 0 3.013 1.436 3.013 3.35 0 1.873-1.127 3.258-2.93 3.258zM103.039 652.917l-2.65-6.663h-.681l2.986 7.496-.594 1.435c-.414.998-1.067 1.28-1.689 1.28-.156 0-.294-.019-.446-.056l-.092.557c.221.073.442.092.607.092.861 0 1.717-.492 2.099-1.427l3.846-9.377h-.653l-2.733 6.663zM114.868 653.755c3.263 0 5.113-2.302 5.113-5.333 0-2.982-1.79-5.334-5.098-5.334h-3.488v10.667h3.473zm-2.824-.595v-9.478h2.58c2.83 0 4.699 1.633 4.699 4.73 0 3.05-1.808 4.748-4.767 4.748h-2.512zM121.913 653.755h6.327v-.595h-5.678v-4.485h4.826v-.594h-4.826v-4.4h5.53v-.593h-6.179v10.667zM137.175 652.511c-.768.442-1.73.797-2.862.797-2.714 0-4.725-2.047-4.725-4.845 0-2.835 2.066-4.928 4.781-4.928 1.086 0 1.988.336 2.797.814l.304-.478a5.597 5.597 0 0 0-3.124-.934c-3.084 0-5.416 2.388-5.416 5.53 0 3.088 2.255 5.439 5.329 5.439 1.168 0 2.332-.335 3.225-.915l-.309-.48zM142.517 653.755c3.263 0 5.113-2.302 5.113-5.333 0-2.982-1.79-5.334-5.098-5.334h-3.488v10.667h3.473zm-2.825-.595v-9.478h2.582c2.83 0 4.697 1.633 4.697 4.73 0 3.05-1.807 4.748-4.766 4.748h-2.513zM158.11 649.199c0 2.765-1.96 4.109-4.099 4.109-2.673 0-4.62-2.098-4.62-4.859 0-2.839 2.057-4.914 4.777-4.914 1.113 0 2.015.349 2.802.814l.304-.478a5.6 5.6 0 0 0-3.125-.934c-3.087 0-5.415 2.392-5.415 5.53 0 2.95 2.062 5.439 5.3 5.439 2.407 0 4.767-1.372 4.767-5.3h-4.127v.593h3.437zM169.968 653.405c-.358-.157-.455-.59-.455-1.464v-3.381c0-1.634-1.081-2.458-2.972-2.458-.93 0-1.9.198-2.655.612l.23.511a5.486 5.486 0 0 1 2.392-.529c1.46 0 2.38.502 2.38 2.13v.897c-.838-.17-1.624-.29-2.43-.29-2.314 0-3.318.995-3.318 2.352 0 1.44 1.128 2.121 2.554 2.121 1.583 0 2.807-.842 3.185-1.523h.008c0 1.095.429 1.523.999 1.523l.082-.501zm-1.08-3.097v.713c0 1.32-1.63 2.287-3.139 2.287-.92 0-1.973-.36-1.973-1.523 0-1.058.869-1.753 2.797-1.753.916 0 1.749.156 2.314.276zM178.164 653.755v-4.528c0-1.937-1.119-3.125-3.051-3.125-1.243 0-2.186.493-2.885 1.477l-.096-1.325h-.58v7.5h.626v-4.297c0-1.588 1.278-2.757 2.972-2.757 1.638 0 2.388 1.096 2.388 2.811v4.244h.626zM186.188 653.755h.58v-11.16l-.626.144v4.919l-.01.004c-.639-.985-1.656-1.56-2.857-1.56-1.674 0-3.699 1.114-3.699 3.958 0 2.82 1.992 3.846 3.653 3.846 1.234 0 2.154-.566 2.857-1.564l.102 1.413zm-3.046-.447c-1.804 0-2.931-1.385-2.931-3.258 0-1.914 1.183-3.35 3.014-3.35 1.615 0 2.958 1.114 2.958 3.253 0 2.159-1.366 3.355-3.041 3.355zM192.943 643.088h.648v10.667h-.648zM203.01 643.088h-7.97v.594h3.664v10.073h.648v-10.073h3.659v-.594zM203.78 652.324l-.305.478a5.807 5.807 0 0 0 3.418 1.104c1.947 0 3.631-.953 3.631-2.908 0-3.708-6.074-2.13-6.074-5.269 0-1.384 1.188-2.194 2.78-2.194.856 0 1.822.234 2.737.805l.309-.474a5.625 5.625 0 0 0-3.092-.929c-1.983 0-3.396 1.086-3.396 2.861 0 3.677 6.074 2.145 6.074 5.246 0 1.357-1.165 2.264-2.982 2.264-1.178 0-2.2-.383-3.1-.984zM211.597 656.367c1.776-1.78 2.263-4.32 2.263-6.874 0-2.558-.487-5.102-2.263-6.883l-.419.354c1.666 1.634 2.024 4.477 2.024 6.53 0 2.046-.358 4.886-2.024 6.524l.419.35z"/></g><g><path d="M125.812 569.46a9.306 9.306 0 0 0-7.602 3.229c-3.354 3.884-2.95 9.749.917 13.122l.053.036c3.9 3.365 9.792 2.93 13.158-.97 3.367-3.901 2.93-9.793-.97-13.158a9.45 9.45 0 0 0-.759-.583 9.308 9.308 0 0 0-4.797-1.676m-.247-8.449c.645.046 1.278.096 1.922.142.343.015.556.307.582.547l.336 3.792c.886.208 1.77.51 2.61.9l2.61-2.77a.589.589 0 0 1 .777-.088l1.605 1.094a.62.62 0 0 1 .23.758l-1.606 3.457c.68.64 1.297 1.327 1.816 2.064l3.634-1.077a.601.601 0 0 1 .724.319c.283.58.563 1.164.846 1.746.16.303 0 .616-.193.758l-3.105 2.205c.264.88.447 1.787.529 2.699l3.686.882c.299.07.496.33.477.634-.046.644-.096 1.296-.141 1.94-.014.343-.308.539-.547.565l-3.792.352c-.21.887-.51 1.753-.9 2.594l2.752 2.61c.222.211.276.539.105.794l-1.094 1.605c-.183.289-.537.309-.758.212l-3.457-1.588c-.64.68-1.345 1.28-2.081 1.799l1.094 3.634a.6.6 0 0 1-.318.723c-.581.283-1.165.564-1.746.847-.304.158-.634 0-.776-.194l-2.188-3.105c-.88.263-1.787.447-2.698.53l-.882 3.686a.606.606 0 0 1-.635.476c-.644-.046-1.296-.096-1.94-.14-.342-.016-.539-.308-.565-.548l-.352-3.792a13.54 13.54 0 0 1-2.593-.9l-2.611 2.77a.61.61 0 0 1-.794.088l-1.604-1.094c-.29-.183-.31-.538-.212-.758l1.587-3.458a13.592 13.592 0 0 1-1.799-2.063l-3.634 1.076a.623.623 0 0 1-.74-.318c-.283-.58-.564-1.165-.847-1.745-.159-.304 0-.635.194-.777l3.104-2.187c-.262-.88-.429-1.789-.511-2.698l-3.704-.883a.606.606 0 0 1-.476-.635c.046-.644.095-1.295.14-1.94.015-.342.326-.538.565-.564l3.775-.353c.209-.887.51-1.751.9-2.593l-2.752-2.61a.612.612 0 0 1-.088-.794l1.076-1.606c.183-.288.556-.308.775-.21l3.458 1.587c.64-.68 1.327-1.28 2.063-1.8l-1.075-3.633a.6.6 0 0 1 .317-.724c.581-.281 1.147-.581 1.728-.863.304-.16.635.017.777.212l2.204 3.103a13.764 13.764 0 0 1 2.7-.529l.881-3.686a.605.605 0 0 1 .635-.477m-20.055-6.49a5.618 5.618 0 0 0-4.022 9.843l.018.016a5.615 5.615 0 1 0 6.88-8.854 5.57 5.57 0 0 0-2.876-1.006m-1.604-7.32a.68.68 0 0 1 .458.407l1.163 3.193a9.372 9.372 0 0 1 2.981.599l2.33-2.47a.611.611 0 0 1 .793-.088l1.605 1.076c.29.184.308.556.211.776l-1.41 3.087a9.269 9.269 0 0 1 1.658 2.54l3.403-.106a.6.6 0 0 1 .618.494c.122.634.248 1.27.37 1.905.075.334-.163.601-.388.687l-3.192 1.182a9.372 9.372 0 0 1-.6 2.981l2.451 2.328a.61.61 0 0 1 .089.794l-1.076 1.605c-.184.29-.556.31-.776.212l-3.087-1.429a9.256 9.256 0 0 1-2.522 1.677l.088 3.403a.6.6 0 0 1-.494.617c-.634.123-1.27.249-1.904.371-.335.074-.601-.163-.689-.388l-1.181-3.193a9.248 9.248 0 0 1-2.964-.617l-2.345 2.47a.588.588 0 0 1-.777.087l-1.604-1.075c-.29-.184-.31-.556-.212-.776l1.41-3.087a9.245 9.245 0 0 1-1.675-2.522l-3.386.088a.601.601 0 0 1-.618-.494c-.122-.634-.248-1.27-.37-1.905-.075-.334.164-.6.388-.688l3.193-1.181c.038-1.01.232-2.021.599-2.981l-2.47-2.329a.612.612 0 0 1-.088-.793l1.094-1.606c.184-.29.539-.308.758-.211l3.088 1.429a9.336 9.336 0 0 1 2.54-1.676l-.107-3.387a.62.62 0 0 1 .494-.635c.634-.122 1.27-.23 1.905-.352a.612.612 0 0 1 .248-.019" fill="#ee4558" fill-rule="nonzero"/></g><g><path d="M322.044 591.417c-.739.557-1.839.922-2.856.922-2.232 0-3.817-1.748-3.817-4.023 0-2.304 1.628-4.066 3.855-4.066.965 0 2.021.331 2.818.931l.84-1.31c-1.027-.831-2.429-1.287-3.787-1.287-3.193 0-5.636 2.491-5.636 5.77 0 3.221 2.362 5.674 5.568 5.674 1.364 0 2.857-.446 3.87-1.267l-.855-1.344zM331.151 592.718c-.409-.221-.529-.519-.529-1.133v-2.948c0-1.833-1.17-2.75-3.264-2.75-1.046 0-2.242.23-3.106.849l.552 1.22a4.88 4.88 0 0 1 2.242-.572c1.032 0 1.786.399 1.786 1.45v.399a9.108 9.108 0 0 0-1.747-.188c-2.175 0-3.399 1.042-3.399 2.569 0 1.55 1.272 2.414 2.79 2.414.97 0 1.977-.35 2.505-1.166.072.811.965 1.162 1.954 1.162l.216-1.306zm-2.319-2.204v.495c0 .955-1.123 1.579-2.079 1.579-.667 0-1.32-.302-1.32-1.085 0-.725.571-1.157 1.848-1.157a8.01 8.01 0 0 1 1.551.168zM334.29 586.045h-1.493v11.272l1.82-.336v-4.042c.58.758 1.483 1.089 2.443 1.089 2.304 0 3.61-1.843 3.61-4.07 0-2.444-1.546-4.071-3.615-4.071-1.05 0-2.01.427-2.616 1.277l-.149-1.119zm4.56 3.913c0 1.473-.859 2.467-2.145 2.467-1.32 0-2.146-1.042-2.146-2.443 0-1.297.696-2.506 2.117-2.506 1.262 0 2.174.955 2.174 2.482zM349.196 592.718c-.409-.221-.529-.519-.529-1.133v-2.948c0-1.833-1.17-2.75-3.264-2.75-1.046 0-2.242.23-3.106.849l.552 1.22a4.88 4.88 0 0 1 2.242-.572c1.032 0 1.786.399 1.786 1.45v.399a9.108 9.108 0 0 0-1.747-.188c-2.175 0-3.399 1.042-3.399 2.569 0 1.55 1.272 2.414 2.79 2.414.97 0 1.977-.35 2.505-1.166.072.811.965 1.162 1.954 1.162l.216-1.306zm-2.319-2.204v.495c0 .955-1.123 1.579-2.079 1.579-.667 0-1.32-.302-1.32-1.085 0-.725.571-1.157 1.848-1.157a8.01 8.01 0 0 1 1.551.168zM356.411 591.873a3.299 3.299 0 0 1-1.815.566c-1.378 0-2.38-1.008-2.38-2.486 0-1.484 1.017-2.482 2.4-2.482.623 0 1.286.201 1.8.538l.763-1.273c-.72-.547-1.733-.849-2.713-.849-2.237 0-4.07 1.555-4.07 4.119 0 2.678 2.001 4.022 4.046 4.022a4.72 4.72 0 0 0 2.842-.955l-.873-1.2zM359.555 584.677a1.136 1.136 0 1 0-.006-2.273 1.136 1.136 0 0 0 .006 2.273zm-.912 9.193h1.814v-7.825h-1.814v7.825zM361.74 587.586h1.372v3.668c0 2.059 1.671 2.774 3.293 2.774l.216-1.473c-1.06-.212-1.699-.456-1.699-1.839v-3.13h1.91v-1.541h-1.91v-2.741l-1.81.336v2.405h-1.373v1.541zM371.5 591.825l-2.08-5.78h-1.973l3.111 7.902-.226.561c-.374.936-.902 1.201-1.55 1.201-.25 0-.46-.039-.687-.097l-.235 1.45c.422.159.854.255 1.296.255 1.032 0 2.035-.519 2.607-1.93l3.792-9.342h-1.853l-2.203 5.78zM380.63 582.742v11.128h4.425c2.108 0 3.576-1.306 3.576-3.144 0-1.45-.916-2.434-2.102-2.746.84-.428 1.378-1.224 1.378-2.353 0-1.814-1.378-2.885-3.49-2.885h-3.788zm3.988 6.193c1.24 0 2.108.528 2.108 1.651 0 1.124-.864 1.642-1.964 1.642h-2.28v-3.293h2.136zm-.45-4.56c1.06 0 1.871.412 1.871 1.449 0 1.047-.816 1.551-1.77 1.551h-1.787v-3h1.685zM397.152 586.045h-1.819v4.378c0 1.186-.639 1.973-1.81 1.973-1.066 0-1.594-.643-1.594-1.694v-4.657h-1.819v4.743c0 1.944.955 3.24 2.895 3.24 1.003 0 1.915-.35 2.506-1.195l.144 1.037h1.497v-7.825zM400.138 584.677a1.136 1.136 0 0 0 0-2.271 1.135 1.135 0 1 0 0 2.271zm-.912 9.193h1.815v-7.825h-1.815v7.825zM403.076 592.127c0 1.287 1.032 1.901 2.146 1.901l.235-1.435c-.46-.235-.57-.542-.57-1.157v-9.207l-1.81.336v9.562zM413.052 593.87h1.492v-11.641l-1.819.336v4.411c-.58-.758-1.483-1.089-2.443-1.089-2.309 0-3.615 1.843-3.615 4.071 0 2.443 1.546 4.07 3.615 4.07 1.056 0 2.016-.427 2.616-1.277l.154 1.119zm-2.386-1.431c-1.263 0-2.175-.955-2.175-2.481 0-1.474.855-2.468 2.146-2.468 1.32 0 2.146 1.042 2.146 2.444 0 1.296-.696 2.505-2.117 2.505zM417.53 584.677a1.136 1.136 0 0 0 0-2.271 1.136 1.136 0 1 0 0 2.271zm-.912 9.193h1.815v-7.825h-1.815v7.825zM427.611 593.87v-4.757c0-1.921-.989-3.226-2.89-3.226-1.05 0-1.982.408-2.573 1.224l-.153-1.066h-1.493v7.825h1.824v-4.388c0-1.157.706-1.973 1.853-1.973 1.047 0 1.618.668 1.618 1.704v4.657h1.814zM437.016 586.045H435.5l-.149 1.09c-.548-.845-1.532-1.248-2.554-1.248-1.983 0-3.634 1.512-3.634 3.984 0 2.261 1.402 3.908 3.538 3.908.965 0 1.93-.346 2.501-1.109v.561c0 1.786-1.018 2.511-2.376 2.511a3.898 3.898 0 0 1-2.314-.763l-.845 1.152c.898.778 2.026 1.186 3.312 1.186 2.377 0 4.038-1.373 4.038-3.841v-7.431zm-3.894 6.164c-1.315 0-2.14-.975-2.14-2.343 0-1.363.815-2.386 2.145-2.386 1.335 0 2.108 1.028 2.108 2.358 0 1.305-.745 2.371-2.113 2.371zM438.38 595.656l.34.835c1.387-.413 2.491-1.877 2.491-3.245 0-.826-.403-1.56-1.214-1.56-.706 0-1.162.557-1.162 1.161 0 .73.658.941.658 1.575 0 .624-.639.979-1.114 1.234zM451.187 593.87c3.437 0 5.366-2.396 5.366-5.564 0-3.115-1.867-5.564-5.352-5.564h-3.869v11.128h3.855zm-1.973-1.651v-7.825h1.747c2.347 0 3.701 1.19 3.701 3.922 0 2.65-1.272 3.903-3.749 3.903h-1.699zM464.921 592.948l-.82-1.128a3.601 3.601 0 0 1-2.137.725c-1.3 0-2.189-.773-2.319-2.05h5.746c.02-.153.04-.422.04-.672 0-2.232-1.418-3.936-3.693-3.936-2.184 0-3.917 1.579-3.917 4.119 0 2.611 1.814 4.022 4.027 4.022 1.181 0 2.305-.403 3.073-1.08zm-5.252-3.687c.163-1.128.96-1.877 2.064-1.877 1.181 0 1.834.855 1.925 1.877h-3.989zM467.883 586.045h-1.959l2.957 7.825h1.824l3.068-7.825h-1.839l-2.083 5.886-1.968-5.886zM481.401 592.948l-.82-1.128a3.601 3.601 0 0 1-2.137.725c-1.3 0-2.189-.773-2.319-2.05h5.746c.02-.153.04-.422.04-.672 0-2.232-1.418-3.936-3.693-3.936-2.184 0-3.917 1.579-3.917 4.119 0 2.611 1.814 4.022 4.027 4.022 1.181 0 2.305-.403 3.073-1.08zm-5.252-3.687c.163-1.128.96-1.877 2.064-1.877 1.181 0 1.834.855 1.925 1.877h-3.989zM483.393 592.127c0 1.287 1.032 1.901 2.146 1.901l.235-1.435c-.461-.235-.571-.542-.571-1.157v-9.207l-1.81.336v9.562zM491.007 594.028c2.289 0 4.07-1.656 4.07-4.09 0-2.429-1.766-4.051-4.051-4.051-2.3 0-4.061 1.646-4.061 4.075 0 2.425 1.756 4.066 4.042 4.066zm0-1.589c-1.273 0-2.223-1.041-2.223-2.481 0-1.455.965-2.468 2.237-2.468 1.272 0 2.223 1.018 2.223 2.458 0 1.45-.975 2.491-2.237 2.491zM498.178 586.045h-1.493v11.272l1.82-.336v-4.042c.581.758 1.483 1.089 2.443 1.089 2.305 0 3.61-1.843 3.61-4.07 0-2.444-1.545-4.071-3.614-4.071-1.052 0-2.012.427-2.617 1.277l-.149-1.119zm4.561 3.913c0 1.473-.859 2.467-2.146 2.467-1.32 0-2.146-1.042-2.146-2.443 0-1.297.696-2.506 2.117-2.506 1.263 0 2.175.955 2.175 2.482zM508.015 593.87v-4.388c0-1.109.556-1.973 1.68-1.973 1.008 0 1.43.682 1.43 1.704v4.657h1.805v-4.388c0-1.128.538-1.982 1.685-1.973 1.008.005 1.431.668 1.431 1.704v4.657h1.819v-4.757c0-1.916-.806-3.226-2.722-3.226-1.061 0-2.035.417-2.602 1.296-.456-.859-1.377-1.296-2.347-1.296-.955 0-1.853.427-2.357 1.219l-.149-1.061h-1.493v7.825h1.82zM526.506 592.948l-.821-1.128a3.597 3.597 0 0 1-2.136.725c-1.301 0-2.189-.773-2.319-2.05h5.747c.019-.153.038-.422.038-.672 0-2.232-1.416-3.936-3.692-3.936-2.184 0-3.917 1.579-3.917 4.119 0 2.611 1.815 4.022 4.028 4.022 1.181 0 2.304-.403 3.072-1.08zm-5.252-3.687c.164-1.128.96-1.877 2.065-1.877 1.18 0 1.833.855 1.925 1.877h-3.99zM535.64 593.87v-4.757c0-1.921-.988-3.226-2.89-3.226-1.05 0-1.981.408-2.572 1.224l-.153-1.066h-1.493v7.825h1.824v-4.388c0-1.157.706-1.973 1.853-1.973 1.047 0 1.618.668 1.618 1.704v4.657h1.814zM536.832 587.586h1.373v3.668c0 2.059 1.67 2.774 3.293 2.774l.216-1.473c-1.061-.212-1.7-.456-1.7-1.839v-3.13h1.91v-1.541h-1.91v-2.741l-1.81.336v2.405h-1.372v1.541zM306.642 610.87h1.857v-4.177h1.772l2.4 4.177h2.228l-2.684-4.421c1.421-.5 2.275-1.709 2.275-3.25 0-1.997-1.435-3.457-3.826-3.457h-4.022v11.128zm1.857-5.823v-3.663h1.916c1.296 0 2.19.619 2.19 1.844 0 1.166-.817 1.819-2.19 1.819H308.5zM322.646 609.948l-.82-1.128a3.602 3.602 0 0 1-2.137.725c-1.3 0-2.189-.773-2.318-2.05h5.746c.02-.153.038-.422.038-.672 0-2.232-1.416-3.936-3.69-3.936-2.185 0-3.918 1.579-3.918 4.12 0 2.61 1.814 4.021 4.027 4.021 1.181 0 2.304-.403 3.072-1.08zm-5.25-3.687c.162-1.128.96-1.877 2.063-1.877 1.181 0 1.834.855 1.925 1.877h-3.989zM332.118 603.045h-1.493l-.154 1.119c-.6-.85-1.56-1.277-2.616-1.277-2.064 0-3.61 1.627-3.61 4.071 0 2.227 1.306 4.07 3.61 4.07.96 0 1.863-.33 2.443-1.089v4.378l1.82-.336v-10.936zm-3.908 6.38c-1.29 0-2.146-.994-2.146-2.467 0-1.527.913-2.482 2.175-2.482 1.421 0 2.117 1.209 2.117 2.506 0 1.401-.826 2.443-2.146 2.443zM341.138 603.045h-1.819v4.378c0 1.186-.639 1.973-1.81 1.973-1.066 0-1.594-.643-1.594-1.694v-4.657h-1.819v4.743c0 1.944.955 3.24 2.894 3.24 1.004 0 1.916-.35 2.506-1.195l.144 1.037h1.498v-7.825zM344.124 601.677a1.136 1.136 0 1 0-.006-2.273 1.136 1.136 0 0 0 .006 2.273zm-.912 9.193h1.814v-7.825h-1.814v7.825zM347.1 610.87h1.81v-3.423c0-1.541.341-2.866 1.886-2.866.29 0 .557.043.841.13l.283-1.675a3.673 3.673 0 0 0-1.032-.149c-1.042 0-1.68.427-2.122 1.358l-.015-.005-.158-1.195H347.1v7.825zM359.442 609.948l-.82-1.128a3.597 3.597 0 0 1-2.137.725c-1.3 0-2.189-.773-2.319-2.05h5.747c.02-.153.038-.422.038-.672 0-2.232-1.416-3.936-3.692-3.936-2.184 0-3.917 1.579-3.917 4.12 0 2.61 1.815 4.021 4.028 4.021 1.181 0 2.304-.403 3.072-1.08zm-5.252-3.687c.164-1.128.961-1.877 2.065-1.877 1.181 0 1.833.855 1.925 1.877h-3.99zM363.287 610.87v-4.388c0-1.109.557-1.973 1.681-1.973 1.008 0 1.43.682 1.43 1.704v4.657h1.805v-4.388c0-1.128.538-1.982 1.685-1.973 1.008.005 1.431.668 1.431 1.704v4.657h1.82v-4.757c0-1.916-.808-3.226-2.723-3.226-1.06 0-2.035.417-2.602 1.296-.456-.859-1.378-1.296-2.347-1.296-.956 0-1.853.427-2.357 1.219l-.149-1.061h-1.493v7.825h1.82zM381.78 609.948l-.822-1.128a3.601 3.601 0 0 1-2.136.725c-1.3 0-2.189-.773-2.319-2.05h5.746c.02-.153.04-.422.04-.672 0-2.232-1.417-3.936-3.693-3.936-2.184 0-3.917 1.579-3.917 4.12 0 2.61 1.814 4.021 4.027 4.021 1.181 0 2.305-.403 3.073-1.08zm-5.253-3.687c.163-1.128.96-1.877 2.064-1.877 1.181 0 1.834.855 1.925 1.877h-3.989zM390.914 610.87v-4.757c0-1.921-.989-3.226-2.89-3.226-1.05 0-1.982.408-2.573 1.224l-.153-1.066h-1.493v7.825h1.824v-4.388c0-1.157.705-1.973 1.853-1.973 1.046 0 1.618.668 1.618 1.704v4.657h1.814zM392.105 604.586h1.373v3.668c0 2.06 1.67 2.774 3.293 2.774l.216-1.473c-1.06-.212-1.7-.456-1.7-1.839v-3.13h1.911v-1.541h-1.91v-2.741l-1.81.336v2.405h-1.373v1.541zM398.806 608.782l-.81 1.094c.945.72 1.785 1.152 3.076 1.152 1.733 0 3.101-.768 3.101-2.429 0-2.88-4.119-1.89-4.119-3.427 0-.591.605-.84 1.253-.84.605 0 1.344.216 1.935.59l.681-1.133c-.724-.566-1.675-.902-2.73-.902-1.595 0-2.915.758-2.915 2.41 0 2.9 4.09 1.83 4.09 3.38 0 .647-.696.868-1.397.868-.82 0-1.493-.302-2.165-.763zM405.032 612.656l.341.835c1.387-.413 2.492-1.877 2.492-3.245 0-.826-.404-1.56-1.215-1.56-.706 0-1.162.557-1.162 1.161 0 .73.658.941.658 1.575 0 .624-.638.98-1.114 1.234zM417.84 610.87c3.437 0 5.367-2.396 5.367-5.564 0-3.115-1.867-5.564-5.353-5.564h-3.869v11.128h3.855zm-1.973-1.65v-7.826h1.747c2.348 0 3.702 1.19 3.702 3.922 0 2.65-1.273 3.903-3.75 3.903h-1.699zM431.69 609.718c-.409-.22-.529-.519-.529-1.133v-2.948c0-1.833-1.17-2.75-3.264-2.75-1.047 0-2.242.23-3.106.849l.552 1.22a4.88 4.88 0 0 1 2.242-.572c1.032 0 1.786.399 1.786 1.45v.399a9.11 9.11 0 0 0-1.748-.188c-2.174 0-3.398 1.042-3.398 2.57 0 1.55 1.272 2.413 2.79 2.413.968 0 1.977-.35 2.505-1.166.072.811.964 1.162 1.953 1.162l.216-1.306zm-2.319-2.204v.495c0 .955-1.124 1.58-2.079 1.58-.667 0-1.32-.303-1.32-1.086 0-.725.571-1.157 1.848-1.157a8.02 8.02 0 0 1 1.551.168zM432.453 604.586h1.373v3.668c0 2.06 1.67 2.774 3.293 2.774l.216-1.473c-1.06-.212-1.7-.456-1.7-1.839v-3.13h1.911v-1.541h-1.91v-2.741l-1.81.336v2.405h-1.373v1.541zM445.817 609.718c-.408-.22-.528-.519-.528-1.133v-2.948c0-1.833-1.17-2.75-3.264-2.75-1.047 0-2.242.23-3.106.849l.552 1.22a4.88 4.88 0 0 1 2.242-.572c1.032 0 1.786.399 1.786 1.45v.399a9.11 9.11 0 0 0-1.748-.188c-2.174 0-3.399 1.042-3.399 2.57 0 1.55 1.273 2.413 2.79 2.413.97 0 1.977-.35 2.505-1.166.072.811.965 1.162 1.954 1.162l.216-1.306zm-2.318-2.204v.495c0 .955-1.124 1.58-2.079 1.58-.667 0-1.32-.303-1.32-1.086 0-.725.571-1.157 1.848-1.157a8.02 8.02 0 0 1 1.551.168zM451.741 610.87h1.858v-4.177h1.771l2.4 4.177h2.228l-2.684-4.421c1.421-.5 2.276-1.709 2.276-3.25 0-1.997-1.436-3.457-3.826-3.457h-4.023v11.128zm1.858-5.823v-3.663h1.915c1.296 0 2.19.619 2.19 1.844 0 1.166-.817 1.819-2.19 1.819H453.6zM467.746 609.948l-.82-1.128a3.601 3.601 0 0 1-2.137.725c-1.3 0-2.189-.773-2.319-2.05h5.746c.02-.153.04-.422.04-.672 0-2.232-1.418-3.936-3.693-3.936-2.184 0-3.917 1.579-3.917 4.12 0 2.61 1.814 4.021 4.027 4.021 1.181 0 2.305-.403 3.073-1.08zm-5.252-3.687c.163-1.128.96-1.877 2.064-1.877 1.181 0 1.834.855 1.925 1.877h-3.989zM477.217 603.045h-1.493l-.153 1.119c-.6-.85-1.56-1.277-2.617-1.277-2.064 0-3.61 1.627-3.61 4.071 0 2.227 1.306 4.07 3.61 4.07.96 0 1.863-.33 2.444-1.089v4.378l1.82-.336v-10.936zm-3.907 6.38c-1.292 0-2.146-.994-2.146-2.467 0-1.527.912-2.482 2.174-2.482 1.421 0 2.117 1.209 2.117 2.506 0 1.401-.825 2.443-2.145 2.443zM486.237 603.045h-1.819v4.378c0 1.186-.639 1.973-1.81 1.973-1.066 0-1.594-.643-1.594-1.694v-4.657h-1.819v4.743c0 1.944.955 3.24 2.895 3.24 1.003 0 1.915-.35 2.505-1.195l.144 1.037h1.498v-7.825zM489.223 601.677a1.136 1.136 0 1 0-.007-2.273 1.136 1.136 0 0 0 .007 2.273zm-.912 9.193h1.815v-7.825h-1.815v7.825zM492.199 610.87h1.81v-3.423c0-1.541.341-2.866 1.887-2.866.288 0 .557.043.84.13l.283-1.675a3.673 3.673 0 0 0-1.032-.149c-1.042 0-1.68.427-2.122 1.358l-.014-.005-.159-1.195h-1.493v7.825zM504.541 609.948l-.82-1.128a3.602 3.602 0 0 1-2.137.725c-1.301 0-2.189-.773-2.318-2.05h5.746c.019-.153.038-.422.038-.672 0-2.232-1.416-3.936-3.691-3.936-2.184 0-3.917 1.579-3.917 4.12 0 2.61 1.814 4.021 4.027 4.021 1.181 0 2.304-.403 3.072-1.08zm-5.251-3.687c.163-1.128.96-1.877 2.064-1.877 1.181 0 1.834.855 1.925 1.877h-3.989zM508.387 610.87v-4.388c0-1.109.557-1.973 1.68-1.973 1.008 0 1.43.682 1.43 1.704v4.657h1.805v-4.388c0-1.128.538-1.982 1.685-1.973 1.008.005 1.431.668 1.431 1.704v4.657h1.819v-4.757c0-1.916-.806-3.226-2.722-3.226-1.061 0-2.035.417-2.601 1.296-.457-.859-1.378-1.296-2.348-1.296-.955 0-1.853.427-2.357 1.219l-.149-1.061h-1.493v7.825h1.82zM526.878 609.948l-.821-1.128a3.597 3.597 0 0 1-2.136.725c-1.301 0-2.189-.773-2.319-2.05h5.747c.019-.153.038-.422.038-.672 0-2.232-1.416-3.936-3.692-3.936-2.184 0-3.917 1.579-3.917 4.12 0 2.61 1.815 4.021 4.028 4.021 1.181 0 2.304-.403 3.072-1.08zm-5.252-3.687c.164-1.128.96-1.877 2.065-1.877 1.181 0 1.833.855 1.925 1.877h-3.99zM536.013 610.87v-4.757c0-1.921-.988-3.226-2.89-3.226-1.051 0-1.982.408-2.573 1.224l-.153-1.066h-1.493v7.825h1.824v-4.388c0-1.157.706-1.973 1.853-1.973 1.047 0 1.618.668 1.618 1.704v4.657h1.814zM537.204 604.586h1.373v3.668c0 2.06 1.67 2.774 3.293 2.774l.216-1.473c-1.061-.212-1.7-.456-1.7-1.839v-3.13h1.91v-1.541h-1.91v-2.741l-1.81.336v2.405h-1.372v1.541zM543.905 608.782l-.811 1.094c.946.72 1.786 1.152 3.077 1.152 1.733 0 3.1-.768 3.1-2.429 0-2.88-4.117-1.89-4.117-3.427 0-.591.604-.84 1.252-.84.605 0 1.345.216 1.935.59l.682-1.133c-.725-.566-1.676-.902-2.732-.902-1.594 0-2.914.758-2.914 2.41 0 2.9 4.09 1.83 4.09 3.38 0 .647-.696.868-1.397.868-.82 0-1.493-.302-2.165-.763z" fill="#7cb042" fill-rule="nonzero"/></g><g><path d="M325.21 539.627c3.437 0 5.367-2.395 5.367-5.564 0-3.115-1.868-5.563-5.353-5.563h-3.869v11.127h3.855zm-1.973-1.65v-7.826h1.747c2.348 0 3.701 1.191 3.701 3.922 0 2.65-1.272 3.903-3.749 3.903h-1.699zM338.944 538.705l-.82-1.128a3.597 3.597 0 0 1-2.137.725c-1.3 0-2.189-.773-2.319-2.05h5.747c.02-.153.038-.422.038-.672 0-2.232-1.416-3.936-3.692-3.936-2.184 0-3.917 1.58-3.917 4.12 0 2.61 1.815 4.022 4.028 4.022 1.181 0 2.304-.404 3.072-1.08zm-5.252-3.686c.164-1.128.96-1.877 2.065-1.877 1.181 0 1.833.854 1.925 1.877h-3.99zM340.936 537.885c0 1.286 1.032 1.901 2.146 1.901l.235-1.436c-.46-.235-.57-.542-.57-1.157v-9.207l-1.81.336v9.563zM345.881 530.434a1.136 1.136 0 1 0-.006-2.272 1.136 1.136 0 0 0 .006 2.272zm-.912 9.193h1.814v-7.825h-1.814v7.825zM350.043 531.802h-1.959l2.957 7.825h1.824l3.068-7.825h-1.839l-2.083 5.886-1.968-5.886zM363.561 538.705l-.82-1.128a3.597 3.597 0 0 1-2.137.725c-1.3 0-2.189-.773-2.319-2.05h5.746a5.84 5.84 0 0 0 .04-.672c0-2.232-1.417-3.936-3.693-3.936-2.184 0-3.917 1.58-3.917 4.12 0 2.61 1.815 4.022 4.028 4.022 1.181 0 2.304-.404 3.072-1.08zm-5.252-3.686c.163-1.128.96-1.877 2.064-1.877 1.181 0 1.834.854 1.925 1.877h-3.989zM365.592 539.627h1.81v-3.423c0-1.54.34-2.865 1.886-2.865.288 0 .557.043.84.13l.283-1.676a3.673 3.673 0 0 0-1.032-.149c-1.042 0-1.68.427-2.122 1.36l-.014-.006-.158-1.196h-1.493v7.825zM374.79 537.582l-2.079-5.78h-1.973l3.11 7.902-.225.562c-.375.936-.903 1.2-1.55 1.2-.25 0-.462-.039-.687-.096l-.235 1.45c.422.158.854.254 1.296.254 1.032 0 2.035-.519 2.606-1.93l3.793-9.342h-1.853l-2.204 5.78zM387.19 539.786c2.29 0 4.07-1.657 4.07-4.09 0-2.429-1.767-4.052-4.052-4.052-2.299 0-4.06 1.647-4.06 4.076 0 2.424 1.756 4.066 4.041 4.066zm0-1.589c-1.273 0-2.224-1.042-2.224-2.482 0-1.455.965-2.468 2.237-2.468 1.272 0 2.223 1.018 2.223 2.458 0 1.45-.975 2.492-2.237 2.492zM392.028 533.343h1.392v6.284h1.82v-6.284h1.992v-1.54h-1.993v-.754c0-1.004.26-1.522 1.263-1.522.331 0 .662.058.96.11l.216-1.459c-.466-.106-.94-.192-1.469-.192-1.776 0-2.789.955-2.789 2.731v1.085h-1.392v1.541zM406.242 539.627c3.437 0 5.367-2.395 5.367-5.564 0-3.115-1.867-5.563-5.353-5.563h-3.869v11.127h3.855zm-1.973-1.65v-7.826h1.747c2.348 0 3.702 1.191 3.702 3.922 0 2.65-1.273 3.903-3.75 3.903h-1.699zM419.976 538.705l-.82-1.128a3.597 3.597 0 0 1-2.137.725c-1.3 0-2.189-.773-2.319-2.05h5.747c.02-.153.038-.422.038-.672 0-2.232-1.416-3.936-3.692-3.936-2.184 0-3.917 1.58-3.917 4.12 0 2.61 1.815 4.022 4.028 4.022 1.181 0 2.304-.404 3.072-1.08zm-5.252-3.686c.164-1.128.961-1.877 2.065-1.877 1.181 0 1.833.854 1.925 1.877h-3.99zM422.938 531.802h-1.958l2.957 7.825h1.824l3.067-7.825h-1.838l-2.084 5.886-1.968-5.886zM436.456 538.705l-.82-1.128a3.597 3.597 0 0 1-2.137.725c-1.3 0-2.189-.773-2.318-2.05h5.746c.02-.153.038-.422.038-.672 0-2.232-1.416-3.936-3.69-3.936-2.186 0-3.919 1.58-3.919 4.12 0 2.61 1.815 4.022 4.028 4.022 1.181 0 2.304-.404 3.072-1.08zm-5.25-3.686c.162-1.128.96-1.877 2.063-1.877 1.181 0 1.834.854 1.925 1.877h-3.989zM438.448 537.885c0 1.286 1.033 1.901 2.146 1.901l.235-1.436c-.46-.235-.57-.542-.57-1.157v-9.207l-1.81.336v9.563zM446.062 539.786c2.29 0 4.071-1.657 4.071-4.09 0-2.429-1.767-4.052-4.052-4.052-2.299 0-4.06 1.647-4.06 4.076 0 2.424 1.756 4.066 4.041 4.066zm0-1.589c-1.272 0-2.223-1.042-2.223-2.482 0-1.455.965-2.468 2.237-2.468 1.273 0 2.223 1.018 2.223 2.458 0 1.45-.974 2.492-2.237 2.492zM453.234 531.802h-1.493v11.272l1.82-.336v-4.042c.58.758 1.483 1.09 2.443 1.09 2.304 0 3.61-1.844 3.61-4.07 0-2.445-1.546-4.072-3.615-4.072-1.05 0-2.01.427-2.616 1.277l-.149-1.119zm4.56 3.913c0 1.474-.859 2.467-2.145 2.467-1.32 0-2.146-1.04-2.146-2.443 0-1.296.696-2.506 2.117-2.506 1.262 0 2.174.955 2.174 2.482zM463.07 539.627v-4.387c0-1.109.557-1.973 1.68-1.973 1.008 0 1.431.681 1.431 1.704v4.656h1.805v-4.387c0-1.129.537-1.983 1.685-1.973 1.008.004 1.43.667 1.43 1.704v4.656h1.82v-4.757c0-1.915-.807-3.226-2.722-3.226-1.06 0-2.036.418-2.602 1.296-.456-.859-1.378-1.296-2.347-1.296-.956 0-1.853.427-2.357 1.22l-.149-1.062h-1.493v7.825h1.82zM481.562 538.705l-.82-1.128a3.602 3.602 0 0 1-2.138.725c-1.3 0-2.189-.773-2.318-2.05h5.746c.02-.153.038-.422.038-.672 0-2.232-1.416-3.936-3.69-3.936-2.185 0-3.918 1.58-3.918 4.12 0 2.61 1.814 4.022 4.027 4.022 1.181 0 2.304-.404 3.073-1.08zm-5.252-3.686c.163-1.128.96-1.877 2.064-1.877 1.181 0 1.834.854 1.925 1.877h-3.989zM490.697 539.627v-4.757c0-1.92-.989-3.226-2.89-3.226-1.051 0-1.983.408-2.573 1.224l-.154-1.066h-1.493v7.825h1.825v-4.387c0-1.157.705-1.973 1.853-1.973 1.046 0 1.617.667 1.617 1.704v4.656h1.815zM491.887 533.343h1.373v3.668c0 2.06 1.671 2.775 3.293 2.775l.216-1.474c-1.06-.21-1.699-.456-1.699-1.839v-3.13h1.911v-1.54h-1.911v-2.742l-1.81.336v2.405h-1.373v1.541zM506.495 539.627c3.437 0 5.367-2.395 5.367-5.564 0-3.115-1.867-5.563-5.352-5.563h-3.87v11.127h3.855zm-1.973-1.65v-7.826h1.748c2.347 0 3.701 1.191 3.701 3.922 0 2.65-1.272 3.903-3.749 3.903h-1.7zM520.345 538.475c-.408-.22-.528-.518-.528-1.133v-2.947c0-1.834-1.172-2.75-3.265-2.75-1.046 0-2.242.23-3.106.85l.552 1.218a4.88 4.88 0 0 1 2.242-.57c1.032 0 1.786.397 1.786 1.448v.4a9.105 9.105 0 0 0-1.747-.188c-2.175 0-3.399 1.041-3.399 2.568 0 1.551 1.272 2.415 2.789 2.415.97 0 1.978-.35 2.506-1.167.072.811.965 1.162 1.954 1.162l.216-1.306zm-2.319-2.203v.494c0 .955-1.123 1.58-2.079 1.58-.667 0-1.32-.303-1.32-1.085 0-.725.572-1.157 1.848-1.157.572 0 1.167.086 1.551.168zM521.108 533.343h1.373v3.668c0 2.06 1.67 2.775 3.293 2.775l.216-1.474c-1.061-.21-1.699-.456-1.699-1.839v-3.13h1.91v-1.54h-1.91v-2.742l-1.81.336v2.405h-1.373v1.541zM534.472 538.475c-.408-.22-.528-.518-.528-1.133v-2.947c0-1.834-1.171-2.75-3.264-2.75-1.046 0-2.242.23-3.106.85l.552 1.218a4.88 4.88 0 0 1 2.242-.57c1.032 0 1.786.397 1.786 1.448v.4a9.116 9.116 0 0 0-1.748-.188c-2.174 0-3.398 1.041-3.398 2.568 0 1.551 1.272 2.415 2.789 2.415.969 0 1.978-.35 2.506-1.167.072.811.965 1.162 1.953 1.162l.216-1.306zm-2.318-2.203v.494c0 .955-1.123 1.58-2.08 1.58-.666 0-1.319-.303-1.319-1.085 0-.725.57-1.157 1.848-1.157.572 0 1.167.086 1.55.168z" fill="#ee4558" fill-rule="nonzero"/></g><g><path d="M183.106 387.44l9.241 6.199 2.466-3.676c1.174-1.75.908-3.698-.618-4.722-1.204-.808-2.532-.594-3.452.217.112-.936-.249-1.826-1.186-2.455-1.507-1.01-3.164-.463-4.34 1.29l-2.11 3.147zm7.365.137c.69-1.03 1.613-1.457 2.546-.831.933.626.882 1.632.27 2.546l-1.27 1.893-2.736-1.834 1.19-1.774zm-4.038-2.166c.591-.881 1.385-1.325 2.246-.747.87.583.834 1.541.302 2.334l-.995 1.484-2.492-1.672.94-1.399zM195.054 375.558l-1.014 1.51 3.636 2.44c.985.66 1.283 1.628.63 2.602-.594.885-1.422.965-2.294.38l-3.868-2.595-1.013 1.511 3.939 2.642c1.614 1.083 3.222 1.012 4.303-.599.559-.833.776-1.785.404-2.747l.941.458.834-1.243-6.498-4.36zM206.018 373.26l.832-1.24-9.668-6.486-.734 1.698 3.663 2.457c-.953.06-1.73.626-2.266 1.423-1.286 1.918-.482 4.028 1.368 5.27 2.029 1.36 4.24.984 5.393-.734.588-.877.769-1.912.398-2.885l1.014.496zm-2.517 1.184c-.704 1.048-2.005 1.273-3.272.423-1.224-.821-1.574-2.084-.854-3.157.735-1.096 2.06-1.201 3.225-.42 1.076.722 1.692 1.973.9 3.154zM205.64 359.775l-.844 1.259.823.731c-1.007-.016-1.89.577-2.46 1.426-1.104 1.647-.768 3.86 1.284 5.237 1.878 1.26 4.027 1.013 5.217-.761.537-.801.788-1.796.472-2.695l.466.313c1.483.995 1.518 2.244.762 3.372a3.898 3.898 0 0 1-1.923 1.496l.486 1.344c1.146-.313 2.114-1.022 2.83-2.09 1.324-1.973 1.109-4.117-.941-5.492l-6.171-4.14zm2.951 6.667c-.732 1.092-2.002 1.235-3.138.473-1.132-.76-1.527-2.007-.786-3.112.743-1.108 2.027-1.177 3.132-.436 1.083.727 1.554 1.939.792 3.075zM216.23 356.38l-1.394.054a3.597 3.597 0 0 1-.588 2.178c-.725 1.08-1.861 1.387-2.994.784l3.201-4.773a6.112 6.112 0 0 0-.537-.406c-1.853-1.243-4.057-1.017-5.325.873-1.217 1.814-.87 4.133 1.239 5.548 2.168 1.454 4.35.733 5.584-1.105.658-.98.949-2.137.814-3.152zm-5.988 2.308c-.845-.764-1.024-1.843-.408-2.76.658-.981 1.731-1.046 2.631-.553l-2.223 3.313zM212.467 352.365l.765-1.14 3.046 2.043c1.71 1.147 3.234.158 4.139-1.19l-1.103-1c-.768.763-1.326 1.158-2.475.388l-2.599-1.744 1.065-1.587-1.28-.858-1.065 1.587-2.276-1.527-.729 1.69 1.997 1.339-.764 1.14 1.28.859zM222.386 352.064l.883.183c.43-1.383-.17-3.115-1.306-3.877-.686-.46-1.52-.534-1.973.14-.393.585-.184 1.274.318 1.61.606.407 1.147-.02 1.674.333.518.347.457 1.075.404 1.611zM226.72 334.607c1.398 1.018 1.58 2.754.631 4.17-1.238 1.846-3.594 1.964-5.38.766-1.883-1.263-2.53-3.564-1.251-5.47.56-.833 1.434-1.518 2.343-1.82l-.617-1.432c-1.263.39-2.422 1.3-3.187 2.44-1.795 2.675-1.066 6.06 1.693 7.91 2.575 1.728 5.842 1.4 7.787-1.499 1.826-2.723.934-5.442-2.188-7.536l-2.663 3.97 1.26.845 1.572-2.344zM229.583 324.083l-1.013 1.51 3.636 2.44c.985.66 1.282 1.629.63 2.601-.594.886-1.422.966-2.295.38l-3.867-2.594-1.014 1.51 3.94 2.643c1.614 1.083 3.222 1.012 4.303-.6.558-.832.776-1.785.403-2.745l.941.458.835-1.244-6.499-4.36zM230.11 320.84a1.136 1.136 0 1 0-1.89-1.26 1.136 1.136 0 0 0 1.89 1.26zm7.127 5.88l1.011-1.508-6.498-4.359-1.011 1.507 6.498 4.36zM242.714 318.555l.831-1.24-9.667-6.485-.734 1.698 3.663 2.457c-.953.06-1.73.625-2.266 1.423-1.286 1.918-.483 4.028 1.368 5.27 2.028 1.36 4.24.984 5.393-.734.589-.878.769-1.913.397-2.885l1.015.496zm-2.517 1.184c-.704 1.049-2.005 1.274-3.272.424-1.224-.821-1.574-2.084-.854-3.157.735-1.096 2.06-1.202 3.225-.42 1.076.721 1.692 1.973.9 3.153zM247.579 309.234c-.41.216-.725.15-1.235-.192l-2.448-1.643c-1.523-1.02-2.936-.56-4.102 1.179-.584.87-1.058 1.99-1.026 3.052l1.321.222a4.878 4.878 0 0 1 .774-2.18c.575-.858 1.326-1.261 2.199-.676l.331.223a9.09 9.09 0 0 0-1.13 1.346c-1.211 1.806-1.028 3.403.24 4.254 1.288.863 2.714.288 3.559-.972.54-.805.811-1.837.428-2.73.713.392 1.502-.154 2.053-.976l-.964-.907zm-3.122.698l.41.276c.794.532.687 1.812.155 2.605-.373.555-.987.928-1.637.492-.602-.404-.643-1.119.069-2.179.318-.474.722-.92 1.003-1.194zM253.413 302.605l-3.95-2.65c-1.595-1.07-3.23-.976-4.29.602-.585.873-.764 1.874-.416 2.82l-.971-.467-.831 1.24 6.498 4.358 1.016-1.514-3.644-2.445c-.96-.644-1.246-1.685-.606-2.638.583-.869 1.455-.97 2.316-.393l3.867 2.594 1.011-1.507zM255.959 295.225c.009.624-.19 1.3-.54 1.822-.768 1.145-2.164 1.416-3.392.593-1.232-.827-1.494-2.228-.724-3.376a3.392 3.392 0 0 1 1.45-1.195l-.633-1.343c-.855.293-1.67.965-2.215 1.78-1.247 1.857-.977 4.246 1.152 5.675 2.224 1.491 4.456.578 5.595-1.12a4.72 4.72 0 0 0 .79-2.893l-1.483.057zM261.684 288.62l-1.394.053a3.599 3.599 0 0 1-.588 2.178c-.725 1.08-1.861 1.387-2.994.784l3.2-4.772a5.84 5.84 0 0 0-.536-.407c-1.853-1.243-4.057-1.016-5.325.874-1.217 1.814-.87 4.132 1.239 5.547 2.168 1.455 4.35.734 5.584-1.104.657-.98.948-2.138.814-3.153zm-5.988 2.308c-.846-.764-1.024-1.843-.409-2.76.658-.98 1.732-1.047 2.632-.553l-2.223 3.313zM264.671 289.028l.883.182c.43-1.382-.17-3.114-1.307-3.876-.686-.46-1.52-.535-1.972.139-.393.586-.184 1.275.317 1.612.607.406 1.148-.023 1.675.33.518.348.457 1.077.404 1.613zM265.988 276.895l1.242-1.85c1.318-1.966.831-4.05-.914-5.22-1.691-1.134-3.734-.864-5.114 1.193l-2.268 3.381 9.241 6.2 1.035-1.543-3.222-2.16zm-1.363-.915l-3.293-2.208 1.1-1.639c.767-1.144 1.813-1.437 2.858-.736 1.032.692 1.215 1.78.434 2.945l-1.1 1.638zM273.392 272.82l1.009-1.502-2.843-1.907c-1.28-.859-2.19-1.88-1.329-3.164.16-.239.347-.438.576-.625l-1.233-1.168a3.673 3.673 0 0 0-.7.774c-.58.865-.58 1.633-.053 2.519l-.012.009-1.081-.534-.832 1.24 6.498 4.359zM269.564 262.026a1.135 1.135 0 1 0-1.89-1.26 1.135 1.135 0 0 0 1.89 1.26zm7.126 5.88l1.01-1.508-6.498-4.359-1.01 1.507 6.498 4.36zM280.982 261.79c1.276-1.902.893-4.303-1.129-5.66-2.017-1.352-4.348-.789-5.621 1.109-1.28 1.91-.895 4.29 1.122 5.643 2.014 1.35 4.355.806 5.628-1.092zm-1.32-.885c-.708 1.056-2.102 1.266-3.298.464-1.208-.81-1.512-2.177-.804-3.233.71-1.057 2.084-1.279 3.28-.477 1.204.808 1.526 2.197.823 3.246zM284.017 256.982l1.009-1.504-2.843-1.906c-1.28-.859-2.19-1.88-1.33-3.163.161-.24.347-.438.576-.625l-1.233-1.169a3.673 3.673 0 0 0-.699.774c-.58.865-.58 1.634-.053 2.518l-.013.01-1.08-.534-.832 1.24 6.498 4.359zM280.188 246.187a1.136 1.136 0 1 0-1.89-1.26 1.136 1.136 0 0 0 1.89 1.26zm7.127 5.88l1.01-1.507-6.498-4.36-1.01 1.507 6.498 4.36zM283.82 245.994l.766-1.14 3.046 2.043c1.71 1.147 3.234.158 4.138-1.189l-1.103-1c-.767.763-1.325 1.157-2.474.387l-2.599-1.744 1.064-1.586-1.28-.859-1.064 1.586-2.276-1.526-.73 1.69 1.998 1.34-.765 1.14 1.28.858zM285.523 238.234a1.136 1.136 0 1 0-1.89-1.26 1.136 1.136 0 0 0 1.89 1.26zm7.127 5.879l1.01-1.507-6.498-4.359-1.01 1.507 6.498 4.359zM297.754 234.849l-1.394.053a3.601 3.601 0 0 1-.588 2.178c-.725 1.08-1.861 1.387-2.994.784l3.2-4.772a6.077 6.077 0 0 0-.536-.407c-1.853-1.243-4.058-1.016-5.325.873-1.217 1.814-.87 4.133 1.239 5.548 2.168 1.454 4.35.734 5.583-1.104.658-.98.95-2.138.815-3.153zm-5.988 2.307c-.846-.764-1.024-1.843-.409-2.76.658-.98 1.732-1.046 2.632-.552l-2.223 3.312zM298.04 232.33l.456 1.283c1.125-.385 1.952-.842 2.671-1.914.966-1.44 1.09-3.003-.29-3.928-2.391-1.605-3.864 2.367-5.14 1.511-.49-.329-.36-.97 0-1.508.337-.503.928-.996 1.568-1.279l-.561-1.196c-.874.286-1.682.888-2.27 1.765-.889 1.324-.995 2.842.377 3.763 2.408 1.615 3.798-2.378 5.085-1.514.538.36.334 1.062-.057 1.644-.457.682-1.082 1.071-1.84 1.373zM304.725 229.317l.884.182c.43-1.382-.17-3.115-1.307-3.877-.686-.46-1.52-.533-1.972.14-.394.586-.185 1.275.316 1.612.607.406 1.149-.022 1.675.33.518.348.458 1.076.404 1.613zM237.186 355.244c-.41.216-.725.15-1.235-.193l-2.448-1.642c-1.522-1.021-2.936-.56-4.102 1.179-.583.87-1.058 1.99-1.025 3.052l1.32.221a4.878 4.878 0 0 1 .774-2.18c.575-.857 1.327-1.261 2.2-.676l.33.223a9.11 9.11 0 0 0-1.13 1.347c-1.21 1.805-1.027 3.403.24 4.253 1.288.864 2.715.288 3.56-.972.54-.805.81-1.837.427-2.73.713.392 1.502-.154 2.053-.975l-.964-.907zm-3.121.697l.41.276c.794.532.686 1.813.154 2.606-.372.554-.986.928-1.637.492-.602-.404-.642-1.119.069-2.18a8.02 8.02 0 0 1 1.004-1.194zM243.02 348.614l-3.95-2.65c-1.595-1.07-3.23-.976-4.289.603-.585.873-.765 1.873-.417 2.819l-.97-.467-.832 1.24 6.498 4.359 1.016-1.515-3.644-2.444c-.96-.645-1.245-1.686-.606-2.638.583-.869 1.456-.972 2.317-.395l3.867 2.595 1.01-1.507zM247.436 342.032l.832-1.24-9.668-6.485-.735 1.699 3.664 2.457c-.953.06-1.73.625-2.266 1.422-1.286 1.918-.483 4.03 1.367 5.27 2.03 1.361 4.241.984 5.394-.735.588-.877.769-1.912.397-2.883l1.015.495zm-2.518 1.184c-.703 1.05-2.004 1.275-3.272.424-1.224-.82-1.573-2.084-.854-3.157.736-1.096 2.061-1.201 3.225-.42 1.077.722 1.693 1.973.901 3.153zM249.61 334.068l.64 1.452c1.396-.438 2.596-1.27 3.452-2.545 1.23-1.834 1.312-3.929-.562-5.186-3.385-2.27-5.274 3.503-7.347 2.112-.838-.562-.732-1.624-.117-2.54.497-.742 1.385-1.47 2.305-1.807l-.619-1.422c-1.229.402-2.375 1.292-3.116 2.396-1.177 1.754-1.157 3.802.633 5.002 3.313 2.223 5.24-3.478 7.338-2.071.885.594.69 1.676.042 2.641-.604.901-1.525 1.584-2.649 1.968zM250.935 325.536l.765-1.14 3.046 2.043c1.71 1.147 3.235.157 4.138-1.19l-1.102-1c-.767.763-1.326 1.157-2.475.387l-2.599-1.744 1.065-1.587-1.28-.858-1.065 1.587-2.276-1.527-.73 1.69 1.998 1.34-.765 1.14 1.28.859zM259.764 323.654l1.008-1.503-2.842-1.907c-1.28-.858-2.19-1.88-1.33-3.163.16-.239.347-.438.577-.626l-1.234-1.168a3.673 3.673 0 0 0-.698.774c-.58.865-.582 1.634-.055 2.519l-.012.01-1.08-.535-.832 1.24 6.498 4.359zM265.889 312.455c-.411.216-.725.15-1.235-.192l-2.448-1.643c-1.523-1.02-2.937-.558-4.103 1.18-.583.869-1.057 1.99-1.025 3.052l1.321.22a4.877 4.877 0 0 1 .773-2.179c.575-.857 1.327-1.26 2.2-.675l.33.222a9.1 9.1 0 0 0-1.129 1.346c-1.211 1.806-1.028 3.403.24 4.254 1.288.863 2.714.288 3.559-.972.54-.805.811-1.837.428-2.73.713.392 1.502-.154 2.053-.976l-.964-.907zm-3.122.698l.41.276c.794.532.686 1.812.154 2.606-.372.554-.986.928-1.637.492-.602-.404-.642-1.12.07-2.18.318-.474.721-.92 1.003-1.194zM262.052 308.963l.765-1.14 3.046 2.043c1.71 1.147 3.235.158 4.138-1.19l-1.103-1c-.767.764-1.325 1.158-2.474.387l-2.599-1.744 1.064-1.586-1.28-.858-1.064 1.586-2.276-1.527-.73 1.69 1.998 1.34-.765 1.14 1.28.859zM273.781 301.102l-1.394.054a3.597 3.597 0 0 1-.588 2.178c-.724 1.08-1.86 1.387-2.994.783l3.202-4.772a6.112 6.112 0 0 0-.537-.406c-1.854-1.244-4.058-1.017-5.326.873-1.216 1.814-.87 4.133 1.239 5.548 2.168 1.454 4.351.733 5.584-1.105.658-.98.949-2.138.814-3.153zm-5.987 2.308c-.846-.765-1.024-1.843-.409-2.76.658-.981 1.731-1.046 2.631-.553l-2.222 3.313zM273.314 289.407l-.845 1.26.823.73c-1.007-.015-1.89.577-2.46 1.426-1.104 1.647-.768 3.86 1.285 5.237 1.878 1.26 4.026 1.014 5.216-.76.538-.802.787-1.795.472-2.695l.466.312c1.484.995 1.519 2.244.761 3.373a3.897 3.897 0 0 1-1.922 1.496l.486 1.343c1.146-.311 2.114-1.022 2.83-2.09 1.324-1.973 1.109-4.117-.94-5.492l-6.172-4.14zm2.95 6.667c-.732 1.092-2.002 1.235-3.138.473-1.132-.76-1.527-2.007-.786-3.111.743-1.108 2.027-1.177 3.132-.437 1.084.727 1.555 1.94.792 3.075zM273.839 286.17a1.136 1.136 0 0 0-1.886-1.265 1.135 1.135 0 1 0 1.886 1.265zm7.126 5.878l1.011-1.507-6.498-4.36-1.011 1.508 6.498 4.36zM286.07 282.784l-1.395.054a3.597 3.597 0 0 1-.588 2.177c-.724 1.08-1.861 1.388-2.993.783l3.2-4.772a6.112 6.112 0 0 0-.536-.405c-1.854-1.244-4.058-1.017-5.325.872-1.217 1.815-.871 4.134 1.238 5.548 2.168 1.455 4.351.734 5.584-1.104.658-.98.949-2.138.814-3.153zm-5.988 2.307c-.846-.764-1.024-1.843-.409-2.76.658-.98 1.732-1.047 2.631-.553l-2.222 3.313zM286.356 280.264l.456 1.284c1.125-.384 1.951-.841 2.671-1.914.966-1.44 1.09-3.003-.29-3.929-2.391-1.604-3.865 2.368-5.14 1.512-.491-.33-.36-.97 0-1.509.337-.502.928-.995 1.568-1.277l-.561-1.198c-.874.287-1.683.889-2.27 1.766-.889 1.324-.995 2.842.377 3.762 2.408 1.615 3.798-2.377 5.085-1.514.538.361.334 1.062-.057 1.645-.457.681-1.082 1.071-1.84 1.372z" fill="#00a9be" fill-rule="nonzero"/></g><g><path d="M256.739 403.799l1.25-1.844c1.329-1.96.852-4.045-.887-5.225-1.686-1.143-3.73-.882-5.12 1.168l-2.285 3.369 9.21 6.246 1.042-1.537-3.21-2.177zm-1.36-.922l-3.281-2.225 1.107-1.633c.774-1.14 1.822-1.428 2.863-.722 1.029.698 1.206 1.787.419 2.947l-1.107 1.633zM264.163 399.762l1.016-1.498-2.833-1.921c-1.276-.865-2.18-1.891-1.313-3.17.162-.239.348-.437.579-.623l-1.227-1.174c-.266.22-.5.472-.703.77-.585.863-.59 1.63-.067 2.519l-.012.009-1.078-.54-.838 1.236 6.476 4.392zM269.5 392.174c1.285-1.895.914-4.298-1.1-5.665-2.011-1.363-4.345-.81-5.628 1.08-1.29 1.903-.917 4.285 1.094 5.649 2.007 1.36 4.351.828 5.633-1.064zm-1.316-.891c-.714 1.052-2.109 1.255-3.3.447-1.205-.817-1.502-2.184-.788-3.237s2.09-1.268 3.282-.46c1.2.814 1.515 2.205.806 3.25zM270.248 376.848l-.852 1.255.819.735c-1.006-.021-1.892.567-2.466 1.413-1.113 1.64-.788 3.856 1.258 5.243 1.871 1.27 4.02 1.034 5.22-.734.541-.798.796-1.791.486-2.693l.464.315c1.478 1.003 1.507 2.252.744 3.377a3.897 3.897 0 0 1-1.93 1.486l.48 1.346c1.147-.306 2.118-1.011 2.84-2.076 1.334-1.966 1.13-4.111-.913-5.497l-6.15-4.17zm2.916 6.681c-.738 1.089-2.008 1.225-3.14.457-1.128-.765-1.517-2.014-.77-3.115.748-1.104 2.033-1.167 3.133-.42 1.08.732 1.545 1.946.777 3.078zM277.885 379.527l1.016-1.498-2.833-1.921c-1.275-.865-2.18-1.89-1.313-3.17.162-.239.348-.436.58-.623l-1.228-1.174c-.265.22-.5.473-.703.77-.584.863-.59 1.63-.067 2.519l-.012.009-1.078-.54-.838 1.236 6.476 4.392zM284.067 368.36c-.412.213-.726.145-1.234-.2l-2.44-1.654c-1.517-1.029-2.933-.574-4.108 1.158-.588.867-1.068 1.985-1.04 3.047l1.319.228a4.878 4.878 0 0 1 .785-2.176c.579-.855 1.332-1.254 2.202-.664l.33.224a9.09 9.09 0 0 0-1.136 1.34c-1.221 1.8-1.046 3.398.218 4.255 1.283.87 2.712.303 3.564-.953.544-.803.82-1.833.441-2.728.712.395 1.503-.147 2.058-.965l-.96-.912zm-3.126.682l.41.278c.79.536.676 1.815.14 2.606-.375.553-.99.923-1.639.483-.6-.407-.637-1.122.08-2.178.32-.473.727-.917 1.01-1.189zM286.966 366.138l-3.632-2.463c-.918-.623-1.32-1.568-.69-2.498.566-.834 1.368-.801 2.213-.228l3.855 2.614 1.013-1.494-3.632-2.463c-.933-.633-1.339-1.557-.687-2.502.57-.831 1.355-.808 2.213-.227l3.854 2.614 1.021-1.505-3.937-2.67c-1.586-1.076-3.122-1.144-4.197.44-.596.88-.798 1.92-.388 2.882-.967-.105-1.846.413-2.39 1.216-.536.79-.687 1.773-.314 2.635l-.962-.473-.838 1.236 6.476 4.392 1.022-1.506zM299.732 347.313l1.145-1.688-11.509-2.857-1.218 1.796 6.942 9.591 1.088-1.604-1.773-2.364 2.465-3.635 2.86.761zm-6.336 1.55l-3.031-4.056 4.901 1.3-1.87 2.757zM299.89 343.36l.45 1.286c1.126-.378 1.955-.831 2.68-1.9.973-1.435 1.105-2.998-.27-3.93-2.383-1.617-3.877 2.348-5.148 1.485-.489-.331-.356-.972.008-1.508.34-.5.933-.991 1.575-1.27l-.556-1.2c-.875.282-1.687.88-2.28 1.754-.894 1.32-1.008 2.837.36 3.764 2.4 1.628 3.81-2.358 5.092-1.488.536.364.328 1.064-.065 1.644-.46.68-1.088 1.066-1.847 1.363zM303.904 337.44l.45 1.286c1.127-.378 1.956-.831 2.68-1.9.973-1.434 1.106-2.998-.269-3.93-2.384-1.617-3.877 2.347-5.148 1.485-.49-.331-.356-.972.008-1.508.339-.5.933-.991 1.574-1.27l-.555-1.2c-.876.282-1.687.88-2.28 1.755-.894 1.318-1.008 2.836.36 3.763 2.399 1.628 3.809-2.358 5.092-1.488.536.364.328 1.065-.065 1.644-.461.68-1.088 1.066-1.847 1.363zM312.491 326.856l-1.394.046c.039.74-.162 1.53-.599 2.175-.73 1.076-1.868 1.378-2.998.768l3.225-4.756a6.112 6.112 0 0 0-.534-.409c-1.848-1.252-4.053-1.037-5.33.847-1.226 1.807-.892 4.128 1.21 5.554 2.161 1.465 4.348.755 5.59-1.077.663-.977.96-2.133.83-3.148zm-6 2.277c-.84-.769-1.013-1.849-.394-2.763.663-.977 1.737-1.037 2.634-.54l-2.24 3.303zM312.79 324.337l.45 1.286c1.127-.378 1.956-.831 2.68-1.9.973-1.434 1.106-2.998-.269-3.93-2.384-1.617-3.877 2.347-5.148 1.485-.49-.331-.356-.972.008-1.508.339-.5.933-.991 1.574-1.27l-.555-1.2c-.876.282-1.687.88-2.28 1.755-.894 1.318-1.008 2.836.36 3.763 2.399 1.627 3.809-2.358 5.092-1.488.536.364.328 1.064-.065 1.644-.461.68-1.088 1.066-1.847 1.363zM316.804 318.418l.45 1.285c1.127-.378 1.956-.831 2.681-1.9.973-1.434 1.105-2.997-.27-3.93-2.383-1.616-3.877 2.348-5.148 1.486-.49-.332-.356-.972.008-1.508.34-.501.933-.992 1.574-1.27l-.554-1.201c-.876.282-1.688.88-2.28 1.755-.895 1.319-1.009 2.837.359 3.764 2.399 1.627 3.809-2.358 5.092-1.488.536.363.328 1.063-.065 1.644-.46.679-1.088 1.066-1.847 1.363zM323.442 312.35l-3.632-2.462c-.918-.623-1.32-1.568-.69-2.498.566-.834 1.367-.8 2.213-.227l3.854 2.614 1.014-1.494-3.632-2.463c-.934-.633-1.339-1.558-.687-2.502.57-.832 1.356-.81 2.213-.228l3.854 2.614 1.021-1.505-3.937-2.67c-1.585-1.076-3.122-1.144-4.197.442-.595.877-.797 1.918-.388 2.88-.967-.105-1.846.413-2.39 1.216-.536.79-.687 1.773-.314 2.635l-.962-.473-.838 1.236 6.476 4.392 1.022-1.506zM333.057 296.53l-1.394.046c.039.74-.162 1.53-.599 2.175-.73 1.076-1.868 1.377-2.998.768l3.225-4.756a6.112 6.112 0 0 0-.534-.409c-1.848-1.252-4.053-1.037-5.33.847-1.226 1.807-.892 4.128 1.21 5.553 2.161 1.466 4.348.756 5.59-1.076.663-.977.96-2.133.83-3.148zm-6 2.277c-.84-.769-1.013-1.849-.394-2.763.663-.977 1.737-1.037 2.634-.54l-2.24 3.303zM338.948 289.486l-3.937-2.67c-1.59-1.078-3.225-.992-4.292.581-.59.87-.775 1.87-.431 2.816l-.969-.47-.838 1.235 6.476 4.392 1.024-1.51-3.632-2.462c-.957-.65-1.236-1.692-.592-2.641.587-.867 1.46-.964 2.318-.383l3.854 2.614 1.019-1.502zM334.415 284.974l.77-1.137 3.036 2.06c1.705 1.155 3.234.173 4.145-1.17l-1.098-1.005c-.771.76-1.331 1.15-2.476.374l-2.59-1.757 1.072-1.58-1.276-.865-1.072 1.58-2.268-1.538-.738 1.687 1.99 1.35-.77 1.136 1.275.865zM341.65 281.782l.45 1.286c1.126-.379 1.955-.831 2.68-1.9.972-1.434 1.104-2.997-.27-3.93-2.384-1.616-3.877 2.347-5.148 1.485-.489-.332-.356-.971.008-1.508.34-.5.933-.992 1.574-1.27l-.555-1.2c-.875.282-1.687.88-2.28 1.755-.894 1.318-1.008 2.837.36 3.764 2.399 1.627 3.809-2.359 5.091-1.489.537.364.329 1.064-.064 1.644-.46.68-1.088 1.066-1.847 1.363zM283.357 399.695c-.412.214-.726.146-1.234-.199l-2.44-1.654c-1.517-1.029-2.933-.574-4.109 1.159-.587.865-1.067 1.983-1.04 3.046l1.32.228a4.877 4.877 0 0 1 .784-2.176c.58-.855 1.333-1.254 2.203-.664l.33.224a9.09 9.09 0 0 0-1.136 1.34c-1.221 1.8-1.046 3.398.218 4.255 1.283.87 2.712.302 3.563-.953.545-.803.821-1.834.442-2.729.712.396 1.503-.146 2.058-.965l-.96-.912zm-3.126.683l.41.277c.79.536.676 1.816.14 2.607-.375.552-.99.923-1.639.483-.6-.407-.637-1.122.08-2.179.32-.472.726-.916 1.009-1.188zM289.225 393.095l-3.937-2.67c-1.59-1.078-3.225-.992-4.292.581-.59.87-.776 1.87-.432 2.817l-.968-.47-.838 1.235 6.476 4.392 1.024-1.51-3.631-2.464c-.958-.649-1.238-1.69-.593-2.64.587-.866 1.46-.964 2.318-.382l3.854 2.613 1.019-1.502zM293.673 386.535l.838-1.234-9.635-6.534-.743 1.694 3.651 2.476c-.953.055-1.734.616-2.272 1.41-1.296 1.911-.504 4.027 1.34 5.277 2.022 1.371 4.236 1.005 5.397-.707.593-.874.778-1.909.412-2.882l1.012.5zm-2.523 1.172c-.71 1.045-2.011 1.264-3.274.408-1.22-.828-1.563-2.093-.839-3.162.741-1.092 2.067-1.191 3.228-.404 1.072.727 1.682 1.982.885 3.158zM298.073 380.048l1.043-1.538-3.457-2.345.994-1.465 4.804.358 1.25-1.844-5.165-.26c.384-1.457-.137-2.843-1.412-3.708-1.653-1.12-3.667-.752-5.009 1.226l-2.258 3.33 9.21 6.246zm-3.776-4.806l-3.032-2.056 1.075-1.585c.727-1.073 1.74-1.465 2.755-.777.965.654 1.047 1.696.276 2.833l-1.074 1.585zM306.293 366.284l-1.394.046a3.602 3.602 0 0 1-.6 2.176c-.73 1.076-1.868 1.378-2.997.768l3.225-4.756a6.112 6.112 0 0 0-.535-.409c-1.847-1.252-4.053-1.037-5.33.846-1.225 1.808-.891 4.128 1.211 5.554 2.161 1.465 4.347.756 5.59-1.076.662-.977.959-2.133.83-3.15zm-6 2.277c-.841-.768-1.014-1.848-.394-2.762.663-.977 1.737-1.038 2.634-.54l-2.24 3.302zM305.896 354.57l-.838 1.237.84.755c-1.04.02-1.933.574-2.526 1.448-1.158 1.709-.68 3.901 1.343 5.273 1.843 1.25 4.102 1.204 5.395-.703.539-.795.772-1.728.47-2.633l3.623 2.457.744-1.695-9.051-6.138zm3.087 6.816c-.725 1.069-2.028 1.218-3.247.392-1.264-.857-1.541-2.15-.833-3.194.797-1.176 2.189-1.073 3.262-.345 1.16.786 1.558 2.055.818 3.147zM310.958 347.106l-1.02 1.505 3.623 2.457c.981.666 1.274 1.637.617 2.606-.599.882-1.427.958-2.297.368l-3.854-2.614-1.021 1.506 3.925 2.662c1.61 1.091 3.218 1.028 4.306-.577.564-.83.786-1.782.418-2.744l.939.462.84-1.24-6.476-4.391zM311.502 343.867a1.136 1.136 0 1 0-1.885-1.27 1.136 1.136 0 0 0 1.885 1.27zm7.097 5.914l1.018-1.501-6.476-4.392-1.019 1.501 6.477 4.392zM320.78 346.563l1.017-1.498-2.833-1.921c-1.276-.865-2.18-1.89-1.313-3.17.161-.239.347-.436.579-.623l-1.228-1.174c-.265.22-.5.473-.702.77-.585.863-.59 1.63-.067 2.519l-.012.009-1.078-.54-.838 1.236 6.476 4.392zM326.945 335.831l-1.394.046c.038.74-.163 1.531-.6 2.175-.73 1.077-1.868 1.378-2.998.769l3.226-4.756a6.112 6.112 0 0 0-.535-.41c-1.847-1.252-4.052-1.036-5.33.847-1.225 1.808-.891 4.128 1.211 5.554 2.161 1.466 4.347.755 5.59-1.076.662-.978.96-2.133.83-3.149zm-6 2.277c-.84-.768-1.013-1.848-.394-2.762.663-.978 1.737-1.037 2.634-.54l-2.24 3.302zM329.866 333.166l-3.632-2.462c-.917-.623-1.32-1.569-.689-2.5.566-.833 1.367-.8 2.213-.226l3.854 2.614 1.013-1.494-3.631-2.463c-.934-.633-1.339-1.558-.688-2.502.57-.832 1.356-.81 2.214-.228l3.854 2.614 1.021-1.506-3.937-2.67c-1.586-1.075-3.122-1.143-4.198.443-.595.878-.797 1.918-.387 2.88-.967-.104-1.846.413-2.39 1.216-.536.79-.687 1.773-.314 2.634l-.962-.472-.838 1.236 6.476 4.392 1.021-1.506zM339.482 317.344l-1.394.047a3.599 3.599 0 0 1-.6 2.174c-.73 1.077-1.868 1.378-2.997.77l3.225-4.756a6.077 6.077 0 0 0-.535-.41c-1.847-1.253-4.052-1.037-5.33.847-1.225 1.807-.891 4.128 1.211 5.553 2.161 1.466 4.348.756 5.59-1.076.662-.977.96-2.133.83-3.149zm-6 2.278c-.841-.768-1.014-1.848-.394-2.762.663-.978 1.737-1.038 2.634-.54l-2.24 3.302zM345.372 310.301l-3.937-2.67c-1.59-1.078-3.225-.992-4.292.582-.59.87-.775 1.869-.431 2.816l-.968-.472-.838 1.236 6.476 4.392 1.024-1.51-3.632-2.462c-.957-.65-1.237-1.691-.593-2.641.587-.866 1.461-.965 2.319-.383l3.854 2.614 1.018-1.502zM340.84 305.789l.77-1.137 3.036 2.059c1.704 1.156 3.233.175 4.144-1.168l-1.098-1.006c-.77.76-1.331 1.151-2.476.375l-2.59-1.757 1.072-1.582-1.275-.864-1.073 1.581-2.268-1.538-.737 1.686 1.99 1.35-.77 1.136 1.275.865zM348.074 302.598l.45 1.285c1.127-.379 1.956-.832 2.68-1.9.973-1.434 1.105-2.998-.27-3.93-2.383-1.616-3.876 2.348-5.148 1.486-.489-.332-.355-.973.008-1.509.34-.5.934-.99 1.575-1.27l-.556-1.2c-.875.282-1.686.88-2.28 1.754-.894 1.32-1.007 2.837.36 3.765 2.4 1.627 3.81-2.359 5.092-1.489.536.364.329 1.064-.065 1.644-.46.68-1.088 1.066-1.846 1.364z" fill="#ee4558" fill-rule="nonzero"/></g><g><path d="M647.304 387.287l-.506.746c1.112.926 2.943 1.033 4.082.275.687-.458 1.075-1.2.625-1.876-.391-.587-1.108-.658-1.611-.323-.607.405-.418 1.069-.946 1.421-.519.346-1.169.011-1.644-.243zm-.227-7.33l-1.361-.068c-.075 1.186.031 2.125.747 3.199.961 1.443 2.358 2.156 3.741 1.235 2.397-1.597-.71-4.477.569-5.328.491-.328 1.034.037 1.394.577.335.503.565 1.238.581 1.937l1.321-.06c.069-.918-.178-1.895-.764-2.774-.883-1.327-2.246-2.005-3.621-1.089-2.413 1.607.746 4.418-.545 5.277-.539.359-1.109-.097-1.497-.681-.456-.683-.576-1.41-.565-2.225zm-2.219-1.227l.483-1.309a3.595 3.595 0 0 1-1.787-1.376c-.721-1.082-.57-2.25.421-3.066l3.185 4.783c.138-.069.373-.203.581-.341 1.857-1.237 2.491-3.361 1.229-5.254-1.211-1.818-3.486-2.385-5.599-.977-2.174 1.447-2.342 3.74-1.116 5.582.655.983 1.613 1.694 2.603 1.958zm.157-6.415c1.029-.489 2.094-.241 2.706.678.655.983.306 2-.495 2.642l-2.211-3.32zm-6.766-1.844l1.006 1.511 6.512-4.338-1.006-1.51-6.512 4.337zm1.637-8.877l.761 1.143-3.052 2.033c-1.714 1.142-1.383 2.928-.484 4.279l1.347-.637c-.413-1-.563-1.667.588-2.434l2.605-1.735 1.059 1.59 1.282-.854-1.059-1.59 2.282-1.52-1.283-1.32-2.002 1.333-.761-1.142-1.283.854zm6.52 4.54a1.135 1.135 0 1 0 1.887-1.262 1.135 1.135 0 0 0-1.887 1.262zm-13.466-3.633l1.006 1.51 6.512-4.338-1.006-1.51-6.512 4.338zm-3.281-4.927l1.003 1.507 2.849-1.898c1.282-.854 2.574-1.305 3.431-.018.159.239.272.487.358.771l1.551-.693a3.71 3.71 0 0 0-.448-.942c-.578-.867-1.287-1.161-2.307-1.013l-.004-.014.907-.795-.828-1.242-6.512 4.337zm11.438.59a1.135 1.135 0 1 0 .316-1.578 1.137 1.137 0 0 0-.316 1.578zm-33.846-7.331l-1.361-.069c-.075 1.186.032 2.125.747 3.2.961 1.442 2.359 2.155 3.741 1.234 2.397-1.596-.709-4.476.57-5.328.491-.327 1.034.038 1.393.577.336.504.566 1.239.581 1.938l1.321-.061c.07-.917-.178-1.895-.763-2.774-.884-1.326-2.247-2.004-3.621-1.089-2.413 1.607.745 4.418-.545 5.278-.54.359-1.109-.098-1.498-.681-.455-.684-.576-1.411-.565-2.225zm19.125 2.099c1.269 1.906 3.635 2.47 5.661 1.12 2.021-1.346 2.392-3.716 1.126-5.618-1.275-1.913-3.622-2.467-5.644-1.12-2.017 1.344-2.41 3.716-1.143 5.618zm1.322-.881c-.705-1.059-.365-2.427.834-3.226 1.21-.806 2.588-.565 3.294.494.705 1.059.385 2.414-.814 3.213-1.206.803-2.614.57-3.314-.481zm-22.666-2.445l.484-1.309a3.609 3.609 0 0 1-1.788-1.376c-.721-1.083-.57-2.25.421-3.066l3.186 4.782a6.18 6.18 0 0 0 .58-.34c1.858-1.238 2.491-3.361 1.23-5.255-1.211-1.818-3.486-2.385-5.6-.977-2.173 1.448-2.342 3.74-1.115 5.582.655.983 1.613 1.694 2.602 1.959zm17.335-2.979l1.006 1.511 6.512-4.338-1.006-1.511-6.512 4.338zm-17.178-3.436c1.03-.49 2.095-.242 2.707.677.654.983.305 2-.495 2.643l-2.212-3.32zm13.897-1.49l1.003 1.506 2.849-1.897c1.282-.854 2.574-1.305 3.431-.019.159.24.272.488.358.771l1.551-.693a3.688 3.688 0 0 0-.448-.941c-.578-.867-1.287-1.162-2.307-1.013l-.004-.015.907-.794-.828-1.243-6.512 4.338zm-20.662-.354l1.006 1.51 6.512-4.338-1.006-1.51-6.512 4.338zm32.1.943a1.135 1.135 0 1 0 1.887-1.262 1.135 1.135 0 0 0-1.887 1.262zm-26.735-7.003l-.841-1.263-.989.481c.399-.924.19-1.967-.377-2.818-1.099-1.65-3.273-2.186-5.331-.815-1.882 1.253-2.475 3.333-1.291 5.11.535.803 1.358 1.415 2.31 1.467l-.468.312c-1.486.99-2.654.544-3.407-.586a3.899 3.899 0 0 1-.647-2.349l-1.427-.065c-.15 1.179.136 2.344.849 3.414 1.317 1.978 3.381 2.599 5.434 1.232l6.185-4.12zm2.791 1.723a1.135 1.135 0 1 0 .317-1.578 1.138 1.138 0 0 0-.317 1.578zm11.572-3.708l1.235 1.854c1.312 1.97 3.423 2.317 5.173 1.151 1.694-1.128 2.225-3.12.851-5.181l-2.256-3.389-9.261 6.169 1.03 1.546 3.228-2.15zm-21.651 2.162c-.729-1.095-.376-2.322.763-3.081 1.134-.756 2.438-.643 3.175.463.74 1.111.313 2.324-.794 3.061-1.086.724-2.386.695-3.144-.443zm23.017-3.072l3.3-2.198 1.094 1.642c.764 1.147.634 2.225-.413 2.922-1.034.689-2.11.443-2.887-.724l-1.094-1.642zm-26.714-1.145l.484-1.309a3.593 3.593 0 0 1-1.788-1.376c-.721-1.082-.57-2.25.421-3.066l3.185 4.783a6.09 6.09 0 0 0 .581-.341c1.858-1.237 2.491-3.361 1.23-5.255-1.211-1.817-3.486-2.384-5.6-.976-2.173 1.447-2.342 3.74-1.115 5.582.654.983 1.613 1.694 2.602 1.958zm14.64-3.802l-.506.747c1.113.925 2.943 1.033 4.082.274.687-.458 1.075-1.2.625-1.875-.391-.588-1.107-.659-1.611-.323-.607.404-.418 1.069-.946 1.42-.519.346-1.169.011-1.644-.243zm-14.483-2.613c1.029-.489 2.094-.241 2.706.678.655.983.306 2-.495 2.642l-2.211-3.32zm-2.936-7.429l.762 1.143-3.053 2.033c-1.714 1.142-1.383 2.929-.484 4.279l1.347-.637c-.413-1-.563-1.667.588-2.434l2.605-1.735 1.059 1.59 1.282-.854-1.059-1.59 2.282-1.52-1.283-1.32-2.002 1.334-.761-1.143-1.283.854zm18.938 7.438l.484-1.308a3.604 3.604 0 0 1-1.788-1.376c-.721-1.083-.57-2.251.421-3.066l3.185 4.782c.139-.069.373-.202.581-.341 1.858-1.237 2.491-3.36 1.23-5.254-1.211-1.818-3.486-2.385-5.6-.977-2.173 1.448-2.342 3.74-1.115 5.582.655.983 1.613 1.694 2.602 1.958zm.157-6.414c1.029-.49 2.094-.242 2.707.677.654.983.305 2-.495 2.643l-2.212-3.32zm-23.789 1.186c-.042-.462.139-.727.65-1.068l2.454-1.634c1.526-1.016 1.64-2.499.479-4.241-.58-.871-1.434-1.738-2.429-2.114l-.708 1.135a4.898 4.898 0 0 1 1.718 1.549c.572.859.658 1.707-.217 2.29l-.331.221a9.111 9.111 0 0 0-.813-1.558c-1.206-1.81-2.751-2.251-4.022-1.405-1.29.86-1.304 2.397-.463 3.66.537.807 1.388 1.452 2.36 1.439-.636.509-.432 1.447.116 2.27l1.206-.544zm19.718-2.587a3.294 3.294 0 0 1-1.477-1.197c-.764-1.146-.481-2.54.749-3.36 1.235-.822 2.63-.529 3.397.622.346.519.545 1.183.55 1.796l1.482-.07c.056-.902-.254-1.913-.796-2.728-1.241-1.862-3.552-2.526-5.685-1.105-2.23 1.485-2.238 3.896-1.105 5.598a4.719 4.719 0 0 0 2.371 1.836l.514-1.392zm-19.169-.564l-.412.274c-.795.529-1.937-.06-2.466-.855-.37-.555-.481-1.266.171-1.7.603-.402 1.279-.166 1.987.897a7.93 7.93 0 0 1 .72 1.384zm13.324-4.61l3.959-2.637c1.598-1.065 2.137-2.612 1.083-4.194-.583-.875-1.439-1.424-2.445-1.463l.801-.718-.827-1.243-6.513 4.338 1.012 1.518 3.651-2.432c.963-.641 2.034-.507 2.67.448.58.871.341 1.717-.522 2.291l-3.875 2.582 1.006 1.51zm-21.878-2.18l1.003 1.506 2.848-1.897c1.283-.855 2.575-1.305 3.432-.019.159.24.272.488.357.771l1.552-.693a3.658 3.658 0 0 0-.449-.941c-.577-.867-1.287-1.162-2.306-1.013l-.004-.015.907-.794-.828-1.243-6.512 4.338zm1.637-8.877l.761 1.142-3.053 2.034c-1.714 1.141-1.383 2.928-.483 4.279l1.346-.638c-.412-1-.562-1.667.588-2.433l2.605-1.735 1.059 1.59 1.283-.855-1.059-1.59 2.281-1.519-1.283-1.32-2.002 1.333-.761-1.143-1.282.855zm16.346 3.131c-.043-.462.138-.727.65-1.068l2.453-1.634c1.526-1.016 1.64-2.499.479-4.241-.58-.871-1.434-1.738-2.429-2.114l-.708 1.135a4.889 4.889 0 0 1 1.718 1.549c.572.859.658 1.707-.217 2.29l-.331.221a9.111 9.111 0 0 0-.813-1.558c-1.206-1.81-2.751-2.251-4.022-1.405-1.29.86-1.304 2.398-.463 3.66.537.807 1.388 1.452 2.36 1.439-.636.51-.432 1.447.116 2.27l1.207-.544zm-23.724-7.618l-1.586.035c-.13 1.459.18 2.885 1.031 4.164 1.224 1.837 3.129 2.714 5.007 1.463 3.392-2.259-1.22-6.212.858-7.596.839-.559 1.78-.055 2.392.864.495.743.829 1.841.789 2.82l1.549-.029c.099-1.289-.285-2.688-1.022-3.795-1.171-1.758-3.071-2.523-4.864-1.328-3.321 2.212 1.21 6.173-.892 7.573-.886.591-1.813-.004-2.457-.97-.601-.903-.881-2.015-.805-3.201zm24.272 4.467l-.412.274c-.795.529-1.937-.06-2.466-.855-.37-.555-.48-1.266.171-1.7.603-.402 1.279-.166 1.987.897.317.476.575 1.019.72 1.384zm-7.301-4.908l.828 1.242 9.688-6.453-1.288-1.328-3.672 2.446c.31-.904.085-1.839-.447-2.638-1.28-1.922-3.538-1.987-5.392-.752-2.034 1.355-2.531 3.543-1.384 5.265.585.879 1.473 1.442 2.513 1.47l-.846.748zm-.132-2.779c-.7-1.051-.41-2.339.86-3.186 1.227-.817 2.527-.656 3.243.418.732 1.099.323 2.364-.844 3.141-1.078.718-2.471.81-3.259-.373zm-23.367-1.834l.828 1.242 9.689-6.453-1.289-1.328-3.671 2.445c.309-.904.084-1.838-.448-2.637-1.28-1.922-3.538-1.987-5.392-.752-2.034 1.354-2.531 3.543-1.384 5.265.585.879 1.473 1.441 2.513 1.47l-.846.748zm-.132-2.779c-.7-1.051-.41-2.34.86-3.186 1.227-.817 2.528-.657 3.243.418.732 1.099.323 2.364-.844 3.141-1.078.718-2.471.809-3.259-.373zm18.181-.791l1.006 1.511 6.512-4.338-1.006-1.51-6.512 4.337zm5.363-6.063l-1.009-1.515-3.644 2.427c-.986.658-1.996.563-2.645-.412-.591-.887-.348-1.683.527-2.266l3.875-2.581-1.008-1.514-3.948 2.629c-1.618 1.078-2.167 2.591-1.092 4.205.556.835 1.354 1.4 2.384 1.423l-.783.695.83 1.246 6.513-4.337zm-27.805 3.036l3.959-2.637c1.598-1.064 2.137-2.611 1.083-4.194-.583-.874-1.439-1.423-2.445-1.462l.801-.719-.827-1.243-6.513 4.338 1.012 1.518 3.651-2.432c.963-.641 2.034-.506 2.67.448.58.871.341 1.717-.522 2.292l-3.875 2.581 1.006 1.51zm30.599-1.31a1.135 1.135 0 1 0 1.887-1.262 1.135 1.135 0 0 0-1.887 1.262zm-34.495-6.616c-.042-.462.139-.727.651-1.067l2.453-1.634c1.526-1.017 1.64-2.5.479-4.242-.58-.871-1.434-1.738-2.429-2.114l-.708 1.135a4.891 4.891 0 0 1 1.718 1.55c.572.859.658 1.707-.217 2.289l-.331.221a9.185 9.185 0 0 0-.813-1.558c-1.206-1.81-2.751-2.251-4.022-1.405-1.29.86-1.304 2.398-.463 3.66.537.807 1.388 1.452 2.36 1.439-.636.51-.432 1.447.116 2.27l1.206-.544zm23.07-1.78c-1.475.902-3.148.407-4.093-1.011-1.232-1.85-.441-4.073 1.349-5.265 1.886-1.256 4.26-.974 5.532.935.556.835.854 1.906.787 2.862l1.559-.024c.122-1.315-.276-2.734-1.037-3.877-1.786-2.681-5.192-3.301-7.957-1.46-2.581 1.719-3.526 4.864-1.592 7.768 1.818 2.729 4.672 2.945 7.801.861l-2.651-3.979-1.262.841 1.564 2.349zm-22.521-1.371l-.412.274c-.795.53-1.937-.059-2.466-.854-.37-.556-.48-1.267.171-1.701.603-.401 1.279-.165 1.987.897.317.476.575 1.019.72 1.384zm8.048-9.309l-.506.747c1.112.926 2.943 1.033 4.082.274.687-.457 1.075-1.2.625-1.875-.391-.588-1.108-.659-1.611-.323-.607.404-.418 1.069-.946 1.42-.519.346-1.169.012-1.644-.243zm3.515-9.28l.761 1.143-3.053 2.033c-1.714 1.142-1.383 2.929-.483 4.279l1.346-.637c-.412-1-.563-1.667.588-2.434l2.605-1.735 1.059 1.59 1.283-.854-1.059-1.59 2.281-1.52-1.283-1.32-2.002 1.334-.761-1.143-1.282.854zm-5.15 1.942l.484-1.309a3.596 3.596 0 0 1-1.787-1.376c-.722-1.082-.571-2.25.42-3.066l3.186 4.783c.138-.07.373-.203.58-.341 1.858-1.237 2.491-3.361 1.23-5.255-1.211-1.817-3.486-2.384-5.6-.976-2.173 1.447-2.342 3.74-1.115 5.582.655.983 1.613 1.694 2.602 1.958zm.157-6.415c1.03-.489 2.095-.241 2.707.678.654.983.305 2-.495 2.642l-2.212-3.32zm.756-4.667l-.841-1.263-.99.48c.4-.923.19-1.966-.377-2.817-1.099-1.65-3.273-2.186-5.33-.816-1.882 1.254-2.475 3.333-1.291 5.111.535.803 1.357 1.415 2.309 1.467l-.467.311c-1.486.99-2.654.545-3.407-.586a3.896 3.896 0 0 1-.647-2.348l-1.428-.065c-.149 1.178.136 2.343.85 3.414 1.317 1.978 3.38 2.599 5.434 1.231l6.185-4.119zm-7.288.176c-.73-1.094-.376-2.322.762-3.08 1.135-.756 2.438-.644 3.176.463.739 1.111.313 2.324-.794 3.061-1.087.724-2.386.695-3.144-.444zm-5.316-4.984l.828 1.243 9.688-6.454-1.288-1.328-3.672 2.446c.309-.904.085-1.839-.447-2.638-1.28-1.921-3.539-1.986-5.392-.751-2.034 1.354-2.531 3.543-1.384 5.265.585.879 1.473 1.441 2.513 1.469l-.846.748zm-.132-2.779c-.7-1.05-.411-2.339.86-3.185 1.226-.817 2.527-.657 3.243.418.732 1.098.323 2.363-.844 3.14-1.079.719-2.471.81-3.259-.373zm2.2-8.231l-1.009-1.514-3.643 2.427c-.987.657-1.996.562-2.646-.412-.59-.887-.348-1.683.527-2.266l3.876-2.582-1.009-1.514-3.947 2.629c-1.618 1.078-2.168 2.592-1.092 4.206.556.835 1.353 1.4 2.384 1.423l-.784.694.831 1.247 6.512-4.338zm-6.411-15.583l-9.261 6.169 2.453 3.684c1.169 1.754 3.07 2.252 4.6 1.233 1.207-.803 1.517-2.112 1.12-3.272.821.462 1.782.468 2.721-.157 1.51-1.006 1.638-2.746.467-4.504l-2.1-3.153zm-2.943 6.754c.687 1.03.729 2.046-.206 2.669-.935.623-1.845.191-2.455-.724l-1.264-1.898 2.741-1.825 1.184 1.778zm3.546-2.904c.588.883.694 1.787-.169 2.362-.871.58-1.743.18-2.272-.615l-.99-1.486 2.497-1.664.934 1.403z" fill="#00a9be" fill-rule="nonzero"/></g><g><path d="M484.223 247.819c-.872-.309-1.783-1.025-2.344-1.873-1.233-1.862-.649-4.148 1.249-5.403 1.921-1.272 4.289-.886 5.518.971.532.805.839 1.868.778 2.864l1.556-.022c.127-1.315-.267-2.736-1.017-3.87-1.76-2.662-5.186-3.325-7.921-1.515-2.686 1.777-3.43 5.1-1.66 7.774.753 1.138 1.948 2.136 3.192 2.528l.65-1.454zM485.14 253.936c1.263 1.91 3.627 2.481 5.657 1.138 2.026-1.34 2.403-3.709 1.143-5.614-1.269-1.918-3.614-2.479-5.64-1.139-2.022 1.338-2.421 3.71-1.16 5.615zm1.325-.877c-.702-1.06-.359-2.428.842-3.223 1.214-.803 2.591-.557 3.293.504.702 1.06.378 2.416-.823 3.21-1.21.8-2.616.562-3.312-.49zM489.409 260.102l3.66-2.421c.924-.612 1.952-.624 2.572.312.556.84.22 1.57-.632 2.134l-3.884 2.57.996 1.505 3.66-2.421c.94-.623 1.95-.645 2.575.316.552.844.232 1.561-.632 2.133l-3.884 2.57 1.004 1.518 3.967-2.625c1.598-1.057 2.246-2.453 1.189-4.05-.585-.885-1.47-1.468-2.517-1.455.465-.855.32-1.865-.214-2.673-.527-.797-1.378-1.31-2.317-1.293l.803-.71-.824-1.245-6.526 4.318 1.004 1.517zM496.945 271.493l3.66-2.422c.924-.612 1.952-.625 2.572.313.556.84.22 1.569-.632 2.133l-3.884 2.57.996 1.505 3.66-2.422c.94-.622 1.95-.645 2.574.317.552.843.233 1.562-.631 2.134l-3.884 2.57 1.004 1.516 3.967-2.624c1.598-1.058 2.246-2.453 1.189-4.05-.586-.886-1.471-1.468-2.517-1.456.465-.854.321-1.863-.214-2.672-.527-.797-1.379-1.31-2.317-1.293l.802-.71-.824-1.245-6.526 4.318 1.005 1.518zM513.84 282.848l-1.003-1.517-3.652 2.416c-.989.654-1.997.556-2.644-.421-.587-.888-.343-1.684.534-2.263l3.884-2.57-1.004-1.518-3.956 2.617c-1.621 1.073-2.175 2.584-1.105 4.202.554.837 1.349 1.404 2.38 1.43l-.786.693.826 1.249 6.526-4.318zM512.379 294.82l3.967-2.624c1.602-1.06 2.145-2.605 1.096-4.19-.58-.877-1.434-1.429-2.44-1.47l.804-.717-.824-1.245-6.526 4.317 1.007 1.522 3.66-2.421c.964-.638 2.034-.5 2.667.457.577.872.335 1.717-.529 2.289l-3.883 2.57 1.001 1.513zM521.643 292.163a1.136 1.136 0 1 0 1.892-1.26 1.136 1.136 0 0 0-1.892 1.26zm-8.17 4.312l1.001 1.513L521 293.67l-1-1.513-6.527 4.318zM520.422 295.59l.758 1.144-3.06 2.024c-1.716 1.136-1.391 2.924-.496 4.277l1.348-.632c-.409-1.002-.557-1.669.596-2.432l2.61-1.727 1.054 1.593 1.286-.85-1.054-1.593 2.286-1.513-1.28-1.324-2.005 1.327-.758-1.145-1.285.85zM522.272 306.067l3.674-4.922-1.089-1.646-4.874 6.954-.592.122c-.988.204-1.5-.09-1.858-.63a2.643 2.643 0 0 1-.297-.626l-1.34.603c.101.44.26.854.503 1.222.57.861 1.556 1.411 3.048 1.109l9.884-1.992-1.023-1.545-6.036 1.351zM529.262 320.34l1.126 1.7 7.022-9.554-1.198-1.81-11.51 2.77 1.07 1.617 2.859-.741 2.424 3.663-1.793 2.354zm.977-6.45l4.906-1.258-3.067 4.038-1.839-2.78zM532.858 321.99l-1.36-.073c-.079 1.186.024 2.125.737 3.202.956 1.445 2.351 2.162 3.737 1.245 2.401-1.589-.696-4.477.585-5.325.493-.326 1.035.041 1.392.582.334.503.562 1.24.575 1.938l1.322-.056c.072-.917-.173-1.896-.756-2.776-.879-1.329-2.24-2.012-3.617-1.1-2.418 1.599.732 4.42-.561 5.275-.54.358-1.11-.101-1.496-.685-.453-.685-.572-1.412-.558-2.227zM536.804 327.955l-1.36-.073c-.078 1.186.025 2.125.738 3.202.956 1.445 2.351 2.162 3.736 1.246 2.402-1.59-.695-4.479.586-5.326.493-.326 1.034.04 1.392.581.333.505.561 1.24.575 1.94l1.321-.057c.073-.917-.172-1.895-.755-2.776-.88-1.33-2.24-2.012-3.617-1.1-2.418 1.6.73 4.42-.562 5.275-.54.358-1.109-.1-1.495-.685-.453-.685-.572-1.412-.559-2.227zM543.326 339.925l.487-1.307a3.601 3.601 0 0 1-1.783-1.382c-.718-1.085-.563-2.252.43-3.065l3.17 4.792c.139-.068.374-.2.583-.338 1.861-1.232 2.501-3.353 1.245-5.251-1.205-1.821-3.478-2.395-5.596-.994-2.178 1.44-2.354 3.732-1.132 5.579.65.984 1.607 1.699 2.596 1.966zm.177-6.415c1.03-.486 2.095-.235 2.704.686.652.985.299 2.001-.503 2.641l-2.201-3.327zM545.54 341.159l-1.36-.073c-.078 1.186.025 2.125.737 3.202.956 1.445 2.352 2.162 3.737 1.246 2.402-1.59-.696-4.479.585-5.326.493-.327 1.035.04 1.392.581.334.505.562 1.24.576 1.94l1.321-.057c.072-.917-.172-1.896-.755-2.776-.88-1.33-2.24-2.012-3.618-1.1-2.418 1.599.732 4.42-.561 5.275-.54.357-1.109-.101-1.496-.686-.453-.684-.572-1.412-.558-2.226zM549.487 347.124l-1.36-.073c-.079 1.186.024 2.125.737 3.202.956 1.446 2.352 2.163 3.737 1.246 2.402-1.589-.696-4.478.585-5.326.493-.326 1.035.041 1.392.582.334.504.562 1.24.576 1.939l1.32-.057c.073-.917-.171-1.895-.754-2.776-.88-1.33-2.24-2.012-3.618-1.1-2.418 1.6.731 4.42-.561 5.275-.54.358-1.109-.1-1.496-.685-.453-.685-.572-1.412-.558-2.227zM552.571 355.57l3.66-2.42c.925-.613 1.953-.625 2.573.312.556.841.22 1.57-.632 2.133l-3.884 2.57.996 1.505 3.66-2.421c.94-.622 1.95-.645 2.575.317.552.843.232 1.562-.632 2.133l-3.884 2.57 1.004 1.517 3.967-2.625c1.598-1.057 2.246-2.452 1.189-4.05-.586-.885-1.47-1.467-2.517-1.455.465-.854.321-1.863-.214-2.672-.527-.797-1.379-1.31-2.317-1.293l.803-.71-.824-1.245-6.526 4.317 1.003 1.517zM563.544 370.484l.487-1.307a3.599 3.599 0 0 1-1.783-1.382c-.718-1.085-.563-2.252.43-3.065l3.17 4.792c.14-.068.374-.2.583-.338 1.861-1.232 2.501-3.353 1.245-5.251-1.205-1.821-3.478-2.395-5.596-.994-2.178 1.44-2.353 3.733-1.132 5.579.652.985 1.607 1.699 2.596 1.966zm.177-6.415c1.03-.486 2.095-.235 2.704.686.652.985.299 2.001-.503 2.641l-2.201-3.327zM567.815 378.611l3.968-2.625c1.602-1.06 2.144-2.605 1.095-4.19-.58-.877-1.433-1.428-2.44-1.47l.805-.716-.824-1.246-6.526 4.318 1.006 1.521 3.66-2.42c.965-.64 2.035-.5 2.668.456.577.872.335 1.718-.529 2.29l-3.884 2.57 1.001 1.512zM573.713 376.137l.758 1.145-3.06 2.024c-1.716 1.136-1.391 2.923-.496 4.277l1.348-.633c-.409-1.002-.558-1.67.596-2.432l2.61-1.727 1.054 1.593 1.286-.85-1.055-1.594 2.286-1.512-1.278-1.323-2.006 1.327-.758-1.145-1.285.85zM573.911 384.04l-1.36-.072c-.078 1.186.025 2.125.737 3.202.957 1.445 2.352 2.162 3.737 1.246 2.402-1.59-.695-4.479.586-5.326.492-.326 1.034.04 1.392.581.333.505.561 1.24.575 1.94l1.321-.057c.072-.917-.172-1.895-.755-2.776-.88-1.33-2.24-2.012-3.618-1.1-2.417 1.599.732 4.42-.56 5.275-.541.357-1.11-.101-1.496-.686-.453-.684-.572-1.411-.559-2.226zM582.939 399.382c-.04-.462.142-.727.654-1.065l2.458-1.627c1.529-1.011 1.648-2.494.493-4.24-.578-.873-1.43-1.742-2.422-2.121l-.713 1.133a4.88 4.88 0 0 1 1.714 1.554c.57.861.653 1.71-.224 2.29l-.333.22a9.11 9.11 0 0 0-.807-1.562c-1.2-1.813-2.744-2.258-4.018-1.416-1.292.855-1.311 2.393-.474 3.658.535.808 1.383 1.457 2.355 1.447-.637.507-.437 1.445.109 2.27l1.208-.54zm.56-3.15l-.414.274c-.796.527-1.937-.066-2.464-.863-.368-.556-.476-1.267.177-1.7.604-.4 1.28-.161 1.984.904a8.02 8.02 0 0 1 .716 1.386zM586.81 407.32l3.967-2.625c1.602-1.06 2.145-2.604 1.096-4.189-.58-.877-1.434-1.429-2.44-1.47l.804-.717-.824-1.245-6.526 4.317 1.006 1.522 3.66-2.422c.965-.638 2.035-.5 2.668.457.578.873.336 1.718-.528 2.29l-3.884 2.57 1 1.512zM591.183 413.93l.824 1.246 9.708-6.424-1.284-1.331-3.678 2.434c.311-.903.089-1.839-.44-2.64-1.275-1.925-3.532-1.998-5.39-.768-2.038 1.348-2.542 3.535-1.4 5.26.582.881 1.468 1.446 2.508 1.478l-.848.745zm-.123-2.78c-.696-1.052-.403-2.34.87-3.181 1.229-.813 2.529-.65 3.241.427.73 1.102.315 2.365-.854 3.138-1.08.715-2.473.802-3.257-.383zM453.943 237.306l1.025 1.55 3.483-2.305.978 1.477-2.16 4.306 1.23 1.858 2.206-4.678c1.2.91 2.68.956 3.966.105 1.666-1.102 2.09-3.105.772-5.098l-2.22-3.355-9.28 6.14zm5.881-1.663l3.055-2.022 1.057 1.597c.715 1.081.691 2.168-.33 2.844-.973.643-1.968.323-2.725-.822l-1.057-1.597zM463.543 250.145l.487-1.307a3.602 3.602 0 0 1-1.783-1.382c-.718-1.084-.563-2.252.43-3.064l3.17 4.792c.139-.069.374-.201.582-.34 1.862-1.23 2.502-3.352 1.246-5.25-1.205-1.82-3.478-2.395-5.596-.993-2.178 1.44-2.354 3.732-1.133 5.577.652.985 1.608 1.7 2.597 1.967zm.177-6.414c1.03-.487 2.095-.235 2.704.685.652.985.299 2.002-.503 2.642l-2.201-3.327zM474.526 254.235l-.824-1.245-1.018.489c.377-.97.204-2.006-.379-2.886-1.139-1.722-3.349-2.113-5.387-.765-1.857 1.229-2.674 3.335-1.402 5.257.53.8 1.304 1.37 2.256 1.437l-3.65 2.416 1.283 1.331 9.12-6.034zm-7.478.261c-.712-1.077-.355-2.338.874-3.15 1.273-.843 2.574-.609 3.27.444.784 1.185.16 2.432-.922 3.148-1.168.773-2.493.659-3.222-.442zM479.503 261.758l-1.004-1.517-3.651 2.415c-.99.655-1.998.556-2.644-.42-.589-.89-.344-1.685.533-2.265l3.884-2.57-1.004-1.516-3.956 2.617c-1.62 1.072-2.175 2.584-1.105 4.201.554.837 1.35 1.405 2.38 1.43l-.786.693.827 1.25 6.526-4.318zM482.291 263.493a1.136 1.136 0 1 0 1.892-1.26 1.136 1.136 0 0 0-1.892 1.26zm-8.17 4.312l1.001 1.513 6.526-4.318-1-1.513-6.527 4.318zM476.266 271.048l1 1.51 2.854-1.89c1.285-.85 2.578-1.297 3.431-.007.16.24.271.487.355.772l1.553-.688a3.673 3.673 0 0 0-.445-.943c-.575-.87-1.283-1.166-2.303-1.02l-.004-.015.91-.792-.825-1.245-6.526 4.318zM483.845 280.832l.488-1.307a3.597 3.597 0 0 1-1.783-1.382c-.718-1.085-.563-2.252.43-3.065l3.171 4.793c.138-.068.373-.201.581-.339 1.862-1.231 2.502-3.353 1.246-5.25-1.205-1.822-3.478-2.396-5.597-.995-2.177 1.44-2.353 3.733-1.131 5.579.651.985 1.607 1.699 2.595 1.966zm.177-6.415c1.032-.485 2.096-.234 2.705.687.652.985.298 2-.503 2.641l-2.202-3.328zM485.198 284.547l3.66-2.42c.924-.613 1.952-.625 2.573.312.556.841.22 1.57-.633 2.133l-3.883 2.57.995 1.505 3.66-2.421c.94-.622 1.95-.645 2.575.317.552.843.233 1.562-.631 2.133l-3.884 2.57 1.003 1.517 3.968-2.625c1.598-1.057 2.246-2.452 1.188-4.05-.585-.885-1.47-1.467-2.516-1.455.465-.854.32-1.863-.214-2.672-.527-.797-1.379-1.31-2.318-1.294l.803-.71-.824-1.244-6.526 4.317 1.004 1.517zM496.17 299.46l.488-1.306a3.599 3.599 0 0 1-1.783-1.382c-.718-1.085-.563-2.252.43-3.065l3.17 4.792c.14-.068.374-.2.582-.338 1.862-1.232 2.502-3.353 1.246-5.251-1.205-1.821-3.478-2.395-5.597-.994-2.177 1.44-2.353 3.733-1.131 5.579.65.984 1.607 1.699 2.595 1.966zm.177-6.414c1.031-.486 2.095-.235 2.705.686.651.985.298 2.001-.504 2.641l-2.2-3.327zM500.442 307.588l3.967-2.625c1.602-1.06 2.145-2.605 1.096-4.19-.58-.877-1.434-1.428-2.44-1.47l.804-.716-.824-1.246-6.526 4.318 1.007 1.521 3.66-2.42c.964-.64 2.034-.5 2.667.456.577.872.336 1.718-.528 2.29l-3.884 2.57 1 1.512zM506.34 305.114l.757 1.145-3.059 2.024c-1.717 1.136-1.392 2.923-.496 4.277l1.347-.633c-.408-1.002-.557-1.67.596-2.432l2.61-1.727 1.055 1.593 1.285-.85-1.054-1.594 2.286-1.512-1.279-1.323-2.005 1.327-.758-1.145-1.285.85zM506.538 313.018l-1.36-.073c-.079 1.186.025 2.125.737 3.202.956 1.445 2.352 2.162 3.737 1.246 2.402-1.59-.696-4.479.585-5.326.493-.327 1.035.04 1.392.581.334.505.562 1.24.576 1.94l1.32-.058c.073-.916-.172-1.894-.754-2.775-.88-1.33-2.24-2.012-3.618-1.1-2.418 1.599.731 4.42-.561 5.275-.54.357-1.11-.101-1.496-.686-.453-.684-.572-1.411-.558-2.226zM506.742 320.348l-.508.745c1.11.93 2.94 1.042 4.081.288.69-.456 1.079-1.198.631-1.874-.39-.59-1.106-.662-1.61-.329-.608.403-.421 1.068-.95 1.418-.52.344-1.168.008-1.644-.248zM515.299 330.044c1.896 2.866 4.96 3.154 7.602 1.406 2.598-1.719 3.61-4.627 1.686-7.535l-2.134-3.226-9.281 6.14 2.127 3.215zm.288-2.556l6.526-4.318.964 1.457c1.296 1.958 1.05 3.744-1.228 5.251-2.21 1.463-3.958 1.092-5.324-.974l-.938-1.416zM523.901 340.958c-.04-.462.142-.726.654-1.065l2.458-1.627c1.53-1.011 1.648-2.494.493-4.24-.577-.872-1.429-1.742-2.422-2.121l-.713 1.133a4.88 4.88 0 0 1 1.714 1.554c.57.861.653 1.71-.224 2.29l-.332.22a9.11 9.11 0 0 0-.808-1.561c-1.2-1.814-2.744-2.26-4.017-1.417-1.293.855-1.312 2.393-.475 3.658.535.808 1.383 1.457 2.355 1.447-.636.507-.436 1.446.109 2.27l1.208-.54zm.56-3.15l-.413.274c-.797.527-1.938-.066-2.465-.863-.368-.556-.476-1.267.177-1.7.605-.4 1.28-.161 1.985.904a8.01 8.01 0 0 1 .715 1.386zM528.603 338.764l.757 1.145-3.059 2.024c-1.717 1.136-1.392 2.923-.496 4.277l1.347-.633c-.408-1.002-.557-1.67.596-2.432l2.61-1.728 1.055 1.594 1.285-.85-1.054-1.594 2.286-1.512-1.279-1.324-2.005 1.327-.758-1.145-1.285.85zM531.697 352.74c-.041-.461.141-.726.653-1.065l2.459-1.626c1.529-1.012 1.647-2.494.492-4.24-.577-.873-1.429-1.743-2.421-2.122l-.713 1.134a4.88 4.88 0 0 1 1.714 1.554c.57.86.652 1.71-.224 2.29l-.333.22a9.11 9.11 0 0 0-.808-1.562c-1.2-1.813-2.744-2.259-4.017-1.416-1.293.855-1.311 2.393-.474 3.658.534.808 1.382 1.455 2.354 1.446-.636.507-.436 1.446.11 2.27l1.208-.54zm.559-3.148l-.413.273c-.796.527-1.937-.066-2.464-.863-.368-.556-.477-1.267.177-1.7.604-.4 1.28-.162 1.984.903a8.02 8.02 0 0 1 .716 1.387zM534.005 358.317l1.025 1.55 3.483-2.305.978 1.477-2.16 4.306 1.23 1.858 2.206-4.678c1.2.91 2.68.956 3.966.105 1.666-1.102 2.09-3.105.772-5.098l-2.22-3.355-9.28 6.14zm5.881-1.663l3.055-2.022 1.057 1.598c.715 1.08.691 2.167-.33 2.843-.973.643-1.968.323-2.725-.822l-1.057-1.597zM543.605 371.156l.488-1.307a3.599 3.599 0 0 1-1.784-1.381c-.718-1.085-.563-2.252.43-3.065l3.17 4.792c.139-.069.374-.2.583-.338 1.861-1.232 2.501-3.353 1.245-5.251-1.205-1.822-3.478-2.396-5.596-.994-2.178 1.44-2.353 3.733-1.132 5.578.651.984 1.607 1.7 2.596 1.966zm.177-6.414c1.03-.487 2.095-.235 2.704.685.652.985.299 2.002-.503 2.642l-2.201-3.327zM554.588 375.246l-.824-1.245-1.018.49c.378-.97.204-2.007-.379-2.887-1.139-1.722-3.349-2.113-5.387-.765-1.857 1.229-2.674 3.335-1.402 5.257.53.8 1.304 1.37 2.256 1.437l-3.65 2.416 1.283 1.331 9.12-6.034zm-7.477.262c-.713-1.077-.355-2.338.873-3.15 1.274-.844 2.574-.61 3.27.443.784 1.185.16 2.432-.922 3.148-1.168.773-2.493.66-3.221-.441zM559.565 382.769l-1.004-1.517-3.651 2.415c-.99.655-1.998.556-2.644-.42-.589-.89-.344-1.685.533-2.265l3.884-2.57-1.004-1.516-3.956 2.617c-1.62 1.072-2.175 2.584-1.104 4.202.553.836 1.348 1.404 2.38 1.43l-.786.693.826 1.248 6.526-4.317zM562.353 384.504a1.136 1.136 0 1 0 1.892-1.26 1.136 1.136 0 0 0-1.892 1.26zm-8.17 4.312l1.002 1.514 6.526-4.318-1.002-1.514-6.526 4.318zM556.328 392.059l1 1.51 2.854-1.89c1.285-.85 2.578-1.297 3.431-.007.16.24.272.488.355.772l1.553-.688a3.673 3.673 0 0 0-.445-.943c-.575-.87-1.283-1.166-2.303-1.02l-.004-.015.91-.792-.825-1.245-6.526 4.318zM563.908 401.844l.488-1.307a3.602 3.602 0 0 1-1.784-1.383c-.717-1.084-.563-2.252.43-3.064l3.171 4.792c.138-.068.373-.2.581-.339 1.862-1.231 2.502-3.353 1.246-5.25-1.205-1.821-3.478-2.395-5.596-.994-2.178 1.44-2.354 3.732-1.132 5.578.651.985 1.607 1.699 2.596 1.967zm.177-6.415c1.03-.486 2.095-.235 2.704.686.652.985.3 2.001-.503 2.641l-2.201-3.327zM565.26 405.56l3.66-2.422c.925-.612 1.953-.624 2.573.312.556.841.22 1.57-.633 2.133l-3.883 2.57.995 1.505 3.66-2.42c.94-.623 1.95-.646 2.575.316.552.843.233 1.562-.631 2.133l-3.884 2.57 1.004 1.517 3.967-2.625c1.598-1.057 2.246-2.452 1.188-4.05-.585-.884-1.47-1.467-2.516-1.454.465-.854.32-1.864-.214-2.673-.527-.797-1.379-1.31-2.318-1.293l.803-.71-.824-1.245-6.526 4.317 1.005 1.518zM576.232 420.472l.488-1.307a3.597 3.597 0 0 1-1.783-1.382c-.718-1.085-.563-2.252.43-3.065l3.171 4.793c.138-.069.373-.201.581-.339 1.862-1.232 2.502-3.353 1.246-5.25-1.205-1.822-3.478-2.396-5.597-.995-2.177 1.44-2.353 3.733-1.131 5.579.651.985 1.607 1.699 2.595 1.966zm.177-6.415c1.032-.485 2.096-.234 2.705.687.652.985.299 2-.503 2.64l-2.202-3.327zM580.504 428.599l3.967-2.625c1.602-1.06 2.145-2.604 1.097-4.19-.58-.877-1.435-1.428-2.441-1.47l.804-.716-.824-1.245-6.526 4.317 1.007 1.521 3.66-2.42c.964-.64 2.034-.5 2.667.456.578.873.336 1.718-.528 2.29l-3.884 2.57 1 1.512zM586.402 426.125l.757 1.145-3.059 2.024c-1.717 1.136-1.392 2.923-.496 4.277l1.347-.633c-.408-1.002-.557-1.668.597-2.431l2.61-1.727 1.054 1.592 1.285-.85-1.054-1.593 2.286-1.512-1.279-1.324-2.005 1.327-.758-1.145-1.285.85zM586.6 434.029l-1.36-.073c-.079 1.186.025 2.125.737 3.202.956 1.445 2.352 2.162 3.737 1.246 2.402-1.59-.695-4.478.586-5.326.493-.326 1.034.04 1.392.582.333.504.561 1.24.575 1.938l1.321-.056c.072-.917-.173-1.895-.755-2.776-.88-1.329-2.24-2.012-3.618-1.1-2.418 1.6.731 4.42-.561 5.275-.54.357-1.11-.101-1.496-.686-.452-.684-.571-1.41-.558-2.226z" fill="#7cb042" fill-rule="nonzero"/></g><g><path d="M433.628 102.202v-7.533l5.94-3.294v7.533l-5.94 3.294zm-25.533-10.828l5.94 3.294v7.534l-5.94-3.294v-7.534zm15.736-19.447l5.543 2.662-5.543 2.662-5.542-2.662 5.542-2.662zm9.797 19.802v-7.576l5.94-3.294v7.576l-5.94 3.294zm-8.51 7.66l5.94-3.295v7.576l-5.94 3.294v-7.575zm-8.512-3.296l5.94 3.296v7.575l-5.94-3.294v-7.577zm5.94-7.658l-5.94 3.294v-7.576l5.94-3.294v7.576zm8.511 3.294l-5.94-3.294v-7.576l5.94 3.294v7.576zm-7.226 5.433l-5.861-3.25 5.861-3.25 5.861 3.25-5.86 3.25zm8.512-21.147l5.713 2.744-5.713 3.168-5.713-3.168 5.713-2.744zm-17.023 0l5.713 2.744-5.713 3.168-5.713-3.168 5.713-2.744zm-7.225 4.844l5.94 3.294v7.576l-5.94-3.294v-7.576zm34.032-2.352a1.475 1.475 0 0 0-.035-.173l-.006-.024a1.267 1.267 0 0 0-.057-.152l-.014-.03a2.676 2.676 0 0 0-.037-.074l-.025-.04-.024-.039a1.329 1.329 0 0 0-.087-.118l-.007-.01a1.222 1.222 0 0 0-.251-.226l-.023-.016a1.244 1.244 0 0 0-.142-.081l-.009-.006-8.511-4.087-8.51-4.088a1.287 1.287 0 0 0-1.114 0l-8.511 4.088-8.512 4.087-.008.006c-.05.023-.097.05-.143.081l-.023.015a1.357 1.357 0 0 0-.251.227l-.01.012a1.688 1.688 0 0 0-.108.156l-.024.039c-.013.024-.024.047-.035.072-.005.01-.012.021-.017.033-.022.05-.04.1-.055.151l-.007.027a1.142 1.142 0 0 0-.03.138l-.006.033a1.22 1.22 0 0 0-.011.167v20.989c0 .467.253.898.662 1.124l8.267 4.585c.074.068.155.128.245.179l8.51 4.718.002.001a1.183 1.183 0 0 0 .165.075c.038.015.079.027.119.04l.037.01c.038.008.075.014.113.02l.038.007a1.279 1.279 0 0 0 .299 0l.037-.007c.038-.006.077-.012.113-.02a1.545 1.545 0 0 0 .156-.049l.025-.01c.048-.019.095-.04.14-.066h.002l8.512-4.72a1.3 1.3 0 0 0 .244-.178l8.267-4.585c.408-.227.662-.657.662-1.124V78.675c0-.056-.004-.112-.012-.168" fill="#00a9be" fill-rule="nonzero"/></g><defs><linearGradient id="_Linear1" x2="1" gradientUnits="userSpaceOnUse" gradientTransform="matrix(291.122 0 0 439.495 332.816 379.56)"><stop offset="0" stop-color="#ee4558"/><stop offset="1" stop-color="#00a9be"/></linearGradient><linearGradient id="_Linear2" x2="1" gradientUnits="userSpaceOnUse" gradientTransform="matrix(291.122 0 0 439.495 332.816 379.56)"><stop offset="0" stop-color="#cad936"/><stop offset="1" stop-color="#00a9be"/></linearGradient><linearGradient id="_Linear3" x2="1" gradientUnits="userSpaceOnUse" gradientTransform="matrix(321.008 0 0 488.017 302.931 403.821)"><stop offset="0" stop-color="#cad936"/><stop offset="1" stop-color="#ee4558"/></linearGradient></defs></svg>