<svg viewBox="0 0 1167 184" xmlns="http://www.w3.org/2000/svg" fill-rule="evenodd" clip-rule="evenodd" stroke-linejoin="round" stroke-miterlimit="1.414"><g transform="scale(4.16667)"><path d="M0 22.401c0 2.053.294 4.038.832 5.922.033.126.063.253.101.378.006.024.018.046.026.07C3.685 37.582 11.906 44 21.6 44c4.485 0 8.653-1.375 12.109-3.722a.97.97 0 0 0 .102-.06c.204-.139.403-.285.597-.438a21.65 21.65 0 0 0 8.144-12.133c.069-.228.131-.458.18-.691a1.07 1.07 0 0 0 .019-.166c.293-1.417.449-2.885.449-4.389 0-2.916-.571-5.744-1.697-8.407a1.004 1.004 0 1 0-1.851.782 19.447 19.447 0 0 1 1.538 7.625c0 1.621-.201 3.195-.574 4.704-.297.95-.818 1.831-1.539 2.628.018-.341.03-.687.031-1.037.008-3.853-1.059-7.923-3.036-11.75 1.45-1.246 2.374-2.781 2.692-4.502a1.006 1.006 0 0 0-1.977-.365c-.21 1.138-.8 2.179-1.725 3.068a31.302 31.302 0 0 0-.901-1.41c-1.764-2.585-3.858-4.822-6.152-6.606 3.026.199 5.824.932 8.077 2.192.353.2.824.194 1.153-.08.428-.355.483-.991.128-1.416C34.131 3.297 28.532.801 21.6.801 9.69.801 0 10.491 0 22.401zM22.104 3.746a18.444 18.444 0 0 0-2.692-.811 19.76 19.76 0 0 1 2.16-.124c.342.004.762.416 1.202 1.209a25.47 25.47 0 0 0-.67-.274zm2.177-.788c.816.089 1.686.23 2.579.439a13.02 13.02 0 0 0-1.731 1.128 10.086 10.086 0 0 0-.848-1.567zm3.384 2.151c.691-.446 1.324-.755 1.856-.88 1.007.404 2.007.918 2.954 1.571a24.97 24.97 0 0 0-4.81-.691zM11.367 7.756c.222-1.043.848-1.974 1.818-2.745 2.345-.7 5.074-.532 7.941.52a30.99 30.99 0 0 0-3.604.845 29.466 29.466 0 0 0-6.223 2.679 4.183 4.183 0 0 1 .068-1.299zm-1.887-.73c-.027.101-.057.204-.078.309a6.346 6.346 0 0 0 .06 2.883c-2.162 1.49-4.042 3.254-5.538 5.235a20.033 20.033 0 0 0-1.235 1.839A19.634 19.634 0 0 1 9.48 7.026zm4.323 6.402c-.832-.778-1.464-1.59-1.888-2.405a27.209 27.209 0 0 1 6.186-2.724 29.594 29.594 0 0 1 3.987-.893c-1.923 2.155-3.844 4.893-5.605 7.985a14.599 14.599 0 0 1-2.68-1.963zm8.586 4.186a21.31 21.31 0 0 1-4.11-1.317c1.874-3.278 3.925-6.129 5.948-8.25.631 2.488 1.162 5.829 1.385 9.973a18.905 18.905 0 0 1-3.223-.406zm3.983-9.204c2.284 1.7 4.378 3.893 6.129 6.46.332.486.645.981.942 1.48-1.605.926-3.634 1.483-5.825 1.638-.185-3.468-.596-6.803-1.246-9.578zM6.265 27.081c-1.707-1.578-2.88-3.247-3.477-4.907.472-1.858 1.389-3.721 2.739-5.509 1.28-1.696 2.871-3.222 4.699-4.534.526.953 1.264 1.883 2.203 2.763a16.553 16.553 0 0 0 3.089 2.258c-.319.603-.63 1.217-.934 1.84-1.782 3.651-3.237 7.57-4.091 11.127-1.586-.896-3.012-1.915-4.228-3.038zm13.028 6.301a32.42 32.42 0 0 1-6.968-2.322c.699-3.144 2.001-6.958 4.065-11.188.299-.613.605-1.215.918-1.807a23.35 23.35 0 0 0 4.66 1.514c1.25.267 2.5.414 3.726.456.021.754.033 1.53.033 2.331 0 4.73-.378 8.659-.924 11.726a33.113 33.113 0 0 1-5.51-.71zm8.442-11.016c0-.785-.012-1.571-.033-2.358 2.499-.166 4.813-.816 6.708-1.904 1.754 3.471 2.695 7.132 2.688 10.589a16.445 16.445 0 0 1-.247 2.851 15.212 15.212 0 0 1-3.109 1.427c-2.076.696-4.414 1.078-6.889 1.142.595-3.572.882-7.717.882-11.747zM2.761 27.762c-.171-.655-.28-1.32-.322-1.994a17.513 17.513 0 0 0 2.462 2.787c1.47 1.358 3.213 2.574 5.159 3.615-.397 2.221-.51 4.234-.258 5.858a19.652 19.652 0 0 1-7.041-10.266zm10.36 12.297a.946.946 0 0 0-.196-.128c-1.114-.544-1.565-3.032-.985-6.836a34.606 34.606 0 0 0 6.934 2.253c1.859.397 3.713.643 5.524.736-.888 3.862-2.027 5.889-2.781 5.889-.049 0-.094.008-.141.015a19.469 19.469 0 0 1-8.355-1.929zm13.35-3.934c2.837-.033 5.529-.449 7.911-1.25.6-.201 1.17-.425 1.713-.667-.662 1.619-1.637 2.969-2.905 3.973a19.47 19.47 0 0 1-8.668 3.591c.805-1.388 1.452-3.345 1.949-5.647z" fill="#fff" fill-rule="nonzero"/><clipPath id="a"><path d="M0 22.401c0 2.053.294 4.038.832 5.922.033.126.063.253.101.378.006.024.018.046.026.07C3.685 37.582 11.906 44 21.6 44c4.485 0 8.653-1.375 12.109-3.722a.97.97 0 0 0 .102-.06c.204-.139.403-.285.597-.438a21.65 21.65 0 0 0 8.144-12.133c.069-.228.131-.458.18-.691a1.07 1.07 0 0 0 .019-.166c.293-1.417.449-2.885.449-4.389 0-2.916-.571-5.744-1.697-8.407a1.004 1.004 0 1 0-1.851.782 19.447 19.447 0 0 1 1.538 7.625c0 1.621-.201 3.195-.574 4.704-.297.95-.818 1.831-1.539 2.628.018-.341.03-.687.031-1.037.008-3.853-1.059-7.923-3.036-11.75 1.45-1.246 2.374-2.781 2.692-4.502a1.006 1.006 0 0 0-1.977-.365c-.21 1.138-.8 2.179-1.725 3.068a31.302 31.302 0 0 0-.901-1.41c-1.764-2.585-3.858-4.822-6.152-6.606 3.026.199 5.824.932 8.077 2.192.353.2.824.194 1.153-.08.428-.355.483-.991.128-1.416C34.131 3.297 28.532.801 21.6.801 9.69.801 0 10.491 0 22.401zM22.104 3.746a18.444 18.444 0 0 0-2.692-.811 19.76 19.76 0 0 1 2.16-.124c.342.004.762.416 1.202 1.209a25.47 25.47 0 0 0-.67-.274zm2.177-.788c.816.089 1.686.23 2.579.439a13.02 13.02 0 0 0-1.731 1.128 10.086 10.086 0 0 0-.848-1.567zm3.384 2.151c.691-.446 1.324-.755 1.856-.88 1.007.404 2.007.918 2.954 1.571a24.97 24.97 0 0 0-4.81-.691zM11.367 7.756c.222-1.043.848-1.974 1.818-2.745 2.345-.7 5.074-.532 7.941.52a30.99 30.99 0 0 0-3.604.845 29.466 29.466 0 0 0-6.223 2.679 4.183 4.183 0 0 1 .068-1.299zm-1.887-.73c-.027.101-.057.204-.078.309a6.346 6.346 0 0 0 .06 2.883c-2.162 1.49-4.042 3.254-5.538 5.235a20.033 20.033 0 0 0-1.235 1.839A19.634 19.634 0 0 1 9.48 7.026zm4.323 6.402c-.832-.778-1.464-1.59-1.888-2.405a27.209 27.209 0 0 1 6.186-2.724 29.594 29.594 0 0 1 3.987-.893c-1.923 2.155-3.844 4.893-5.605 7.985a14.599 14.599 0 0 1-2.68-1.963zm8.586 4.186a21.31 21.31 0 0 1-4.11-1.317c1.874-3.278 3.925-6.129 5.948-8.25.631 2.488 1.162 5.829 1.385 9.973a18.905 18.905 0 0 1-3.223-.406zm3.983-9.204c2.284 1.7 4.378 3.893 6.129 6.46.332.486.645.981.942 1.48-1.605.926-3.634 1.483-5.825 1.638-.185-3.468-.596-6.803-1.246-9.578zM6.265 27.081c-1.707-1.578-2.88-3.247-3.477-4.907.472-1.858 1.389-3.721 2.739-5.509 1.28-1.696 2.871-3.222 4.699-4.534.526.953 1.264 1.883 2.203 2.763a16.553 16.553 0 0 0 3.089 2.258c-.319.603-.63 1.217-.934 1.84-1.782 3.651-3.237 7.57-4.091 11.127-1.586-.896-3.012-1.915-4.228-3.038zm13.028 6.301a32.42 32.42 0 0 1-6.968-2.322c.699-3.144 2.001-6.958 4.065-11.188.299-.613.605-1.215.918-1.807a23.35 23.35 0 0 0 4.66 1.514c1.25.267 2.5.414 3.726.456.021.754.033 1.53.033 2.331 0 4.73-.378 8.659-.924 11.726a33.113 33.113 0 0 1-5.51-.71zm8.442-11.016c0-.785-.012-1.571-.033-2.358 2.499-.166 4.813-.816 6.708-1.904 1.754 3.471 2.695 7.132 2.688 10.589a16.445 16.445 0 0 1-.247 2.851 15.212 15.212 0 0 1-3.109 1.427c-2.076.696-4.414 1.078-6.889 1.142.595-3.572.882-7.717.882-11.747zM2.761 27.762c-.171-.655-.28-1.32-.322-1.994a17.513 17.513 0 0 0 2.462 2.787c1.47 1.358 3.213 2.574 5.159 3.615-.397 2.221-.51 4.234-.258 5.858a19.652 19.652 0 0 1-7.041-10.266zm10.36 12.297a.946.946 0 0 0-.196-.128c-1.114-.544-1.565-3.032-.985-6.836a34.606 34.606 0 0 0 6.934 2.253c1.859.397 3.713.643 5.524.736-.888 3.862-2.027 5.889-2.781 5.889-.049 0-.094.008-.141.015a19.469 19.469 0 0 1-8.355-1.929zm13.35-3.934c2.837-.033 5.529-.449 7.911-1.25.6-.201 1.17-.425 1.713-.667-.662 1.619-1.637 2.969-2.905 3.973a19.47 19.47 0 0 1-8.668 3.591c.805-1.388 1.452-3.345 1.949-5.647z" clip-rule="nonzero"/></clipPath><g clip-path="url(#a)"><path fill="#fff" fill-rule="nonzero" d="M0 .801h43.2V44H0z"/></g><path d="M74.768 14.233h3.934l-4.691 16.336h-3.928l-2.851-10.244-2.896 10.244h-3.927L55.72 14.233h4.049l2.744 11.923 3.293-11.923h2.925l3.183 11.923 2.854-11.923zm11.745 13.426c1.383 0 3.703-.68 3.703-5.235 0-4.556-2.32-5.235-3.703-5.235-2.403 0-3.726 1.858-3.726 5.235 0 3.376 1.323 5.235 3.726 5.235zm0-13.563c3.529 0 7.299 2.188 7.299 8.328 0 6.107-3.77 8.281-7.299 8.281-3.539 0-7.32-2.174-7.32-8.281 0-6.14 3.781-8.328 7.32-8.328zm12.764 7.778h1.942c1.932 0 3.132-.904 3.132-2.355 0-1.525-1.05-2.399-2.88-2.399h-2.194v4.754zm7.201 3.742c.575 1.17 1.072 2.18 2.221 2.18h.825v2.688l-.12.034c-.026.006-.626.165-1.689.165-2.746 0-3.59-1.889-4.334-3.558-.61-1.369-1.138-2.548-2.573-2.548h-1.531v5.992h-3.48V14.233h5.788c4.231 0 6.202 1.65 6.202 5.194 0 2.194-1.316 3.543-2.629 4.124.579.561.955 1.324 1.32 2.065zm8.168-11.383h-3.48v16.336h10.548v-2.887h-7.068V14.233zm12.168 13.449h2.034c2.505 0 4.001-1.887 4.001-5.053 0-3.656-1.586-5.509-4.711-5.509h-1.324v10.562zm1.37-13.449c5.085 0 8.121 3.156 8.121 8.442 0 5.017-2.709 7.894-7.436 7.894h-5.536V14.233h4.851zm17.817 13.449h2.721c1.777 0 2.605-.668 2.605-2.102 0-1.757-1.454-2.125-2.674-2.125h-2.652v4.227zm2.377-6.77c1.451 0 2.125-.61 2.125-1.918 0-1.244-.86-1.874-2.559-1.874h-1.943v3.792h2.377zm3.877 1.046c1.254.361 2.896 1.512 2.896 3.964 0 2.953-2.093 4.647-5.744 4.647h-6.886V14.233h6.224c3.537 0 5.33 1.478 5.33 4.395 0 2.255-1.025 3.052-1.82 3.33zm10.945-3.27l-1.763 5.151h3.569l-1.806-5.151zm1.775-4.349l5.958 16.23h-3.618l-1.396-4.003h-5.44l-1.35 4.003h-3.642l5.997-16.336h3.451l.04.106zm16.129 9.986l-5.712-10.092h-3.528v16.336h3.48v-9.742l5.693 9.742h3.549V14.233h-3.482v10.092zm19.678-10.092h-4.136l-5.406 7.354v-7.354h-3.527v16.336h3.527v-7.516l5.543 7.516h4.184l-6.324-8.237 6.139-8.099zM211.2 24.599h3.592v.18c0 1.058-.375 2.835-2.88 2.835-2.361 0-3.771-1.94-3.771-5.19 0-3.327 1.348-5.235 3.702-5.235 2.801 0 2.9 2.83 2.903 2.951l.004.185 3.249-.507v-.14c0-1.178-1.053-5.582-6.202-5.582-4.608 0-7.251 3.035-7.251 8.328 0 5.185 2.728 8.281 7.297 8.281 4.595 0 6.224-3.205 6.224-5.949V21.92H211.2v2.679zm12.744-2.725h1.943c1.93 0 3.13-.904 3.13-2.355 0-1.525-1.05-2.399-2.88-2.399h-2.193v4.754zm7.2 3.742c.575 1.17 1.071 2.18 2.22 2.18h.827v2.688l-.12.034c-.026.006-.629.165-1.689.165-2.746 0-3.591-1.889-4.335-3.558-.61-1.369-1.137-2.548-2.573-2.548h-1.53v5.992h-3.481V14.233h5.789c4.229 0 6.201 1.65 6.201 5.194 0 2.194-1.315 3.543-2.629 4.124.579.561.955 1.324 1.32 2.065zm10.912 2.043c1.382 0 3.703-.68 3.703-5.235 0-4.556-2.321-5.235-3.703-5.235-2.404 0-3.726 1.858-3.726 5.235 0 3.376 1.322 5.235 3.726 5.235zm0-13.563c3.527 0 7.298 2.188 7.298 8.328 0 6.107-3.771 8.281-7.298 8.281-3.539 0-7.322-2.174-7.322-8.281 0-6.14 3.783-8.328 7.322-8.328zm18.66 9.929c0 2.399-.921 3.567-2.813 3.567-1.908 0-2.878-1.202-2.878-3.567v-9.792h-3.481v9.562c-.011 2.337.572 4.114 1.733 5.279 1.078 1.082 2.634 1.631 4.626 1.631 2.872 0 6.294-1.198 6.294-6.909v-9.563h-3.481v9.792zm9.883-1.535h2.08c2.016 0 3.041-.884 3.041-2.627 0-1.769-1.122-2.743-3.156-2.743h-1.965v5.37zm2.217-8.257c4.13 0 6.407 2 6.407 5.63 0 3.424-2.243 5.468-5.996 5.468h-2.628v5.238h-3.48V14.233h5.697z" fill="#fff" fill-rule="nonzero"/></g></svg>