<?xml version="1.0" encoding="UTF-8" standalone="no"?>
<!DOCTYPE svg PUBLIC "-//W3C//DTD SVG 1.1//EN" "http://www.w3.org/Graphics/SVG/1.1/DTD/svg11.dtd">
<svg width="100%" height="100%" viewBox="0 0 1167 184" version="1.1" xmlns="http://www.w3.org/2000/svg" xmlns:xlink="http://www.w3.org/1999/xlink" xml:space="preserve" xmlns:serif="http://www.serif.com/" style="fill-rule:evenodd;clip-rule:evenodd;stroke-linejoin:round;stroke-miterlimit:1.41421;">
    <g transform="matrix(4.16667,0,0,4.16667,0,0)">
        <path d="M0,22.401C0,24.454 0.294,26.439 0.832,28.323C0.865,28.449 0.895,28.576 0.933,28.701C0.939,28.725 0.951,28.747 0.959,28.771C3.685,37.582 11.906,44 21.6,44C26.085,44 30.253,42.625 33.709,40.278C33.743,40.26 33.778,40.241 33.811,40.218C34.015,40.079 34.214,39.933 34.408,39.78C38.383,36.842 41.317,32.58 42.552,27.647C42.621,27.419 42.683,27.189 42.732,26.956C42.744,26.9 42.748,26.844 42.751,26.79C43.044,25.373 43.2,23.905 43.2,22.401C43.2,19.485 42.629,16.657 41.503,13.994C41.287,13.482 40.696,13.243 40.186,13.46C39.675,13.675 39.436,14.264 39.652,14.776C40.674,17.191 41.19,19.754 41.19,22.401C41.19,24.022 40.989,25.596 40.616,27.105C40.319,28.055 39.798,28.936 39.077,29.733C39.095,29.392 39.107,29.046 39.108,28.696C39.116,24.843 38.049,20.773 36.072,16.946C37.522,15.7 38.446,14.165 38.764,12.444C38.864,11.899 38.503,11.374 37.959,11.274C37.413,11.172 36.889,11.534 36.787,12.079C36.577,13.217 35.987,14.258 35.062,15.147C34.774,14.672 34.478,14.202 34.161,13.737C32.397,11.152 30.303,8.915 28.009,7.131C31.035,7.33 33.833,8.063 36.086,9.323C36.439,9.523 36.91,9.517 37.239,9.243C37.667,8.888 37.722,8.252 37.367,7.827C34.131,3.297 28.532,0.801 21.6,0.801C9.69,0.801 0,10.491 0,22.401ZM22.104,3.746C21.196,3.397 20.298,3.128 19.412,2.935C20.122,2.856 20.842,2.812 21.572,2.811C21.914,2.815 22.334,3.227 22.774,4.02C22.551,3.926 22.328,3.833 22.104,3.746ZM24.281,2.958C25.097,3.047 25.967,3.188 26.86,3.397C26.299,3.698 25.72,4.074 25.129,4.525C24.868,3.933 24.585,3.409 24.281,2.958ZM27.665,5.109C28.356,4.663 28.989,4.354 29.521,4.229C30.528,4.633 31.528,5.147 32.475,5.8C30.955,5.421 29.339,5.191 27.665,5.109ZM11.367,7.756C11.589,6.713 12.215,5.782 13.185,5.011C15.53,4.311 18.259,4.479 21.126,5.531C19.92,5.741 18.713,6.018 17.522,6.376C15.306,7.043 13.215,7.95 11.299,9.055C11.255,8.615 11.276,8.18 11.367,7.756ZM9.48,7.026C9.453,7.127 9.423,7.23 9.402,7.335C9.199,8.284 9.222,9.253 9.462,10.218C7.3,11.708 5.42,13.472 3.924,15.453C3.467,16.057 3.059,16.671 2.689,17.292C3.802,13.177 6.224,9.598 9.48,7.026ZM13.803,13.428C12.971,12.65 12.339,11.838 11.915,11.023C13.798,9.89 15.88,8.967 18.101,8.299C19.42,7.905 20.756,7.61 22.088,7.406C20.165,9.561 18.244,12.299 16.483,15.391C15.48,14.811 14.575,14.152 13.803,13.428ZM22.389,17.614C20.934,17.303 19.551,16.856 18.279,16.297C20.153,13.019 22.204,10.168 24.227,8.047C24.858,10.535 25.389,13.876 25.612,18.02C24.547,17.979 23.463,17.844 22.389,17.614ZM26.372,8.41C28.656,10.11 30.75,12.303 32.501,14.87C32.833,15.356 33.146,15.851 33.443,16.35C31.838,17.276 29.809,17.833 27.618,17.988C27.433,14.52 27.022,11.185 26.372,8.41ZM6.265,27.081C4.558,25.503 3.385,23.834 2.788,22.174C3.26,20.316 4.177,18.453 5.527,16.665C6.807,14.969 8.398,13.443 10.226,12.131C10.752,13.084 11.49,14.014 12.429,14.894C13.321,15.731 14.363,16.489 15.518,17.152C15.199,17.755 14.888,18.369 14.584,18.992C12.802,22.643 11.347,26.562 10.493,30.119C8.907,29.223 7.481,28.204 6.265,27.081ZM19.293,33.382C16.806,32.85 14.454,32.059 12.325,31.06C13.024,27.916 14.326,24.102 16.39,19.872C16.689,19.259 16.995,18.657 17.308,18.065C18.751,18.713 20.321,19.226 21.968,19.579C23.218,19.846 24.468,19.993 25.694,20.035C25.715,20.789 25.727,21.565 25.727,22.366C25.727,27.096 25.349,31.025 24.803,34.092C23.005,34.015 21.155,33.781 19.293,33.382ZM27.735,22.366C27.735,21.581 27.723,20.795 27.702,20.008C30.201,19.842 32.515,19.192 34.41,18.104C36.164,21.575 37.105,25.236 37.098,28.693C37.097,29.694 37.01,30.645 36.851,31.544C35.948,32.098 34.91,32.578 33.742,32.971C31.666,33.667 29.328,34.049 26.853,34.113C27.448,30.541 27.735,26.396 27.735,22.366ZM2.761,27.762C2.59,27.107 2.481,26.442 2.439,25.768C3.108,26.72 3.927,27.656 4.901,28.555C6.371,29.913 8.114,31.129 10.06,32.17C9.663,34.391 9.55,36.404 9.802,38.028C6.451,35.492 3.942,31.904 2.761,27.762ZM13.121,40.059C13.062,40.01 12.998,39.966 12.925,39.931C11.811,39.387 11.36,36.899 11.94,33.095C14.084,34.059 16.42,34.823 18.874,35.348C20.733,35.745 22.587,35.991 24.398,36.084C23.51,39.946 22.371,41.973 21.617,41.973C21.568,41.973 21.523,41.981 21.476,41.988C18.486,41.969 15.653,41.28 13.121,40.059ZM26.471,36.125C29.308,36.092 32,35.676 34.382,34.875C34.982,34.674 35.552,34.45 36.095,34.208C35.433,35.827 34.458,37.177 33.19,38.181C30.687,40.025 27.731,41.291 24.522,41.772C25.327,40.384 25.974,38.427 26.471,36.125Z" style="fill:white;fill-rule:nonzero;"/>
        <clipPath id="_clip1">
            <path d="M0,22.401C0,24.454 0.294,26.439 0.832,28.323C0.865,28.449 0.895,28.576 0.933,28.701C0.939,28.725 0.951,28.747 0.959,28.771C3.685,37.582 11.906,44 21.6,44C26.085,44 30.253,42.625 33.709,40.278C33.743,40.26 33.778,40.241 33.811,40.218C34.015,40.079 34.214,39.933 34.408,39.78C38.383,36.842 41.317,32.58 42.552,27.647C42.621,27.419 42.683,27.189 42.732,26.956C42.744,26.9 42.748,26.844 42.751,26.79C43.044,25.373 43.2,23.905 43.2,22.401C43.2,19.485 42.629,16.657 41.503,13.994C41.287,13.482 40.696,13.243 40.186,13.46C39.675,13.675 39.436,14.264 39.652,14.776C40.674,17.191 41.19,19.754 41.19,22.401C41.19,24.022 40.989,25.596 40.616,27.105C40.319,28.055 39.798,28.936 39.077,29.733C39.095,29.392 39.107,29.046 39.108,28.696C39.116,24.843 38.049,20.773 36.072,16.946C37.522,15.7 38.446,14.165 38.764,12.444C38.864,11.899 38.503,11.374 37.959,11.274C37.413,11.172 36.889,11.534 36.787,12.079C36.577,13.217 35.987,14.258 35.062,15.147C34.774,14.672 34.478,14.202 34.161,13.737C32.397,11.152 30.303,8.915 28.009,7.131C31.035,7.33 33.833,8.063 36.086,9.323C36.439,9.523 36.91,9.517 37.239,9.243C37.667,8.888 37.722,8.252 37.367,7.827C34.131,3.297 28.532,0.801 21.6,0.801C9.69,0.801 0,10.491 0,22.401ZM22.104,3.746C21.196,3.397 20.298,3.128 19.412,2.935C20.122,2.856 20.842,2.812 21.572,2.811C21.914,2.815 22.334,3.227 22.774,4.02C22.551,3.926 22.328,3.833 22.104,3.746ZM24.281,2.958C25.097,3.047 25.967,3.188 26.86,3.397C26.299,3.698 25.72,4.074 25.129,4.525C24.868,3.933 24.585,3.409 24.281,2.958ZM27.665,5.109C28.356,4.663 28.989,4.354 29.521,4.229C30.528,4.633 31.528,5.147 32.475,5.8C30.955,5.421 29.339,5.191 27.665,5.109ZM11.367,7.756C11.589,6.713 12.215,5.782 13.185,5.011C15.53,4.311 18.259,4.479 21.126,5.531C19.92,5.741 18.713,6.018 17.522,6.376C15.306,7.043 13.215,7.95 11.299,9.055C11.255,8.615 11.276,8.18 11.367,7.756ZM9.48,7.026C9.453,7.127 9.423,7.23 9.402,7.335C9.199,8.284 9.222,9.253 9.462,10.218C7.3,11.708 5.42,13.472 3.924,15.453C3.467,16.057 3.059,16.671 2.689,17.292C3.802,13.177 6.224,9.598 9.48,7.026ZM13.803,13.428C12.971,12.65 12.339,11.838 11.915,11.023C13.798,9.89 15.88,8.967 18.101,8.299C19.42,7.905 20.756,7.61 22.088,7.406C20.165,9.561 18.244,12.299 16.483,15.391C15.48,14.811 14.575,14.152 13.803,13.428ZM22.389,17.614C20.934,17.303 19.551,16.856 18.279,16.297C20.153,13.019 22.204,10.168 24.227,8.047C24.858,10.535 25.389,13.876 25.612,18.02C24.547,17.979 23.463,17.844 22.389,17.614ZM26.372,8.41C28.656,10.11 30.75,12.303 32.501,14.87C32.833,15.356 33.146,15.851 33.443,16.35C31.838,17.276 29.809,17.833 27.618,17.988C27.433,14.52 27.022,11.185 26.372,8.41ZM6.265,27.081C4.558,25.503 3.385,23.834 2.788,22.174C3.26,20.316 4.177,18.453 5.527,16.665C6.807,14.969 8.398,13.443 10.226,12.131C10.752,13.084 11.49,14.014 12.429,14.894C13.321,15.731 14.363,16.489 15.518,17.152C15.199,17.755 14.888,18.369 14.584,18.992C12.802,22.643 11.347,26.562 10.493,30.119C8.907,29.223 7.481,28.204 6.265,27.081ZM19.293,33.382C16.806,32.85 14.454,32.059 12.325,31.06C13.024,27.916 14.326,24.102 16.39,19.872C16.689,19.259 16.995,18.657 17.308,18.065C18.751,18.713 20.321,19.226 21.968,19.579C23.218,19.846 24.468,19.993 25.694,20.035C25.715,20.789 25.727,21.565 25.727,22.366C25.727,27.096 25.349,31.025 24.803,34.092C23.005,34.015 21.155,33.781 19.293,33.382ZM27.735,22.366C27.735,21.581 27.723,20.795 27.702,20.008C30.201,19.842 32.515,19.192 34.41,18.104C36.164,21.575 37.105,25.236 37.098,28.693C37.097,29.694 37.01,30.645 36.851,31.544C35.948,32.098 34.91,32.578 33.742,32.971C31.666,33.667 29.328,34.049 26.853,34.113C27.448,30.541 27.735,26.396 27.735,22.366ZM2.761,27.762C2.59,27.107 2.481,26.442 2.439,25.768C3.108,26.72 3.927,27.656 4.901,28.555C6.371,29.913 8.114,31.129 10.06,32.17C9.663,34.391 9.55,36.404 9.802,38.028C6.451,35.492 3.942,31.904 2.761,27.762ZM13.121,40.059C13.062,40.01 12.998,39.966 12.925,39.931C11.811,39.387 11.36,36.899 11.94,33.095C14.084,34.059 16.42,34.823 18.874,35.348C20.733,35.745 22.587,35.991 24.398,36.084C23.51,39.946 22.371,41.973 21.617,41.973C21.568,41.973 21.523,41.981 21.476,41.988C18.486,41.969 15.653,41.28 13.121,40.059ZM26.471,36.125C29.308,36.092 32,35.676 34.382,34.875C34.982,34.674 35.552,34.45 36.095,34.208C35.433,35.827 34.458,37.177 33.19,38.181C30.687,40.025 27.731,41.291 24.522,41.772C25.327,40.384 25.974,38.427 26.471,36.125Z" clip-rule="nonzero"/>
        </clipPath>
        <g clip-path="url(#_clip1)">
            <rect x="0" y="0.801" width="43.2" height="43.199" style="fill:white;fill-rule:nonzero;"/>
        </g>
        <path d="M74.768,14.233L78.702,14.233L74.011,30.569L70.083,30.569L67.232,20.325L64.336,30.569L60.409,30.569L55.72,14.233L59.769,14.233L62.513,26.156L65.806,14.233L68.731,14.233L71.914,26.156L74.768,14.233ZM86.513,27.659C87.896,27.659 90.216,26.979 90.216,22.424C90.216,17.868 87.896,17.189 86.513,17.189C84.11,17.189 82.787,19.047 82.787,22.424C82.787,25.8 84.11,27.659 86.513,27.659ZM86.513,14.096C90.042,14.096 93.812,16.284 93.812,22.424C93.812,28.531 90.042,30.705 86.513,30.705C82.974,30.705 79.193,28.531 79.193,22.424C79.193,16.284 82.974,14.096 86.513,14.096ZM99.277,21.874L101.219,21.874C103.151,21.874 104.351,20.97 104.351,19.519C104.351,17.994 103.301,17.12 101.471,17.12L99.277,17.12L99.277,21.874ZM106.478,25.616C107.053,26.786 107.55,27.796 108.699,27.796L109.524,27.796L109.524,30.484L109.404,30.518C109.378,30.524 108.778,30.683 107.715,30.683C104.969,30.683 104.125,28.794 103.381,27.125C102.771,25.756 102.243,24.577 100.808,24.577L99.277,24.577L99.277,30.569L95.797,30.569L95.797,14.233L101.585,14.233C105.816,14.233 107.787,15.883 107.787,19.427C107.787,21.621 106.471,22.97 105.158,23.551C105.737,24.112 106.113,24.875 106.478,25.616ZM114.646,14.233L111.166,14.233L111.166,30.569L121.714,30.569L121.714,27.682L114.646,27.682L114.646,14.233ZM126.814,27.682L128.848,27.682C131.353,27.682 132.849,25.795 132.849,22.629C132.849,18.973 131.263,17.12 128.138,17.12L126.814,17.12L126.814,27.682ZM128.184,14.233C133.269,14.233 136.305,17.389 136.305,22.675C136.305,27.692 133.596,30.569 128.869,30.569L123.333,30.569L123.333,14.233L128.184,14.233ZM146.001,27.682L148.722,27.682C150.499,27.682 151.327,27.014 151.327,25.58C151.327,23.823 149.873,23.455 148.653,23.455L146.001,23.455L146.001,27.682ZM148.378,20.912C149.829,20.912 150.503,20.302 150.503,18.994C150.503,17.75 149.643,17.12 147.944,17.12L146.001,17.12L146.001,20.912L148.378,20.912ZM152.255,21.958C153.509,22.319 155.151,23.47 155.151,25.922C155.151,28.875 153.058,30.569 149.407,30.569L142.521,30.569L142.521,14.233L148.745,14.233C152.282,14.233 154.075,15.711 154.075,18.628C154.075,20.883 153.05,21.68 152.255,21.958ZM163.2,18.688L161.437,23.839L165.006,23.839L163.2,18.688ZM164.975,14.339L170.933,30.569L167.315,30.569L165.919,26.566L160.479,26.566L159.129,30.569L155.487,30.569L161.484,14.233L164.935,14.233L164.975,14.339ZM181.104,24.325L175.392,14.233L171.864,14.233L171.864,30.569L175.344,30.569L175.344,20.827L181.037,30.569L184.586,30.569L184.586,14.233L181.104,14.233L181.104,24.325ZM200.782,14.233L196.646,14.233L191.24,21.587L191.24,14.233L187.713,14.233L187.713,30.569L191.24,30.569L191.24,23.053L196.783,30.569L200.967,30.569L194.643,22.332L200.782,14.233ZM211.2,24.599L214.792,24.599L214.792,24.779C214.792,25.837 214.417,27.614 211.912,27.614C209.551,27.614 208.141,25.674 208.141,22.424C208.141,19.097 209.489,17.189 211.843,17.189C214.644,17.189 214.743,20.019 214.746,20.14L214.75,20.325L217.999,19.818L217.999,19.678C217.999,18.5 216.946,14.096 211.797,14.096C207.189,14.096 204.546,17.131 204.546,22.424C204.546,27.609 207.274,30.705 211.843,30.705C216.438,30.705 218.067,27.5 218.067,24.756L218.067,21.92L211.2,21.92L211.2,24.599ZM223.944,21.874L225.887,21.874C227.817,21.874 229.017,20.97 229.017,19.519C229.017,17.994 227.967,17.12 226.137,17.12L223.944,17.12L223.944,21.874ZM231.144,25.616C231.719,26.786 232.215,27.796 233.364,27.796L234.191,27.796L234.191,30.484L234.071,30.518C234.045,30.524 233.442,30.683 232.382,30.683C229.636,30.683 228.791,28.794 228.047,27.125C227.437,25.756 226.91,24.577 225.474,24.577L223.944,24.577L223.944,30.569L220.463,30.569L220.463,14.233L226.252,14.233C230.481,14.233 232.453,15.883 232.453,19.427C232.453,21.621 231.138,22.97 229.824,23.551C230.403,24.112 230.779,24.875 231.144,25.616ZM242.056,27.659C243.438,27.659 245.759,26.979 245.759,22.424C245.759,17.868 243.438,17.189 242.056,17.189C239.652,17.189 238.33,19.047 238.33,22.424C238.33,25.8 239.652,27.659 242.056,27.659ZM242.056,14.096C245.583,14.096 249.354,16.284 249.354,22.424C249.354,28.531 245.583,30.705 242.056,30.705C238.517,30.705 234.734,28.531 234.734,22.424C234.734,16.284 238.517,14.096 242.056,14.096ZM260.716,24.025C260.716,26.424 259.795,27.592 257.903,27.592C255.995,27.592 255.025,26.39 255.025,24.025L255.025,14.233L251.544,14.233L251.544,23.795C251.533,26.132 252.116,27.909 253.277,29.074C254.355,30.156 255.911,30.705 257.903,30.705C260.775,30.705 264.197,29.507 264.197,23.796L264.197,14.233L260.716,14.233L260.716,24.025ZM270.599,22.49L272.679,22.49C274.695,22.49 275.72,21.606 275.72,19.863C275.72,18.094 274.598,17.12 272.564,17.12L270.599,17.12L270.599,22.49ZM272.816,14.233C276.946,14.233 279.223,16.233 279.223,19.863C279.223,23.287 276.98,25.331 273.227,25.331L270.599,25.331L270.599,30.569L267.119,30.569L267.119,14.233L272.816,14.233Z" style="fill:white;fill-rule:nonzero;"/>
    </g>
</svg>
