<?xml version="1.0" encoding="utf-8"?>
<!-- Generator: Adobe Illustrator 16.0.4, SVG Export Plug-In . SVG Version: 6.00 Build 0)  -->
<!DOCTYPE svg PUBLIC "-//W3C//DTD SVG 1.1 Tiny//EN" "http://www.w3.org/Graphics/SVG/1.1/DTD/svg11-tiny.dtd">
<svg version="1.1" baseProfile="tiny" id="Layer_1" xmlns="http://www.w3.org/2000/svg" xmlns:xlink="http://www.w3.org/1999/xlink"
	 x="0px" y="0px" width="334.113px" height="100.446px" viewBox="0 0 334.113 100.446" xml:space="preserve">
<g>
	<text transform="matrix(1 0 0 1 125.3564 62.084)" fill="#5D5F5E" font-family="'HelveticaNeue-Bold'" font-size="40">W</text>
	<text transform="matrix(1 0 0 1 160.8359 62.084)" fill="#5D5F5E" font-family="'HelveticaNeue-Bold'" font-size="40">o</text>
	<text transform="matrix(1 0 0 1 185.2764 62.084)" fill="#5D5F5E" font-family="'HelveticaNeue-Bold'" font-size="40">r</text>
	<text transform="matrix(1 0 0 1 200.8359 62.084)" fill="#5D5F5E" font-family="'HelveticaNeue-Bold'" font-size="40">k</text>
	<text transform="matrix(1 0 0 1 223.7949 62.084)" fill="#5D5F5E" font-family="'HelveticaNeue-Bold'" font-size="40">s</text>
	<text transform="matrix(1 0 0 1 245.2744 62.084)" fill="#5D5F5E" font-family="'HelveticaNeue-Bold'" font-size="40">m</text>
	<text transform="matrix(1 0 0 1 281.5146 62.084)" fill="#5D5F5E" font-family="'HelveticaNeue-Bold'" font-size="40">a</text>
	<text transform="matrix(1 0 0 1 304.4736 62.084)" fill="#5D5F5E" font-family="'HelveticaNeue-Bold'" font-size="40">r</text>
	<text transform="matrix(1 0 0 1 320.0332 62.084)" fill="#5D5F5E" font-family="'HelveticaNeue-Bold'" font-size="40">t</text>
	<g>
		<path fill="#5D5F5E" d="M50.362,48.323c0.009,1.881-0.168,3.555-0.534,5.01c-0.367,1.459-0.851,2.73-1.46,3.82
			c-0.608,1.085-1.32,1.997-2.136,2.734c-0.82,0.738-1.667,1.334-2.547,1.781c-0.874,0.452-1.767,0.784-2.676,0.987
			c-0.907,0.202-1.764,0.307-2.562,0.311c-1.665,0.013-3.11-0.261-4.334-0.792c-1.228-0.539-2.33-1.334-3.309-2.395h-0.086
			l0.073,15.787l-4.343,0.017L26.26,35.183l3.338-0.012l0.96,3.079h0.083c0.248-0.386,0.564-0.755,0.953-1.119
			c0.39-0.364,0.91-0.753,1.568-1.168c0.651-0.407,1.44-0.763,2.364-1.077c0.919-0.314,1.925-0.465,3.011-0.469
			c1.519-0.013,2.99,0.236,4.413,0.75c1.423,0.506,2.676,1.318,3.767,2.433c1.088,1.122,1.968,2.561,2.632,4.317
			C50.015,43.67,50.351,45.812,50.362,48.323 M45.736,48.401c-0.004-1.586-0.18-2.996-0.521-4.256
			c-0.342-1.255-0.848-2.324-1.523-3.203c-0.674-0.881-1.496-1.557-2.478-2.029c-0.977-0.469-2.109-0.704-3.39-0.701
			c-0.922,0.004-1.759,0.142-2.512,0.39c-0.754,0.245-1.441,0.56-2.049,0.949c-0.609,0.378-1.134,0.792-1.57,1.235
			c-0.44,0.438-0.794,0.828-1.06,1.172L30.7,56.146c0.942,0.949,2.014,1.695,3.21,2.25c1.201,0.543,2.487,0.809,3.866,0.805
			c0.843-0.004,1.733-0.166,2.668-0.48c0.936-0.319,1.801-0.887,2.591-1.699c0.792-0.809,1.442-1.919,1.953-3.307
			C45.5,52.317,45.749,50.548,45.736,48.401"/>
		<path fill="#5D5F5E" d="M57.58,42.261c0.002,0.746,0.16,1.352,0.477,1.828c0.32,0.467,0.745,0.857,1.279,1.151
			c0.535,0.29,1.148,0.534,1.844,0.717c0.701,0.187,1.423,0.356,2.166,0.501c1.023,0.229,1.994,0.477,2.907,0.746
			c0.915,0.273,1.759,0.68,2.532,1.234c0.775,0.543,1.402,1.289,1.881,2.226c0.48,0.94,0.727,2.163,0.732,3.667
			c0.004,1.372-0.26,2.59-0.786,3.65c-0.526,1.049-1.278,1.943-2.241,2.665c-0.969,0.717-2.127,1.26-3.475,1.641
			c-1.352,0.377-2.836,0.571-4.451,0.575c-0.99,0.005-1.896-0.045-2.699-0.145c-0.812-0.103-1.525-0.228-2.146-0.389
			c-0.616-0.158-1.149-0.324-1.587-0.494c-0.437-0.166-0.802-0.326-1.089-0.48l-0.016-3.709c1.127,0.448,2.237,0.809,3.343,1.074
			c1.102,0.256,2.318,0.385,3.645,0.377c1.045-0.004,1.991-0.107,2.83-0.295c0.838-0.194,1.562-0.48,2.172-0.857
			c0.602-0.368,1.064-0.842,1.39-1.404c0.325-0.56,0.485-1.215,0.481-1.956c-0.002-0.763-0.156-1.388-0.452-1.885
			c-0.304-0.489-0.71-0.903-1.214-1.223c-0.507-0.319-1.094-0.585-1.758-0.787c-0.662-0.216-1.359-0.397-2.088-0.563
			c-0.957-0.203-1.922-0.447-2.906-0.73c-0.982-0.277-1.876-0.67-2.681-1.188c-0.81-0.506-1.459-1.207-1.958-2.086
			c-0.5-0.882-0.753-2.018-0.759-3.409c-0.007-1.431,0.245-2.669,0.753-3.717c0.51-1.048,1.199-1.915,2.072-2.606
			c0.871-0.691,1.886-1.21,3.045-1.559c1.162-0.352,2.391-0.521,3.683-0.529c1.503-0.005,2.9,0.132,4.183,0.41
			c1.291,0.273,2.455,0.633,3.505,1.068l0.019,3.766c-1.115-0.43-2.246-0.777-3.391-1.056c-1.144-0.27-2.318-0.411-3.525-0.427
			c-1.021,0.008-1.895,0.111-2.619,0.331c-0.721,0.207-1.316,0.501-1.779,0.88c-0.463,0.372-0.801,0.811-1.01,1.316
			C57.677,41.093,57.575,41.651,57.58,42.261"/>
		<path fill="#5D5F5E" d="M75.209,23.706l4.429-0.021l0.025,4.939l-4.431,0.021L75.209,23.706z M75.376,34.96l4.434-0.029
			l0.127,27.129l-4.433,0.024L75.376,34.96z"/>
		<polygon fill="#5D5F5E" points="86.81,15.074 86.789,10.671 0,11.081 0.019,15.484 0.406,97.702 0.392,97.702 0.406,100.446 
			32.128,100.301 32.119,97.55 12.273,97.646 11.886,15.431 		"/>
		<polygon fill="#5D5F5E" points="106.597,83.769 106.597,83.769 106.203,0.161 106.197,0.161 106.197,0 74.175,0.153 74.185,2.522 
			94.278,2.425 94.664,83.821 21.375,84.166 21.396,88.86 94.684,88.521 94.684,88.521 106.619,88.458 106.619,88.458 		"/>
	</g>
</g>
</svg>
