<svg xmlns="http://www.w3.org/2000/svg" width="16" height="16" viewBox="0 0 16 16"><path fill="currentColor" fill-rule="evenodd" d="M8 0C3.583 0 0 3.468 0 7.746c0 3.422 2.292 6.326 5.471 7.35.4.072.529-.168.529-.372v-1.442c-2.225.468-2.689-.914-2.689-.914-.364-.896-.888-1.134-.888-1.134-.726-.48.055-.47.055-.47.803.054 1.226.798 1.226.798.713 1.184 1.871.842 2.328.644.071-.5.279-.843.508-1.036-1.777-.197-3.645-.86-3.645-3.828 0-.846.313-1.537.824-2.08-.082-.195-.356-.983.078-2.05 0 0 .672-.207 2.201.795A7.909 7.909 0 0 1 8 3.746c.68.003 1.365.089 2.004.26 1.527-1.001 2.198-.793 2.198-.793.435 1.067.161 1.855.079 2.05.513.542.823 1.233.823 2.079 0 2.975-1.871 3.63-3.653 3.822.287.24.549.711.549 1.434v2.126c0 .206.128.448.534.372C13.711 14.07 16 11.167 16 7.746 16 3.468 12.418 0 8 0z"/></svg>