<svg width="24" height="24" viewBox="0 0 24 24" xmlns="http://www.w3.org/2000/svg"><title>icon-pinterest</title><path d="M12 0C5.373 0 0 5.372 0 12c0 5.084 3.163 9.426 7.627 11.174-.105-.95-.2-2.405.042-3.44.217-.938 1.406-5.966 1.406-5.966s-.36-.72-.36-1.782c0-1.668.968-2.914 2.172-2.914 1.023 0 1.518.77 1.518 1.69 0 1.03-.655 2.568-.994 3.995-.283 1.194.6 2.17 1.777 2.17 2.132 0 3.77-2.25 3.77-5.496 0-2.872-2.063-4.88-5.01-4.88-3.415 0-5.42 2.56-5.42 5.206 0 1.03.398 2.138.894 2.738.098.12.112.224.083.345l-.333 1.36c-.053.22-.174.266-.402.16-1.5-.698-2.436-2.89-2.436-4.65 0-3.784 2.75-7.26 7.93-7.26 4.162 0 7.397 2.966 7.397 6.93 0 4.136-2.607 7.464-6.227 7.464-1.216 0-2.36-.63-2.75-1.378l-.748 2.853c-.27 1.042-1.002 2.35-1.492 3.145C9.57 23.812 10.763 24 12 24c6.627 0 12-5.373 12-12 0-6.628-5.373-12-12-12z" fill="#273750" fill-rule="evenodd"/></svg>