<?xml version="1.0" encoding="UTF-8" standalone="no"?>
<svg width="23px" height="19px" viewBox="0 0 23 19" version="1.1" xmlns="http://www.w3.org/2000/svg" xmlns:xlink="http://www.w3.org/1999/xlink">
    <!-- Generator: Sketch 40 (33762) - http://www.bohemiancoding.com/sketch -->
    <title>icon-twitter</title>
    <desc>Created with Sketch.</desc>
    <defs></defs>
    <g id="assets" stroke="none" stroke-width="1" fill="none" fill-rule="evenodd">
        <g id="icons" transform="translate(-124.000000, -113.000000)" fill="#273750">
            <path d="M147,115.212792 C146.153792,115.588458 145.244333,115.841458 144.289833,115.9555 C145.264458,115.371875 146.012917,114.447083 146.364625,113.345 C145.45325,113.8855 144.443167,114.278417 143.367917,114.490208 C142.508292,113.573083 141.280667,113 139.923667,113 C136.877125,113 134.638458,115.842417 135.326542,118.793125 C131.406,118.596667 127.929167,116.718333 125.601375,113.863458 C124.365125,115.98425 124.96025,118.758625 127.060917,120.163542 C126.2885,120.138625 125.560167,119.926833 124.924792,119.573208 C124.873042,121.759167 126.439917,123.80425 128.70925,124.259458 C128.045125,124.439625 127.31775,124.481792 126.577917,124.339958 C127.177833,126.214458 128.920083,127.578167 130.98625,127.6165 C129.0025,129.171875 126.503167,129.866667 124,129.5715 C126.088208,130.910292 128.569333,131.691333 131.2335,131.691333 C139.994583,131.691333 144.944375,124.292042 144.645375,117.655583 C145.567292,116.989542 146.3675,116.158667 147,115.212792 L147,115.212792 Z" id="icon-twitter"></path>
        </g>
    </g>
</svg>