<?xml version="1.0" encoding="UTF-8" standalone="no"?>
<svg width="24px" height="24px" viewBox="0 0 24 24" version="1.1" xmlns="http://www.w3.org/2000/svg" xmlns:xlink="http://www.w3.org/1999/xlink">
    <!-- Generator: Sketch 40 (33762) - http://www.bohemiancoding.com/sketch -->
    <title>icon-github</title>
    <desc>Created with Sketch.</desc>
    <defs></defs>
    <g id="assets" stroke="none" stroke-width="1" fill="none" fill-rule="evenodd">
        <g id="icons" transform="translate(-124.000000, -154.000000)" fill="#273750">
            <path d="M136,154 C129.374,154 124,159.373 124,166 C124,171.302 127.438,175.8 132.207,177.387 C132.806,177.498 133,177.126 133,176.81 L133,174.576 C129.662,175.302 128.967,173.16 128.967,173.16 C128.421,171.773 127.634,171.404 127.634,171.404 C126.545,170.659 127.717,170.675 127.717,170.675 C128.922,170.759 129.556,171.912 129.556,171.912 C130.626,173.746 132.363,173.216 133.048,172.909 C133.155,172.134 133.466,171.604 133.81,171.305 C131.145,171 128.343,169.971 128.343,165.374 C128.343,164.063 128.812,162.993 129.579,162.153 C129.455,161.85 129.044,160.629 129.696,158.977 C129.696,158.977 130.704,158.655 132.997,160.207 C133.954,159.941 134.98,159.808 136,159.803 C137.02,159.808 138.047,159.941 139.006,160.207 C141.297,158.655 142.303,158.977 142.303,158.977 C142.956,160.63 142.545,161.851 142.421,162.153 C143.191,162.993 143.656,164.064 143.656,165.374 C143.656,169.983 140.849,170.998 138.177,171.295 C138.607,171.667 139,172.397 139,173.517 L139,176.81 C139,177.129 139.192,177.504 139.801,177.386 C144.566,175.797 148,171.3 148,166 C148,159.373 142.627,154 136,154 L136,154 Z" id="icon-github"></path>
        </g>
    </g>
</svg>