<svg width="23" height="19" viewBox="0 0 23 19" xmlns="http://www.w3.org/2000/svg"><title>icon-twitter</title><path d="M23 2.213c-.846.375-1.756.628-2.71.743.974-.584 1.723-1.51 2.075-2.61-.912.54-1.922.932-2.997 1.144C18.508.573 17.28 0 15.924 0c-3.047 0-5.286 2.842-4.597 5.793C7.407 5.597 3.93 3.718 1.6.863.366 2.983.96 5.76 3.06 7.163c-.772-.024-1.5-.236-2.135-.59C.873 8.76 2.44 10.803 4.71 11.26c-.665.18-1.392.222-2.132.08.6 1.874 2.342 3.238 4.408 3.277C5.002 16.172 2.503 16.867 0 16.57c2.088 1.34 4.57 2.12 7.233 2.12 8.762 0 13.71-7.398 13.412-14.034.922-.666 1.723-1.497 2.355-2.443z" fill="#273750" fill-rule="evenodd"/></svg>