<svg width="24" height="24" viewBox="0 0 24 24" xmlns="http://www.w3.org/2000/svg"><title>icon-instagram</title><path d="M15.233 5.488c-.843-.038-1.097-.046-3.233-.046s-2.39.008-3.232.046c-2.17.1-3.18 1.127-3.28 3.28-.038.843-.047 1.096-.047 3.232s.01 2.39.048 3.233c.1 2.148 1.106 3.18 3.28 3.28.842.037 1.096.046 3.232.046 2.137 0 2.39-.01 3.233-.047 2.17-.1 3.18-1.13 3.28-3.28.037-.843.045-1.096.045-3.232 0-2.135-.008-2.388-.046-3.23-.1-2.154-1.11-3.183-3.28-3.282zM12 16.108c-2.27 0-4.108-1.84-4.108-4.108 0-2.27 1.84-4.108 4.108-4.108s4.108 1.84 4.108 4.108c0 2.27-1.84 4.108-4.108 4.108zm4.27-7.418c-.53 0-.96-.43-.96-.96s.43-.96.96-.96.96.43.96.96-.43.96-.96.96zM14.668 12c0 1.473-1.194 2.667-2.667 2.667-1.473 0-2.667-1.194-2.667-2.667 0-1.473 1.194-2.667 2.667-2.667 1.473 0 2.667 1.194 2.667 2.667zM19 0H5C2.24 0 0 2.24 0 5v14c0 2.76 2.24 5 5 5h14c2.762 0 5-2.24 5-5V5c0-2.76-2.238-5-5-5zm.952 15.298c-.132 2.91-1.75 4.52-4.653 4.654-.855.04-1.127.048-3.3.048s-2.444-.01-3.298-.048c-2.908-.133-4.52-1.748-4.654-4.654C4.008 14.445 4 14.173 4 12c0-2.172.01-2.445.048-3.298.134-2.908 1.748-4.52 4.654-4.653C9.556 4.01 9.827 4 12 4s2.445.01 3.3.048c2.907.133 4.522 1.75 4.652 4.653.04.855.048 1.128.048 3.3 0 2.173-.01 2.445-.048 3.298z" fill="#273750" fill-rule="evenodd"/></svg>