<svg width="20" height="24" viewBox="0 0 20 24" xmlns="http://www.w3.org/2000/svg"><title>icon-clipboard</title><path d="M5 14.73l.855-1.152c1 .484 1.635.852 2.76 1.654 2.113-2.4 3.51-3.616 6.106-5.23l.28.64c-2.14 1.868-3.71 3.948-5.967 7.998C7.64 17 6.71 16.314 5 14.73zM20 3v21H0V3h4.666L2 5.808V22h16V5.808L15.39 3H20zm-3.646 4l-3.312-3.57v-.41c0-1.667-1.352-3.02-3.02-3.02S7 1.332 7 3v.43L3.704 7h12.65zM10 2c.553 0 1 .448 1 1s-.447 1-1 1c-.553 0-1-.448-1-1s.447-1 1-1z" fill="#273750" fill-rule="evenodd"/></svg>