<svg xmlns="http://www.w3.org/2000/svg" width="16" height="16" viewBox="0 0 16 16"><path fill="currentColor" fill-rule="evenodd" d="M10.155 3.659c-.562-.026-.731-.031-2.155-.031s-1.593.005-2.155.03c-1.446.067-2.12.752-2.186 2.187-.026.562-.032.731-.032 2.155s.006 1.593.032 2.155c.066 1.432.737 2.12 2.186 2.186.562.026.731.032 2.155.032 1.425 0 1.593-.006 2.155-.031 1.447-.066 2.12-.753 2.186-2.186.026-.563.031-.731.031-2.155s-.005-1.593-.03-2.155c-.067-1.435-.741-2.121-2.187-2.187zM8 10.739a2.738 2.738 0 1 1 0-5.477 2.738 2.738 0 0 1 0 5.477zm2.847-4.946a.64.64 0 1 1 0-1.28.64.64 0 0 1 0 1.28zM9.778 8a1.778 1.778 0 1 1-3.556 0 1.778 1.778 0 0 1 3.556 0zm2.889-8H3.333A3.334 3.334 0 0 0 0 3.333v9.334A3.334 3.334 0 0 0 3.333 16h9.334A3.333 3.333 0 0 0 16 12.667V3.333A3.333 3.333 0 0 0 12.667 0zm.634 10.199c-.088 1.939-1.167 3.014-3.102 3.102-.569.026-.75.032-2.199.032-1.449 0-1.63-.006-2.199-.032-1.938-.088-3.013-1.165-3.102-3.102-.026-.569-.032-.75-.032-2.199 0-1.448.006-1.63.032-2.199C2.788 3.863 3.864 2.787 5.8 2.7c.57-.026.75-.032 2.199-.032 1.449 0 1.63.006 2.2.032 1.938.088 3.015 1.167 3.101 3.102.026.569.032.751.032 2.199 0 1.449-.006 1.63-.032 2.199z"/></svg>