<svg xmlns="http://www.w3.org/2000/svg" width="16" height="16" viewBox="0 0 16 16"><path fill="#273750" fill-rule="evenodd" d="M8 0a8 8 0 0 0-2.915 15.45c-.07-.633-.134-1.604.028-2.295.145-.624.938-3.976.938-3.976s-.24-.48-.24-1.188c0-1.112.645-1.943 1.448-1.943.682 0 1.012.513 1.012 1.127 0 .686-.437 1.712-.663 2.663-.189.796.4 1.446 1.185 1.446 1.422 0 2.514-1.5 2.514-3.663 0-1.916-1.376-3.255-3.341-3.255-2.276 0-3.612 1.707-3.612 3.471 0 .688.265 1.426.595 1.826a.24.24 0 0 1 .056.23l-.222.906c-.036.147-.116.178-.268.108-1-.466-1.624-1.926-1.624-3.1 0-2.523 1.833-4.841 5.286-4.841 2.775 0 4.932 1.978 4.932 4.62 0 2.758-1.738 4.977-4.152 4.977-.81 0-1.572-.421-1.833-.919l-.499 1.902c-.18.695-.668 1.567-.994 2.097A8 8 0 1 0 8 0h-.001z"/></svg>