<?xml version="1.0" standalone="no"?>
<!DOCTYPE svg PUBLIC "-//W3C//DTD SVG 20010904//EN"
 "http://www.w3.org/TR/2001/REC-SVG-20010904/DTD/svg10.dtd">
<svg version="1.0" xmlns="http://www.w3.org/2000/svg"
 width="244.000000pt" height="244.000000pt" viewBox="0 0 244.000000 244.000000"
 preserveAspectRatio="xMidYMid meet">
<metadata>
Created by potrace 1.11, written by Peter Selinger 2001-2013
</metadata>
<g transform="translate(0.000000,244.000000) scale(0.100000,-0.100000)"
fill="#000000" stroke="none">
<path d="M674 2330 c-133 -130 -155 -169 -155 -269 1 -82 37 -133 203 -293 84
-80 183 -174 219 -209 93 -90 441 -424 503 -483 28 -26 93 -89 144 -138 l92
-90 106 104 c136 133 159 170 159 263 0 117 4 112 -364 465 -106 102 -215 205
-241 230 -39 37 -278 266 -475 455 -87 84 -66 88 -191 -35z"/>
<path d="M1510 2303 c-67 -65 -144 -139 -171 -164 l-49 -46 93 -88 c50 -48
135 -129 188 -181 53 -52 99 -94 102 -94 15 0 197 188 213 220 10 20 19 62 20
101 4 97 -21 142 -149 267 -58 56 -110 102 -115 102 -6 0 -65 -53 -132 -117z"/>
<path d="M644 1472 c-134 -129 -148 -153 -149 -247 0 -118 -10 -105 365 -465
105 -102 214 -205 240 -230 26 -25 134 -128 240 -230 106 -102 220 -211 253
-242 l61 -57 86 82 c158 152 180 187 181 281 2 96 -27 139 -212 316 -89 85
-185 178 -214 205 -29 28 -104 100 -167 160 -63 61 -213 205 -332 320 -120
116 -223 211 -230 212 -6 2 -61 -46 -122 -105z"/>
<path d="M664 610 c-106 -105 -133 -150 -138 -228 -7 -95 15 -135 147 -265
l121 -118 65 64 c36 35 117 112 179 173 l113 109 -182 175 c-100 96 -187 178
-193 182 -7 4 -52 -33 -112 -92z"/>
</g>
</svg>
