<svg width="105" height="40" viewBox="0 0 105 40" xmlns="http://www.w3.org/2000/svg"><title>logo-bivee-reverse copy</title><g fill="none" fill-rule="evenodd"><g fill="#273750"><path d="M38.6 9.92v20.865h8.3c3.83 0 6.546-2.26 6.546-5.742 0-2.862-1.836-4.69-4.205-5.266 1.48-.72 2.69-2.187 2.69-4.473 0-3.448-2.753-5.383-6.407-5.383H38.6zm7.42 11.135c2.964 0 5.03 1.216 5.03 3.88 0 2.637-2.02 3.798-4.72 3.798h-5.398v-7.678h5.087zm-1.03-9.09c2.672 0 4.59 1.008 4.59 3.474 0 2.483-1.927 3.635-4.287 3.635h-4.36v-7.11h4.058zM56.667 12.89c.89 0 1.615-.71 1.615-1.583s-.725-1.584-1.615-1.584-1.616.71-1.616 1.584c0 .874.726 1.584 1.617 1.584zM55.52 30.786h2.285v-14.67H55.52v14.67zM62.386 16.114h-2.488l5.84 14.67h2.386l6.06-14.67h-2.35l-4.83 12.178M87.652 29.183l-1.084-1.467c-1.285.873-2.81 1.395-4.434 1.395-3.113 0-5.15-1.898-5.39-4.95h12.01c.027-.206.064-.63.064-1.053 0-4.086-2.736-7.29-7.006-7.29-4.122 0-7.39 2.997-7.39 7.74 0 4.86 3.425 7.526 7.602 7.526 2.148 0 4.186-.703 5.628-1.9zm-10.86-6.77c.283-2.663 2.275-4.625 5.04-4.625 2.92 0 4.58 2.196 4.7 4.626h-9.74zM103.745 29.183l-1.084-1.467c-1.284.873-2.807 1.395-4.433 1.395-3.112 0-5.15-1.898-5.39-4.95h12.01c.027-.206.064-.63.064-1.053 0-4.086-2.735-7.29-7.004-7.29-4.122 0-7.39 2.997-7.39 7.74 0 4.86 3.424 7.526 7.6 7.526 2.15 0 4.188-.703 5.63-1.9zm-10.86-6.77c.284-2.663 2.276-4.625 5.04-4.625 2.92 0 4.58 2.196 4.7 4.626h-9.74z"/></g><path d="M21.81 9.227l-2.536 2.49-6.126-6.004 5.6-5.493 3.062 3.002c1.69 1.657 1.69 4.35 0 6.005M23.27 33.96c0 1.136-.448 2.203-1.267 3.006L18.94 39.97c-17.017-16.687-.346-.336-17.347-17.01-.818-.802-1.27-1.868-1.27-3 0-.97.293-1.944 1.077-2.732l3.3-3.236c17.084 16.754.298.3 17.303 16.965.82.803 1.268 1.87 1.268 3.003" fill="#EF4658"/><path d="M10.925 34.337L5.18 39.97l-3.06-3.004C.43 35.31.43 32.614 2.114 30.962L4.8 28.33l6.125 6.008zM23.7 20.04c0 1.14-.45 2.204-1.268 3.008L19.37 26.05C2.313 9.326 18.965 25.656 2.023 9.042c-1.69-1.657-1.69-4.352 0-6.005L5.085.03 22.432 17.04c.82.803 1.27 1.87 1.27 3.003" fill="#11A9BE"/></g></svg>