<svg width="51" height="20" viewBox="0 0 51 20" xmlns="http://www.w3.org/2000/svg"><title>logo-bivee</title><g fill="none" fill-rule="evenodd"><path d="M10.8 4.682L9.526 5.918l-3.08-2.98L9.262.214 10.8 1.702c.85.822.85 2.158 0 2.98zm.736 12.27c0 .563-.226 1.094-.64 1.49l-1.538 1.49c-8.555-8.277-.173-.165-8.72-8.437-.412-.398-.638-.927-.638-1.49 0-.48.147-.964.54-1.354L2.2 7.047c8.587 8.312.15.148 8.697 8.417.413.398.64.926.64 1.49z" fill="#11A9BE"/><path d="M5.33 17.138L2.44 19.933l-1.54-1.49c-.85-.822-.85-2.16 0-2.98L2.25 14.16l3.08 2.98zm6.422-7.09c0 .564-.226 1.092-.64 1.49l-1.538 1.49C1 4.73 9.372 12.83.854 4.59c-.85-.822-.85-2.16 0-2.98L2.394.12c.163.16 8.583 8.305 8.72 8.437.412.4.638.928.638 1.49z" fill="#EF4658"/><path d="M18.34 5.314V15.77h4.08c1.88 0 3.216-1.13 3.216-2.877 0-1.434-.902-2.35-2.066-2.64.726-.36 1.322-1.095 1.322-2.24 0-1.73-1.354-2.7-3.15-2.7h-3.4zm3.646 5.58c1.458 0 2.473.61 2.473 1.945 0 1.32-.994 1.903-2.32 1.903h-2.653v-3.848h2.5zM21.48 6.34c1.314 0 2.257.506 2.257 1.742 0 1.245-.948 1.822-2.107 1.822h-2.143V6.338h1.994zm5.643.465c.437 0 .794-.356.794-.794 0-.44-.357-.795-.794-.795-.438 0-.794.356-.794.794 0 .437.355.793.793.793zm-.564 8.968h1.122V8.42H26.56v7.353zm3.064-7.352h-1.222l2.87 7.353h1.172L35.42 8.42h-1.154l-2.373 6.104-2.27-6.104zm12.22 6.55l-.533-.735c-.63.438-1.38.7-2.178.7-1.53 0-2.53-.953-2.648-2.482h5.9c.014-.103.032-.315.032-.527 0-2.048-1.344-3.654-3.442-3.654-2.025 0-3.63 1.5-3.63 3.88 0 2.435 1.68 3.77 3.734 3.77 1.056 0 2.057-.352 2.765-.952zm-5.338-3.392c.14-1.335 1.12-2.32 2.477-2.32 1.435 0 2.25 1.102 2.31 2.32h-4.787zm13.122 3.392l-.532-.735c-.632.438-1.38.7-2.18.7-1.528 0-2.53-.953-2.647-2.482h5.9c.013-.103.03-.315.03-.527 0-2.048-1.343-3.654-3.44-3.654-2.026 0-3.632 1.5-3.632 3.88 0 2.435 1.682 3.77 3.735 3.77 1.056 0 2.057-.352 2.765-.952zm-5.337-3.392c.14-1.335 1.12-2.32 2.478-2.32 1.435 0 2.25 1.102 2.31 2.32H44.29z" fill="#273750"/></g></svg>